G04 #@! TF.GenerationSoftware,KiCad,Pcbnew,8.0.0*
G04 #@! TF.CreationDate,2024-04-26T12:32:38-04:00*
G04 #@! TF.ProjectId,SurgicalLightBoostConverterModule,53757267-6963-4616-9c4c-69676874426f,rev?*
G04 #@! TF.SameCoordinates,Original*
G04 #@! TF.FileFunction,Copper,L1,Top*
G04 #@! TF.FilePolarity,Positive*
%FSLAX46Y46*%
G04 Gerber Fmt 4.6, Leading zero omitted, Abs format (unit mm)*
G04 Created by KiCad (PCBNEW 8.0.0) date 2024-04-26 12:32:38*
%MOMM*%
%LPD*%
G01*
G04 APERTURE LIST*
G04 Aperture macros list*
%AMRoundRect*
0 Rectangle with rounded corners*
0 $1 Rounding radius*
0 $2 $3 $4 $5 $6 $7 $8 $9 X,Y pos of 4 corners*
0 Add a 4 corners polygon primitive as box body*
4,1,4,$2,$3,$4,$5,$6,$7,$8,$9,$2,$3,0*
0 Add four circle primitives for the rounded corners*
1,1,$1+$1,$2,$3*
1,1,$1+$1,$4,$5*
1,1,$1+$1,$6,$7*
1,1,$1+$1,$8,$9*
0 Add four rect primitives between the rounded corners*
20,1,$1+$1,$2,$3,$4,$5,0*
20,1,$1+$1,$4,$5,$6,$7,0*
20,1,$1+$1,$6,$7,$8,$9,0*
20,1,$1+$1,$8,$9,$2,$3,0*%
G04 Aperture macros list end*
G04 #@! TA.AperFunction,SMDPad,CuDef*
%ADD10RoundRect,0.250000X-0.262500X-0.450000X0.262500X-0.450000X0.262500X0.450000X-0.262500X0.450000X0*%
G04 #@! TD*
G04 #@! TA.AperFunction,ComponentPad*
%ADD11R,1.700000X1.700000*%
G04 #@! TD*
G04 #@! TA.AperFunction,ComponentPad*
%ADD12O,1.700000X1.700000*%
G04 #@! TD*
G04 #@! TA.AperFunction,ComponentPad*
%ADD13R,1.600000X1.600000*%
G04 #@! TD*
G04 #@! TA.AperFunction,ComponentPad*
%ADD14O,1.600000X1.600000*%
G04 #@! TD*
G04 #@! TA.AperFunction,ComponentPad*
%ADD15R,1.050000X1.500000*%
G04 #@! TD*
G04 #@! TA.AperFunction,ComponentPad*
%ADD16O,1.050000X1.500000*%
G04 #@! TD*
G04 #@! TA.AperFunction,ComponentPad*
%ADD17C,3.000000*%
G04 #@! TD*
G04 #@! TA.AperFunction,SMDPad,CuDef*
%ADD18RoundRect,0.250000X-0.450000X0.262500X-0.450000X-0.262500X0.450000X-0.262500X0.450000X0.262500X0*%
G04 #@! TD*
G04 #@! TA.AperFunction,ComponentPad*
%ADD19R,1.905000X2.000000*%
G04 #@! TD*
G04 #@! TA.AperFunction,ComponentPad*
%ADD20O,1.905000X2.000000*%
G04 #@! TD*
G04 #@! TA.AperFunction,SMDPad,CuDef*
%ADD21RoundRect,0.250000X0.262500X0.450000X-0.262500X0.450000X-0.262500X-0.450000X0.262500X-0.450000X0*%
G04 #@! TD*
G04 #@! TA.AperFunction,SMDPad,CuDef*
%ADD22RoundRect,0.250000X0.450000X-0.262500X0.450000X0.262500X-0.450000X0.262500X-0.450000X-0.262500X0*%
G04 #@! TD*
G04 #@! TA.AperFunction,ComponentPad*
%ADD23R,2.400000X2.400000*%
G04 #@! TD*
G04 #@! TA.AperFunction,ComponentPad*
%ADD24C,2.400000*%
G04 #@! TD*
G04 #@! TA.AperFunction,SMDPad,CuDef*
%ADD25RoundRect,0.250000X0.475000X-0.250000X0.475000X0.250000X-0.475000X0.250000X-0.475000X-0.250000X0*%
G04 #@! TD*
G04 #@! TA.AperFunction,SMDPad,CuDef*
%ADD26RoundRect,0.250000X0.250000X0.475000X-0.250000X0.475000X-0.250000X-0.475000X0.250000X-0.475000X0*%
G04 #@! TD*
G04 #@! TA.AperFunction,SMDPad,CuDef*
%ADD27RoundRect,0.250000X-1.425000X0.362500X-1.425000X-0.362500X1.425000X-0.362500X1.425000X0.362500X0*%
G04 #@! TD*
G04 #@! TA.AperFunction,SMDPad,CuDef*
%ADD28RoundRect,0.243750X-0.456250X0.243750X-0.456250X-0.243750X0.456250X-0.243750X0.456250X0.243750X0*%
G04 #@! TD*
G04 #@! TA.AperFunction,ComponentPad*
%ADD29R,1.500000X1.050000*%
G04 #@! TD*
G04 #@! TA.AperFunction,ComponentPad*
%ADD30O,1.500000X1.050000*%
G04 #@! TD*
G04 #@! TA.AperFunction,SMDPad,CuDef*
%ADD31RoundRect,0.250000X-0.250000X-0.475000X0.250000X-0.475000X0.250000X0.475000X-0.250000X0.475000X0*%
G04 #@! TD*
G04 #@! TA.AperFunction,SMDPad,CuDef*
%ADD32RoundRect,0.360000X-0.440000X0.360000X-0.440000X-0.360000X0.440000X-0.360000X0.440000X0.360000X0*%
G04 #@! TD*
G04 #@! TA.AperFunction,SMDPad,CuDef*
%ADD33R,3.800000X4.960000*%
G04 #@! TD*
G04 #@! TA.AperFunction,ComponentPad*
%ADD34C,5.200000*%
G04 #@! TD*
G04 #@! TA.AperFunction,SMDPad,CuDef*
%ADD35RoundRect,0.360000X-0.360000X-0.440000X0.360000X-0.440000X0.360000X0.440000X-0.360000X0.440000X0*%
G04 #@! TD*
G04 #@! TA.AperFunction,SMDPad,CuDef*
%ADD36R,4.960000X3.800000*%
G04 #@! TD*
G04 #@! TA.AperFunction,SMDPad,CuDef*
%ADD37RoundRect,0.250000X-0.475000X0.250000X-0.475000X-0.250000X0.475000X-0.250000X0.475000X0.250000X0*%
G04 #@! TD*
G04 #@! TA.AperFunction,ComponentPad*
%ADD38R,2.000000X2.000000*%
G04 #@! TD*
G04 #@! TA.AperFunction,ComponentPad*
%ADD39C,2.000000*%
G04 #@! TD*
G04 #@! TA.AperFunction,ComponentPad*
%ADD40C,3.600000*%
G04 #@! TD*
G04 #@! TA.AperFunction,ConnectorPad*
%ADD41C,6.400000*%
G04 #@! TD*
G04 #@! TA.AperFunction,SMDPad,CuDef*
%ADD42RoundRect,0.243750X0.243750X0.456250X-0.243750X0.456250X-0.243750X-0.456250X0.243750X-0.456250X0*%
G04 #@! TD*
G04 #@! TA.AperFunction,ComponentPad*
%ADD43RoundRect,0.750000X0.750000X-0.750000X0.750000X0.750000X-0.750000X0.750000X-0.750000X-0.750000X0*%
G04 #@! TD*
G04 #@! TA.AperFunction,ViaPad*
%ADD44C,0.600000*%
G04 #@! TD*
G04 #@! TA.AperFunction,ViaPad*
%ADD45C,1.500000*%
G04 #@! TD*
G04 #@! TA.AperFunction,Conductor*
%ADD46C,0.177800*%
G04 #@! TD*
G04 #@! TA.AperFunction,Conductor*
%ADD47C,0.153000*%
G04 #@! TD*
G04 #@! TA.AperFunction,Conductor*
%ADD48C,0.200000*%
G04 #@! TD*
G04 #@! TA.AperFunction,Conductor*
%ADD49C,0.500000*%
G04 #@! TD*
G04 #@! TA.AperFunction,Conductor*
%ADD50C,0.345000*%
G04 #@! TD*
G04 APERTURE END LIST*
D10*
X87000000Y-80000000D03*
X88825000Y-80000000D03*
X72087500Y-71000000D03*
X73912500Y-71000000D03*
D11*
X107230000Y-67500000D03*
D12*
X109770000Y-67500000D03*
D10*
X80175000Y-77500000D03*
X82000000Y-77500000D03*
D13*
X100735000Y-75500000D03*
D14*
X100735000Y-78040000D03*
X100735000Y-80580000D03*
X100735000Y-83120000D03*
X100735000Y-85660000D03*
X100735000Y-88200000D03*
X100735000Y-90740000D03*
X100735000Y-93280000D03*
X108355000Y-93280000D03*
X108355000Y-90740000D03*
X108355000Y-88200000D03*
X108355000Y-85660000D03*
X108355000Y-83120000D03*
X108355000Y-80580000D03*
X108355000Y-78040000D03*
X108355000Y-75500000D03*
D15*
X91000000Y-50500000D03*
D16*
X89730000Y-50500000D03*
X88460000Y-50500000D03*
D17*
X76000000Y-74000000D03*
D18*
X122500000Y-76500000D03*
X122500000Y-78325000D03*
D19*
X128420000Y-39000000D03*
D20*
X130960000Y-39000000D03*
X133500000Y-39000000D03*
D21*
X130500000Y-85500000D03*
X128675000Y-85500000D03*
D22*
X88500000Y-45000000D03*
X88500000Y-43175000D03*
D21*
X65000000Y-68500000D03*
X63175000Y-68500000D03*
D23*
X37000000Y-71500000D03*
D24*
X42000000Y-71500000D03*
D17*
X138500000Y-66500000D03*
D25*
X112825000Y-84950000D03*
X112825000Y-83050000D03*
D10*
X119000000Y-81500000D03*
X120825000Y-81500000D03*
D26*
X94825000Y-90500000D03*
X92925000Y-90500000D03*
D15*
X131040000Y-58500000D03*
D16*
X129770000Y-58500000D03*
X128500000Y-58500000D03*
D27*
X118962500Y-85537500D03*
X118962500Y-91462500D03*
D28*
X146000000Y-38000000D03*
X146000000Y-39875000D03*
D29*
X77000000Y-84000000D03*
D30*
X77000000Y-85270000D03*
X77000000Y-86540000D03*
D22*
X108460000Y-45000000D03*
X108460000Y-43175000D03*
D25*
X115325000Y-84950000D03*
X115325000Y-83050000D03*
D21*
X25390000Y-33087500D03*
X23565000Y-33087500D03*
D31*
X52100000Y-61000000D03*
X54000000Y-61000000D03*
D17*
X138750000Y-99250000D03*
D22*
X146000000Y-44287500D03*
X146000000Y-42462500D03*
D32*
X105840000Y-29830000D03*
X107970000Y-29830000D03*
D33*
X106905000Y-26030000D03*
D34*
X35350000Y-41000000D03*
X64650000Y-41000000D03*
D35*
X73980000Y-95015000D03*
X73980000Y-92885000D03*
D36*
X70180000Y-93950000D03*
D17*
X30500000Y-23500000D03*
D18*
X84000000Y-86500000D03*
X84000000Y-88325000D03*
D15*
X91040000Y-58500000D03*
D16*
X89770000Y-58500000D03*
X88500000Y-58500000D03*
D13*
X61880000Y-77960000D03*
D14*
X61880000Y-80500000D03*
X61880000Y-83040000D03*
X61880000Y-85580000D03*
X69500000Y-85580000D03*
X69500000Y-83040000D03*
X69500000Y-80500000D03*
X69500000Y-77960000D03*
D31*
X38500000Y-61000000D03*
X40400000Y-61000000D03*
D15*
X110960000Y-50500000D03*
D16*
X109690000Y-50500000D03*
X108420000Y-50500000D03*
D32*
X99290000Y-29830000D03*
X101420000Y-29830000D03*
D33*
X100355000Y-26030000D03*
D10*
X87000000Y-77500000D03*
X88825000Y-77500000D03*
D37*
X155180000Y-78600000D03*
X155180000Y-80500000D03*
D11*
X94460000Y-86000000D03*
D12*
X97000000Y-86000000D03*
D22*
X135000000Y-81912500D03*
X135000000Y-80087500D03*
D11*
X114500000Y-78000000D03*
D12*
X111960000Y-78000000D03*
D17*
X85000000Y-98000000D03*
X79500000Y-98000000D03*
D11*
X94460000Y-78000000D03*
D12*
X97000000Y-78000000D03*
D17*
X69000000Y-57500000D03*
D22*
X119000000Y-78325000D03*
X119000000Y-76500000D03*
D17*
X90000000Y-98000000D03*
D22*
X128460000Y-44912500D03*
X128460000Y-43087500D03*
D38*
X75000000Y-40923959D03*
D39*
X80000000Y-40923959D03*
D15*
X131000000Y-50500000D03*
D16*
X129730000Y-50500000D03*
X128460000Y-50500000D03*
D11*
X128500000Y-71525000D03*
D12*
X128500000Y-68985000D03*
X128500000Y-66445000D03*
D21*
X76000000Y-80000000D03*
X74175000Y-80000000D03*
D17*
X69500000Y-24500000D03*
D11*
X86000000Y-66500000D03*
D12*
X88540000Y-66500000D03*
X91080000Y-66500000D03*
D11*
X114540000Y-73500000D03*
D12*
X112000000Y-73500000D03*
D11*
X59975000Y-61500000D03*
D12*
X62515000Y-61500000D03*
X65055000Y-61500000D03*
D40*
X25000000Y-105000000D03*
D41*
X25000000Y-105000000D03*
D42*
X125937500Y-81500000D03*
X124062500Y-81500000D03*
D19*
X88420000Y-38500000D03*
D20*
X90960000Y-38500000D03*
X93500000Y-38500000D03*
D17*
X31000000Y-58000000D03*
D31*
X45600000Y-61000000D03*
X47500000Y-61000000D03*
D42*
X65000000Y-71350000D03*
X63125000Y-71350000D03*
D11*
X94460000Y-82000000D03*
D12*
X97000000Y-82000000D03*
D17*
X25500000Y-47500000D03*
D10*
X79087500Y-66412500D03*
X80912500Y-66412500D03*
D11*
X94460000Y-74000000D03*
D12*
X97000000Y-74000000D03*
D37*
X70050000Y-29550000D03*
X70050000Y-31450000D03*
D21*
X73912500Y-68500000D03*
X72087500Y-68500000D03*
D43*
X152500000Y-66100000D03*
X152500000Y-58500000D03*
D17*
X152500000Y-39000000D03*
X152500000Y-31400000D03*
D15*
X111040000Y-58500000D03*
D16*
X109770000Y-58500000D03*
X108500000Y-58500000D03*
D40*
X155000000Y-25000000D03*
D41*
X155000000Y-25000000D03*
D32*
X92935000Y-29780000D03*
X95065000Y-29780000D03*
D33*
X94000000Y-25980000D03*
D27*
X145000000Y-60500000D03*
X145000000Y-66425000D03*
D31*
X73100000Y-34000000D03*
X75000000Y-34000000D03*
D37*
X152680000Y-78600000D03*
X152680000Y-80500000D03*
D38*
X74500000Y-26923959D03*
D39*
X79500000Y-26923959D03*
D10*
X139175000Y-71500000D03*
X141000000Y-71500000D03*
D40*
X25000000Y-25000000D03*
D41*
X25000000Y-25000000D03*
D17*
X138500000Y-60000000D03*
D31*
X89425000Y-83500000D03*
X91325000Y-83500000D03*
D13*
X139380000Y-77920000D03*
D14*
X139380000Y-80460000D03*
X139380000Y-83000000D03*
X139380000Y-85540000D03*
X147000000Y-85540000D03*
X147000000Y-83000000D03*
X147000000Y-80460000D03*
X147000000Y-77920000D03*
D40*
X155000000Y-105000000D03*
D41*
X155000000Y-105000000D03*
D18*
X131500000Y-80000000D03*
X131500000Y-81825000D03*
D23*
X51000000Y-71500000D03*
D24*
X56000000Y-71500000D03*
D19*
X108420000Y-39000000D03*
D20*
X110960000Y-39000000D03*
X113500000Y-39000000D03*
D21*
X82000000Y-80000000D03*
X80175000Y-80000000D03*
D10*
X85175000Y-83500000D03*
X87000000Y-83500000D03*
D37*
X70000000Y-37100000D03*
X70000000Y-39000000D03*
D17*
X146500000Y-25000000D03*
X118500000Y-95500000D03*
D32*
X112385000Y-29830000D03*
X114515000Y-29830000D03*
D33*
X113450000Y-26030000D03*
D17*
X138500000Y-92500000D03*
D21*
X94825000Y-93000000D03*
X93000000Y-93000000D03*
D42*
X25437500Y-36500000D03*
X23562500Y-36500000D03*
D11*
X90000000Y-103710000D03*
D12*
X90000000Y-106250000D03*
X92540000Y-103710000D03*
X92540000Y-106250000D03*
X95080000Y-103710000D03*
X95080000Y-106250000D03*
X97620000Y-103710000D03*
X97620000Y-106250000D03*
X100160000Y-103710000D03*
X100160000Y-106250000D03*
X102700000Y-103710000D03*
X102700000Y-106250000D03*
X105240000Y-103710000D03*
X105240000Y-106250000D03*
D44*
X125937500Y-83437500D03*
X93000000Y-95400000D03*
X77000000Y-34000000D03*
X56000000Y-61000000D03*
X80175000Y-81825000D03*
X70000000Y-33500000D03*
X136412500Y-81912500D03*
X49500000Y-61000000D03*
X84000000Y-90000000D03*
X25565000Y-39087500D03*
X70000000Y-41000000D03*
X42323959Y-61000000D03*
X146000000Y-35462500D03*
X77500000Y-70000000D03*
D45*
X149000000Y-75000000D03*
D44*
X131500000Y-63000000D03*
X128675000Y-79825000D03*
X81500000Y-74000000D03*
X106500000Y-75000000D03*
X105000000Y-97500000D03*
X87000000Y-85500000D03*
X66500000Y-64500000D03*
D46*
X73912500Y-71000000D02*
X76500000Y-71000000D01*
X54000000Y-61000000D02*
X54500000Y-61000000D01*
X114945000Y-83120000D02*
X115325000Y-83500000D01*
X76500000Y-71000000D02*
X77500000Y-70000000D01*
X25437500Y-36500000D02*
X25437500Y-38960000D01*
X70000000Y-39000000D02*
X70000000Y-41000000D01*
X122762500Y-78325000D02*
X125937500Y-81500000D01*
X136412500Y-81912500D02*
X135000000Y-81912500D01*
X122500000Y-78325000D02*
X122762500Y-78325000D01*
X80175000Y-81825000D02*
X80175000Y-80000000D01*
X147000000Y-80460000D02*
X155140000Y-80460000D01*
X125937500Y-83437500D02*
X125937500Y-81500000D01*
X47500000Y-61000000D02*
X49500000Y-61000000D01*
X93000000Y-95400000D02*
X93000000Y-93000000D01*
X40400000Y-61000000D02*
X42323959Y-61000000D01*
X54500000Y-61000000D02*
X56000000Y-61000000D01*
X84000000Y-88325000D02*
X84000000Y-90000000D01*
X108355000Y-83120000D02*
X114945000Y-83120000D01*
X70050000Y-31450000D02*
X70050000Y-33450000D01*
X146000000Y-38000000D02*
X146000000Y-35462500D01*
X25437500Y-38960000D02*
X25565000Y-39087500D01*
X155140000Y-80460000D02*
X155180000Y-80500000D01*
X70050000Y-33450000D02*
X70000000Y-33500000D01*
X75000000Y-34000000D02*
X77000000Y-34000000D01*
D47*
X112445000Y-83120000D02*
X112825000Y-83500000D01*
D46*
X93000000Y-93000000D02*
X93000000Y-90575000D01*
X95895000Y-90500000D02*
X100735000Y-85660000D01*
X94825000Y-90500000D02*
X95895000Y-90500000D01*
X23565000Y-33087500D02*
X23565000Y-36497500D01*
X23565000Y-36497500D02*
X23562500Y-36500000D01*
X146000000Y-39875000D02*
X146000000Y-42462500D01*
X120825000Y-81500000D02*
X124062500Y-81500000D01*
D48*
X141000000Y-62500000D02*
X138500000Y-60000000D01*
X145000000Y-61500000D02*
X144000000Y-62500000D01*
X145000000Y-60500000D02*
X145000000Y-61500000D01*
X72412500Y-67000000D02*
X67000000Y-67000000D01*
X65000000Y-68500000D02*
X65000000Y-61945000D01*
X65500000Y-61945000D02*
X65055000Y-61500000D01*
X134500000Y-60000000D02*
X131500000Y-63000000D01*
X73912500Y-68500000D02*
X72412500Y-67000000D01*
X65500000Y-68500000D02*
X65000000Y-68500000D01*
X67000000Y-67000000D02*
X65500000Y-68500000D01*
X144000000Y-62500000D02*
X141000000Y-62500000D01*
X128675000Y-79825000D02*
X128675000Y-85500000D01*
X138500000Y-60000000D02*
X134500000Y-60000000D01*
D46*
X87000000Y-83500000D02*
X89425000Y-83500000D01*
D49*
X128460000Y-50500000D02*
X128460000Y-50960000D01*
X128460000Y-44912500D02*
X128460000Y-50500000D01*
X128500000Y-51000000D02*
X128500000Y-58500000D01*
X128460000Y-50960000D02*
X128500000Y-51000000D01*
D46*
X99880000Y-83120000D02*
X100735000Y-83120000D01*
X97000000Y-86000000D02*
X99880000Y-83120000D01*
X77000000Y-84000000D02*
X77000000Y-83500000D01*
X80175000Y-77500000D02*
X78500000Y-77500000D01*
X108355000Y-80580000D02*
X108420000Y-80580000D01*
X109275000Y-81500000D02*
X108355000Y-80580000D01*
X106500000Y-79131600D02*
X107948400Y-80580000D01*
X119000000Y-81500000D02*
X109275000Y-81500000D01*
X76000000Y-82500000D02*
X76000000Y-80000000D01*
X81500000Y-74000000D02*
X80175000Y-75325000D01*
X77000000Y-83500000D02*
X76000000Y-82500000D01*
X119000000Y-78325000D02*
X119000000Y-81500000D01*
X78500000Y-77500000D02*
X76000000Y-80000000D01*
X106500000Y-75000000D02*
X106500000Y-79131600D01*
X76000000Y-74000000D02*
X76000000Y-80000000D01*
X80175000Y-75325000D02*
X80175000Y-77500000D01*
X107948400Y-80580000D02*
X108355000Y-80580000D01*
X108420000Y-80580000D02*
X108500000Y-80500000D01*
X72087500Y-71412500D02*
X69500000Y-74000000D01*
X72087500Y-71000000D02*
X72087500Y-71412500D01*
X69500000Y-74000000D02*
X69500000Y-77960000D01*
X72087500Y-68500000D02*
X72087500Y-71000000D01*
D48*
X97540000Y-78040000D02*
X100735000Y-78040000D01*
X97000000Y-78000000D02*
X97500000Y-78000000D01*
X97500000Y-78000000D02*
X97540000Y-78040000D01*
X98500000Y-75500000D02*
X100735000Y-75500000D01*
X97000000Y-74000000D02*
X98500000Y-75500000D01*
D46*
X98420000Y-80580000D02*
X97000000Y-82000000D01*
X100735000Y-80580000D02*
X98420000Y-80580000D01*
X100655000Y-80500000D02*
X100735000Y-80580000D01*
X95935000Y-93000000D02*
X94825000Y-93000000D01*
X100735000Y-88200000D02*
X95935000Y-93000000D01*
X131500000Y-81825000D02*
X132675000Y-83000000D01*
X132675000Y-83000000D02*
X139380000Y-83000000D01*
X139380000Y-83000000D02*
X133000000Y-83000000D01*
X133000000Y-83000000D02*
X130500000Y-85500000D01*
D48*
X111960000Y-78000000D02*
X108395000Y-78000000D01*
X108395000Y-78000000D02*
X108355000Y-78040000D01*
D46*
X141000000Y-71500000D02*
X141000000Y-78840000D01*
X141000000Y-78840000D02*
X139380000Y-80460000D01*
X139007500Y-80087500D02*
X139380000Y-80460000D01*
X135000000Y-80087500D02*
X139007500Y-80087500D01*
D48*
X112000000Y-73500000D02*
X110000000Y-75500000D01*
X110000000Y-75500000D02*
X108355000Y-75500000D01*
X105000000Y-97500000D02*
X105000000Y-101410000D01*
X105000000Y-101410000D02*
X102700000Y-103710000D01*
D46*
X63675000Y-71300000D02*
X63625000Y-71350000D01*
X63175000Y-68500000D02*
X63175000Y-71300000D01*
X61880000Y-77960000D02*
X59540000Y-77960000D01*
X59000000Y-89000000D02*
X63950000Y-93950000D01*
X65000000Y-71350000D02*
X65000000Y-74840000D01*
X59540000Y-77960000D02*
X59000000Y-78500000D01*
X63950000Y-93950000D02*
X70180000Y-93950000D01*
X65000000Y-74840000D02*
X61880000Y-77960000D01*
X59000000Y-78500000D02*
X59000000Y-89000000D01*
X76461600Y-85270000D02*
X77000000Y-85270000D01*
X73980000Y-95015000D02*
X73980000Y-87812200D01*
X74175000Y-82983400D02*
X76461600Y-85270000D01*
X73980000Y-87812200D02*
X76522200Y-85270000D01*
X74175000Y-80000000D02*
X74175000Y-82983400D01*
X76522200Y-85270000D02*
X77000000Y-85270000D01*
D48*
X138500000Y-66500000D02*
X138500000Y-70825000D01*
X138500000Y-66500000D02*
X138500000Y-67000000D01*
X145000000Y-65500000D02*
X144500000Y-65000000D01*
X145000000Y-66425000D02*
X145000000Y-65500000D01*
X138500000Y-67000000D02*
X138000000Y-67500000D01*
X140000000Y-65000000D02*
X138500000Y-66500000D01*
X144500000Y-65000000D02*
X140000000Y-65000000D01*
X138500000Y-70825000D02*
X139175000Y-71500000D01*
D49*
X111200000Y-88200000D02*
X118500000Y-95500000D01*
X108200000Y-88200000D02*
X102320001Y-94079999D01*
X107230000Y-67500000D02*
X106500000Y-67500000D01*
X104500000Y-69500000D02*
X104500000Y-84345000D01*
X108355000Y-88200000D02*
X111200000Y-88200000D01*
X106500000Y-67500000D02*
X104500000Y-69500000D01*
X114462500Y-91462500D02*
X111200000Y-88200000D01*
X108355000Y-88200000D02*
X108200000Y-88200000D01*
X118962500Y-91462500D02*
X114462500Y-91462500D01*
X104500000Y-84345000D02*
X108355000Y-88200000D01*
X102320001Y-94079999D02*
X101534999Y-94079999D01*
X101534999Y-94079999D02*
X100735000Y-93280000D01*
D46*
X88540000Y-68080000D02*
X94460000Y-74000000D01*
X88540000Y-66500000D02*
X88540000Y-68080000D01*
D49*
X88500000Y-45000000D02*
X88500000Y-50460000D01*
X88460000Y-50500000D02*
X88460000Y-58460000D01*
X88460000Y-58460000D02*
X88500000Y-58500000D01*
X88500000Y-50460000D02*
X88460000Y-50500000D01*
X108420000Y-58420000D02*
X108500000Y-58500000D01*
X108420000Y-50500000D02*
X108420000Y-58420000D01*
X108460000Y-50460000D02*
X108420000Y-50500000D01*
X108460000Y-45000000D02*
X108460000Y-50460000D01*
X88420000Y-38500000D02*
X88420000Y-43095000D01*
X88420000Y-43095000D02*
X88500000Y-43175000D01*
X108460000Y-39040000D02*
X108420000Y-39000000D01*
X108460000Y-43175000D02*
X108460000Y-39040000D01*
X128460000Y-39040000D02*
X128420000Y-39000000D01*
X128460000Y-43087500D02*
X128460000Y-39040000D01*
D46*
X87000000Y-80000000D02*
X85175000Y-81825000D01*
X85175000Y-83500000D02*
X85175000Y-83675000D01*
X88825000Y-78175000D02*
X87000000Y-80000000D01*
X91500000Y-77500000D02*
X92000000Y-78000000D01*
X85175000Y-81825000D02*
X85175000Y-83500000D01*
X88825000Y-77500000D02*
X91500000Y-77500000D01*
X92000000Y-78000000D02*
X94460000Y-78000000D01*
X88825000Y-77500000D02*
X88825000Y-78175000D01*
X85175000Y-83675000D02*
X87000000Y-85500000D01*
D50*
X129730000Y-50500000D02*
X129730000Y-51000000D01*
D49*
X90177800Y-59677800D02*
X89770000Y-59270000D01*
X129770000Y-59300000D02*
X129770000Y-58500000D01*
X109690000Y-58420000D02*
X109770000Y-58500000D01*
X89730000Y-50500000D02*
X89730000Y-58460000D01*
X109690000Y-50500000D02*
X109690000Y-58420000D01*
X109770000Y-58500000D02*
X109770000Y-67500000D01*
D50*
X129730000Y-51000000D02*
X129770000Y-51040000D01*
D49*
X101947800Y-59677800D02*
X90177800Y-59677800D01*
D50*
X129770000Y-51040000D02*
X129770000Y-58500000D01*
D49*
X109770000Y-67500000D02*
X101947800Y-59677800D01*
X109770000Y-67500000D02*
X121570000Y-67500000D01*
X89730000Y-58460000D02*
X89770000Y-58500000D01*
X121570000Y-67500000D02*
X129770000Y-59300000D01*
D50*
X129730000Y-51145000D02*
X129730000Y-50500000D01*
D49*
X89770000Y-59270000D02*
X89770000Y-58500000D01*
D46*
X92825000Y-82000000D02*
X94460000Y-82000000D01*
X91325000Y-83500000D02*
X92825000Y-82000000D01*
X88825000Y-80000000D02*
X92460000Y-80000000D01*
X92460000Y-80000000D02*
X94460000Y-82000000D01*
X77000000Y-86540000D02*
X83960000Y-86540000D01*
X89500000Y-86000000D02*
X89000000Y-86500000D01*
X94460000Y-86000000D02*
X89500000Y-86000000D01*
X83960000Y-86540000D02*
X84000000Y-86500000D01*
X89000000Y-86500000D02*
X84000000Y-86500000D01*
X122500000Y-76500000D02*
X125000000Y-76500000D01*
X127500000Y-79000000D02*
X127500000Y-88000000D01*
X119000000Y-76500000D02*
X122500000Y-76500000D01*
X117500000Y-78000000D02*
X119000000Y-76500000D01*
X114500000Y-78000000D02*
X117500000Y-78000000D01*
X125000000Y-76500000D02*
X127500000Y-79000000D01*
X127500000Y-88000000D02*
X138750000Y-99250000D01*
X85912500Y-66412500D02*
X86000000Y-66500000D01*
X80912500Y-66412500D02*
X85912500Y-66412500D01*
X87000000Y-77500000D02*
X82000000Y-77500000D01*
X82000000Y-80000000D02*
X82000000Y-77500000D01*
X139380000Y-77920000D02*
X133580000Y-77920000D01*
X128500000Y-77000000D02*
X131500000Y-80000000D01*
X133580000Y-77920000D02*
X131500000Y-80000000D01*
X128500000Y-71525000D02*
X128500000Y-77000000D01*
X74500000Y-64500000D02*
X74000000Y-64500000D01*
X76412500Y-66412500D02*
X74500000Y-64500000D01*
X79087500Y-66412500D02*
X76412500Y-66412500D01*
X74000000Y-64500000D02*
X66500000Y-64500000D01*
X124515000Y-68985000D02*
X128500000Y-68985000D01*
X124000000Y-69000000D02*
X124500000Y-69000000D01*
X124500000Y-69000000D02*
X124515000Y-68985000D01*
X114540000Y-73500000D02*
X119500000Y-73500000D01*
X119500000Y-73500000D02*
X124000000Y-69000000D01*
G04 #@! TA.AperFunction,Conductor*
G36*
X155002702Y-20200617D02*
G01*
X155412917Y-20218528D01*
X155423654Y-20219468D01*
X155828057Y-20272708D01*
X155838695Y-20274583D01*
X156236925Y-20362869D01*
X156247365Y-20365667D01*
X156636363Y-20488317D01*
X156646524Y-20492015D01*
X157023363Y-20648108D01*
X157033155Y-20652674D01*
X157394965Y-20841020D01*
X157404305Y-20846413D01*
X157689636Y-21028189D01*
X157748309Y-21065568D01*
X157757170Y-21071772D01*
X158080766Y-21320076D01*
X158089053Y-21327030D01*
X158389767Y-21602583D01*
X158397416Y-21610232D01*
X158672969Y-21910946D01*
X158679923Y-21919233D01*
X158928227Y-22242829D01*
X158934431Y-22251690D01*
X159153578Y-22595680D01*
X159158987Y-22605048D01*
X159347322Y-22966838D01*
X159351894Y-22976642D01*
X159507983Y-23353473D01*
X159511683Y-23363639D01*
X159634331Y-23752630D01*
X159637131Y-23763078D01*
X159725414Y-24161296D01*
X159727292Y-24171950D01*
X159780529Y-24576326D01*
X159781472Y-24587102D01*
X159799382Y-24997297D01*
X159799500Y-25002706D01*
X159799500Y-40862500D01*
X159779815Y-40929539D01*
X159727011Y-40975294D01*
X159675500Y-40986500D01*
X147122024Y-40986500D01*
X147103756Y-40986825D01*
X147098147Y-40987025D01*
X147094866Y-40987143D01*
X147078851Y-40988001D01*
X147076563Y-40988124D01*
X146933752Y-41019191D01*
X146868283Y-41043610D01*
X146868275Y-41043613D01*
X146780825Y-41091364D01*
X146712552Y-41106215D01*
X146647088Y-41081797D01*
X146605218Y-41025863D01*
X146597400Y-40982531D01*
X146597400Y-40953992D01*
X146617085Y-40886953D01*
X146669889Y-40841198D01*
X146682385Y-40836290D01*
X146776329Y-40805161D01*
X146925998Y-40712844D01*
X147050344Y-40588498D01*
X147142661Y-40438829D01*
X147197974Y-40271904D01*
X147208500Y-40168875D01*
X147208499Y-39581126D01*
X147197974Y-39478096D01*
X147142661Y-39311171D01*
X147050344Y-39161502D01*
X146925998Y-39037156D01*
X146925994Y-39037153D01*
X146922977Y-39034768D01*
X146921441Y-39032599D01*
X146920891Y-39032049D01*
X146920985Y-39031954D01*
X146882599Y-38977746D01*
X146879459Y-38907947D01*
X146914554Y-38847531D01*
X146922977Y-38840232D01*
X146925988Y-38837849D01*
X146925998Y-38837844D01*
X147050344Y-38713498D01*
X147142661Y-38563829D01*
X147197974Y-38396904D01*
X147208500Y-38293875D01*
X147208499Y-37706126D01*
X147197974Y-37603096D01*
X147142661Y-37436171D01*
X147050344Y-37286502D01*
X146925998Y-37162156D01*
X146776329Y-37069839D01*
X146682395Y-37038712D01*
X146624951Y-36998940D01*
X146598128Y-36934424D01*
X146597400Y-36921007D01*
X146597400Y-36059854D01*
X146617085Y-35992815D01*
X146633719Y-35972173D01*
X146636111Y-35969781D01*
X146733043Y-35815515D01*
X146793217Y-35643547D01*
X146813616Y-35462500D01*
X146793217Y-35281453D01*
X146733043Y-35109485D01*
X146636111Y-34955219D01*
X146507281Y-34826389D01*
X146353015Y-34729457D01*
X146298693Y-34710449D01*
X146181046Y-34669282D01*
X146181041Y-34669281D01*
X146000004Y-34648884D01*
X145999996Y-34648884D01*
X145818958Y-34669281D01*
X145818953Y-34669282D01*
X145646982Y-34729458D01*
X145492718Y-34826389D01*
X145363889Y-34955218D01*
X145266958Y-35109482D01*
X145206782Y-35281453D01*
X145206781Y-35281458D01*
X145186384Y-35462496D01*
X145186384Y-35462503D01*
X145206781Y-35643541D01*
X145206782Y-35643546D01*
X145266958Y-35815517D01*
X145363889Y-35969781D01*
X145366281Y-35972173D01*
X145367332Y-35974098D01*
X145368230Y-35975224D01*
X145368032Y-35975381D01*
X145399766Y-36033496D01*
X145402600Y-36059854D01*
X145402600Y-36921007D01*
X145382915Y-36988046D01*
X145330111Y-37033801D01*
X145317604Y-37038713D01*
X145223673Y-37069838D01*
X145223668Y-37069840D01*
X145074000Y-37162157D01*
X144949657Y-37286500D01*
X144857340Y-37436168D01*
X144857337Y-37436175D01*
X144802025Y-37603097D01*
X144791500Y-37706117D01*
X144791500Y-38293867D01*
X144791501Y-38293883D01*
X144802026Y-38396905D01*
X144857338Y-38563826D01*
X144857340Y-38563831D01*
X144949657Y-38713499D01*
X145074002Y-38837844D01*
X145077028Y-38840237D01*
X145078563Y-38842405D01*
X145079109Y-38842951D01*
X145079015Y-38843044D01*
X145117402Y-38897260D01*
X145120538Y-38967059D01*
X145085440Y-39027474D01*
X145077028Y-39034763D01*
X145074002Y-39037155D01*
X144949657Y-39161500D01*
X144857340Y-39311168D01*
X144857337Y-39311175D01*
X144802025Y-39478097D01*
X144791500Y-39581117D01*
X144791500Y-40168867D01*
X144791501Y-40168883D01*
X144802026Y-40271902D01*
X144802026Y-40271904D01*
X144857339Y-40438829D01*
X144949656Y-40588498D01*
X145074002Y-40712844D01*
X145223671Y-40805161D01*
X145317604Y-40836287D01*
X145375048Y-40876058D01*
X145401872Y-40940573D01*
X145402600Y-40953992D01*
X145402600Y-40976950D01*
X145382915Y-41043989D01*
X145330111Y-41089744D01*
X145260953Y-41099688D01*
X145227088Y-41089744D01*
X145089675Y-41026988D01*
X145089670Y-41026986D01*
X145089669Y-41026986D01*
X145044976Y-41013862D01*
X145022627Y-41007300D01*
X144959583Y-40998236D01*
X144877956Y-40986500D01*
X143624000Y-40986500D01*
X143556961Y-40966815D01*
X143511206Y-40914011D01*
X143500000Y-40862500D01*
X143500000Y-20324500D01*
X143519685Y-20257461D01*
X143572489Y-20211706D01*
X143624000Y-20200500D01*
X154960118Y-20200500D01*
X154997294Y-20200500D01*
X155002702Y-20200617D01*
G37*
G04 #@! TD.AperFunction*
G04 #@! TA.AperFunction,Conductor*
G36*
X144944995Y-41519685D02*
G01*
X144990750Y-41572489D01*
X145000694Y-41641647D01*
X144971669Y-41705203D01*
X144965637Y-41711681D01*
X144950971Y-41726346D01*
X144857886Y-41877259D01*
X144857884Y-41877264D01*
X144802113Y-42045572D01*
X144791500Y-42149447D01*
X144791500Y-42775537D01*
X144791501Y-42775553D01*
X144802113Y-42879426D01*
X144857885Y-43047738D01*
X144950970Y-43198652D01*
X145076348Y-43324030D01*
X145227262Y-43417115D01*
X145395574Y-43472887D01*
X145499455Y-43483500D01*
X146500544Y-43483499D01*
X146604426Y-43472887D01*
X146772738Y-43417115D01*
X146923652Y-43324030D01*
X147049030Y-43198652D01*
X147142115Y-43047738D01*
X147197887Y-42879426D01*
X147208500Y-42775545D01*
X147208499Y-42149456D01*
X147197887Y-42045574D01*
X147142115Y-41877262D01*
X147049030Y-41726348D01*
X147034363Y-41711681D01*
X147000878Y-41650358D01*
X147005862Y-41580666D01*
X147047734Y-41524733D01*
X147113198Y-41500316D01*
X147122044Y-41500000D01*
X159675500Y-41500000D01*
X159742539Y-41519685D01*
X159788294Y-41572489D01*
X159799500Y-41624000D01*
X159799500Y-72876000D01*
X159779815Y-72943039D01*
X159727011Y-72988794D01*
X159675500Y-73000000D01*
X143124000Y-73000000D01*
X143056961Y-72980315D01*
X143011206Y-72927511D01*
X143000000Y-72876000D01*
X143000000Y-65624000D01*
X143019685Y-65556961D01*
X143072489Y-65511206D01*
X143124000Y-65500000D01*
X148000000Y-65500000D01*
X148000000Y-50000000D01*
X143624000Y-50000000D01*
X143556961Y-49980315D01*
X143511206Y-49927511D01*
X143500000Y-49876000D01*
X143500000Y-41624000D01*
X143519685Y-41556961D01*
X143572489Y-41511206D01*
X143624000Y-41500000D01*
X144877956Y-41500000D01*
X144944995Y-41519685D01*
G37*
G04 #@! TD.AperFunction*
G04 #@! TA.AperFunction,Conductor*
G36*
X61443039Y-20220185D02*
G01*
X61488794Y-20272989D01*
X61500000Y-20324500D01*
X61500000Y-36407821D01*
X61480315Y-36474860D01*
X61427511Y-36520615D01*
X61415159Y-36525475D01*
X61359179Y-36544106D01*
X61359173Y-36544109D01*
X61236218Y-36623128D01*
X61236211Y-36623134D01*
X61183418Y-36668879D01*
X61183415Y-36668882D01*
X61087705Y-36779335D01*
X61087701Y-36779341D01*
X61026987Y-36912283D01*
X61007300Y-36979328D01*
X61003410Y-37006383D01*
X60986500Y-37124000D01*
X60986500Y-51876000D01*
X60986501Y-51876009D01*
X60998235Y-51985151D01*
X60998237Y-51985163D01*
X61009443Y-52036673D01*
X61044106Y-52140820D01*
X61044109Y-52140826D01*
X61123128Y-52263781D01*
X61123134Y-52263788D01*
X61168879Y-52316581D01*
X61168882Y-52316584D01*
X61279335Y-52412294D01*
X61279341Y-52412298D01*
X61412293Y-52473017D01*
X61416431Y-52474560D01*
X61415950Y-52475849D01*
X61469689Y-52510363D01*
X61498733Y-52573910D01*
X61500000Y-52591593D01*
X61500000Y-60548385D01*
X61480315Y-60615424D01*
X61467231Y-60632366D01*
X61439276Y-60662734D01*
X61316139Y-60851209D01*
X61225703Y-61057385D01*
X61170436Y-61275628D01*
X61170434Y-61275640D01*
X61151844Y-61499994D01*
X61151844Y-61500005D01*
X61170434Y-61724359D01*
X61170436Y-61724371D01*
X61225703Y-61942614D01*
X61316140Y-62148792D01*
X61439276Y-62337265D01*
X61439278Y-62337268D01*
X61467229Y-62367631D01*
X61498151Y-62430282D01*
X61500000Y-62451613D01*
X61500000Y-73000000D01*
X64278600Y-73000000D01*
X64345639Y-73019685D01*
X64391394Y-73072489D01*
X64402600Y-73124000D01*
X64402600Y-74541186D01*
X64382915Y-74608225D01*
X64366281Y-74628867D01*
X62379968Y-76615181D01*
X62318645Y-76648666D01*
X62292287Y-76651500D01*
X61031345Y-76651500D01*
X60970797Y-76658011D01*
X60970795Y-76658011D01*
X60833795Y-76709111D01*
X60716739Y-76796739D01*
X60629111Y-76913795D01*
X60578011Y-77050795D01*
X60578011Y-77050797D01*
X60571500Y-77111345D01*
X60571500Y-77238600D01*
X60551815Y-77305639D01*
X60499011Y-77351394D01*
X60447500Y-77362600D01*
X59618649Y-77362600D01*
X59461350Y-77362600D01*
X59384269Y-77383254D01*
X59309410Y-77403312D01*
X59309409Y-77403313D01*
X59173190Y-77481958D01*
X59173185Y-77481962D01*
X58633188Y-78021961D01*
X58521963Y-78133185D01*
X58521959Y-78133191D01*
X58443313Y-78269408D01*
X58443312Y-78269412D01*
X58402600Y-78421351D01*
X58402600Y-88921351D01*
X58402600Y-89078649D01*
X58436777Y-89206198D01*
X58443313Y-89230591D01*
X58471618Y-89279616D01*
X58521961Y-89366812D01*
X63471961Y-94316812D01*
X63583188Y-94428039D01*
X63657744Y-94471084D01*
X63719408Y-94506686D01*
X63719409Y-94506686D01*
X63719412Y-94506688D01*
X63871351Y-94547400D01*
X67067500Y-94547400D01*
X67134539Y-94567085D01*
X67180294Y-94619889D01*
X67191500Y-94671400D01*
X67191500Y-95898654D01*
X67198011Y-95959202D01*
X67198011Y-95959204D01*
X67240360Y-96072742D01*
X67249111Y-96096204D01*
X67336739Y-96213261D01*
X67453796Y-96300889D01*
X67590799Y-96351989D01*
X67618050Y-96354918D01*
X67651345Y-96358499D01*
X67651362Y-96358500D01*
X72708638Y-96358500D01*
X72708654Y-96358499D01*
X72735692Y-96355591D01*
X72769201Y-96351989D01*
X72906204Y-96300889D01*
X73023261Y-96213261D01*
X73023263Y-96213257D01*
X73030307Y-96207985D01*
X73095771Y-96183568D01*
X73159712Y-96196163D01*
X73318735Y-96275032D01*
X73502061Y-96320624D01*
X73544476Y-96323500D01*
X73544477Y-96323500D01*
X74415523Y-96323500D01*
X74415524Y-96323500D01*
X74457939Y-96320624D01*
X74641265Y-96275032D01*
X74810504Y-96191097D01*
X74957743Y-96072743D01*
X75076097Y-95925504D01*
X75160032Y-95756265D01*
X75205624Y-95572939D01*
X75208500Y-95530524D01*
X75208500Y-94499476D01*
X75205624Y-94457061D01*
X75160032Y-94273735D01*
X75076097Y-94104496D01*
X75014355Y-94027686D01*
X74987697Y-93963103D01*
X75000187Y-93894359D01*
X75014356Y-93872313D01*
X75028046Y-93855282D01*
X75076097Y-93795504D01*
X75160032Y-93626265D01*
X75205624Y-93442939D01*
X75208500Y-93400524D01*
X75208500Y-92369476D01*
X75205624Y-92327061D01*
X75160032Y-92143735D01*
X75076097Y-91974496D01*
X74957743Y-91827257D01*
X74926463Y-91802113D01*
X74810503Y-91708902D01*
X74646305Y-91627467D01*
X74594992Y-91580046D01*
X74577400Y-91516379D01*
X74577400Y-88111012D01*
X74597085Y-88043973D01*
X74613714Y-88023335D01*
X75654203Y-86982846D01*
X75715524Y-86949363D01*
X75785216Y-86954347D01*
X75841149Y-86996219D01*
X75856440Y-87023069D01*
X75859120Y-87029538D01*
X75859127Y-87029552D01*
X75972227Y-87198817D01*
X75972230Y-87198821D01*
X76116178Y-87342769D01*
X76116182Y-87342772D01*
X76285447Y-87455872D01*
X76285460Y-87455879D01*
X76392416Y-87500181D01*
X76473539Y-87533783D01*
X76673204Y-87573499D01*
X76673207Y-87573500D01*
X76673209Y-87573500D01*
X77326793Y-87573500D01*
X77326794Y-87573499D01*
X77526461Y-87533783D01*
X77678881Y-87470649D01*
X77714539Y-87455879D01*
X77714539Y-87455878D01*
X77714546Y-87455876D01*
X77883818Y-87342772D01*
X78027772Y-87198818D01*
X78031988Y-87192507D01*
X78085601Y-87147704D01*
X78135090Y-87137400D01*
X82820852Y-87137400D01*
X82887891Y-87157085D01*
X82926390Y-87196302D01*
X82950969Y-87236151D01*
X83039637Y-87324819D01*
X83073122Y-87386142D01*
X83068138Y-87455834D01*
X83039637Y-87500181D01*
X82950971Y-87588846D01*
X82857886Y-87739759D01*
X82857884Y-87739764D01*
X82802113Y-87908072D01*
X82791500Y-88011947D01*
X82791500Y-88638037D01*
X82791501Y-88638053D01*
X82802113Y-88741927D01*
X82857884Y-88910235D01*
X82857886Y-88910240D01*
X82887653Y-88958500D01*
X82950970Y-89061152D01*
X83076348Y-89186530D01*
X83227262Y-89279615D01*
X83301028Y-89304058D01*
X83358473Y-89343830D01*
X83385297Y-89408346D01*
X83372982Y-89477122D01*
X83367019Y-89487736D01*
X83266958Y-89646982D01*
X83206782Y-89818953D01*
X83206781Y-89818958D01*
X83186384Y-89999996D01*
X83186384Y-90000003D01*
X83206781Y-90181041D01*
X83206782Y-90181046D01*
X83237552Y-90268980D01*
X83266641Y-90352113D01*
X83266958Y-90353017D01*
X83301434Y-90407885D01*
X83363889Y-90507281D01*
X83492719Y-90636111D01*
X83646985Y-90733043D01*
X83818953Y-90793217D01*
X83818958Y-90793218D01*
X83999996Y-90813616D01*
X84000000Y-90813616D01*
X84000004Y-90813616D01*
X84181041Y-90793218D01*
X84181044Y-90793217D01*
X84181047Y-90793217D01*
X84353015Y-90733043D01*
X84507281Y-90636111D01*
X84636111Y-90507281D01*
X84733043Y-90353015D01*
X84793217Y-90181047D01*
X84813616Y-90000000D01*
X84801864Y-89895700D01*
X84793218Y-89818958D01*
X84793217Y-89818953D01*
X84733043Y-89646985D01*
X84636111Y-89492719D01*
X84632980Y-89487736D01*
X84613980Y-89420500D01*
X84634348Y-89353664D01*
X84687615Y-89308450D01*
X84698962Y-89304061D01*
X84772738Y-89279615D01*
X84923652Y-89186530D01*
X85049030Y-89061152D01*
X85142115Y-88910238D01*
X85197887Y-88741926D01*
X85208500Y-88638045D01*
X85208499Y-88011956D01*
X85197887Y-87908074D01*
X85142115Y-87739762D01*
X85049030Y-87588848D01*
X84960363Y-87500181D01*
X84926878Y-87438858D01*
X84931862Y-87369166D01*
X84960363Y-87324819D01*
X84984294Y-87300888D01*
X85049030Y-87236152D01*
X85098281Y-87156302D01*
X85150229Y-87109578D01*
X85203820Y-87097400D01*
X89078646Y-87097400D01*
X89078649Y-87097400D01*
X89230588Y-87056688D01*
X89366812Y-86978039D01*
X89711132Y-86633719D01*
X89772455Y-86600234D01*
X89798813Y-86597400D01*
X92977500Y-86597400D01*
X93044539Y-86617085D01*
X93090294Y-86669889D01*
X93101500Y-86721400D01*
X93101500Y-86898654D01*
X93108011Y-86959202D01*
X93108011Y-86959204D01*
X93146531Y-87062476D01*
X93159111Y-87096204D01*
X93246739Y-87213261D01*
X93363796Y-87300889D01*
X93500799Y-87351989D01*
X93528050Y-87354918D01*
X93561345Y-87358499D01*
X93561362Y-87358500D01*
X95358638Y-87358500D01*
X95358654Y-87358499D01*
X95385692Y-87355591D01*
X95419201Y-87351989D01*
X95556204Y-87300889D01*
X95673261Y-87213261D01*
X95760889Y-87096204D01*
X95806138Y-86974887D01*
X95848009Y-86918956D01*
X95913474Y-86894539D01*
X95981746Y-86909391D01*
X96013545Y-86934236D01*
X96076760Y-87002906D01*
X96254424Y-87141189D01*
X96254425Y-87141189D01*
X96254427Y-87141191D01*
X96360913Y-87198818D01*
X96452426Y-87248342D01*
X96665365Y-87321444D01*
X96887431Y-87358500D01*
X97112569Y-87358500D01*
X97334635Y-87321444D01*
X97547574Y-87248342D01*
X97745576Y-87141189D01*
X97923240Y-87002906D01*
X98029877Y-86887068D01*
X98075715Y-86837276D01*
X98075716Y-86837274D01*
X98075722Y-86837268D01*
X98198860Y-86648791D01*
X98289296Y-86442616D01*
X98344564Y-86224368D01*
X98353818Y-86112694D01*
X98363156Y-86000005D01*
X98363156Y-85999994D01*
X98344565Y-85775640D01*
X98344564Y-85775636D01*
X98344564Y-85775632D01*
X98342653Y-85768087D01*
X98329882Y-85717654D01*
X98306222Y-85624223D01*
X98308846Y-85554405D01*
X98338744Y-85506105D01*
X99716995Y-84127855D01*
X99778318Y-84094370D01*
X99848010Y-84099354D01*
X99885783Y-84123630D01*
X99886550Y-84122716D01*
X99890690Y-84126189D01*
X99890693Y-84126191D01*
X99890700Y-84126198D01*
X100056276Y-84242136D01*
X100078251Y-84257523D01*
X100121345Y-84277618D01*
X100173784Y-84323791D01*
X100192936Y-84390984D01*
X100172720Y-84457865D01*
X100121345Y-84502382D01*
X100078251Y-84522476D01*
X100001315Y-84576348D01*
X99890700Y-84653802D01*
X99890698Y-84653803D01*
X99890695Y-84653806D01*
X99728806Y-84815695D01*
X99728803Y-84815698D01*
X99728802Y-84815700D01*
X99681500Y-84883254D01*
X99597476Y-85003252D01*
X99597475Y-85003254D01*
X99500718Y-85210750D01*
X99500714Y-85210761D01*
X99441457Y-85431910D01*
X99441456Y-85431918D01*
X99421502Y-85659998D01*
X99421502Y-85660001D01*
X99441456Y-85888081D01*
X99441457Y-85888089D01*
X99450789Y-85922915D01*
X99468563Y-85989249D01*
X99469547Y-85992919D01*
X99467884Y-86062769D01*
X99437453Y-86112694D01*
X95908819Y-89641328D01*
X95847496Y-89674813D01*
X95777804Y-89669829D01*
X95721871Y-89627957D01*
X95715607Y-89618755D01*
X95674030Y-89551348D01*
X95548652Y-89425970D01*
X95405259Y-89337524D01*
X95397740Y-89332886D01*
X95397735Y-89332884D01*
X95229427Y-89277113D01*
X95125546Y-89266500D01*
X94524462Y-89266500D01*
X94524446Y-89266501D01*
X94420572Y-89277113D01*
X94252264Y-89332884D01*
X94252259Y-89332886D01*
X94101346Y-89425971D01*
X93975972Y-89551345D01*
X93972265Y-89556034D01*
X93915242Y-89596410D01*
X93845443Y-89599547D01*
X93785028Y-89564450D01*
X93777735Y-89556034D01*
X93774032Y-89551351D01*
X93774030Y-89551348D01*
X93648652Y-89425970D01*
X93505259Y-89337524D01*
X93497740Y-89332886D01*
X93497735Y-89332884D01*
X93329427Y-89277113D01*
X93225546Y-89266500D01*
X92624462Y-89266500D01*
X92624446Y-89266501D01*
X92520572Y-89277113D01*
X92352264Y-89332884D01*
X92352259Y-89332886D01*
X92201346Y-89425971D01*
X92075971Y-89551346D01*
X91982886Y-89702259D01*
X91982884Y-89702264D01*
X91927113Y-89870572D01*
X91916500Y-89974447D01*
X91916500Y-91025537D01*
X91916501Y-91025553D01*
X91927113Y-91129427D01*
X91975000Y-91273942D01*
X91982885Y-91297738D01*
X92075970Y-91448652D01*
X92201348Y-91574030D01*
X92343699Y-91661833D01*
X92390421Y-91713779D01*
X92402600Y-91767370D01*
X92402600Y-91796179D01*
X92382915Y-91863218D01*
X92343698Y-91901717D01*
X92263848Y-91950969D01*
X92138471Y-92076346D01*
X92045386Y-92227259D01*
X92045384Y-92227264D01*
X91989613Y-92395572D01*
X91979000Y-92499447D01*
X91979000Y-93500537D01*
X91979001Y-93500553D01*
X91989613Y-93604427D01*
X92045384Y-93772735D01*
X92045386Y-93772740D01*
X92059427Y-93795504D01*
X92138470Y-93923652D01*
X92263848Y-94049030D01*
X92343697Y-94098281D01*
X92390422Y-94150229D01*
X92402600Y-94203820D01*
X92402600Y-94802646D01*
X92382915Y-94869685D01*
X92366281Y-94890327D01*
X92363889Y-94892718D01*
X92266958Y-95046982D01*
X92206782Y-95218953D01*
X92206781Y-95218958D01*
X92186384Y-95399996D01*
X92186384Y-95400003D01*
X92206781Y-95581041D01*
X92206782Y-95581046D01*
X92266958Y-95753017D01*
X92280224Y-95774130D01*
X92363889Y-95907281D01*
X92492719Y-96036111D01*
X92646985Y-96133043D01*
X92791378Y-96183568D01*
X92818953Y-96193217D01*
X92818958Y-96193218D01*
X92999996Y-96213616D01*
X93000000Y-96213616D01*
X93000004Y-96213616D01*
X93181041Y-96193218D01*
X93181044Y-96193217D01*
X93181047Y-96193217D01*
X93353015Y-96133043D01*
X93507281Y-96036111D01*
X93636111Y-95907281D01*
X93733043Y-95753015D01*
X93793217Y-95581047D01*
X93793218Y-95581041D01*
X93813616Y-95400003D01*
X93813616Y-95399996D01*
X93793218Y-95218958D01*
X93793217Y-95218953D01*
X93733043Y-95046985D01*
X93636111Y-94892719D01*
X93633719Y-94890327D01*
X93632667Y-94888401D01*
X93631770Y-94887276D01*
X93631967Y-94887118D01*
X93600234Y-94829004D01*
X93597400Y-94802646D01*
X93597400Y-94203820D01*
X93617085Y-94136781D01*
X93656303Y-94098281D01*
X93736152Y-94049030D01*
X93824819Y-93960363D01*
X93886142Y-93926878D01*
X93955834Y-93931862D01*
X94000181Y-93960363D01*
X94088848Y-94049030D01*
X94239762Y-94142115D01*
X94408074Y-94197887D01*
X94511955Y-94208500D01*
X95138044Y-94208499D01*
X95241926Y-94197887D01*
X95410238Y-94142115D01*
X95561152Y-94049030D01*
X95686530Y-93923652D01*
X95779615Y-93772738D01*
X95809550Y-93682395D01*
X95849322Y-93624952D01*
X95913837Y-93598128D01*
X95927256Y-93597400D01*
X96013646Y-93597400D01*
X96013649Y-93597400D01*
X96165588Y-93556688D01*
X96301812Y-93478039D01*
X99217193Y-90562656D01*
X99278514Y-90529173D01*
X99348206Y-90534157D01*
X99404139Y-90576029D01*
X99428556Y-90641493D01*
X99428400Y-90661145D01*
X99421502Y-90739996D01*
X99421502Y-90740001D01*
X99441456Y-90968081D01*
X99441457Y-90968089D01*
X99500714Y-91189238D01*
X99500718Y-91189249D01*
X99597475Y-91396745D01*
X99597477Y-91396749D01*
X99728802Y-91584300D01*
X99890700Y-91746198D01*
X100059198Y-91864182D01*
X100078251Y-91877523D01*
X100121345Y-91897618D01*
X100173784Y-91943791D01*
X100192936Y-92010984D01*
X100172720Y-92077865D01*
X100121345Y-92122382D01*
X100078251Y-92142476D01*
X99959158Y-92225867D01*
X99890700Y-92273802D01*
X99890698Y-92273803D01*
X99890695Y-92273806D01*
X99728806Y-92435695D01*
X99728803Y-92435698D01*
X99728802Y-92435700D01*
X99646767Y-92552856D01*
X99597476Y-92623252D01*
X99597475Y-92623254D01*
X99500718Y-92830750D01*
X99500714Y-92830761D01*
X99441457Y-93051910D01*
X99441456Y-93051918D01*
X99421502Y-93279998D01*
X99421502Y-93280001D01*
X99441456Y-93508081D01*
X99441457Y-93508089D01*
X99500714Y-93729238D01*
X99500718Y-93729249D01*
X99567430Y-93872313D01*
X99597477Y-93936749D01*
X99728802Y-94124300D01*
X99890700Y-94286198D01*
X100078251Y-94417523D01*
X100163035Y-94457058D01*
X100285750Y-94514281D01*
X100285752Y-94514281D01*
X100285757Y-94514284D01*
X100506913Y-94573543D01*
X100669832Y-94587796D01*
X100734998Y-94593498D01*
X100735000Y-94593498D01*
X100735001Y-94593498D01*
X100753825Y-94591850D01*
X100898842Y-94579163D01*
X100967340Y-94592929D01*
X100997330Y-94615011D01*
X101051479Y-94669161D01*
X101051487Y-94669167D01*
X101175704Y-94752166D01*
X101175707Y-94752167D01*
X101175715Y-94752173D01*
X101175721Y-94752175D01*
X101175722Y-94752176D01*
X101256573Y-94785665D01*
X101256574Y-94785666D01*
X101273247Y-94792572D01*
X101313752Y-94809350D01*
X101339105Y-94814392D01*
X101386969Y-94823914D01*
X101386996Y-94823918D01*
X101387023Y-94823924D01*
X101460293Y-94838499D01*
X102394707Y-94838499D01*
X102467977Y-94823924D01*
X102467978Y-94823924D01*
X102486420Y-94820255D01*
X102541248Y-94809350D01*
X102679285Y-94752173D01*
X102803516Y-94669165D01*
X106830210Y-90642469D01*
X106891531Y-90608986D01*
X106961223Y-90613970D01*
X107017156Y-90655842D01*
X107041573Y-90721306D01*
X107041469Y-90734586D01*
X107041502Y-90734586D01*
X107041502Y-90740001D01*
X107061456Y-90968081D01*
X107061457Y-90968089D01*
X107120714Y-91189238D01*
X107120718Y-91189249D01*
X107217475Y-91396745D01*
X107217477Y-91396749D01*
X107348802Y-91584300D01*
X107510700Y-91746198D01*
X107679198Y-91864182D01*
X107698251Y-91877523D01*
X107741345Y-91897618D01*
X107793784Y-91943791D01*
X107812936Y-92010984D01*
X107792720Y-92077865D01*
X107741345Y-92122382D01*
X107698251Y-92142476D01*
X107579158Y-92225867D01*
X107510700Y-92273802D01*
X107510698Y-92273803D01*
X107510695Y-92273806D01*
X107348806Y-92435695D01*
X107348803Y-92435698D01*
X107348802Y-92435700D01*
X107266767Y-92552856D01*
X107217476Y-92623252D01*
X107217475Y-92623254D01*
X107120718Y-92830750D01*
X107120714Y-92830761D01*
X107061457Y-93051910D01*
X107061456Y-93051918D01*
X107041502Y-93279998D01*
X107041502Y-93280001D01*
X107061456Y-93508081D01*
X107061457Y-93508089D01*
X107120714Y-93729238D01*
X107120718Y-93729249D01*
X107187430Y-93872313D01*
X107217477Y-93936749D01*
X107348802Y-94124300D01*
X107510700Y-94286198D01*
X107698251Y-94417523D01*
X107783035Y-94457058D01*
X107905750Y-94514281D01*
X107905752Y-94514281D01*
X107905757Y-94514284D01*
X108126913Y-94573543D01*
X108289832Y-94587796D01*
X108354998Y-94593498D01*
X108355000Y-94593498D01*
X108355002Y-94593498D01*
X108412021Y-94588509D01*
X108583087Y-94573543D01*
X108804243Y-94514284D01*
X109011749Y-94417523D01*
X109199300Y-94286198D01*
X109361198Y-94124300D01*
X109492523Y-93936749D01*
X109589284Y-93729243D01*
X109648543Y-93508087D01*
X109668498Y-93280000D01*
X109648543Y-93051913D01*
X109589284Y-92830757D01*
X109492523Y-92623251D01*
X109361198Y-92435700D01*
X109199300Y-92273802D01*
X109011749Y-92142477D01*
X108968655Y-92122382D01*
X108916215Y-92076210D01*
X108897063Y-92009017D01*
X108917278Y-91942136D01*
X108968655Y-91897618D01*
X108971882Y-91896112D01*
X109011749Y-91877523D01*
X109199300Y-91746198D01*
X109361198Y-91584300D01*
X109492523Y-91396749D01*
X109589284Y-91189243D01*
X109648543Y-90968087D01*
X109668498Y-90740000D01*
X109666862Y-90721306D01*
X109658555Y-90626348D01*
X109648543Y-90511913D01*
X109589284Y-90290757D01*
X109492523Y-90083251D01*
X109361198Y-89895700D01*
X109199300Y-89733802D01*
X109011749Y-89602477D01*
X108968655Y-89582382D01*
X108916215Y-89536210D01*
X108897063Y-89469017D01*
X108917278Y-89402136D01*
X108968655Y-89357618D01*
X108977134Y-89353664D01*
X109011749Y-89337523D01*
X109199300Y-89206198D01*
X109361198Y-89044300D01*
X109384252Y-89011374D01*
X109438829Y-88967751D01*
X109485826Y-88958500D01*
X110834457Y-88958500D01*
X110901496Y-88978185D01*
X110922138Y-88994819D01*
X116590685Y-94663366D01*
X116624170Y-94724689D01*
X116619845Y-94792572D01*
X116561459Y-94956854D01*
X116561458Y-94956858D01*
X116505558Y-95225867D01*
X116505557Y-95225869D01*
X116486807Y-95500000D01*
X116505557Y-95774130D01*
X116505558Y-95774132D01*
X116561458Y-96043141D01*
X116561463Y-96043158D01*
X116653476Y-96302056D01*
X116779889Y-96546024D01*
X116779893Y-96546030D01*
X116938340Y-96770499D01*
X116938343Y-96770502D01*
X117125889Y-96971314D01*
X117339031Y-97144718D01*
X117339033Y-97144719D01*
X117339034Y-97144720D01*
X117573801Y-97287485D01*
X117778348Y-97376331D01*
X117825823Y-97396953D01*
X118090404Y-97471085D01*
X118329720Y-97503978D01*
X118362614Y-97508500D01*
X118362615Y-97508500D01*
X118637386Y-97508500D01*
X118666733Y-97504466D01*
X118909596Y-97471085D01*
X119174177Y-97396953D01*
X119426200Y-97287484D01*
X119660969Y-97144718D01*
X119874111Y-96971314D01*
X120061657Y-96770502D01*
X120220111Y-96546023D01*
X120346523Y-96302058D01*
X120438538Y-96043153D01*
X120438539Y-96043146D01*
X120438541Y-96043141D01*
X120468569Y-95898638D01*
X120494442Y-95774130D01*
X120513193Y-95500000D01*
X120494442Y-95225870D01*
X120457269Y-95046985D01*
X120438541Y-94956858D01*
X120438536Y-94956841D01*
X120396477Y-94838499D01*
X120346523Y-94697942D01*
X120220111Y-94453977D01*
X120220110Y-94453975D01*
X120220106Y-94453969D01*
X120061659Y-94229500D01*
X120032133Y-94197886D01*
X119874111Y-94028686D01*
X119660969Y-93855282D01*
X119660967Y-93855281D01*
X119660965Y-93855279D01*
X119426198Y-93712514D01*
X119174178Y-93603047D01*
X118909602Y-93528916D01*
X118909597Y-93528915D01*
X118909596Y-93528915D01*
X118773490Y-93510207D01*
X118637386Y-93491500D01*
X118637385Y-93491500D01*
X118362615Y-93491500D01*
X118362614Y-93491500D01*
X118090404Y-93528915D01*
X118090398Y-93528916D01*
X117876589Y-93588823D01*
X117825823Y-93603047D01*
X117825821Y-93603047D01*
X117825820Y-93603048D01*
X117798583Y-93614878D01*
X117729251Y-93623529D01*
X117666248Y-93593324D01*
X117661504Y-93588823D01*
X116505362Y-92432681D01*
X116471877Y-92371358D01*
X116476861Y-92301666D01*
X116518733Y-92245733D01*
X116584197Y-92221316D01*
X116593043Y-92221000D01*
X116821367Y-92221000D01*
X116888406Y-92240685D01*
X116926904Y-92279901D01*
X116938470Y-92298652D01*
X117063848Y-92424030D01*
X117214762Y-92517115D01*
X117383074Y-92572887D01*
X117486955Y-92583500D01*
X120438044Y-92583499D01*
X120541926Y-92572887D01*
X120710238Y-92517115D01*
X120861152Y-92424030D01*
X120986530Y-92298652D01*
X121079615Y-92147738D01*
X121135387Y-91979426D01*
X121146000Y-91875545D01*
X121145999Y-91049456D01*
X121135387Y-90945574D01*
X121079615Y-90777262D01*
X120986530Y-90626348D01*
X120861152Y-90500970D01*
X120710238Y-90407885D01*
X120710235Y-90407884D01*
X120541927Y-90352113D01*
X120438045Y-90341500D01*
X117486962Y-90341500D01*
X117486946Y-90341501D01*
X117383072Y-90352113D01*
X117214764Y-90407884D01*
X117214759Y-90407886D01*
X117063846Y-90500971D01*
X116938471Y-90626346D01*
X116938470Y-90626348D01*
X116928526Y-90642471D01*
X116926906Y-90645097D01*
X116874958Y-90691821D01*
X116821367Y-90704000D01*
X114828043Y-90704000D01*
X114761004Y-90684315D01*
X114740362Y-90667681D01*
X111683518Y-87610836D01*
X111683517Y-87610835D01*
X111621399Y-87569330D01*
X111559284Y-87527826D01*
X111492543Y-87500181D01*
X111421247Y-87470649D01*
X111421240Y-87470647D01*
X111340639Y-87454615D01*
X111294237Y-87445385D01*
X111274707Y-87441500D01*
X111274706Y-87441500D01*
X109485826Y-87441500D01*
X109418787Y-87421815D01*
X109384252Y-87388625D01*
X109361198Y-87355700D01*
X109199300Y-87193802D01*
X109011749Y-87062477D01*
X109011745Y-87062475D01*
X108804249Y-86965718D01*
X108804238Y-86965714D01*
X108583089Y-86906457D01*
X108583081Y-86906456D01*
X108355002Y-86886502D01*
X108354997Y-86886502D01*
X108191156Y-86900835D01*
X108122657Y-86887068D01*
X108092669Y-86864988D01*
X105294819Y-84067138D01*
X105261334Y-84005815D01*
X105258500Y-83979457D01*
X105258500Y-73124000D01*
X105278185Y-73056961D01*
X105330989Y-73011206D01*
X105382500Y-73000000D01*
X110565920Y-73000000D01*
X110632959Y-73019685D01*
X110678714Y-73072489D01*
X110688658Y-73141647D01*
X110686126Y-73154440D01*
X110655436Y-73275628D01*
X110655434Y-73275640D01*
X110636844Y-73499994D01*
X110636844Y-73500005D01*
X110655435Y-73724364D01*
X110690605Y-73863248D01*
X110687980Y-73933068D01*
X110658080Y-73981369D01*
X109784270Y-74855181D01*
X109722947Y-74888666D01*
X109696589Y-74891500D01*
X109590858Y-74891500D01*
X109523819Y-74871815D01*
X109489284Y-74838624D01*
X109394035Y-74702596D01*
X109361198Y-74655700D01*
X109199300Y-74493802D01*
X109011749Y-74362477D01*
X108957688Y-74337268D01*
X108804249Y-74265718D01*
X108804238Y-74265714D01*
X108583089Y-74206457D01*
X108583081Y-74206456D01*
X108355002Y-74186502D01*
X108354998Y-74186502D01*
X108126918Y-74206456D01*
X108126910Y-74206457D01*
X107905761Y-74265714D01*
X107905750Y-74265718D01*
X107698254Y-74362475D01*
X107698252Y-74362476D01*
X107696234Y-74363889D01*
X107512249Y-74492718D01*
X107510699Y-74493803D01*
X107391023Y-74613479D01*
X107329700Y-74646963D01*
X107260008Y-74641979D01*
X107204075Y-74600107D01*
X107198348Y-74591769D01*
X107197737Y-74590797D01*
X107136111Y-74492719D01*
X107007281Y-74363889D01*
X106853015Y-74266957D01*
X106752465Y-74231773D01*
X106681046Y-74206782D01*
X106681041Y-74206781D01*
X106500004Y-74186384D01*
X106499996Y-74186384D01*
X106318958Y-74206781D01*
X106318953Y-74206782D01*
X106146982Y-74266958D01*
X105992718Y-74363889D01*
X105863889Y-74492718D01*
X105766958Y-74646982D01*
X105706782Y-74818953D01*
X105706781Y-74818958D01*
X105686384Y-74999996D01*
X105686384Y-75000003D01*
X105706781Y-75181041D01*
X105706782Y-75181046D01*
X105766958Y-75353017D01*
X105863889Y-75507281D01*
X105866281Y-75509673D01*
X105867332Y-75511598D01*
X105868230Y-75512724D01*
X105868032Y-75512881D01*
X105899766Y-75570996D01*
X105902600Y-75597354D01*
X105902600Y-79052951D01*
X105902600Y-79210249D01*
X105940579Y-79351988D01*
X105943313Y-79362191D01*
X105993103Y-79448429D01*
X106021961Y-79498412D01*
X106021963Y-79498414D01*
X107005607Y-80482058D01*
X107039092Y-80543381D01*
X107041075Y-80574587D01*
X107041502Y-80574587D01*
X107041502Y-80580001D01*
X107061456Y-80808081D01*
X107061457Y-80808089D01*
X107120714Y-81029238D01*
X107120718Y-81029249D01*
X107211370Y-81223652D01*
X107217477Y-81236749D01*
X107348802Y-81424300D01*
X107510700Y-81586198D01*
X107676276Y-81702136D01*
X107698251Y-81717523D01*
X107741345Y-81737618D01*
X107793784Y-81783791D01*
X107812936Y-81850984D01*
X107792720Y-81917865D01*
X107741345Y-81962382D01*
X107698251Y-81982476D01*
X107573126Y-82070090D01*
X107510700Y-82113802D01*
X107510698Y-82113803D01*
X107510695Y-82113806D01*
X107348806Y-82275695D01*
X107348803Y-82275698D01*
X107348802Y-82275700D01*
X107301500Y-82343254D01*
X107217476Y-82463252D01*
X107217475Y-82463254D01*
X107120718Y-82670750D01*
X107120714Y-82670761D01*
X107061457Y-82891910D01*
X107061456Y-82891918D01*
X107041502Y-83119998D01*
X107041502Y-83120001D01*
X107061456Y-83348081D01*
X107061457Y-83348089D01*
X107120714Y-83569238D01*
X107120718Y-83569249D01*
X107198981Y-83737085D01*
X107217477Y-83776749D01*
X107348802Y-83964300D01*
X107510700Y-84126198D01*
X107698251Y-84257523D01*
X107784493Y-84297738D01*
X107905750Y-84354281D01*
X107905752Y-84354281D01*
X107905757Y-84354284D01*
X108126913Y-84413543D01*
X108289832Y-84427796D01*
X108354998Y-84433498D01*
X108355000Y-84433498D01*
X108355002Y-84433498D01*
X108412021Y-84428509D01*
X108583087Y-84413543D01*
X108804243Y-84354284D01*
X109011749Y-84257523D01*
X109199300Y-84126198D01*
X109361198Y-83964300D01*
X109492523Y-83776749D01*
X109492525Y-83776745D01*
X109495628Y-83772314D01*
X109497237Y-83773441D01*
X109541575Y-83731177D01*
X109598380Y-83717400D01*
X111647067Y-83717400D01*
X111714106Y-83737085D01*
X111745333Y-83768898D01*
X111746489Y-83767985D01*
X111750970Y-83773652D01*
X111876348Y-83899030D01*
X112027262Y-83992115D01*
X112195574Y-84047887D01*
X112299455Y-84058500D01*
X112632756Y-84058499D01*
X112664850Y-84062724D01*
X112747983Y-84085000D01*
X112747985Y-84085000D01*
X112902015Y-84085000D01*
X112902017Y-84085000D01*
X112985150Y-84062723D01*
X113017243Y-84058499D01*
X113350537Y-84058499D01*
X113350544Y-84058499D01*
X113454426Y-84047887D01*
X113622738Y-83992115D01*
X113773652Y-83899030D01*
X113899030Y-83773652D01*
X113899033Y-83773646D01*
X113903511Y-83767985D01*
X113905179Y-83769303D01*
X113949334Y-83729582D01*
X114002933Y-83717400D01*
X114147067Y-83717400D01*
X114214106Y-83737085D01*
X114245333Y-83768898D01*
X114246489Y-83767985D01*
X114250970Y-83773652D01*
X114376348Y-83899030D01*
X114527262Y-83992115D01*
X114695574Y-84047887D01*
X114799455Y-84058500D01*
X115084847Y-84058499D01*
X115116940Y-84062723D01*
X115246351Y-84097400D01*
X115246353Y-84097400D01*
X115403647Y-84097400D01*
X115403649Y-84097400D01*
X115533059Y-84062723D01*
X115565153Y-84058499D01*
X115850537Y-84058499D01*
X115850544Y-84058499D01*
X115954426Y-84047887D01*
X116122738Y-83992115D01*
X116273652Y-83899030D01*
X116399030Y-83773652D01*
X116492115Y-83622738D01*
X116547887Y-83454426D01*
X116558500Y-83350545D01*
X116558499Y-82749456D01*
X116547887Y-82645574D01*
X116492115Y-82477262D01*
X116399030Y-82326348D01*
X116381763Y-82309081D01*
X116348278Y-82247758D01*
X116353262Y-82178066D01*
X116395134Y-82122133D01*
X116460598Y-82097716D01*
X116469444Y-82097400D01*
X117897744Y-82097400D01*
X117964783Y-82117085D01*
X118010538Y-82169889D01*
X118015447Y-82182389D01*
X118029747Y-82225544D01*
X118045383Y-82272733D01*
X118045386Y-82272740D01*
X118063504Y-82302113D01*
X118138470Y-82423652D01*
X118263848Y-82549030D01*
X118414762Y-82642115D01*
X118583074Y-82697887D01*
X118686955Y-82708500D01*
X119313044Y-82708499D01*
X119416926Y-82697887D01*
X119585238Y-82642115D01*
X119736152Y-82549030D01*
X119824819Y-82460363D01*
X119886142Y-82426878D01*
X119955834Y-82431862D01*
X120000181Y-82460363D01*
X120088848Y-82549030D01*
X120239762Y-82642115D01*
X120408074Y-82697887D01*
X120511955Y-82708500D01*
X121138044Y-82708499D01*
X121241926Y-82697887D01*
X121410238Y-82642115D01*
X121561152Y-82549030D01*
X121686530Y-82423652D01*
X121779615Y-82272738D01*
X121809550Y-82182395D01*
X121849322Y-82124952D01*
X121913837Y-82098128D01*
X121927256Y-82097400D01*
X122983507Y-82097400D01*
X123050546Y-82117085D01*
X123096301Y-82169889D01*
X123101213Y-82182396D01*
X123132338Y-82276326D01*
X123132340Y-82276331D01*
X123148243Y-82302113D01*
X123224656Y-82425998D01*
X123349002Y-82550344D01*
X123498671Y-82642661D01*
X123665596Y-82697974D01*
X123768625Y-82708500D01*
X124356374Y-82708499D01*
X124459404Y-82697974D01*
X124626329Y-82642661D01*
X124775998Y-82550344D01*
X124900344Y-82425998D01*
X124900349Y-82425988D01*
X124902732Y-82422977D01*
X124904900Y-82421441D01*
X124905451Y-82420891D01*
X124905545Y-82420985D01*
X124959754Y-82382599D01*
X125029553Y-82379459D01*
X125089969Y-82414554D01*
X125097268Y-82422977D01*
X125099653Y-82425994D01*
X125099656Y-82425998D01*
X125099657Y-82425999D01*
X125099659Y-82426001D01*
X125224001Y-82550343D01*
X125224005Y-82550346D01*
X125281197Y-82585623D01*
X125327922Y-82637571D01*
X125340100Y-82691161D01*
X125340100Y-82840146D01*
X125320415Y-82907185D01*
X125303781Y-82927827D01*
X125301389Y-82930218D01*
X125204458Y-83084482D01*
X125144282Y-83256453D01*
X125144281Y-83256458D01*
X125123884Y-83437496D01*
X125123884Y-83437503D01*
X125144281Y-83618541D01*
X125144282Y-83618546D01*
X125171646Y-83696747D01*
X125204457Y-83790515D01*
X125301389Y-83944781D01*
X125430219Y-84073611D01*
X125584485Y-84170543D01*
X125756453Y-84230717D01*
X125756458Y-84230718D01*
X125937496Y-84251116D01*
X125937500Y-84251116D01*
X125937504Y-84251116D01*
X126118541Y-84230718D01*
X126118544Y-84230717D01*
X126118547Y-84230717D01*
X126290515Y-84170543D01*
X126444781Y-84073611D01*
X126573611Y-83944781D01*
X126670543Y-83790515D01*
X126670543Y-83790514D01*
X126673606Y-83785640D01*
X126725941Y-83739349D01*
X126794994Y-83728701D01*
X126858843Y-83757076D01*
X126897215Y-83815466D01*
X126902600Y-83851612D01*
X126902600Y-87921351D01*
X126902600Y-88078649D01*
X126940826Y-88221311D01*
X126943313Y-88230591D01*
X126971212Y-88278913D01*
X127021961Y-88366812D01*
X127021963Y-88366814D01*
X136907443Y-98252294D01*
X136940928Y-98313617D01*
X136935944Y-98383309D01*
X136929861Y-98397022D01*
X136903475Y-98447945D01*
X136811463Y-98706841D01*
X136811458Y-98706858D01*
X136755558Y-98975867D01*
X136755557Y-98975869D01*
X136736807Y-99250000D01*
X136755557Y-99524130D01*
X136755558Y-99524132D01*
X136811458Y-99793141D01*
X136811463Y-99793158D01*
X136903476Y-100052056D01*
X137029889Y-100296024D01*
X137029893Y-100296030D01*
X137188340Y-100520499D01*
X137188343Y-100520502D01*
X137375889Y-100721314D01*
X137589031Y-100894718D01*
X137589033Y-100894719D01*
X137589034Y-100894720D01*
X137823801Y-101037485D01*
X137982893Y-101106588D01*
X138075823Y-101146953D01*
X138340404Y-101221085D01*
X138579720Y-101253978D01*
X138612614Y-101258500D01*
X138612615Y-101258500D01*
X138887386Y-101258500D01*
X138916733Y-101254466D01*
X139159596Y-101221085D01*
X139424177Y-101146953D01*
X139676200Y-101037484D01*
X139910969Y-100894718D01*
X140124111Y-100721314D01*
X140311657Y-100520502D01*
X140470111Y-100296023D01*
X140596523Y-100052058D01*
X140688538Y-99793153D01*
X140688539Y-99793146D01*
X140688541Y-99793141D01*
X140719383Y-99644718D01*
X140744442Y-99524130D01*
X140763193Y-99250000D01*
X140744442Y-98975870D01*
X140725141Y-98882989D01*
X140688541Y-98706858D01*
X140688536Y-98706841D01*
X140596523Y-98447943D01*
X140596523Y-98447942D01*
X140470111Y-98203977D01*
X140470110Y-98203975D01*
X140470106Y-98203969D01*
X140311659Y-97979500D01*
X140293031Y-97959555D01*
X140124111Y-97778686D01*
X139910969Y-97605282D01*
X139910967Y-97605281D01*
X139910965Y-97605279D01*
X139676198Y-97462514D01*
X139424178Y-97353047D01*
X139159602Y-97278916D01*
X139159597Y-97278915D01*
X139159596Y-97278915D01*
X139023490Y-97260207D01*
X138887386Y-97241500D01*
X138887385Y-97241500D01*
X138612615Y-97241500D01*
X138612614Y-97241500D01*
X138340404Y-97278915D01*
X138340397Y-97278916D01*
X138075818Y-97353048D01*
X137889749Y-97433869D01*
X137820418Y-97442523D01*
X137757414Y-97412319D01*
X137752667Y-97407816D01*
X132844851Y-92500000D01*
X136486807Y-92500000D01*
X136505557Y-92774130D01*
X136505558Y-92774132D01*
X136561458Y-93043141D01*
X136561463Y-93043158D01*
X136653476Y-93302056D01*
X136779889Y-93546024D01*
X136779893Y-93546030D01*
X136938340Y-93770499D01*
X136940428Y-93772735D01*
X137125889Y-93971314D01*
X137339031Y-94144718D01*
X137339033Y-94144719D01*
X137339034Y-94144720D01*
X137573801Y-94287485D01*
X137778348Y-94376331D01*
X137825823Y-94396953D01*
X138090404Y-94471085D01*
X138329720Y-94503978D01*
X138362614Y-94508500D01*
X138362615Y-94508500D01*
X138637386Y-94508500D01*
X138666733Y-94504466D01*
X138909596Y-94471085D01*
X139174177Y-94396953D01*
X139426200Y-94287484D01*
X139660969Y-94144718D01*
X139874111Y-93971314D01*
X140061657Y-93770502D01*
X140220111Y-93546023D01*
X140346523Y-93302058D01*
X140438538Y-93043153D01*
X140438539Y-93043146D01*
X140438541Y-93043141D01*
X140482674Y-92830761D01*
X140494442Y-92774130D01*
X140513193Y-92500000D01*
X140494442Y-92225870D01*
X140463371Y-92076348D01*
X140438541Y-91956858D01*
X140438536Y-91956841D01*
X140400482Y-91849769D01*
X140346523Y-91697942D01*
X140220111Y-91453977D01*
X140220110Y-91453975D01*
X140220106Y-91453969D01*
X140061659Y-91229500D01*
X140024057Y-91189238D01*
X139874111Y-91028686D01*
X139660969Y-90855282D01*
X139660967Y-90855281D01*
X139660965Y-90855279D01*
X139426198Y-90712514D01*
X139174178Y-90603047D01*
X138909602Y-90528916D01*
X138909597Y-90528915D01*
X138909596Y-90528915D01*
X138706284Y-90500970D01*
X138637386Y-90491500D01*
X138637385Y-90491500D01*
X138362615Y-90491500D01*
X138362614Y-90491500D01*
X138090404Y-90528915D01*
X138090397Y-90528916D01*
X137825821Y-90603047D01*
X137573801Y-90712514D01*
X137339034Y-90855279D01*
X137125892Y-91028683D01*
X137125889Y-91028685D01*
X137125889Y-91028686D01*
X137099739Y-91056686D01*
X136938340Y-91229500D01*
X136779893Y-91453969D01*
X136779889Y-91453975D01*
X136653476Y-91697943D01*
X136561463Y-91956841D01*
X136561458Y-91956858D01*
X136505558Y-92225867D01*
X136505557Y-92225869D01*
X136486807Y-92500000D01*
X132844851Y-92500000D01*
X128133719Y-87788868D01*
X128100234Y-87727545D01*
X128097400Y-87701187D01*
X128097400Y-86816364D01*
X128117085Y-86749325D01*
X128169889Y-86703570D01*
X128239047Y-86693626D01*
X128251442Y-86696547D01*
X128251459Y-86696470D01*
X128258064Y-86697883D01*
X128258074Y-86697887D01*
X128361955Y-86708500D01*
X128988044Y-86708499D01*
X129091926Y-86697887D01*
X129260238Y-86642115D01*
X129411152Y-86549030D01*
X129499819Y-86460363D01*
X129561142Y-86426878D01*
X129630834Y-86431862D01*
X129675181Y-86460363D01*
X129763848Y-86549030D01*
X129914762Y-86642115D01*
X130083074Y-86697887D01*
X130186955Y-86708500D01*
X130813044Y-86708499D01*
X130916926Y-86697887D01*
X131085238Y-86642115D01*
X131236152Y-86549030D01*
X131361530Y-86423652D01*
X131454615Y-86272738D01*
X131510387Y-86104426D01*
X131521000Y-86000545D01*
X131520999Y-85375211D01*
X131540683Y-85308173D01*
X131557313Y-85287536D01*
X133211132Y-83633719D01*
X133272455Y-83600234D01*
X133298813Y-83597400D01*
X138136620Y-83597400D01*
X138203659Y-83617085D01*
X138238102Y-83653202D01*
X138239372Y-83652314D01*
X138242475Y-83656745D01*
X138242477Y-83656749D01*
X138373802Y-83844300D01*
X138535700Y-84006198D01*
X138707070Y-84126193D01*
X138723251Y-84137523D01*
X138766345Y-84157618D01*
X138818784Y-84203791D01*
X138837936Y-84270984D01*
X138817720Y-84337865D01*
X138766345Y-84382382D01*
X138723251Y-84402476D01*
X138598126Y-84490090D01*
X138535700Y-84533802D01*
X138535698Y-84533803D01*
X138535695Y-84533806D01*
X138373806Y-84695695D01*
X138373803Y-84695698D01*
X138373802Y-84695700D01*
X138315486Y-84778984D01*
X138242476Y-84883252D01*
X138242475Y-84883254D01*
X138145718Y-85090750D01*
X138145714Y-85090761D01*
X138086457Y-85311910D01*
X138086456Y-85311918D01*
X138066502Y-85539998D01*
X138066502Y-85540001D01*
X138086456Y-85768081D01*
X138086457Y-85768089D01*
X138145714Y-85989238D01*
X138145718Y-85989249D01*
X138242475Y-86196745D01*
X138242477Y-86196749D01*
X138373802Y-86384300D01*
X138535700Y-86546198D01*
X138723251Y-86677523D01*
X138789678Y-86708498D01*
X138930750Y-86774281D01*
X138930752Y-86774281D01*
X138930757Y-86774284D01*
X139151913Y-86833543D01*
X139314832Y-86847796D01*
X139379998Y-86853498D01*
X139380000Y-86853498D01*
X139380002Y-86853498D01*
X139437021Y-86848509D01*
X139608087Y-86833543D01*
X139829243Y-86774284D01*
X140036749Y-86677523D01*
X140224300Y-86546198D01*
X140386198Y-86384300D01*
X140517523Y-86196749D01*
X140614284Y-85989243D01*
X140673543Y-85768087D01*
X140693498Y-85540001D01*
X145686502Y-85540001D01*
X145706456Y-85768081D01*
X145706457Y-85768089D01*
X145765714Y-85989238D01*
X145765718Y-85989249D01*
X145862475Y-86196745D01*
X145862477Y-86196749D01*
X145993802Y-86384300D01*
X146155700Y-86546198D01*
X146343251Y-86677523D01*
X146409678Y-86708498D01*
X146550750Y-86774281D01*
X146550752Y-86774281D01*
X146550757Y-86774284D01*
X146771913Y-86833543D01*
X146934832Y-86847796D01*
X146999998Y-86853498D01*
X147000000Y-86853498D01*
X147000002Y-86853498D01*
X147057021Y-86848509D01*
X147228087Y-86833543D01*
X147449243Y-86774284D01*
X147656749Y-86677523D01*
X147844300Y-86546198D01*
X148006198Y-86384300D01*
X148137523Y-86196749D01*
X148234284Y-85989243D01*
X148293543Y-85768087D01*
X148313498Y-85540000D01*
X148309998Y-85500000D01*
X148301477Y-85402600D01*
X148293543Y-85311913D01*
X148234284Y-85090757D01*
X148210987Y-85040797D01*
X148193480Y-85003251D01*
X148137523Y-84883251D01*
X148006198Y-84695700D01*
X147844300Y-84533802D01*
X147656749Y-84402477D01*
X147613655Y-84382382D01*
X147561215Y-84336210D01*
X147542063Y-84269017D01*
X147562278Y-84202136D01*
X147613655Y-84157618D01*
X147616882Y-84156112D01*
X147656749Y-84137523D01*
X147844300Y-84006198D01*
X148006198Y-83844300D01*
X148137523Y-83656749D01*
X148234284Y-83449243D01*
X148293543Y-83228087D01*
X148313498Y-83000000D01*
X148293543Y-82771913D01*
X148234284Y-82550757D01*
X148234092Y-82550346D01*
X148175014Y-82423652D01*
X148137523Y-82343251D01*
X148006198Y-82155700D01*
X147844300Y-81993802D01*
X147656749Y-81862477D01*
X147613655Y-81842382D01*
X147561215Y-81796210D01*
X147542063Y-81729017D01*
X147562278Y-81662136D01*
X147613655Y-81617618D01*
X147616882Y-81616112D01*
X147656749Y-81597523D01*
X147844300Y-81466198D01*
X148006198Y-81304300D01*
X148137523Y-81116749D01*
X148137525Y-81116745D01*
X148140628Y-81112314D01*
X148142237Y-81113441D01*
X148186575Y-81071177D01*
X148243380Y-81057400D01*
X151434218Y-81057400D01*
X151501257Y-81077085D01*
X151539754Y-81116300D01*
X151605970Y-81223652D01*
X151731348Y-81349030D01*
X151882262Y-81442115D01*
X152050574Y-81497887D01*
X152154455Y-81508500D01*
X153205544Y-81508499D01*
X153309426Y-81497887D01*
X153477738Y-81442115D01*
X153628652Y-81349030D01*
X153754030Y-81223652D01*
X153820244Y-81116301D01*
X153872191Y-81069579D01*
X153925782Y-81057400D01*
X153934218Y-81057400D01*
X154001257Y-81077085D01*
X154039754Y-81116300D01*
X154105970Y-81223652D01*
X154231348Y-81349030D01*
X154382262Y-81442115D01*
X154550574Y-81497887D01*
X154654455Y-81508500D01*
X155705544Y-81508499D01*
X155809426Y-81497887D01*
X155977738Y-81442115D01*
X156128652Y-81349030D01*
X156254030Y-81223652D01*
X156347115Y-81072738D01*
X156402887Y-80904426D01*
X156413500Y-80800545D01*
X156413499Y-80199456D01*
X156402887Y-80095574D01*
X156347115Y-79927262D01*
X156254030Y-79776348D01*
X156128652Y-79650970D01*
X156003550Y-79573806D01*
X155977740Y-79557886D01*
X155977735Y-79557884D01*
X155809427Y-79502113D01*
X155705546Y-79491500D01*
X154654462Y-79491500D01*
X154654446Y-79491501D01*
X154550572Y-79502113D01*
X154382264Y-79557884D01*
X154382259Y-79557886D01*
X154231346Y-79650971D01*
X154105969Y-79776348D01*
X154099072Y-79787531D01*
X154089375Y-79803254D01*
X154089102Y-79803696D01*
X154037155Y-79850421D01*
X153983563Y-79862600D01*
X153876437Y-79862600D01*
X153809398Y-79842915D01*
X153770898Y-79803696D01*
X153770625Y-79803254D01*
X153754030Y-79776348D01*
X153628652Y-79650970D01*
X153503550Y-79573806D01*
X153477740Y-79557886D01*
X153477735Y-79557884D01*
X153309427Y-79502113D01*
X153205546Y-79491500D01*
X152154462Y-79491500D01*
X152154446Y-79491501D01*
X152050572Y-79502113D01*
X151882264Y-79557884D01*
X151882259Y-79557886D01*
X151731346Y-79650971D01*
X151605969Y-79776348D01*
X151599072Y-79787531D01*
X151589375Y-79803254D01*
X151589102Y-79803696D01*
X151537155Y-79850421D01*
X151483563Y-79862600D01*
X148243380Y-79862600D01*
X148176341Y-79842915D01*
X148141897Y-79806797D01*
X148140628Y-79807686D01*
X148137523Y-79803251D01*
X148006198Y-79615700D01*
X147844300Y-79453802D01*
X147656749Y-79322477D01*
X147654532Y-79321443D01*
X147449249Y-79225718D01*
X147449238Y-79225714D01*
X147228089Y-79166457D01*
X147228081Y-79166456D01*
X147000002Y-79146502D01*
X146999998Y-79146502D01*
X146771918Y-79166456D01*
X146771910Y-79166457D01*
X146550761Y-79225714D01*
X146550750Y-79225718D01*
X146343254Y-79322475D01*
X146343252Y-79322476D01*
X146291806Y-79358499D01*
X146155700Y-79453802D01*
X146155698Y-79453803D01*
X146155695Y-79453806D01*
X145993806Y-79615695D01*
X145993803Y-79615698D01*
X145993802Y-79615700D01*
X145969106Y-79650970D01*
X145862476Y-79803252D01*
X145862475Y-79803254D01*
X145765718Y-80010750D01*
X145765714Y-80010761D01*
X145706457Y-80231910D01*
X145706456Y-80231918D01*
X145686502Y-80459998D01*
X145686502Y-80460001D01*
X145706456Y-80688081D01*
X145706457Y-80688089D01*
X145765714Y-80909238D01*
X145765718Y-80909249D01*
X145853865Y-81098281D01*
X145862477Y-81116749D01*
X145993802Y-81304300D01*
X146155700Y-81466198D01*
X146327070Y-81586193D01*
X146343251Y-81597523D01*
X146386345Y-81617618D01*
X146438784Y-81663791D01*
X146457936Y-81730984D01*
X146437720Y-81797865D01*
X146386345Y-81842382D01*
X146343251Y-81862476D01*
X146218126Y-81950090D01*
X146155700Y-81993802D01*
X146155698Y-81993803D01*
X146155695Y-81993806D01*
X145993806Y-82155695D01*
X145993803Y-82155698D01*
X145993802Y-82155700D01*
X145916569Y-82266000D01*
X145862476Y-82343252D01*
X145862475Y-82343254D01*
X145765718Y-82550750D01*
X145765714Y-82550761D01*
X145706457Y-82771910D01*
X145706456Y-82771918D01*
X145686502Y-82999998D01*
X145686502Y-83000001D01*
X145706456Y-83228081D01*
X145706457Y-83228089D01*
X145765714Y-83449238D01*
X145765718Y-83449249D01*
X145846618Y-83622740D01*
X145862477Y-83656749D01*
X145993802Y-83844300D01*
X146155700Y-84006198D01*
X146327070Y-84126193D01*
X146343251Y-84137523D01*
X146386345Y-84157618D01*
X146438784Y-84203791D01*
X146457936Y-84270984D01*
X146437720Y-84337865D01*
X146386345Y-84382382D01*
X146343251Y-84402476D01*
X146218126Y-84490090D01*
X146155700Y-84533802D01*
X146155698Y-84533803D01*
X146155695Y-84533806D01*
X145993806Y-84695695D01*
X145993803Y-84695698D01*
X145993802Y-84695700D01*
X145935486Y-84778984D01*
X145862476Y-84883252D01*
X145862475Y-84883254D01*
X145765718Y-85090750D01*
X145765714Y-85090761D01*
X145706457Y-85311910D01*
X145706456Y-85311918D01*
X145686502Y-85539998D01*
X145686502Y-85540001D01*
X140693498Y-85540001D01*
X140693498Y-85540000D01*
X140689998Y-85500000D01*
X140681477Y-85402600D01*
X140673543Y-85311913D01*
X140614284Y-85090757D01*
X140590987Y-85040797D01*
X140573480Y-85003251D01*
X140517523Y-84883251D01*
X140386198Y-84695700D01*
X140224300Y-84533802D01*
X140036749Y-84402477D01*
X139993655Y-84382382D01*
X139941215Y-84336210D01*
X139922063Y-84269017D01*
X139942278Y-84202136D01*
X139993655Y-84157618D01*
X139996882Y-84156112D01*
X140036749Y-84137523D01*
X140224300Y-84006198D01*
X140386198Y-83844300D01*
X140517523Y-83656749D01*
X140614284Y-83449243D01*
X140673543Y-83228087D01*
X140693498Y-83000000D01*
X140673543Y-82771913D01*
X140614284Y-82550757D01*
X140614092Y-82550346D01*
X140555014Y-82423652D01*
X140517523Y-82343251D01*
X140386198Y-82155700D01*
X140224300Y-81993802D01*
X140036749Y-81862477D01*
X139993655Y-81842382D01*
X139941215Y-81796210D01*
X139922063Y-81729017D01*
X139942278Y-81662136D01*
X139993655Y-81617618D01*
X139996882Y-81616112D01*
X140036749Y-81597523D01*
X140224300Y-81466198D01*
X140386198Y-81304300D01*
X140517523Y-81116749D01*
X140614284Y-80909243D01*
X140673543Y-80688087D01*
X140693498Y-80460000D01*
X140673543Y-80231913D01*
X140645452Y-80127077D01*
X140647115Y-80057228D01*
X140677544Y-80007305D01*
X141478039Y-79206812D01*
X141556688Y-79070588D01*
X141597400Y-78918649D01*
X141597400Y-78761351D01*
X141597400Y-73124000D01*
X141617085Y-73056961D01*
X141669889Y-73011206D01*
X141721400Y-73000000D01*
X142407821Y-73000000D01*
X142474860Y-73019685D01*
X142520615Y-73072489D01*
X142525475Y-73084841D01*
X142544106Y-73140820D01*
X142544109Y-73140826D01*
X142623128Y-73263781D01*
X142623134Y-73263788D01*
X142668879Y-73316581D01*
X142668882Y-73316584D01*
X142779335Y-73412294D01*
X142779337Y-73412295D01*
X142779339Y-73412297D01*
X142912287Y-73473014D01*
X142979326Y-73492699D01*
X142979330Y-73492700D01*
X143124000Y-73513500D01*
X143124003Y-73513500D01*
X159675500Y-73513500D01*
X159742539Y-73533185D01*
X159788294Y-73585989D01*
X159799500Y-73637500D01*
X159799500Y-104997293D01*
X159799382Y-105002702D01*
X159781472Y-105412897D01*
X159780529Y-105423673D01*
X159727292Y-105828049D01*
X159725414Y-105838703D01*
X159637131Y-106236921D01*
X159634331Y-106247369D01*
X159511683Y-106636360D01*
X159507983Y-106646526D01*
X159351894Y-107023357D01*
X159347322Y-107033161D01*
X159158987Y-107394951D01*
X159153578Y-107404319D01*
X158934431Y-107748309D01*
X158928227Y-107757170D01*
X158679923Y-108080766D01*
X158672969Y-108089053D01*
X158397416Y-108389767D01*
X158389767Y-108397416D01*
X158089053Y-108672969D01*
X158080766Y-108679923D01*
X157757170Y-108928227D01*
X157748309Y-108934431D01*
X157404319Y-109153578D01*
X157394951Y-109158987D01*
X157033161Y-109347322D01*
X157023357Y-109351894D01*
X156646526Y-109507983D01*
X156636360Y-109511683D01*
X156247369Y-109634331D01*
X156236921Y-109637131D01*
X155838703Y-109725414D01*
X155828049Y-109727292D01*
X155423673Y-109780529D01*
X155412897Y-109781472D01*
X155002703Y-109799382D01*
X154997294Y-109799500D01*
X25002706Y-109799500D01*
X24997297Y-109799382D01*
X24587102Y-109781472D01*
X24576326Y-109780529D01*
X24171950Y-109727292D01*
X24161296Y-109725414D01*
X23763078Y-109637131D01*
X23752630Y-109634331D01*
X23363639Y-109511683D01*
X23353473Y-109507983D01*
X22976642Y-109351894D01*
X22966838Y-109347322D01*
X22847126Y-109285004D01*
X22605042Y-109158983D01*
X22595686Y-109153582D01*
X22423685Y-109044004D01*
X22251690Y-108934431D01*
X22242829Y-108928227D01*
X21919233Y-108679923D01*
X21910946Y-108672969D01*
X21610232Y-108397416D01*
X21602583Y-108389767D01*
X21327030Y-108089053D01*
X21320076Y-108080766D01*
X21071772Y-107757170D01*
X21065568Y-107748309D01*
X21012070Y-107664334D01*
X20846413Y-107404305D01*
X20841020Y-107394965D01*
X20652674Y-107033155D01*
X20648105Y-107023357D01*
X20617219Y-106948793D01*
X20492015Y-106646524D01*
X20488316Y-106636360D01*
X20437237Y-106474359D01*
X20365667Y-106247365D01*
X20362868Y-106236921D01*
X20316028Y-106025640D01*
X20274583Y-105838695D01*
X20272707Y-105828049D01*
X20269987Y-105807385D01*
X20219468Y-105423654D01*
X20218528Y-105412917D01*
X20200618Y-105002702D01*
X20200559Y-105000000D01*
X21286411Y-105000000D01*
X21306754Y-105388177D01*
X21310669Y-105412897D01*
X21367562Y-105772099D01*
X21385408Y-105838703D01*
X21468169Y-106147569D01*
X21607469Y-106510456D01*
X21783940Y-106856799D01*
X21995637Y-107182785D01*
X21995641Y-107182790D01*
X21995643Y-107182793D01*
X22240266Y-107484876D01*
X22515124Y-107759734D01*
X22817207Y-108004357D01*
X22817211Y-108004359D01*
X22817214Y-108004362D01*
X23143200Y-108216059D01*
X23143205Y-108216062D01*
X23489547Y-108392532D01*
X23852438Y-108531833D01*
X24227901Y-108632438D01*
X24611824Y-108693246D01*
X24978530Y-108712463D01*
X24999999Y-108713589D01*
X25000000Y-108713589D01*
X25000001Y-108713589D01*
X25020344Y-108712522D01*
X25388176Y-108693246D01*
X25772099Y-108632438D01*
X26147562Y-108531833D01*
X26510453Y-108392532D01*
X26856795Y-108216062D01*
X27182793Y-108004357D01*
X27484876Y-107759734D01*
X27759734Y-107484876D01*
X28004357Y-107182793D01*
X28216062Y-106856795D01*
X28392532Y-106510453D01*
X28492509Y-106250005D01*
X88636844Y-106250005D01*
X88655434Y-106474359D01*
X88655436Y-106474371D01*
X88710703Y-106692614D01*
X88801140Y-106898792D01*
X88924276Y-107087265D01*
X88924284Y-107087276D01*
X89076756Y-107252902D01*
X89076760Y-107252906D01*
X89254424Y-107391189D01*
X89254425Y-107391189D01*
X89254427Y-107391191D01*
X89270243Y-107399750D01*
X89452426Y-107498342D01*
X89665365Y-107571444D01*
X89887431Y-107608500D01*
X90112569Y-107608500D01*
X90334635Y-107571444D01*
X90547574Y-107498342D01*
X90745576Y-107391189D01*
X90923240Y-107252906D01*
X91075722Y-107087268D01*
X91166193Y-106948790D01*
X91219338Y-106903437D01*
X91288569Y-106894013D01*
X91351905Y-106923515D01*
X91373804Y-106948787D01*
X91464278Y-107087268D01*
X91464283Y-107087273D01*
X91464284Y-107087276D01*
X91616756Y-107252902D01*
X91616760Y-107252906D01*
X91794424Y-107391189D01*
X91794425Y-107391189D01*
X91794427Y-107391191D01*
X91810243Y-107399750D01*
X91992426Y-107498342D01*
X92205365Y-107571444D01*
X92427431Y-107608500D01*
X92652569Y-107608500D01*
X92874635Y-107571444D01*
X93087574Y-107498342D01*
X93285576Y-107391189D01*
X93463240Y-107252906D01*
X93615722Y-107087268D01*
X93706193Y-106948790D01*
X93759338Y-106903437D01*
X93828569Y-106894013D01*
X93891905Y-106923515D01*
X93913804Y-106948787D01*
X94004278Y-107087268D01*
X94004283Y-107087273D01*
X94004284Y-107087276D01*
X94156756Y-107252902D01*
X94156760Y-107252906D01*
X94334424Y-107391189D01*
X94334425Y-107391189D01*
X94334427Y-107391191D01*
X94350243Y-107399750D01*
X94532426Y-107498342D01*
X94745365Y-107571444D01*
X94967431Y-107608500D01*
X95192569Y-107608500D01*
X95414635Y-107571444D01*
X95627574Y-107498342D01*
X95825576Y-107391189D01*
X96003240Y-107252906D01*
X96155722Y-107087268D01*
X96246193Y-106948790D01*
X96299338Y-106903437D01*
X96368569Y-106894013D01*
X96431905Y-106923515D01*
X96453804Y-106948787D01*
X96544278Y-107087268D01*
X96544283Y-107087273D01*
X96544284Y-107087276D01*
X96696756Y-107252902D01*
X96696760Y-107252906D01*
X96874424Y-107391189D01*
X96874425Y-107391189D01*
X96874427Y-107391191D01*
X96890243Y-107399750D01*
X97072426Y-107498342D01*
X97285365Y-107571444D01*
X97507431Y-107608500D01*
X97732569Y-107608500D01*
X97954635Y-107571444D01*
X98167574Y-107498342D01*
X98365576Y-107391189D01*
X98543240Y-107252906D01*
X98695722Y-107087268D01*
X98786193Y-106948790D01*
X98839338Y-106903437D01*
X98908569Y-106894013D01*
X98971905Y-106923515D01*
X98993804Y-106948787D01*
X99084278Y-107087268D01*
X99084283Y-107087273D01*
X99084284Y-107087276D01*
X99236756Y-107252902D01*
X99236760Y-107252906D01*
X99414424Y-107391189D01*
X99414425Y-107391189D01*
X99414427Y-107391191D01*
X99430243Y-107399750D01*
X99612426Y-107498342D01*
X99825365Y-107571444D01*
X100047431Y-107608500D01*
X100272569Y-107608500D01*
X100494635Y-107571444D01*
X100707574Y-107498342D01*
X100905576Y-107391189D01*
X101083240Y-107252906D01*
X101235722Y-107087268D01*
X101326193Y-106948790D01*
X101379338Y-106903437D01*
X101448569Y-106894013D01*
X101511905Y-106923515D01*
X101533804Y-106948787D01*
X101624278Y-107087268D01*
X101624283Y-107087273D01*
X101624284Y-107087276D01*
X101776756Y-107252902D01*
X101776760Y-107252906D01*
X101954424Y-107391189D01*
X101954425Y-107391189D01*
X101954427Y-107391191D01*
X101970243Y-107399750D01*
X102152426Y-107498342D01*
X102365365Y-107571444D01*
X102587431Y-107608500D01*
X102812569Y-107608500D01*
X103034635Y-107571444D01*
X103247574Y-107498342D01*
X103445576Y-107391189D01*
X103623240Y-107252906D01*
X103775722Y-107087268D01*
X103866193Y-106948790D01*
X103919338Y-106903437D01*
X103988569Y-106894013D01*
X104051905Y-106923515D01*
X104073804Y-106948787D01*
X104164278Y-107087268D01*
X104164283Y-107087273D01*
X104164284Y-107087276D01*
X104316756Y-107252902D01*
X104316760Y-107252906D01*
X104494424Y-107391189D01*
X104494425Y-107391189D01*
X104494427Y-107391191D01*
X104510243Y-107399750D01*
X104692426Y-107498342D01*
X104905365Y-107571444D01*
X105127431Y-107608500D01*
X105352569Y-107608500D01*
X105574635Y-107571444D01*
X105787574Y-107498342D01*
X105985576Y-107391189D01*
X106163240Y-107252906D01*
X106315722Y-107087268D01*
X106438860Y-106898791D01*
X106529296Y-106692616D01*
X106584564Y-106474368D01*
X106603156Y-106250000D01*
X106602072Y-106236921D01*
X106584565Y-106025640D01*
X106584563Y-106025628D01*
X106529296Y-105807385D01*
X106513818Y-105772099D01*
X106438860Y-105601209D01*
X106422706Y-105576484D01*
X106319362Y-105418304D01*
X106315722Y-105412732D01*
X106315719Y-105412729D01*
X106315715Y-105412723D01*
X106163243Y-105247097D01*
X106163238Y-105247092D01*
X105985577Y-105108812D01*
X105985578Y-105108812D01*
X105985576Y-105108811D01*
X105949070Y-105089055D01*
X105899479Y-105039836D01*
X105890657Y-105000000D01*
X151286411Y-105000000D01*
X151306754Y-105388177D01*
X151310669Y-105412897D01*
X151367562Y-105772099D01*
X151385408Y-105838703D01*
X151468169Y-106147569D01*
X151607469Y-106510456D01*
X151783940Y-106856799D01*
X151995637Y-107182785D01*
X151995641Y-107182790D01*
X151995643Y-107182793D01*
X152240266Y-107484876D01*
X152515124Y-107759734D01*
X152817207Y-108004357D01*
X152817211Y-108004359D01*
X152817214Y-108004362D01*
X153143200Y-108216059D01*
X153143205Y-108216062D01*
X153489547Y-108392532D01*
X153852438Y-108531833D01*
X154227901Y-108632438D01*
X154611824Y-108693246D01*
X154978530Y-108712463D01*
X154999999Y-108713589D01*
X155000000Y-108713589D01*
X155000001Y-108713589D01*
X155020344Y-108712522D01*
X155388176Y-108693246D01*
X155772099Y-108632438D01*
X156147562Y-108531833D01*
X156510453Y-108392532D01*
X156856795Y-108216062D01*
X157182793Y-108004357D01*
X157484876Y-107759734D01*
X157759734Y-107484876D01*
X158004357Y-107182793D01*
X158216062Y-106856795D01*
X158392532Y-106510453D01*
X158531833Y-106147562D01*
X158632438Y-105772099D01*
X158693246Y-105388176D01*
X158713589Y-105000000D01*
X158693246Y-104611824D01*
X158632438Y-104227901D01*
X158531833Y-103852438D01*
X158392532Y-103489547D01*
X158216062Y-103143206D01*
X158159795Y-103056562D01*
X158004362Y-102817214D01*
X158004359Y-102817211D01*
X158004357Y-102817207D01*
X157759734Y-102515124D01*
X157484876Y-102240266D01*
X157182793Y-101995643D01*
X157182790Y-101995641D01*
X157182785Y-101995637D01*
X156856799Y-101783940D01*
X156510456Y-101607469D01*
X156147569Y-101468169D01*
X156147562Y-101468167D01*
X155772099Y-101367562D01*
X155772095Y-101367561D01*
X155772094Y-101367561D01*
X155388177Y-101306754D01*
X155000001Y-101286411D01*
X154999999Y-101286411D01*
X154611822Y-101306754D01*
X154227906Y-101367561D01*
X154227904Y-101367561D01*
X153852430Y-101468169D01*
X153489543Y-101607469D01*
X153143201Y-101783940D01*
X152817214Y-101995637D01*
X152515128Y-102240262D01*
X152515120Y-102240269D01*
X152240269Y-102515120D01*
X152240262Y-102515128D01*
X151995637Y-102817214D01*
X151783940Y-103143201D01*
X151607469Y-103489543D01*
X151468169Y-103852430D01*
X151367561Y-104227904D01*
X151367561Y-104227906D01*
X151306754Y-104611822D01*
X151286411Y-104999999D01*
X151286411Y-105000000D01*
X105890657Y-105000000D01*
X105884371Y-104971619D01*
X105908541Y-104906064D01*
X105949070Y-104870945D01*
X105949084Y-104870936D01*
X105985576Y-104851189D01*
X106163240Y-104712906D01*
X106315722Y-104547268D01*
X106438860Y-104358791D01*
X106529296Y-104152616D01*
X106584564Y-103934368D01*
X106603156Y-103710000D01*
X106584888Y-103489547D01*
X106584565Y-103485640D01*
X106584563Y-103485628D01*
X106529296Y-103267385D01*
X106474824Y-103143201D01*
X106438860Y-103061209D01*
X106422706Y-103036484D01*
X106315723Y-102872734D01*
X106315715Y-102872723D01*
X106163243Y-102707097D01*
X106163238Y-102707092D01*
X105985577Y-102568812D01*
X105985572Y-102568808D01*
X105787580Y-102461661D01*
X105787577Y-102461659D01*
X105787574Y-102461658D01*
X105787571Y-102461657D01*
X105787569Y-102461656D01*
X105574637Y-102388556D01*
X105352569Y-102351500D01*
X105218410Y-102351500D01*
X105151371Y-102331815D01*
X105105616Y-102279011D01*
X105095672Y-102209853D01*
X105124697Y-102146297D01*
X105130729Y-102139819D01*
X105486921Y-101783628D01*
X105567032Y-101644873D01*
X105608500Y-101490110D01*
X105608500Y-101329890D01*
X105608500Y-98085293D01*
X105628185Y-98018254D01*
X105635555Y-98007977D01*
X105636105Y-98007286D01*
X105636111Y-98007281D01*
X105733043Y-97853015D01*
X105793217Y-97681047D01*
X105801754Y-97605279D01*
X105813616Y-97500003D01*
X105813616Y-97499996D01*
X105793218Y-97318958D01*
X105793217Y-97318953D01*
X105782206Y-97287485D01*
X105733043Y-97146985D01*
X105636111Y-96992719D01*
X105507281Y-96863889D01*
X105353015Y-96766957D01*
X105298693Y-96747949D01*
X105181046Y-96706782D01*
X105181041Y-96706781D01*
X105000004Y-96686384D01*
X104999996Y-96686384D01*
X104818958Y-96706781D01*
X104818953Y-96706782D01*
X104646982Y-96766958D01*
X104492718Y-96863889D01*
X104363889Y-96992718D01*
X104266958Y-97146982D01*
X104206782Y-97318953D01*
X104206781Y-97318958D01*
X104186384Y-97499996D01*
X104186384Y-97500003D01*
X104206781Y-97681041D01*
X104206782Y-97681046D01*
X104266958Y-97853017D01*
X104363886Y-98007277D01*
X104364445Y-98007977D01*
X104364664Y-98008515D01*
X104367594Y-98013177D01*
X104366777Y-98013690D01*
X104390855Y-98072663D01*
X104391500Y-98085293D01*
X104391500Y-101106588D01*
X104371815Y-101173627D01*
X104355181Y-101194269D01*
X103183360Y-102366089D01*
X103122037Y-102399574D01*
X103055420Y-102395690D01*
X103034638Y-102388556D01*
X102812569Y-102351500D01*
X102587431Y-102351500D01*
X102365362Y-102388556D01*
X102152430Y-102461656D01*
X102152419Y-102461661D01*
X101954427Y-102568808D01*
X101954422Y-102568812D01*
X101776761Y-102707092D01*
X101776756Y-102707097D01*
X101624284Y-102872723D01*
X101624276Y-102872734D01*
X101533808Y-103011206D01*
X101480662Y-103056562D01*
X101411431Y-103065986D01*
X101348095Y-103036484D01*
X101326192Y-103011206D01*
X101235723Y-102872734D01*
X101235715Y-102872723D01*
X101083243Y-102707097D01*
X101083238Y-102707092D01*
X100905577Y-102568812D01*
X100905572Y-102568808D01*
X100707580Y-102461661D01*
X100707577Y-102461659D01*
X100707574Y-102461658D01*
X100707571Y-102461657D01*
X100707569Y-102461656D01*
X100494637Y-102388556D01*
X100272569Y-102351500D01*
X100047431Y-102351500D01*
X99825362Y-102388556D01*
X99612430Y-102461656D01*
X99612419Y-102461661D01*
X99414427Y-102568808D01*
X99414422Y-102568812D01*
X99236761Y-102707092D01*
X99236756Y-102707097D01*
X99084284Y-102872723D01*
X99084276Y-102872734D01*
X98993808Y-103011206D01*
X98940662Y-103056562D01*
X98871431Y-103065986D01*
X98808095Y-103036484D01*
X98786192Y-103011206D01*
X98695723Y-102872734D01*
X98695715Y-102872723D01*
X98543243Y-102707097D01*
X98543238Y-102707092D01*
X98365577Y-102568812D01*
X98365572Y-102568808D01*
X98167580Y-102461661D01*
X98167577Y-102461659D01*
X98167574Y-102461658D01*
X98167571Y-102461657D01*
X98167569Y-102461656D01*
X97954637Y-102388556D01*
X97732569Y-102351500D01*
X97507431Y-102351500D01*
X97285362Y-102388556D01*
X97072430Y-102461656D01*
X97072419Y-102461661D01*
X96874427Y-102568808D01*
X96874422Y-102568812D01*
X96696761Y-102707092D01*
X96696756Y-102707097D01*
X96544284Y-102872723D01*
X96544276Y-102872734D01*
X96453808Y-103011206D01*
X96400662Y-103056562D01*
X96331431Y-103065986D01*
X96268095Y-103036484D01*
X96246192Y-103011206D01*
X96155723Y-102872734D01*
X96155715Y-102872723D01*
X96003243Y-102707097D01*
X96003238Y-102707092D01*
X95825577Y-102568812D01*
X95825572Y-102568808D01*
X95627580Y-102461661D01*
X95627577Y-102461659D01*
X95627574Y-102461658D01*
X95627571Y-102461657D01*
X95627569Y-102461656D01*
X95414637Y-102388556D01*
X95192569Y-102351500D01*
X94967431Y-102351500D01*
X94745362Y-102388556D01*
X94532430Y-102461656D01*
X94532419Y-102461661D01*
X94334427Y-102568808D01*
X94334422Y-102568812D01*
X94156761Y-102707092D01*
X94156756Y-102707097D01*
X94004284Y-102872723D01*
X94004276Y-102872734D01*
X93913808Y-103011206D01*
X93860662Y-103056562D01*
X93791431Y-103065986D01*
X93728095Y-103036484D01*
X93706192Y-103011206D01*
X93615723Y-102872734D01*
X93615715Y-102872723D01*
X93463243Y-102707097D01*
X93463238Y-102707092D01*
X93285577Y-102568812D01*
X93285572Y-102568808D01*
X93087580Y-102461661D01*
X93087577Y-102461659D01*
X93087574Y-102461658D01*
X93087571Y-102461657D01*
X93087569Y-102461656D01*
X92874637Y-102388556D01*
X92652569Y-102351500D01*
X92427431Y-102351500D01*
X92205362Y-102388556D01*
X91992430Y-102461656D01*
X91992419Y-102461661D01*
X91794427Y-102568808D01*
X91794422Y-102568812D01*
X91616761Y-102707092D01*
X91553548Y-102775760D01*
X91493661Y-102811750D01*
X91423823Y-102809649D01*
X91366207Y-102770124D01*
X91346138Y-102735110D01*
X91300889Y-102613796D01*
X91267214Y-102568812D01*
X91213261Y-102496739D01*
X91096204Y-102409111D01*
X91070635Y-102399574D01*
X90959203Y-102358011D01*
X90898654Y-102351500D01*
X90898638Y-102351500D01*
X89101362Y-102351500D01*
X89101345Y-102351500D01*
X89040797Y-102358011D01*
X89040795Y-102358011D01*
X88903795Y-102409111D01*
X88786739Y-102496739D01*
X88699111Y-102613795D01*
X88648011Y-102750795D01*
X88648011Y-102750797D01*
X88641500Y-102811345D01*
X88641500Y-104608654D01*
X88648011Y-104669202D01*
X88648011Y-104669204D01*
X88699111Y-104806204D01*
X88786739Y-104923261D01*
X88903796Y-105010889D01*
X88955737Y-105030262D01*
X89021595Y-105054827D01*
X89077528Y-105096699D01*
X89101944Y-105162163D01*
X89087092Y-105230436D01*
X89069490Y-105254991D01*
X88924279Y-105412730D01*
X88924276Y-105412734D01*
X88801140Y-105601207D01*
X88710703Y-105807385D01*
X88655436Y-106025628D01*
X88655434Y-106025640D01*
X88636844Y-106249994D01*
X88636844Y-106250005D01*
X28492509Y-106250005D01*
X28531833Y-106147562D01*
X28632438Y-105772099D01*
X28693246Y-105388176D01*
X28713589Y-105000000D01*
X28693246Y-104611824D01*
X28632438Y-104227901D01*
X28531833Y-103852438D01*
X28392532Y-103489547D01*
X28216062Y-103143206D01*
X28159795Y-103056562D01*
X28004362Y-102817214D01*
X28004359Y-102817211D01*
X28004357Y-102817207D01*
X27759734Y-102515124D01*
X27484876Y-102240266D01*
X27182793Y-101995643D01*
X27182790Y-101995641D01*
X27182785Y-101995637D01*
X26856799Y-101783940D01*
X26510456Y-101607469D01*
X26147569Y-101468169D01*
X26147562Y-101468167D01*
X25772099Y-101367562D01*
X25772095Y-101367561D01*
X25772094Y-101367561D01*
X25388177Y-101306754D01*
X25000001Y-101286411D01*
X24999999Y-101286411D01*
X24611822Y-101306754D01*
X24227906Y-101367561D01*
X24227904Y-101367561D01*
X23852430Y-101468169D01*
X23489543Y-101607469D01*
X23143201Y-101783940D01*
X22817214Y-101995637D01*
X22515128Y-102240262D01*
X22515120Y-102240269D01*
X22240269Y-102515120D01*
X22240262Y-102515128D01*
X21995637Y-102817214D01*
X21783940Y-103143201D01*
X21607469Y-103489543D01*
X21468169Y-103852430D01*
X21367561Y-104227904D01*
X21367561Y-104227906D01*
X21306754Y-104611822D01*
X21286411Y-104999999D01*
X21286411Y-105000000D01*
X20200559Y-105000000D01*
X20200500Y-104997293D01*
X20200500Y-98000000D01*
X77486807Y-98000000D01*
X77505557Y-98274130D01*
X77505558Y-98274132D01*
X77561458Y-98543141D01*
X77561463Y-98543158D01*
X77653476Y-98802056D01*
X77779889Y-99046024D01*
X77779893Y-99046030D01*
X77938340Y-99270499D01*
X77938343Y-99270502D01*
X78125889Y-99471314D01*
X78339031Y-99644718D01*
X78339033Y-99644719D01*
X78339034Y-99644720D01*
X78573801Y-99787485D01*
X78778348Y-99876331D01*
X78825823Y-99896953D01*
X79090404Y-99971085D01*
X79329720Y-100003978D01*
X79362614Y-100008500D01*
X79362615Y-100008500D01*
X79637386Y-100008500D01*
X79666733Y-100004466D01*
X79909596Y-99971085D01*
X80174177Y-99896953D01*
X80426200Y-99787484D01*
X80660969Y-99644718D01*
X80874111Y-99471314D01*
X81061657Y-99270502D01*
X81220111Y-99046023D01*
X81346523Y-98802058D01*
X81438538Y-98543153D01*
X81438539Y-98543146D01*
X81438541Y-98543141D01*
X81464491Y-98418259D01*
X81494442Y-98274130D01*
X81513193Y-98000000D01*
X82986807Y-98000000D01*
X83005557Y-98274130D01*
X83005558Y-98274132D01*
X83061458Y-98543141D01*
X83061463Y-98543158D01*
X83153476Y-98802056D01*
X83279889Y-99046024D01*
X83279893Y-99046030D01*
X83438340Y-99270499D01*
X83438343Y-99270502D01*
X83625889Y-99471314D01*
X83839031Y-99644718D01*
X83839033Y-99644719D01*
X83839034Y-99644720D01*
X84073801Y-99787485D01*
X84278348Y-99876331D01*
X84325823Y-99896953D01*
X84590404Y-99971085D01*
X84829720Y-100003978D01*
X84862614Y-100008500D01*
X84862615Y-100008500D01*
X85137386Y-100008500D01*
X85166733Y-100004466D01*
X85409596Y-99971085D01*
X85674177Y-99896953D01*
X85926200Y-99787484D01*
X86160969Y-99644718D01*
X86374111Y-99471314D01*
X86561657Y-99270502D01*
X86720111Y-99046023D01*
X86846523Y-98802058D01*
X86938538Y-98543153D01*
X86938539Y-98543146D01*
X86938541Y-98543141D01*
X86964491Y-98418259D01*
X86994442Y-98274130D01*
X87013193Y-98000000D01*
X87986807Y-98000000D01*
X88005557Y-98274130D01*
X88005558Y-98274132D01*
X88061458Y-98543141D01*
X88061463Y-98543158D01*
X88153476Y-98802056D01*
X88279889Y-99046024D01*
X88279893Y-99046030D01*
X88438340Y-99270499D01*
X88438343Y-99270502D01*
X88625889Y-99471314D01*
X88839031Y-99644718D01*
X88839033Y-99644719D01*
X88839034Y-99644720D01*
X89073801Y-99787485D01*
X89278348Y-99876331D01*
X89325823Y-99896953D01*
X89590404Y-99971085D01*
X89829720Y-100003978D01*
X89862614Y-100008500D01*
X89862615Y-100008500D01*
X90137386Y-100008500D01*
X90166733Y-100004466D01*
X90409596Y-99971085D01*
X90674177Y-99896953D01*
X90926200Y-99787484D01*
X91160969Y-99644718D01*
X91374111Y-99471314D01*
X91561657Y-99270502D01*
X91720111Y-99046023D01*
X91846523Y-98802058D01*
X91938538Y-98543153D01*
X91938539Y-98543146D01*
X91938541Y-98543141D01*
X91964491Y-98418259D01*
X91994442Y-98274130D01*
X92013193Y-98000000D01*
X91994442Y-97725870D01*
X91949272Y-97508500D01*
X91938541Y-97456858D01*
X91938536Y-97456841D01*
X91889530Y-97318953D01*
X91846523Y-97197942D01*
X91720111Y-96953977D01*
X91720110Y-96953975D01*
X91720106Y-96953969D01*
X91561659Y-96729500D01*
X91521391Y-96686384D01*
X91374111Y-96528686D01*
X91160969Y-96355282D01*
X91160967Y-96355281D01*
X91160965Y-96355279D01*
X90926198Y-96212514D01*
X90674178Y-96103047D01*
X90409602Y-96028916D01*
X90409597Y-96028915D01*
X90409596Y-96028915D01*
X90273490Y-96010207D01*
X90137386Y-95991500D01*
X90137385Y-95991500D01*
X89862615Y-95991500D01*
X89862614Y-95991500D01*
X89590404Y-96028915D01*
X89590397Y-96028916D01*
X89325821Y-96103047D01*
X89073801Y-96212514D01*
X88839034Y-96355279D01*
X88625892Y-96528683D01*
X88438340Y-96729500D01*
X88279893Y-96953969D01*
X88279889Y-96953975D01*
X88153476Y-97197943D01*
X88061463Y-97456841D01*
X88061458Y-97456858D01*
X88005558Y-97725867D01*
X88005557Y-97725869D01*
X87986807Y-98000000D01*
X87013193Y-98000000D01*
X86994442Y-97725870D01*
X86949272Y-97508500D01*
X86938541Y-97456858D01*
X86938536Y-97456841D01*
X86889530Y-97318953D01*
X86846523Y-97197942D01*
X86720111Y-96953977D01*
X86720110Y-96953975D01*
X86720106Y-96953969D01*
X86561659Y-96729500D01*
X86521391Y-96686384D01*
X86374111Y-96528686D01*
X86160969Y-96355282D01*
X86160967Y-96355281D01*
X86160965Y-96355279D01*
X85926198Y-96212514D01*
X85674178Y-96103047D01*
X85409602Y-96028916D01*
X85409597Y-96028915D01*
X85409596Y-96028915D01*
X85273490Y-96010207D01*
X85137386Y-95991500D01*
X85137385Y-95991500D01*
X84862615Y-95991500D01*
X84862614Y-95991500D01*
X84590404Y-96028915D01*
X84590397Y-96028916D01*
X84325821Y-96103047D01*
X84073801Y-96212514D01*
X83839034Y-96355279D01*
X83625892Y-96528683D01*
X83438340Y-96729500D01*
X83279893Y-96953969D01*
X83279889Y-96953975D01*
X83153476Y-97197943D01*
X83061463Y-97456841D01*
X83061458Y-97456858D01*
X83005558Y-97725867D01*
X83005557Y-97725869D01*
X82986807Y-98000000D01*
X81513193Y-98000000D01*
X81494442Y-97725870D01*
X81449272Y-97508500D01*
X81438541Y-97456858D01*
X81438536Y-97456841D01*
X81389530Y-97318953D01*
X81346523Y-97197942D01*
X81220111Y-96953977D01*
X81220110Y-96953975D01*
X81220106Y-96953969D01*
X81061659Y-96729500D01*
X81021391Y-96686384D01*
X80874111Y-96528686D01*
X80660969Y-96355282D01*
X80660967Y-96355281D01*
X80660965Y-96355279D01*
X80426198Y-96212514D01*
X80174178Y-96103047D01*
X79909602Y-96028916D01*
X79909597Y-96028915D01*
X79909596Y-96028915D01*
X79773490Y-96010207D01*
X79637386Y-95991500D01*
X79637385Y-95991500D01*
X79362615Y-95991500D01*
X79362614Y-95991500D01*
X79090404Y-96028915D01*
X79090397Y-96028916D01*
X78825821Y-96103047D01*
X78573801Y-96212514D01*
X78339034Y-96355279D01*
X78125892Y-96528683D01*
X77938340Y-96729500D01*
X77779893Y-96953969D01*
X77779889Y-96953975D01*
X77653476Y-97197943D01*
X77561463Y-97456841D01*
X77561458Y-97456858D01*
X77505558Y-97725867D01*
X77505557Y-97725869D01*
X77486807Y-98000000D01*
X20200500Y-98000000D01*
X20200500Y-71500004D01*
X40286709Y-71500004D01*
X40305843Y-71755343D01*
X40305844Y-71755348D01*
X40362822Y-72004987D01*
X40362824Y-72004996D01*
X40362826Y-72005001D01*
X40456378Y-72243369D01*
X40584413Y-72465131D01*
X40658872Y-72558500D01*
X40744072Y-72665338D01*
X40915757Y-72824637D01*
X40931781Y-72839505D01*
X41143355Y-72983754D01*
X41143360Y-72983756D01*
X41143361Y-72983757D01*
X41143362Y-72983758D01*
X41220020Y-73020674D01*
X41374061Y-73094856D01*
X41374062Y-73094856D01*
X41374065Y-73094858D01*
X41618757Y-73170335D01*
X41618758Y-73170335D01*
X41618761Y-73170336D01*
X41871958Y-73208499D01*
X41871963Y-73208499D01*
X41871966Y-73208500D01*
X41871967Y-73208500D01*
X42128033Y-73208500D01*
X42128034Y-73208500D01*
X42139426Y-73206783D01*
X42381238Y-73170336D01*
X42381239Y-73170335D01*
X42381243Y-73170335D01*
X42625935Y-73094858D01*
X42856646Y-72983754D01*
X43068219Y-72839505D01*
X43255931Y-72665334D01*
X43415587Y-72465131D01*
X43543622Y-72243369D01*
X43637174Y-72005001D01*
X43694155Y-71755353D01*
X43694156Y-71755343D01*
X43713291Y-71500004D01*
X54286709Y-71500004D01*
X54305843Y-71755343D01*
X54305844Y-71755348D01*
X54362822Y-72004987D01*
X54362824Y-72004996D01*
X54362826Y-72005001D01*
X54456378Y-72243369D01*
X54584413Y-72465131D01*
X54658872Y-72558500D01*
X54744072Y-72665338D01*
X54915757Y-72824637D01*
X54931781Y-72839505D01*
X55143355Y-72983754D01*
X55143360Y-72983756D01*
X55143361Y-72983757D01*
X55143362Y-72983758D01*
X55220020Y-73020674D01*
X55374061Y-73094856D01*
X55374062Y-73094856D01*
X55374065Y-73094858D01*
X55618757Y-73170335D01*
X55618758Y-73170335D01*
X55618761Y-73170336D01*
X55871958Y-73208499D01*
X55871963Y-73208499D01*
X55871966Y-73208500D01*
X55871967Y-73208500D01*
X56128033Y-73208500D01*
X56128034Y-73208500D01*
X56139426Y-73206783D01*
X56381238Y-73170336D01*
X56381239Y-73170335D01*
X56381243Y-73170335D01*
X56625935Y-73094858D01*
X56856646Y-72983754D01*
X57068219Y-72839505D01*
X57255931Y-72665334D01*
X57415587Y-72465131D01*
X57543622Y-72243369D01*
X57637174Y-72005001D01*
X57694155Y-71755353D01*
X57694156Y-71755343D01*
X57713291Y-71500004D01*
X57713291Y-71499995D01*
X57694156Y-71244656D01*
X57694155Y-71244651D01*
X57694155Y-71244647D01*
X57637174Y-70994999D01*
X57543622Y-70756631D01*
X57415587Y-70534869D01*
X57255931Y-70334666D01*
X57255930Y-70334665D01*
X57255927Y-70334661D01*
X57118705Y-70207339D01*
X57068219Y-70160495D01*
X57066001Y-70158983D01*
X56856649Y-70016248D01*
X56856638Y-70016241D01*
X56625940Y-69905144D01*
X56625921Y-69905137D01*
X56381248Y-69829666D01*
X56381238Y-69829663D01*
X56128041Y-69791500D01*
X56128034Y-69791500D01*
X55871966Y-69791500D01*
X55871958Y-69791500D01*
X55618761Y-69829663D01*
X55618755Y-69829665D01*
X55374061Y-69905143D01*
X55143362Y-70016241D01*
X55143361Y-70016242D01*
X54931780Y-70160495D01*
X54744072Y-70334661D01*
X54584413Y-70534869D01*
X54456378Y-70756630D01*
X54362828Y-70994993D01*
X54362822Y-70995012D01*
X54305844Y-71244651D01*
X54305843Y-71244656D01*
X54286709Y-71499995D01*
X54286709Y-71500004D01*
X43713291Y-71500004D01*
X43713291Y-71499995D01*
X43694156Y-71244656D01*
X43694155Y-71244651D01*
X43694155Y-71244647D01*
X43637174Y-70994999D01*
X43543622Y-70756631D01*
X43415587Y-70534869D01*
X43255931Y-70334666D01*
X43255930Y-70334665D01*
X43255927Y-70334661D01*
X43118705Y-70207339D01*
X43068219Y-70160495D01*
X43066001Y-70158983D01*
X42856649Y-70016248D01*
X42856638Y-70016241D01*
X42625940Y-69905144D01*
X42625921Y-69905137D01*
X42381248Y-69829666D01*
X42381238Y-69829663D01*
X42128041Y-69791500D01*
X42128034Y-69791500D01*
X41871966Y-69791500D01*
X41871958Y-69791500D01*
X41618761Y-69829663D01*
X41618755Y-69829665D01*
X41374061Y-69905143D01*
X41143362Y-70016241D01*
X41143361Y-70016242D01*
X40931780Y-70160495D01*
X40744072Y-70334661D01*
X40584413Y-70534869D01*
X40456378Y-70756630D01*
X40362828Y-70994993D01*
X40362822Y-70995012D01*
X40305844Y-71244651D01*
X40305843Y-71244656D01*
X40286709Y-71499995D01*
X40286709Y-71500004D01*
X20200500Y-71500004D01*
X20200500Y-61525537D01*
X39391500Y-61525537D01*
X39391501Y-61525553D01*
X39402113Y-61629427D01*
X39437054Y-61734872D01*
X39457885Y-61797738D01*
X39550970Y-61948652D01*
X39676348Y-62074030D01*
X39827262Y-62167115D01*
X39995574Y-62222887D01*
X40099455Y-62233500D01*
X40700544Y-62233499D01*
X40804426Y-62222887D01*
X40972738Y-62167115D01*
X41123652Y-62074030D01*
X41249030Y-61948652D01*
X41342115Y-61797738D01*
X41380335Y-61682396D01*
X41420107Y-61624951D01*
X41484623Y-61598128D01*
X41498041Y-61597400D01*
X41726605Y-61597400D01*
X41793644Y-61617085D01*
X41814286Y-61633719D01*
X41816678Y-61636111D01*
X41970944Y-61733043D01*
X42126528Y-61787484D01*
X42142912Y-61793217D01*
X42142917Y-61793218D01*
X42323955Y-61813616D01*
X42323959Y-61813616D01*
X42323963Y-61813616D01*
X42505000Y-61793218D01*
X42505003Y-61793217D01*
X42505006Y-61793217D01*
X42676974Y-61733043D01*
X42831240Y-61636111D01*
X42941814Y-61525537D01*
X46491500Y-61525537D01*
X46491501Y-61525553D01*
X46502113Y-61629427D01*
X46537054Y-61734872D01*
X46557885Y-61797738D01*
X46650970Y-61948652D01*
X46776348Y-62074030D01*
X46927262Y-62167115D01*
X47095574Y-62222887D01*
X47199455Y-62233500D01*
X47800544Y-62233499D01*
X47904426Y-62222887D01*
X48072738Y-62167115D01*
X48223652Y-62074030D01*
X48349030Y-61948652D01*
X48442115Y-61797738D01*
X48480335Y-61682396D01*
X48520107Y-61624951D01*
X48584623Y-61598128D01*
X48598041Y-61597400D01*
X48902646Y-61597400D01*
X48969685Y-61617085D01*
X48990327Y-61633719D01*
X48992719Y-61636111D01*
X49146985Y-61733043D01*
X49302569Y-61787484D01*
X49318953Y-61793217D01*
X49318958Y-61793218D01*
X49499996Y-61813616D01*
X49500000Y-61813616D01*
X49500004Y-61813616D01*
X49681041Y-61793218D01*
X49681044Y-61793217D01*
X49681047Y-61793217D01*
X49853015Y-61733043D01*
X50007281Y-61636111D01*
X50117855Y-61525537D01*
X52991500Y-61525537D01*
X52991501Y-61525553D01*
X53002113Y-61629427D01*
X53037054Y-61734872D01*
X53057885Y-61797738D01*
X53150970Y-61948652D01*
X53276348Y-62074030D01*
X53427262Y-62167115D01*
X53595574Y-62222887D01*
X53699455Y-62233500D01*
X54300544Y-62233499D01*
X54404426Y-62222887D01*
X54572738Y-62167115D01*
X54723652Y-62074030D01*
X54849030Y-61948652D01*
X54942115Y-61797738D01*
X54980335Y-61682396D01*
X55020107Y-61624951D01*
X55084623Y-61598128D01*
X55098041Y-61597400D01*
X55402646Y-61597400D01*
X55469685Y-61617085D01*
X55490327Y-61633719D01*
X55492719Y-61636111D01*
X55646985Y-61733043D01*
X55802569Y-61787484D01*
X55818953Y-61793217D01*
X55818958Y-61793218D01*
X55999996Y-61813616D01*
X56000000Y-61813616D01*
X56000004Y-61813616D01*
X56181041Y-61793218D01*
X56181044Y-61793217D01*
X56181047Y-61793217D01*
X56353015Y-61733043D01*
X56507281Y-61636111D01*
X56636111Y-61507281D01*
X56733043Y-61353015D01*
X56793217Y-61181047D01*
X56793218Y-61181041D01*
X56813616Y-61000003D01*
X56813616Y-60999996D01*
X56793218Y-60818958D01*
X56793217Y-60818953D01*
X56787305Y-60802058D01*
X56733043Y-60646985D01*
X56636111Y-60492719D01*
X56507281Y-60363889D01*
X56499199Y-60358811D01*
X56353017Y-60266958D01*
X56353016Y-60266957D01*
X56353015Y-60266957D01*
X56298693Y-60247949D01*
X56181046Y-60206782D01*
X56181041Y-60206781D01*
X56000004Y-60186384D01*
X55999996Y-60186384D01*
X55818958Y-60206781D01*
X55818953Y-60206782D01*
X55646982Y-60266958D01*
X55492718Y-60363889D01*
X55490327Y-60366281D01*
X55488401Y-60367332D01*
X55487276Y-60368230D01*
X55487118Y-60368032D01*
X55429004Y-60399766D01*
X55402646Y-60402600D01*
X55098041Y-60402600D01*
X55031002Y-60382915D01*
X54985247Y-60330111D01*
X54980335Y-60317604D01*
X54958483Y-60251658D01*
X54942115Y-60202262D01*
X54849030Y-60051348D01*
X54723652Y-59925970D01*
X54572738Y-59832885D01*
X54572735Y-59832884D01*
X54404427Y-59777113D01*
X54300546Y-59766500D01*
X53699462Y-59766500D01*
X53699446Y-59766501D01*
X53595572Y-59777113D01*
X53427264Y-59832884D01*
X53427259Y-59832886D01*
X53276346Y-59925971D01*
X53150971Y-60051346D01*
X53057886Y-60202259D01*
X53057884Y-60202264D01*
X53002113Y-60370572D01*
X52991500Y-60474447D01*
X52991500Y-61525537D01*
X50117855Y-61525537D01*
X50136111Y-61507281D01*
X50233043Y-61353015D01*
X50293217Y-61181047D01*
X50293218Y-61181041D01*
X50313616Y-61000003D01*
X50313616Y-60999996D01*
X50293218Y-60818958D01*
X50293217Y-60818953D01*
X50287305Y-60802058D01*
X50233043Y-60646985D01*
X50136111Y-60492719D01*
X50007281Y-60363889D01*
X49999199Y-60358811D01*
X49853017Y-60266958D01*
X49853016Y-60266957D01*
X49853015Y-60266957D01*
X49798693Y-60247949D01*
X49681046Y-60206782D01*
X49681041Y-60206781D01*
X49500004Y-60186384D01*
X49499996Y-60186384D01*
X49318958Y-60206781D01*
X49318953Y-60206782D01*
X49146982Y-60266958D01*
X48992718Y-60363889D01*
X48990327Y-60366281D01*
X48988401Y-60367332D01*
X48987276Y-60368230D01*
X48987118Y-60368032D01*
X48929004Y-60399766D01*
X48902646Y-60402600D01*
X48598041Y-60402600D01*
X48531002Y-60382915D01*
X48485247Y-60330111D01*
X48480335Y-60317604D01*
X48458483Y-60251658D01*
X48442115Y-60202262D01*
X48349030Y-60051348D01*
X48223652Y-59925970D01*
X48072738Y-59832885D01*
X48072735Y-59832884D01*
X47904427Y-59777113D01*
X47800546Y-59766500D01*
X47199462Y-59766500D01*
X47199446Y-59766501D01*
X47095572Y-59777113D01*
X46927264Y-59832884D01*
X46927259Y-59832886D01*
X46776346Y-59925971D01*
X46650971Y-60051346D01*
X46557886Y-60202259D01*
X46557884Y-60202264D01*
X46502113Y-60370572D01*
X46491500Y-60474447D01*
X46491500Y-61525537D01*
X42941814Y-61525537D01*
X42960070Y-61507281D01*
X43057002Y-61353015D01*
X43117176Y-61181047D01*
X43117177Y-61181041D01*
X43137575Y-61000003D01*
X43137575Y-60999996D01*
X43117177Y-60818958D01*
X43117176Y-60818953D01*
X43111264Y-60802058D01*
X43057002Y-60646985D01*
X42960070Y-60492719D01*
X42831240Y-60363889D01*
X42823158Y-60358811D01*
X42676976Y-60266958D01*
X42676975Y-60266957D01*
X42676974Y-60266957D01*
X42622652Y-60247949D01*
X42505005Y-60206782D01*
X42505000Y-60206781D01*
X42323963Y-60186384D01*
X42323955Y-60186384D01*
X42142917Y-60206781D01*
X42142912Y-60206782D01*
X41970941Y-60266958D01*
X41816677Y-60363889D01*
X41814286Y-60366281D01*
X41812360Y-60367332D01*
X41811235Y-60368230D01*
X41811077Y-60368032D01*
X41752963Y-60399766D01*
X41726605Y-60402600D01*
X41498041Y-60402600D01*
X41431002Y-60382915D01*
X41385247Y-60330111D01*
X41380335Y-60317604D01*
X41358483Y-60251658D01*
X41342115Y-60202262D01*
X41249030Y-60051348D01*
X41123652Y-59925970D01*
X40972738Y-59832885D01*
X40972735Y-59832884D01*
X40804427Y-59777113D01*
X40700546Y-59766500D01*
X40099462Y-59766500D01*
X40099446Y-59766501D01*
X39995572Y-59777113D01*
X39827264Y-59832884D01*
X39827259Y-59832886D01*
X39676346Y-59925971D01*
X39550971Y-60051346D01*
X39457886Y-60202259D01*
X39457884Y-60202264D01*
X39402113Y-60370572D01*
X39391500Y-60474447D01*
X39391500Y-61525537D01*
X20200500Y-61525537D01*
X20200500Y-58000000D01*
X28986807Y-58000000D01*
X29005557Y-58274130D01*
X29005558Y-58274132D01*
X29061458Y-58543141D01*
X29061463Y-58543158D01*
X29153476Y-58802056D01*
X29279889Y-59046024D01*
X29279893Y-59046030D01*
X29438340Y-59270499D01*
X29438343Y-59270502D01*
X29625889Y-59471314D01*
X29839031Y-59644718D01*
X29839033Y-59644719D01*
X29839034Y-59644720D01*
X30073801Y-59787485D01*
X30278348Y-59876331D01*
X30325823Y-59896953D01*
X30590404Y-59971085D01*
X30829720Y-60003978D01*
X30862614Y-60008500D01*
X30862615Y-60008500D01*
X31137386Y-60008500D01*
X31166733Y-60004466D01*
X31409596Y-59971085D01*
X31674177Y-59896953D01*
X31926200Y-59787484D01*
X32160969Y-59644718D01*
X32374111Y-59471314D01*
X32561657Y-59270502D01*
X32720111Y-59046023D01*
X32846523Y-58802058D01*
X32938538Y-58543153D01*
X32938539Y-58543146D01*
X32938541Y-58543141D01*
X32988638Y-58302058D01*
X32994442Y-58274130D01*
X33013193Y-58000000D01*
X32994442Y-57725870D01*
X32962449Y-57571910D01*
X32938541Y-57456858D01*
X32938536Y-57456841D01*
X32913561Y-57386568D01*
X32846523Y-57197942D01*
X32720111Y-56953977D01*
X32720110Y-56953975D01*
X32720106Y-56953969D01*
X32561659Y-56729500D01*
X32532186Y-56697942D01*
X32374111Y-56528686D01*
X32160969Y-56355282D01*
X32160967Y-56355281D01*
X32160965Y-56355279D01*
X31926198Y-56212514D01*
X31674178Y-56103047D01*
X31409602Y-56028916D01*
X31409597Y-56028915D01*
X31409596Y-56028915D01*
X31273490Y-56010207D01*
X31137386Y-55991500D01*
X31137385Y-55991500D01*
X30862615Y-55991500D01*
X30862614Y-55991500D01*
X30590404Y-56028915D01*
X30590397Y-56028916D01*
X30325821Y-56103047D01*
X30073801Y-56212514D01*
X29839034Y-56355279D01*
X29625892Y-56528683D01*
X29438340Y-56729500D01*
X29279893Y-56953969D01*
X29279889Y-56953975D01*
X29153476Y-57197943D01*
X29061463Y-57456841D01*
X29061458Y-57456858D01*
X29005558Y-57725867D01*
X29005557Y-57725869D01*
X28986807Y-58000000D01*
X20200500Y-58000000D01*
X20200500Y-33588037D01*
X22544000Y-33588037D01*
X22544001Y-33588053D01*
X22554613Y-33691926D01*
X22610385Y-33860238D01*
X22703470Y-34011152D01*
X22828848Y-34136530D01*
X22908697Y-34185781D01*
X22955422Y-34237729D01*
X22967600Y-34291320D01*
X22967600Y-35307296D01*
X22947915Y-35374335D01*
X22908698Y-35412834D01*
X22849002Y-35449655D01*
X22724657Y-35574000D01*
X22632340Y-35723668D01*
X22632337Y-35723675D01*
X22577025Y-35890597D01*
X22566500Y-35993617D01*
X22566500Y-37006367D01*
X22566501Y-37006383D01*
X22577026Y-37109405D01*
X22581863Y-37124001D01*
X22632339Y-37276329D01*
X22724656Y-37425998D01*
X22849002Y-37550344D01*
X22998671Y-37642661D01*
X23165596Y-37697974D01*
X23268625Y-37708500D01*
X23856374Y-37708499D01*
X23959404Y-37697974D01*
X24126329Y-37642661D01*
X24275998Y-37550344D01*
X24400344Y-37425998D01*
X24400349Y-37425988D01*
X24402732Y-37422977D01*
X24404900Y-37421441D01*
X24405451Y-37420891D01*
X24405545Y-37420985D01*
X24459754Y-37382599D01*
X24529553Y-37379459D01*
X24589969Y-37414554D01*
X24597268Y-37422977D01*
X24599653Y-37425994D01*
X24599656Y-37425998D01*
X24599657Y-37425999D01*
X24599659Y-37426001D01*
X24724001Y-37550343D01*
X24724005Y-37550346D01*
X24781197Y-37585623D01*
X24827922Y-37637571D01*
X24840100Y-37691161D01*
X24840100Y-38690144D01*
X24833142Y-38731099D01*
X24771782Y-38906453D01*
X24771781Y-38906458D01*
X24751384Y-39087496D01*
X24751384Y-39087503D01*
X24771781Y-39268541D01*
X24771782Y-39268546D01*
X24831958Y-39440517D01*
X24928889Y-39594781D01*
X25057719Y-39723611D01*
X25211985Y-39820543D01*
X25368532Y-39875321D01*
X25383953Y-39880717D01*
X25383958Y-39880718D01*
X25564996Y-39901116D01*
X25565000Y-39901116D01*
X25565004Y-39901116D01*
X25746041Y-39880718D01*
X25746044Y-39880717D01*
X25746047Y-39880717D01*
X25918015Y-39820543D01*
X26072281Y-39723611D01*
X26201111Y-39594781D01*
X26298043Y-39440515D01*
X26358217Y-39268547D01*
X26378616Y-39087500D01*
X26358217Y-38906453D01*
X26298043Y-38734485D01*
X26201111Y-38580219D01*
X26072281Y-38451389D01*
X26072280Y-38451388D01*
X26071218Y-38450326D01*
X26037734Y-38389003D01*
X26034900Y-38362645D01*
X26034900Y-37691161D01*
X26054585Y-37624122D01*
X26093803Y-37585623D01*
X26129090Y-37563856D01*
X26150998Y-37550344D01*
X26275344Y-37425998D01*
X26367661Y-37276329D01*
X26422974Y-37109404D01*
X26433500Y-37006375D01*
X26433499Y-35993626D01*
X26422974Y-35890596D01*
X26367661Y-35723671D01*
X26275344Y-35574002D01*
X26150998Y-35449656D01*
X26001329Y-35357339D01*
X26001327Y-35357338D01*
X26001324Y-35357337D01*
X25834401Y-35302025D01*
X25834402Y-35302025D01*
X25731376Y-35291500D01*
X25143632Y-35291500D01*
X25143616Y-35291501D01*
X25040594Y-35302026D01*
X24873673Y-35357338D01*
X24873668Y-35357340D01*
X24724000Y-35449657D01*
X24599655Y-35574002D01*
X24597263Y-35577028D01*
X24595094Y-35578563D01*
X24594549Y-35579109D01*
X24594455Y-35579015D01*
X24540240Y-35617402D01*
X24470441Y-35620538D01*
X24410026Y-35585440D01*
X24402737Y-35577028D01*
X24400344Y-35574002D01*
X24275997Y-35449655D01*
X24221302Y-35415918D01*
X24174578Y-35363969D01*
X24162400Y-35310380D01*
X24162400Y-34291320D01*
X24182085Y-34224281D01*
X24221303Y-34185781D01*
X24301152Y-34136530D01*
X24426530Y-34011152D01*
X24519615Y-33860238D01*
X24575387Y-33691926D01*
X24586000Y-33588045D01*
X24585999Y-32586956D01*
X24575387Y-32483074D01*
X24519615Y-32314762D01*
X24426530Y-32163848D01*
X24301152Y-32038470D01*
X24150238Y-31945385D01*
X24150235Y-31945384D01*
X23981927Y-31889613D01*
X23878046Y-31879000D01*
X23251962Y-31879000D01*
X23251946Y-31879001D01*
X23148072Y-31889613D01*
X22979764Y-31945384D01*
X22979759Y-31945386D01*
X22828846Y-32038471D01*
X22703471Y-32163846D01*
X22610386Y-32314759D01*
X22610384Y-32314764D01*
X22554613Y-32483072D01*
X22544000Y-32586947D01*
X22544000Y-33588037D01*
X20200500Y-33588037D01*
X20200500Y-25002706D01*
X20200618Y-24997297D01*
X20209891Y-24784906D01*
X20218528Y-24587080D01*
X20219468Y-24576347D01*
X20272709Y-24171938D01*
X20274582Y-24161308D01*
X20362870Y-23763068D01*
X20365668Y-23752630D01*
X20397417Y-23651936D01*
X20445322Y-23500000D01*
X28486807Y-23500000D01*
X28505557Y-23774130D01*
X28505558Y-23774132D01*
X28561458Y-24043141D01*
X28561463Y-24043158D01*
X28653476Y-24302056D01*
X28779889Y-24546024D01*
X28779893Y-24546030D01*
X28938340Y-24770499D01*
X28938343Y-24770502D01*
X29125889Y-24971314D01*
X29339031Y-25144718D01*
X29339033Y-25144719D01*
X29339034Y-25144720D01*
X29573801Y-25287485D01*
X29778348Y-25376331D01*
X29825823Y-25396953D01*
X30090404Y-25471085D01*
X30329720Y-25503978D01*
X30362614Y-25508500D01*
X30362615Y-25508500D01*
X30637386Y-25508500D01*
X30666733Y-25504466D01*
X30909596Y-25471085D01*
X31174177Y-25396953D01*
X31426200Y-25287484D01*
X31660969Y-25144718D01*
X31874111Y-24971314D01*
X32061657Y-24770502D01*
X32220111Y-24546023D01*
X32346523Y-24302058D01*
X32438538Y-24043153D01*
X32438539Y-24043146D01*
X32438541Y-24043141D01*
X32464491Y-23918259D01*
X32494442Y-23774130D01*
X32513193Y-23500000D01*
X32494442Y-23225870D01*
X32457711Y-23049111D01*
X32438541Y-22956858D01*
X32438536Y-22956841D01*
X32375734Y-22780134D01*
X32346523Y-22697942D01*
X32220111Y-22453977D01*
X32220110Y-22453975D01*
X32220106Y-22453969D01*
X32061659Y-22229500D01*
X32043031Y-22209555D01*
X31874111Y-22028686D01*
X31660969Y-21855282D01*
X31660967Y-21855281D01*
X31660965Y-21855279D01*
X31426198Y-21712514D01*
X31174178Y-21603047D01*
X30909602Y-21528916D01*
X30909597Y-21528915D01*
X30909596Y-21528915D01*
X30773490Y-21510207D01*
X30637386Y-21491500D01*
X30637385Y-21491500D01*
X30362615Y-21491500D01*
X30362614Y-21491500D01*
X30090404Y-21528915D01*
X30090397Y-21528916D01*
X29825821Y-21603047D01*
X29573801Y-21712514D01*
X29339034Y-21855279D01*
X29125892Y-22028683D01*
X28938340Y-22229500D01*
X28779893Y-22453969D01*
X28779889Y-22453975D01*
X28653476Y-22697943D01*
X28561463Y-22956841D01*
X28561458Y-22956858D01*
X28505558Y-23225867D01*
X28505557Y-23225869D01*
X28486807Y-23500000D01*
X20445322Y-23500000D01*
X20488319Y-23363629D01*
X20492016Y-23353473D01*
X20533304Y-23253796D01*
X20648111Y-22976627D01*
X20652669Y-22966853D01*
X20841025Y-22605024D01*
X20846407Y-22595703D01*
X21065574Y-22251680D01*
X21071765Y-22242837D01*
X21320083Y-21919224D01*
X21327021Y-21910955D01*
X21602594Y-21610220D01*
X21610220Y-21602594D01*
X21910955Y-21327021D01*
X21919224Y-21320083D01*
X22242837Y-21071765D01*
X22251680Y-21065574D01*
X22595703Y-20846407D01*
X22605024Y-20841025D01*
X22966853Y-20652669D01*
X22976627Y-20648111D01*
X23353482Y-20492012D01*
X23363629Y-20488319D01*
X23752639Y-20365665D01*
X23763068Y-20362870D01*
X24161308Y-20274582D01*
X24171938Y-20272709D01*
X24576347Y-20219468D01*
X24587080Y-20218528D01*
X24997297Y-20200617D01*
X25002706Y-20200500D01*
X25039882Y-20200500D01*
X61376000Y-20200500D01*
X61443039Y-20220185D01*
G37*
G04 #@! TD.AperFunction*
G04 #@! TA.AperFunction,Conductor*
G36*
X98334617Y-29007818D02*
G01*
X98345799Y-29011989D01*
X98352760Y-29012737D01*
X98406345Y-29018499D01*
X98406362Y-29018500D01*
X102303638Y-29018500D01*
X102303654Y-29018499D01*
X102350277Y-29013485D01*
X102364201Y-29011989D01*
X102375382Y-29007818D01*
X102418715Y-29000000D01*
X104841285Y-29000000D01*
X104884617Y-29007818D01*
X104895799Y-29011989D01*
X104902760Y-29012737D01*
X104956345Y-29018499D01*
X104956362Y-29018500D01*
X108853638Y-29018500D01*
X108853654Y-29018499D01*
X108900277Y-29013485D01*
X108914201Y-29011989D01*
X108925382Y-29007818D01*
X108968715Y-29000000D01*
X111386285Y-29000000D01*
X111429617Y-29007818D01*
X111440799Y-29011989D01*
X111447760Y-29012737D01*
X111501345Y-29018499D01*
X111501362Y-29018500D01*
X115398638Y-29018500D01*
X115398654Y-29018499D01*
X115445277Y-29013485D01*
X115459201Y-29011989D01*
X115470382Y-29007818D01*
X115513715Y-29000000D01*
X137376000Y-29000000D01*
X137443039Y-29019685D01*
X137488794Y-29072489D01*
X137500000Y-29124000D01*
X137500000Y-40376000D01*
X137480315Y-40443039D01*
X137427511Y-40488794D01*
X137376000Y-40500000D01*
X134368041Y-40500000D01*
X134301002Y-40480315D01*
X134255247Y-40427511D01*
X134245303Y-40358353D01*
X134274328Y-40294797D01*
X134295155Y-40275682D01*
X134335728Y-40246204D01*
X134451778Y-40161889D01*
X134614389Y-39999278D01*
X134749560Y-39813231D01*
X134853962Y-39608329D01*
X134925026Y-39389618D01*
X134961000Y-39162488D01*
X134961000Y-38837511D01*
X134925026Y-38610381D01*
X134853960Y-38391666D01*
X134749559Y-38186768D01*
X134614389Y-38000722D01*
X134451778Y-37838111D01*
X134265731Y-37702940D01*
X134060833Y-37598539D01*
X133842118Y-37527473D01*
X133614988Y-37491500D01*
X133614983Y-37491500D01*
X133385017Y-37491500D01*
X133385012Y-37491500D01*
X133157881Y-37527473D01*
X132939166Y-37598539D01*
X132734268Y-37702940D01*
X132548219Y-37838113D01*
X132385613Y-38000719D01*
X132250440Y-38186768D01*
X132146039Y-38391666D01*
X132074973Y-38610381D01*
X132039000Y-38837511D01*
X132039000Y-39162488D01*
X132074973Y-39389618D01*
X132146039Y-39608333D01*
X132250440Y-39813231D01*
X132385611Y-39999278D01*
X132548222Y-40161889D01*
X132664272Y-40246204D01*
X132704845Y-40275682D01*
X132747510Y-40331012D01*
X132753489Y-40400625D01*
X132720883Y-40462420D01*
X132660044Y-40496778D01*
X132631959Y-40500000D01*
X129881120Y-40500000D01*
X129814081Y-40480315D01*
X129768326Y-40427511D01*
X129758382Y-40358353D01*
X129781853Y-40301689D01*
X129823389Y-40246204D01*
X129874489Y-40109201D01*
X129878091Y-40075692D01*
X129880999Y-40048654D01*
X129881000Y-40048637D01*
X129881000Y-37951362D01*
X129880999Y-37951345D01*
X129877657Y-37920270D01*
X129874489Y-37890799D01*
X129823389Y-37753796D01*
X129735761Y-37636739D01*
X129618704Y-37549111D01*
X129560694Y-37527474D01*
X129481703Y-37498011D01*
X129421154Y-37491500D01*
X129421138Y-37491500D01*
X127418862Y-37491500D01*
X127418845Y-37491500D01*
X127358297Y-37498011D01*
X127358295Y-37498011D01*
X127221295Y-37549111D01*
X127104239Y-37636739D01*
X127016611Y-37753795D01*
X126965511Y-37890795D01*
X126965511Y-37890797D01*
X126959000Y-37951345D01*
X126959000Y-40048654D01*
X126965511Y-40109202D01*
X126965511Y-40109204D01*
X127016611Y-40246204D01*
X127054681Y-40297060D01*
X127058147Y-40301689D01*
X127082564Y-40367153D01*
X127067712Y-40435426D01*
X127018307Y-40484832D01*
X126958880Y-40500000D01*
X114368041Y-40500000D01*
X114301002Y-40480315D01*
X114255247Y-40427511D01*
X114245303Y-40358353D01*
X114274328Y-40294797D01*
X114295155Y-40275682D01*
X114335728Y-40246204D01*
X114451778Y-40161889D01*
X114614389Y-39999278D01*
X114749560Y-39813231D01*
X114853962Y-39608329D01*
X114925026Y-39389618D01*
X114961000Y-39162488D01*
X114961000Y-38837511D01*
X114925026Y-38610381D01*
X114853960Y-38391666D01*
X114749559Y-38186768D01*
X114614389Y-38000722D01*
X114451778Y-37838111D01*
X114265731Y-37702940D01*
X114060833Y-37598539D01*
X113842118Y-37527473D01*
X113614988Y-37491500D01*
X113614983Y-37491500D01*
X113385017Y-37491500D01*
X113385012Y-37491500D01*
X113157881Y-37527473D01*
X112939166Y-37598539D01*
X112734268Y-37702940D01*
X112548219Y-37838113D01*
X112385613Y-38000719D01*
X112250440Y-38186768D01*
X112146039Y-38391666D01*
X112074973Y-38610381D01*
X112039000Y-38837511D01*
X112039000Y-39162488D01*
X112074973Y-39389618D01*
X112146039Y-39608333D01*
X112250440Y-39813231D01*
X112385611Y-39999278D01*
X112548222Y-40161889D01*
X112664272Y-40246204D01*
X112704845Y-40275682D01*
X112747510Y-40331012D01*
X112753489Y-40400625D01*
X112720883Y-40462420D01*
X112660044Y-40496778D01*
X112631959Y-40500000D01*
X109881120Y-40500000D01*
X109814081Y-40480315D01*
X109768326Y-40427511D01*
X109758382Y-40358353D01*
X109781853Y-40301689D01*
X109823389Y-40246204D01*
X109874489Y-40109201D01*
X109878091Y-40075692D01*
X109880999Y-40048654D01*
X109881000Y-40048637D01*
X109881000Y-37951362D01*
X109880999Y-37951345D01*
X109877657Y-37920270D01*
X109874489Y-37890799D01*
X109823389Y-37753796D01*
X109735761Y-37636739D01*
X109618704Y-37549111D01*
X109560694Y-37527474D01*
X109481703Y-37498011D01*
X109421154Y-37491500D01*
X109421138Y-37491500D01*
X107418862Y-37491500D01*
X107418845Y-37491500D01*
X107358297Y-37498011D01*
X107358295Y-37498011D01*
X107221295Y-37549111D01*
X107104239Y-37636739D01*
X107016611Y-37753795D01*
X106965511Y-37890795D01*
X106965511Y-37890797D01*
X106959000Y-37951345D01*
X106959000Y-40048654D01*
X106965511Y-40109202D01*
X106965511Y-40109204D01*
X107016611Y-40246204D01*
X107054681Y-40297060D01*
X107058147Y-40301689D01*
X107082564Y-40367153D01*
X107067712Y-40435426D01*
X107018307Y-40484832D01*
X106958880Y-40500000D01*
X89302500Y-40500000D01*
X89235461Y-40480315D01*
X89189706Y-40427511D01*
X89178500Y-40376000D01*
X89178500Y-40132500D01*
X89198185Y-40065461D01*
X89250989Y-40019706D01*
X89302500Y-40008500D01*
X89421138Y-40008500D01*
X89421154Y-40008499D01*
X89448192Y-40005591D01*
X89481701Y-40001989D01*
X89488970Y-39999278D01*
X89496268Y-39996555D01*
X89618704Y-39950889D01*
X89735761Y-39863261D01*
X89823389Y-39746204D01*
X89874489Y-39609201D01*
X89878409Y-39572738D01*
X89880999Y-39548654D01*
X89881000Y-39548637D01*
X89881000Y-38662488D01*
X92039000Y-38662488D01*
X92074973Y-38889618D01*
X92146039Y-39108333D01*
X92243976Y-39300544D01*
X92250440Y-39313231D01*
X92385611Y-39499278D01*
X92548222Y-39661889D01*
X92734269Y-39797060D01*
X92766007Y-39813231D01*
X92939166Y-39901460D01*
X92939168Y-39901460D01*
X92939171Y-39901462D01*
X93056404Y-39939553D01*
X93157881Y-39972526D01*
X93385012Y-40008500D01*
X93385017Y-40008500D01*
X93614988Y-40008500D01*
X93842118Y-39972526D01*
X93908712Y-39950888D01*
X94060829Y-39901462D01*
X94265731Y-39797060D01*
X94451778Y-39661889D01*
X94614389Y-39499278D01*
X94749560Y-39313231D01*
X94853962Y-39108329D01*
X94925026Y-38889618D01*
X94933279Y-38837511D01*
X94961000Y-38662488D01*
X94961000Y-38337511D01*
X94925026Y-38110381D01*
X94853960Y-37891666D01*
X94749559Y-37686768D01*
X94685456Y-37598538D01*
X94614389Y-37500722D01*
X94451778Y-37338111D01*
X94265731Y-37202940D01*
X94060833Y-37098539D01*
X93842118Y-37027473D01*
X93614988Y-36991500D01*
X93614983Y-36991500D01*
X93385017Y-36991500D01*
X93385012Y-36991500D01*
X93157881Y-37027473D01*
X92939166Y-37098539D01*
X92734268Y-37202940D01*
X92548219Y-37338113D01*
X92385613Y-37500719D01*
X92250440Y-37686768D01*
X92146039Y-37891666D01*
X92074973Y-38110381D01*
X92039000Y-38337511D01*
X92039000Y-38662488D01*
X89881000Y-38662488D01*
X89881000Y-37451362D01*
X89880999Y-37451345D01*
X89877657Y-37420270D01*
X89874489Y-37390799D01*
X89823389Y-37253796D01*
X89735761Y-37136739D01*
X89618704Y-37049111D01*
X89560694Y-37027474D01*
X89481703Y-36998011D01*
X89421154Y-36991500D01*
X89421138Y-36991500D01*
X87418862Y-36991500D01*
X87418845Y-36991500D01*
X87358297Y-36998011D01*
X87358295Y-36998011D01*
X87221295Y-37049111D01*
X87104239Y-37136739D01*
X87016611Y-37253795D01*
X86965511Y-37390795D01*
X86965511Y-37390797D01*
X86959000Y-37451345D01*
X86959000Y-39548654D01*
X86965511Y-39609202D01*
X86965511Y-39609204D01*
X87008199Y-39723652D01*
X87016611Y-39746204D01*
X87104239Y-39863261D01*
X87221296Y-39950889D01*
X87336449Y-39993839D01*
X87351030Y-39999278D01*
X87358299Y-40001989D01*
X87385550Y-40004918D01*
X87418845Y-40008499D01*
X87418862Y-40008500D01*
X87537500Y-40008500D01*
X87604539Y-40028185D01*
X87650294Y-40080989D01*
X87661500Y-40132500D01*
X87661500Y-40376000D01*
X87641815Y-40443039D01*
X87589011Y-40488794D01*
X87537500Y-40500000D01*
X87000000Y-40500000D01*
X87000000Y-51876000D01*
X86980315Y-51943039D01*
X86927511Y-51988794D01*
X86876000Y-52000000D01*
X61624000Y-52000000D01*
X61556961Y-51980315D01*
X61511206Y-51927511D01*
X61500000Y-51876000D01*
X61500000Y-37124000D01*
X61519685Y-37056961D01*
X61572489Y-37011206D01*
X61624000Y-37000000D01*
X68376000Y-37000000D01*
X68443039Y-37019685D01*
X68488794Y-37072489D01*
X68500000Y-37124000D01*
X68500000Y-47000000D01*
X82500000Y-47000000D01*
X82500000Y-29124000D01*
X82519685Y-29056961D01*
X82572489Y-29011206D01*
X82624000Y-29000000D01*
X98291285Y-29000000D01*
X98334617Y-29007818D01*
G37*
G04 #@! TD.AperFunction*
G04 #@! TA.AperFunction,Conductor*
G36*
X142929539Y-20220185D02*
G01*
X142975294Y-20272989D01*
X142986500Y-20324500D01*
X142986500Y-40862500D01*
X142986501Y-40862509D01*
X142998235Y-40971651D01*
X142998237Y-40971663D01*
X143009443Y-41023173D01*
X143044106Y-41127320D01*
X143044109Y-41127326D01*
X143073569Y-41173166D01*
X143093254Y-41240206D01*
X143082048Y-41291718D01*
X143026988Y-41412280D01*
X143026986Y-41412287D01*
X143007301Y-41479326D01*
X143007300Y-41479330D01*
X142986500Y-41624000D01*
X142986500Y-49876000D01*
X142986501Y-49876009D01*
X142998235Y-49985151D01*
X142998237Y-49985163D01*
X143009443Y-50036673D01*
X143044106Y-50140820D01*
X143044109Y-50140826D01*
X143123128Y-50263781D01*
X143123134Y-50263788D01*
X143168879Y-50316581D01*
X143168882Y-50316584D01*
X143279335Y-50412294D01*
X143279337Y-50412295D01*
X143279339Y-50412297D01*
X143412287Y-50473014D01*
X143479326Y-50492699D01*
X143479330Y-50492700D01*
X143624000Y-50513500D01*
X147362500Y-50513500D01*
X147429539Y-50533185D01*
X147475294Y-50585989D01*
X147486500Y-50637500D01*
X147486500Y-61376000D01*
X147466815Y-61443039D01*
X147414011Y-61488794D01*
X147362500Y-61500000D01*
X143124000Y-61500000D01*
X143056961Y-61480315D01*
X143011206Y-61427511D01*
X143000000Y-61376000D01*
X143000000Y-56000000D01*
X137624000Y-56000000D01*
X137556961Y-55980315D01*
X137511206Y-55927511D01*
X137500000Y-55876000D01*
X137500000Y-41092178D01*
X137519685Y-41025139D01*
X137572489Y-40979384D01*
X137584827Y-40974528D01*
X137640827Y-40955890D01*
X137763782Y-40876871D01*
X137816586Y-40831116D01*
X137912297Y-40720661D01*
X137973014Y-40587713D01*
X137992699Y-40520674D01*
X137992700Y-40520670D01*
X138013500Y-40376000D01*
X138013500Y-29124000D01*
X138001764Y-29014843D01*
X137990558Y-28963332D01*
X137990453Y-28963017D01*
X137955893Y-28859179D01*
X137955890Y-28859173D01*
X137876871Y-28736218D01*
X137876865Y-28736211D01*
X137831120Y-28683418D01*
X137831117Y-28683415D01*
X137720664Y-28587705D01*
X137720658Y-28587701D01*
X137587716Y-28526987D01*
X137520671Y-28507300D01*
X137457620Y-28498235D01*
X137376000Y-28486500D01*
X115513715Y-28486500D01*
X115513711Y-28486500D01*
X115422552Y-28494657D01*
X115422546Y-28494658D01*
X115376484Y-28502968D01*
X115376402Y-28502513D01*
X115354201Y-28504999D01*
X111545797Y-28504999D01*
X111523594Y-28502513D01*
X111523512Y-28502968D01*
X111520791Y-28502477D01*
X111477459Y-28494659D01*
X111477455Y-28494658D01*
X111477446Y-28494657D01*
X111477449Y-28494657D01*
X111386289Y-28486500D01*
X111386285Y-28486500D01*
X108968715Y-28486500D01*
X108968711Y-28486500D01*
X108877552Y-28494657D01*
X108877546Y-28494658D01*
X108831484Y-28502968D01*
X108831402Y-28502513D01*
X108809201Y-28504999D01*
X105000797Y-28504999D01*
X104978594Y-28502513D01*
X104978512Y-28502968D01*
X104975791Y-28502477D01*
X104932459Y-28494659D01*
X104932455Y-28494658D01*
X104932446Y-28494657D01*
X104932449Y-28494657D01*
X104841289Y-28486500D01*
X104841285Y-28486500D01*
X102418715Y-28486500D01*
X102418711Y-28486500D01*
X102327552Y-28494657D01*
X102327546Y-28494658D01*
X102281484Y-28502968D01*
X102281402Y-28502513D01*
X102259201Y-28504999D01*
X98450797Y-28504999D01*
X98428594Y-28502513D01*
X98428512Y-28502968D01*
X98425791Y-28502477D01*
X98382459Y-28494659D01*
X98382455Y-28494658D01*
X98382446Y-28494657D01*
X98382449Y-28494657D01*
X98291289Y-28486500D01*
X98291285Y-28486500D01*
X82624000Y-28486500D01*
X82623991Y-28486500D01*
X82623990Y-28486501D01*
X82514848Y-28498235D01*
X82514836Y-28498237D01*
X82463326Y-28509443D01*
X82359179Y-28544106D01*
X82359173Y-28544109D01*
X82236218Y-28623128D01*
X82236211Y-28623134D01*
X82183418Y-28668879D01*
X82183415Y-28668882D01*
X82087705Y-28779335D01*
X82087701Y-28779341D01*
X82026987Y-28912283D01*
X82026986Y-28912287D01*
X82007301Y-28979326D01*
X82007300Y-28979330D01*
X81986502Y-29123990D01*
X81986500Y-29124001D01*
X81986500Y-46362500D01*
X81966815Y-46429539D01*
X81914011Y-46475294D01*
X81862500Y-46486500D01*
X69137500Y-46486500D01*
X69070461Y-46466815D01*
X69024706Y-46414011D01*
X69013500Y-46362500D01*
X69013500Y-41358489D01*
X69033185Y-41291450D01*
X69085989Y-41245695D01*
X69155147Y-41235751D01*
X69218703Y-41264776D01*
X69254542Y-41317534D01*
X69266958Y-41353017D01*
X69270826Y-41359173D01*
X69363889Y-41507281D01*
X69492719Y-41636111D01*
X69646985Y-41733043D01*
X69818953Y-41793217D01*
X69818958Y-41793218D01*
X69999996Y-41813616D01*
X70000000Y-41813616D01*
X70000004Y-41813616D01*
X70181041Y-41793218D01*
X70181044Y-41793217D01*
X70181047Y-41793217D01*
X70353015Y-41733043D01*
X70507281Y-41636111D01*
X70636111Y-41507281D01*
X70733043Y-41353015D01*
X70793217Y-41181047D01*
X70803230Y-41092178D01*
X70813616Y-41000003D01*
X70813616Y-40999996D01*
X70805049Y-40923959D01*
X78486835Y-40923959D01*
X78505465Y-41160673D01*
X78560895Y-41391554D01*
X78560895Y-41391556D01*
X78651757Y-41610918D01*
X78651759Y-41610921D01*
X78775820Y-41813369D01*
X78775821Y-41813372D01*
X78828076Y-41874555D01*
X78930031Y-41993928D01*
X79069797Y-42113299D01*
X79110586Y-42148137D01*
X79110588Y-42148137D01*
X79313037Y-42272199D01*
X79313040Y-42272201D01*
X79532403Y-42363063D01*
X79532404Y-42363063D01*
X79532406Y-42363064D01*
X79763289Y-42418494D01*
X80000000Y-42437124D01*
X80236711Y-42418494D01*
X80467594Y-42363064D01*
X80467596Y-42363063D01*
X80467597Y-42363063D01*
X80686959Y-42272201D01*
X80686960Y-42272200D01*
X80686963Y-42272199D01*
X80889416Y-42148135D01*
X81069969Y-41993928D01*
X81224176Y-41813375D01*
X81348240Y-41610922D01*
X81391170Y-41507281D01*
X81439104Y-41391556D01*
X81439104Y-41391555D01*
X81439105Y-41391553D01*
X81494535Y-41160670D01*
X81513165Y-40923959D01*
X81494535Y-40687248D01*
X81439105Y-40456365D01*
X81439104Y-40456362D01*
X81439104Y-40456361D01*
X81348242Y-40236999D01*
X81348240Y-40236996D01*
X81224179Y-40034548D01*
X81224178Y-40034545D01*
X81177877Y-39980334D01*
X81069969Y-39853990D01*
X80917363Y-39723652D01*
X80889413Y-39699780D01*
X80889410Y-39699779D01*
X80686962Y-39575718D01*
X80686959Y-39575716D01*
X80467596Y-39484854D01*
X80236714Y-39429424D01*
X80000000Y-39410794D01*
X79763285Y-39429424D01*
X79532404Y-39484854D01*
X79532402Y-39484854D01*
X79313040Y-39575716D01*
X79313037Y-39575718D01*
X79110589Y-39699779D01*
X79110586Y-39699780D01*
X78930031Y-39853990D01*
X78775821Y-40034545D01*
X78775820Y-40034548D01*
X78651759Y-40236996D01*
X78651757Y-40236999D01*
X78560895Y-40456361D01*
X78560895Y-40456363D01*
X78505465Y-40687244D01*
X78486835Y-40923959D01*
X70805049Y-40923959D01*
X70793218Y-40818958D01*
X70793217Y-40818953D01*
X70769625Y-40751531D01*
X70733043Y-40646985D01*
X70636111Y-40492719D01*
X70633719Y-40490327D01*
X70632667Y-40488401D01*
X70631770Y-40487276D01*
X70631967Y-40487118D01*
X70600234Y-40429004D01*
X70597400Y-40402646D01*
X70597400Y-40098040D01*
X70617085Y-40031001D01*
X70669889Y-39985246D01*
X70682389Y-39980337D01*
X70797738Y-39942115D01*
X70948652Y-39849030D01*
X71074030Y-39723652D01*
X71167115Y-39572738D01*
X71222887Y-39404426D01*
X71233500Y-39300545D01*
X71233499Y-38699456D01*
X71222887Y-38595574D01*
X71167115Y-38427262D01*
X71074030Y-38276348D01*
X70948652Y-38150970D01*
X70827297Y-38076117D01*
X70797740Y-38057886D01*
X70797735Y-38057884D01*
X70629427Y-38002113D01*
X70525546Y-37991500D01*
X69474462Y-37991500D01*
X69474446Y-37991501D01*
X69370572Y-38002113D01*
X69202264Y-38057884D01*
X69195714Y-38060939D01*
X69195145Y-38059719D01*
X69135191Y-38076117D01*
X69068530Y-38055188D01*
X69023766Y-38001541D01*
X69013500Y-37952139D01*
X69013500Y-37124010D01*
X69013500Y-37124000D01*
X69001764Y-37014843D01*
X68990558Y-36963332D01*
X68981273Y-36935435D01*
X68955893Y-36859179D01*
X68955890Y-36859173D01*
X68876871Y-36736218D01*
X68876865Y-36736211D01*
X68831120Y-36683418D01*
X68831117Y-36683415D01*
X68720664Y-36587705D01*
X68720658Y-36587701D01*
X68587716Y-36526987D01*
X68520671Y-36507300D01*
X68472446Y-36500366D01*
X68376000Y-36486500D01*
X68375998Y-36486500D01*
X62137500Y-36486500D01*
X62070461Y-36466815D01*
X62024706Y-36414011D01*
X62013500Y-36362500D01*
X62013500Y-34525537D01*
X73991500Y-34525537D01*
X73991501Y-34525553D01*
X74002113Y-34629427D01*
X74056387Y-34793217D01*
X74057885Y-34797738D01*
X74150970Y-34948652D01*
X74276348Y-35074030D01*
X74427262Y-35167115D01*
X74595574Y-35222887D01*
X74699455Y-35233500D01*
X75300544Y-35233499D01*
X75404426Y-35222887D01*
X75572738Y-35167115D01*
X75723652Y-35074030D01*
X75849030Y-34948652D01*
X75942115Y-34797738D01*
X75980335Y-34682396D01*
X76020107Y-34624951D01*
X76084623Y-34598128D01*
X76098041Y-34597400D01*
X76402646Y-34597400D01*
X76469685Y-34617085D01*
X76490327Y-34633719D01*
X76492719Y-34636111D01*
X76646985Y-34733043D01*
X76818953Y-34793217D01*
X76818958Y-34793218D01*
X76999996Y-34813616D01*
X77000000Y-34813616D01*
X77000004Y-34813616D01*
X77181041Y-34793218D01*
X77181044Y-34793217D01*
X77181047Y-34793217D01*
X77353015Y-34733043D01*
X77507281Y-34636111D01*
X77636111Y-34507281D01*
X77733043Y-34353015D01*
X77793217Y-34181047D01*
X77799651Y-34123942D01*
X77813616Y-34000003D01*
X77813616Y-33999996D01*
X77793218Y-33818958D01*
X77793217Y-33818953D01*
X77768645Y-33748731D01*
X77733043Y-33646985D01*
X77636111Y-33492719D01*
X77507281Y-33363889D01*
X77353015Y-33266957D01*
X77298693Y-33247949D01*
X77181046Y-33206782D01*
X77181041Y-33206781D01*
X77000004Y-33186384D01*
X76999996Y-33186384D01*
X76818958Y-33206781D01*
X76818953Y-33206782D01*
X76646982Y-33266958D01*
X76492718Y-33363889D01*
X76490327Y-33366281D01*
X76488401Y-33367332D01*
X76487276Y-33368230D01*
X76487118Y-33368032D01*
X76429004Y-33399766D01*
X76402646Y-33402600D01*
X76098041Y-33402600D01*
X76031002Y-33382915D01*
X75985247Y-33330111D01*
X75980335Y-33317604D01*
X75963552Y-33266957D01*
X75942115Y-33202262D01*
X75849030Y-33051348D01*
X75723652Y-32925970D01*
X75572738Y-32832885D01*
X75572735Y-32832884D01*
X75404427Y-32777113D01*
X75300546Y-32766500D01*
X74699462Y-32766500D01*
X74699446Y-32766501D01*
X74595572Y-32777113D01*
X74427264Y-32832884D01*
X74427259Y-32832886D01*
X74276346Y-32925971D01*
X74150971Y-33051346D01*
X74057886Y-33202259D01*
X74057884Y-33202264D01*
X74002113Y-33370572D01*
X73991500Y-33474447D01*
X73991500Y-34525537D01*
X62013500Y-34525537D01*
X62013500Y-31750537D01*
X68816500Y-31750537D01*
X68816501Y-31750553D01*
X68827113Y-31854426D01*
X68882885Y-32022738D01*
X68975970Y-32173652D01*
X69101348Y-32299030D01*
X69252262Y-32392115D01*
X69367604Y-32430334D01*
X69425048Y-32470106D01*
X69451872Y-32534621D01*
X69452600Y-32548040D01*
X69452600Y-32852646D01*
X69432915Y-32919685D01*
X69416281Y-32940327D01*
X69363889Y-32992718D01*
X69266958Y-33146982D01*
X69206782Y-33318953D01*
X69206781Y-33318958D01*
X69186384Y-33499996D01*
X69186384Y-33500003D01*
X69206781Y-33681041D01*
X69206782Y-33681046D01*
X69247949Y-33798693D01*
X69263236Y-33842382D01*
X69266958Y-33853017D01*
X69359312Y-33999996D01*
X69363889Y-34007281D01*
X69492719Y-34136111D01*
X69646985Y-34233043D01*
X69813532Y-34291320D01*
X69818953Y-34293217D01*
X69818958Y-34293218D01*
X69999996Y-34313616D01*
X70000000Y-34313616D01*
X70000004Y-34313616D01*
X70181041Y-34293218D01*
X70181044Y-34293217D01*
X70181047Y-34293217D01*
X70353015Y-34233043D01*
X70507281Y-34136111D01*
X70636111Y-34007281D01*
X70733043Y-33853015D01*
X70793217Y-33681047D01*
X70797055Y-33646985D01*
X70813616Y-33500003D01*
X70813616Y-33499996D01*
X70793218Y-33318958D01*
X70793217Y-33318953D01*
X70753967Y-33206783D01*
X70733043Y-33146985D01*
X70721393Y-33128444D01*
X70666406Y-33040932D01*
X70647400Y-32974960D01*
X70647400Y-32548040D01*
X70667085Y-32481001D01*
X70719889Y-32435246D01*
X70732389Y-32430337D01*
X70847738Y-32392115D01*
X70998652Y-32299030D01*
X71124030Y-32173652D01*
X71217115Y-32022738D01*
X71272887Y-31854426D01*
X71283500Y-31750545D01*
X71283499Y-31149456D01*
X71272887Y-31045574D01*
X71217115Y-30877262D01*
X71124030Y-30726348D01*
X70998652Y-30600970D01*
X70847738Y-30507885D01*
X70847735Y-30507884D01*
X70679427Y-30452113D01*
X70575546Y-30441500D01*
X69524462Y-30441500D01*
X69524446Y-30441501D01*
X69420572Y-30452113D01*
X69252264Y-30507884D01*
X69252259Y-30507886D01*
X69101346Y-30600971D01*
X68975971Y-30726346D01*
X68882886Y-30877259D01*
X68882884Y-30877264D01*
X68827113Y-31045572D01*
X68816500Y-31149447D01*
X68816500Y-31750537D01*
X62013500Y-31750537D01*
X62013500Y-26923959D01*
X77986835Y-26923959D01*
X78005465Y-27160673D01*
X78060895Y-27391554D01*
X78060895Y-27391556D01*
X78151757Y-27610918D01*
X78151759Y-27610921D01*
X78275820Y-27813369D01*
X78275821Y-27813372D01*
X78275824Y-27813375D01*
X78430031Y-27993928D01*
X78569797Y-28113299D01*
X78610586Y-28148137D01*
X78610589Y-28148138D01*
X78813037Y-28272199D01*
X78813040Y-28272201D01*
X79032403Y-28363063D01*
X79032404Y-28363063D01*
X79032406Y-28363064D01*
X79263289Y-28418494D01*
X79500000Y-28437124D01*
X79736711Y-28418494D01*
X79967594Y-28363064D01*
X79967596Y-28363063D01*
X79967597Y-28363063D01*
X80186959Y-28272201D01*
X80186960Y-28272200D01*
X80186963Y-28272199D01*
X80389416Y-28148135D01*
X80569969Y-27993928D01*
X80724176Y-27813375D01*
X80848240Y-27610922D01*
X80939105Y-27391553D01*
X80994535Y-27160670D01*
X81013165Y-26923959D01*
X80994535Y-26687248D01*
X80939105Y-26456365D01*
X80939104Y-26456362D01*
X80939104Y-26456361D01*
X80848242Y-26236999D01*
X80848240Y-26236996D01*
X80724179Y-26034548D01*
X80724178Y-26034545D01*
X80670173Y-25971314D01*
X80569969Y-25853990D01*
X80450596Y-25752035D01*
X80389413Y-25699780D01*
X80389410Y-25699779D01*
X80186962Y-25575718D01*
X80186959Y-25575716D01*
X79967596Y-25484854D01*
X79736714Y-25429424D01*
X79500000Y-25410794D01*
X79263285Y-25429424D01*
X79032404Y-25484854D01*
X79032402Y-25484854D01*
X78813040Y-25575716D01*
X78813037Y-25575718D01*
X78610589Y-25699779D01*
X78610586Y-25699780D01*
X78430031Y-25853990D01*
X78275821Y-26034545D01*
X78275820Y-26034548D01*
X78151759Y-26236996D01*
X78151757Y-26236999D01*
X78060895Y-26456361D01*
X78060895Y-26456363D01*
X78005465Y-26687244D01*
X77986835Y-26923959D01*
X62013500Y-26923959D01*
X62013500Y-24500000D01*
X67486807Y-24500000D01*
X67505557Y-24774130D01*
X67505558Y-24774132D01*
X67561458Y-25043141D01*
X67561463Y-25043158D01*
X67653476Y-25302056D01*
X67779889Y-25546024D01*
X67779893Y-25546030D01*
X67938340Y-25770499D01*
X67938343Y-25770502D01*
X68125889Y-25971314D01*
X68339031Y-26144718D01*
X68339033Y-26144719D01*
X68339034Y-26144720D01*
X68573801Y-26287485D01*
X68778348Y-26376331D01*
X68825823Y-26396953D01*
X69090404Y-26471085D01*
X69329720Y-26503978D01*
X69362614Y-26508500D01*
X69362615Y-26508500D01*
X69637386Y-26508500D01*
X69666733Y-26504466D01*
X69909596Y-26471085D01*
X70174177Y-26396953D01*
X70426200Y-26287484D01*
X70660969Y-26144718D01*
X70874111Y-25971314D01*
X71061657Y-25770502D01*
X71220111Y-25546023D01*
X71346523Y-25302058D01*
X71438538Y-25043153D01*
X71438539Y-25043146D01*
X71438541Y-25043141D01*
X71482730Y-24830490D01*
X71494442Y-24774130D01*
X71513193Y-24500000D01*
X71494442Y-24225870D01*
X71464718Y-24082832D01*
X71438541Y-23956858D01*
X71438536Y-23956841D01*
X71348693Y-23704049D01*
X71346523Y-23697942D01*
X71220111Y-23453977D01*
X71220110Y-23453975D01*
X71220106Y-23453969D01*
X71061659Y-23229500D01*
X71013422Y-23177851D01*
X70874111Y-23028686D01*
X70660969Y-22855282D01*
X70660967Y-22855281D01*
X70660965Y-22855279D01*
X70426198Y-22712514D01*
X70174178Y-22603047D01*
X69909602Y-22528916D01*
X69909597Y-22528915D01*
X69909596Y-22528915D01*
X69773490Y-22510207D01*
X69637386Y-22491500D01*
X69637385Y-22491500D01*
X69362615Y-22491500D01*
X69362614Y-22491500D01*
X69090404Y-22528915D01*
X69090397Y-22528916D01*
X68825821Y-22603047D01*
X68573801Y-22712514D01*
X68339034Y-22855279D01*
X68125892Y-23028683D01*
X67938340Y-23229500D01*
X67779893Y-23453969D01*
X67779889Y-23453975D01*
X67653476Y-23697943D01*
X67561463Y-23956841D01*
X67561458Y-23956858D01*
X67505558Y-24225867D01*
X67505557Y-24225869D01*
X67486807Y-24500000D01*
X62013500Y-24500000D01*
X62013500Y-20324500D01*
X62033185Y-20257461D01*
X62085989Y-20211706D01*
X62137500Y-20200500D01*
X142862500Y-20200500D01*
X142929539Y-20220185D01*
G37*
G04 #@! TD.AperFunction*
M02*
