G04 #@! TF.GenerationSoftware,KiCad,Pcbnew,8.0.0*
G04 #@! TF.CreationDate,2024-04-26T12:32:38-04:00*
G04 #@! TF.ProjectId,SurgicalLightBoostConverterModule,53757267-6963-4616-9c4c-69676874426f,rev?*
G04 #@! TF.SameCoordinates,Original*
G04 #@! TF.FileFunction,Legend,Bot*
G04 #@! TF.FilePolarity,Positive*
%FSLAX46Y46*%
G04 Gerber Fmt 4.6, Leading zero omitted, Abs format (unit mm)*
G04 Created by KiCad (PCBNEW 8.0.0) date 2024-04-26 12:32:38*
%MOMM*%
%LPD*%
G01*
G04 APERTURE LIST*
G04 Aperture macros list*
%AMRoundRect*
0 Rectangle with rounded corners*
0 $1 Rounding radius*
0 $2 $3 $4 $5 $6 $7 $8 $9 X,Y pos of 4 corners*
0 Add a 4 corners polygon primitive as box body*
4,1,4,$2,$3,$4,$5,$6,$7,$8,$9,$2,$3,0*
0 Add four circle primitives for the rounded corners*
1,1,$1+$1,$2,$3*
1,1,$1+$1,$4,$5*
1,1,$1+$1,$6,$7*
1,1,$1+$1,$8,$9*
0 Add four rect primitives between the rounded corners*
20,1,$1+$1,$2,$3,$4,$5,0*
20,1,$1+$1,$4,$5,$6,$7,0*
20,1,$1+$1,$6,$7,$8,$9,0*
20,1,$1+$1,$8,$9,$2,$3,0*%
G04 Aperture macros list end*
%ADD10C,0.120000*%
%ADD11R,1.700000X1.700000*%
%ADD12O,1.700000X1.700000*%
%ADD13R,1.600000X1.600000*%
%ADD14O,1.600000X1.600000*%
%ADD15R,1.050000X1.500000*%
%ADD16O,1.050000X1.500000*%
%ADD17C,3.000000*%
%ADD18R,1.905000X2.000000*%
%ADD19O,1.905000X2.000000*%
%ADD20R,2.400000X2.400000*%
%ADD21C,2.400000*%
%ADD22R,1.500000X1.050000*%
%ADD23O,1.500000X1.050000*%
%ADD24C,5.200000*%
%ADD25R,2.000000X2.000000*%
%ADD26C,2.000000*%
%ADD27C,3.600000*%
%ADD28C,6.400000*%
%ADD29RoundRect,0.750000X0.750000X-0.750000X0.750000X0.750000X-0.750000X0.750000X-0.750000X-0.750000X0*%
G04 APERTURE END LIST*
D10*
X88670000Y-102380000D02*
X90000000Y-102380000D01*
X88670000Y-103710000D02*
X88670000Y-102380000D01*
X88670000Y-104980000D02*
X91270000Y-104980000D01*
X88670000Y-107580000D02*
X88670000Y-104980000D01*
X91270000Y-104980000D02*
X91270000Y-102380000D01*
X106570000Y-102380000D02*
X91270000Y-102380000D01*
X106570000Y-107580000D02*
X88670000Y-107580000D01*
X106570000Y-107580000D02*
X106570000Y-102380000D01*
%LPC*%
D11*
X107230000Y-67500000D03*
D12*
X109770000Y-67500000D03*
D13*
X100735000Y-75500000D03*
D14*
X100735000Y-78040000D03*
X100735000Y-80580000D03*
X100735000Y-83120000D03*
X100735000Y-85660000D03*
X100735000Y-88200000D03*
X100735000Y-90740000D03*
X100735000Y-93280000D03*
X108355000Y-93280000D03*
X108355000Y-90740000D03*
X108355000Y-88200000D03*
X108355000Y-85660000D03*
X108355000Y-83120000D03*
X108355000Y-80580000D03*
X108355000Y-78040000D03*
X108355000Y-75500000D03*
D15*
X91000000Y-50500000D03*
D16*
X89730000Y-50500000D03*
X88460000Y-50500000D03*
D17*
X76000000Y-74000000D03*
D18*
X128420000Y-39000000D03*
D19*
X130960000Y-39000000D03*
X133500000Y-39000000D03*
D20*
X37000000Y-71500000D03*
D21*
X42000000Y-71500000D03*
D17*
X138500000Y-66500000D03*
D15*
X131040000Y-58500000D03*
D16*
X129770000Y-58500000D03*
X128500000Y-58500000D03*
D22*
X77000000Y-84000000D03*
D23*
X77000000Y-85270000D03*
X77000000Y-86540000D03*
D17*
X138750000Y-99250000D03*
D24*
X35350000Y-41000000D03*
X64650000Y-41000000D03*
D17*
X30500000Y-23500000D03*
D15*
X91040000Y-58500000D03*
D16*
X89770000Y-58500000D03*
X88500000Y-58500000D03*
D13*
X61880000Y-77960000D03*
D14*
X61880000Y-80500000D03*
X61880000Y-83040000D03*
X61880000Y-85580000D03*
X69500000Y-85580000D03*
X69500000Y-83040000D03*
X69500000Y-80500000D03*
X69500000Y-77960000D03*
D15*
X110960000Y-50500000D03*
D16*
X109690000Y-50500000D03*
X108420000Y-50500000D03*
D11*
X94460000Y-86000000D03*
D12*
X97000000Y-86000000D03*
D11*
X114500000Y-78000000D03*
D12*
X111960000Y-78000000D03*
D17*
X85000000Y-98000000D03*
X79500000Y-98000000D03*
D11*
X94460000Y-78000000D03*
D12*
X97000000Y-78000000D03*
D17*
X69000000Y-57500000D03*
X90000000Y-98000000D03*
D25*
X75000000Y-40923959D03*
D26*
X80000000Y-40923959D03*
D15*
X131000000Y-50500000D03*
D16*
X129730000Y-50500000D03*
X128460000Y-50500000D03*
D11*
X128500000Y-71525000D03*
D12*
X128500000Y-68985000D03*
X128500000Y-66445000D03*
D17*
X69500000Y-24500000D03*
D11*
X86000000Y-66500000D03*
D12*
X88540000Y-66500000D03*
X91080000Y-66500000D03*
D11*
X114540000Y-73500000D03*
D12*
X112000000Y-73500000D03*
D11*
X59975000Y-61500000D03*
D12*
X62515000Y-61500000D03*
X65055000Y-61500000D03*
D27*
X25000000Y-105000000D03*
D28*
X25000000Y-105000000D03*
D18*
X88420000Y-38500000D03*
D19*
X90960000Y-38500000D03*
X93500000Y-38500000D03*
D17*
X31000000Y-58000000D03*
D11*
X94460000Y-82000000D03*
D12*
X97000000Y-82000000D03*
D17*
X25500000Y-47500000D03*
D11*
X94460000Y-74000000D03*
D12*
X97000000Y-74000000D03*
D29*
X152500000Y-66100000D03*
X152500000Y-58500000D03*
D17*
X152500000Y-39000000D03*
X152500000Y-31400000D03*
D15*
X111040000Y-58500000D03*
D16*
X109770000Y-58500000D03*
X108500000Y-58500000D03*
D27*
X155000000Y-25000000D03*
D28*
X155000000Y-25000000D03*
D25*
X74500000Y-26923959D03*
D26*
X79500000Y-26923959D03*
D27*
X25000000Y-25000000D03*
D28*
X25000000Y-25000000D03*
D17*
X138500000Y-60000000D03*
D13*
X139380000Y-77920000D03*
D14*
X139380000Y-80460000D03*
X139380000Y-83000000D03*
X139380000Y-85540000D03*
X147000000Y-85540000D03*
X147000000Y-83000000D03*
X147000000Y-80460000D03*
X147000000Y-77920000D03*
D27*
X155000000Y-105000000D03*
D28*
X155000000Y-105000000D03*
D20*
X51000000Y-71500000D03*
D21*
X56000000Y-71500000D03*
D18*
X108420000Y-39000000D03*
D19*
X110960000Y-39000000D03*
X113500000Y-39000000D03*
D17*
X146500000Y-25000000D03*
X118500000Y-95500000D03*
X138500000Y-92500000D03*
D11*
X90000000Y-103710000D03*
D12*
X90000000Y-106250000D03*
X92540000Y-103710000D03*
X92540000Y-106250000D03*
X95080000Y-103710000D03*
X95080000Y-106250000D03*
X97620000Y-103710000D03*
X97620000Y-106250000D03*
X100160000Y-103710000D03*
X100160000Y-106250000D03*
X102700000Y-103710000D03*
X102700000Y-106250000D03*
X105240000Y-103710000D03*
X105240000Y-106250000D03*
%LPD*%
M02*
