M48
; DRILL file {KiCad 8.0.0} date 2024-04-26T12:36:07-0400
; FORMAT={-:-/ absolute / metric / decimal}
; #@! TF.CreationDate,2024-04-26T12:36:07-04:00
; #@! TF.GenerationSoftware,Kicad,Pcbnew,8.0.0
; #@! TF.FileFunction,Plated,1,2,PTH
FMAT,2
METRIC
; #@! TA.AperFunction,Plated,PTH,ViaDrill
T1C0.300
; #@! TA.AperFunction,Plated,PTH,ViaDrill
T2C0.750
; #@! TA.AperFunction,Plated,PTH,ComponentDrill
T3C0.750
; #@! TA.AperFunction,Plated,PTH,ComponentDrill
T4C0.800
; #@! TA.AperFunction,Plated,PTH,ComponentDrill
T5C1.000
; #@! TA.AperFunction,Plated,PTH,ComponentDrill
T6C1.100
; #@! TA.AperFunction,Plated,PTH,ComponentDrill
T7C1.200
; #@! TA.AperFunction,Plated,PTH,ComponentDrill
T8C1.500
; #@! TA.AperFunction,Plated,PTH,ComponentDrill
T9C2.000
; #@! TA.AperFunction,Plated,PTH,ComponentDrill
T10C2.600
; #@! TA.AperFunction,Plated,PTH,ComponentDrill
T11C3.200
%
G90
G05
T1
X25.565Y-39.087
X42.324Y-61.0
X49.5Y-61.0
X56.0Y-61.0
X66.5Y-64.5
X70.0Y-33.5
X70.0Y-41.0
X77.0Y-34.0
X77.5Y-70.0
X80.175Y-81.825
X81.5Y-74.0
X84.0Y-90.0
X87.0Y-85.5
X93.0Y-95.4
X105.0Y-97.5
X106.5Y-75.0
X125.938Y-83.438
X128.675Y-79.825
X131.5Y-63.0
X136.412Y-81.912
X146.0Y-35.462
T2
X149.0Y-75.0
T3
X77.0Y-84.0
X77.0Y-85.27
X77.0Y-86.54
X88.46Y-50.5
X88.5Y-58.5
X89.73Y-50.5
X89.77Y-58.5
X91.0Y-50.5
X91.04Y-58.5
X108.42Y-50.5
X108.5Y-58.5
X109.69Y-50.5
X109.77Y-58.5
X110.96Y-50.5
X111.04Y-58.5
X128.46Y-50.5
X128.5Y-58.5
X129.73Y-50.5
X129.77Y-58.5
X131.0Y-50.5
X131.04Y-58.5
T4
X61.88Y-77.96
X61.88Y-80.5
X61.88Y-83.04
X61.88Y-85.58
X69.5Y-77.96
X69.5Y-80.5
X69.5Y-83.04
X69.5Y-85.58
X100.735Y-75.5
X100.735Y-78.04
X100.735Y-80.58
X100.735Y-83.12
X100.735Y-85.66
X100.735Y-88.2
X100.735Y-90.74
X100.735Y-93.28
X108.355Y-75.5
X108.355Y-78.04
X108.355Y-80.58
X108.355Y-83.12
X108.355Y-85.66
X108.355Y-88.2
X108.355Y-90.74
X108.355Y-93.28
X139.38Y-77.92
X139.38Y-80.46
X139.38Y-83.0
X139.38Y-85.54
X147.0Y-77.92
X147.0Y-80.46
X147.0Y-83.0
X147.0Y-85.54
T5
X59.975Y-61.5
X62.515Y-61.5
X65.055Y-61.5
X74.5Y-26.924
X75.0Y-40.924
X79.5Y-26.924
X80.0Y-40.924
X86.0Y-66.5
X88.54Y-66.5
X90.0Y-103.71
X90.0Y-106.25
X91.08Y-66.5
X92.54Y-103.71
X92.54Y-106.25
X94.46Y-74.0
X94.46Y-78.0
X94.46Y-82.0
X94.46Y-86.0
X95.08Y-103.71
X95.08Y-106.25
X97.0Y-74.0
X97.0Y-78.0
X97.0Y-82.0
X97.0Y-86.0
X97.62Y-103.71
X97.62Y-106.25
X100.16Y-103.71
X100.16Y-106.25
X102.7Y-103.71
X102.7Y-106.25
X105.24Y-103.71
X105.24Y-106.25
X107.23Y-67.5
X109.77Y-67.5
X111.96Y-78.0
X112.0Y-73.5
X114.5Y-78.0
X114.54Y-73.5
X128.5Y-66.445
X128.5Y-68.985
X128.5Y-71.525
T6
X88.42Y-38.5
X90.96Y-38.5
X93.5Y-38.5
X108.42Y-39.0
X110.96Y-39.0
X113.5Y-39.0
X128.42Y-39.0
X130.96Y-39.0
X133.5Y-39.0
T7
X37.0Y-71.5
X42.0Y-71.5
X51.0Y-71.5
X56.0Y-71.5
T8
X25.5Y-47.5
X30.5Y-23.5
X31.0Y-58.0
X69.0Y-57.5
X69.5Y-24.5
X76.0Y-74.0
X79.5Y-98.0
X85.0Y-98.0
X90.0Y-98.0
X118.5Y-95.5
X138.5Y-60.0
X138.5Y-66.5
X138.5Y-92.5
X138.75Y-99.25
X146.5Y-25.0
T9
X152.5Y-31.4
X152.5Y-39.0
X152.5Y-58.5
X152.5Y-66.1
T10
X35.35Y-41.0
X64.65Y-41.0
T11
X25.0Y-25.0
X25.0Y-105.0
X155.0Y-25.0
X155.0Y-105.0
M30
