G04 #@! TF.GenerationSoftware,KiCad,Pcbnew,8.0.0*
G04 #@! TF.CreationDate,2024-04-26T12:32:38-04:00*
G04 #@! TF.ProjectId,SurgicalLightBoostConverterModule,53757267-6963-4616-9c4c-69676874426f,rev?*
G04 #@! TF.SameCoordinates,Original*
G04 #@! TF.FileFunction,Copper,L2,Bot*
G04 #@! TF.FilePolarity,Positive*
%FSLAX46Y46*%
G04 Gerber Fmt 4.6, Leading zero omitted, Abs format (unit mm)*
G04 Created by KiCad (PCBNEW 8.0.0) date 2024-04-26 12:32:38*
%MOMM*%
%LPD*%
G01*
G04 APERTURE LIST*
G04 Aperture macros list*
%AMRoundRect*
0 Rectangle with rounded corners*
0 $1 Rounding radius*
0 $2 $3 $4 $5 $6 $7 $8 $9 X,Y pos of 4 corners*
0 Add a 4 corners polygon primitive as box body*
4,1,4,$2,$3,$4,$5,$6,$7,$8,$9,$2,$3,0*
0 Add four circle primitives for the rounded corners*
1,1,$1+$1,$2,$3*
1,1,$1+$1,$4,$5*
1,1,$1+$1,$6,$7*
1,1,$1+$1,$8,$9*
0 Add four rect primitives between the rounded corners*
20,1,$1+$1,$2,$3,$4,$5,0*
20,1,$1+$1,$4,$5,$6,$7,0*
20,1,$1+$1,$6,$7,$8,$9,0*
20,1,$1+$1,$8,$9,$2,$3,0*%
G04 Aperture macros list end*
G04 #@! TA.AperFunction,ComponentPad*
%ADD10R,1.700000X1.700000*%
G04 #@! TD*
G04 #@! TA.AperFunction,ComponentPad*
%ADD11O,1.700000X1.700000*%
G04 #@! TD*
G04 #@! TA.AperFunction,ComponentPad*
%ADD12R,1.600000X1.600000*%
G04 #@! TD*
G04 #@! TA.AperFunction,ComponentPad*
%ADD13O,1.600000X1.600000*%
G04 #@! TD*
G04 #@! TA.AperFunction,ComponentPad*
%ADD14R,1.050000X1.500000*%
G04 #@! TD*
G04 #@! TA.AperFunction,ComponentPad*
%ADD15O,1.050000X1.500000*%
G04 #@! TD*
G04 #@! TA.AperFunction,ComponentPad*
%ADD16C,3.000000*%
G04 #@! TD*
G04 #@! TA.AperFunction,ComponentPad*
%ADD17R,1.905000X2.000000*%
G04 #@! TD*
G04 #@! TA.AperFunction,ComponentPad*
%ADD18O,1.905000X2.000000*%
G04 #@! TD*
G04 #@! TA.AperFunction,ComponentPad*
%ADD19R,2.400000X2.400000*%
G04 #@! TD*
G04 #@! TA.AperFunction,ComponentPad*
%ADD20C,2.400000*%
G04 #@! TD*
G04 #@! TA.AperFunction,ComponentPad*
%ADD21R,1.500000X1.050000*%
G04 #@! TD*
G04 #@! TA.AperFunction,ComponentPad*
%ADD22O,1.500000X1.050000*%
G04 #@! TD*
G04 #@! TA.AperFunction,ComponentPad*
%ADD23C,5.200000*%
G04 #@! TD*
G04 #@! TA.AperFunction,ComponentPad*
%ADD24R,2.000000X2.000000*%
G04 #@! TD*
G04 #@! TA.AperFunction,ComponentPad*
%ADD25C,2.000000*%
G04 #@! TD*
G04 #@! TA.AperFunction,ComponentPad*
%ADD26C,3.600000*%
G04 #@! TD*
G04 #@! TA.AperFunction,ConnectorPad*
%ADD27C,6.400000*%
G04 #@! TD*
G04 #@! TA.AperFunction,ComponentPad*
%ADD28RoundRect,0.750000X0.750000X-0.750000X0.750000X0.750000X-0.750000X0.750000X-0.750000X-0.750000X0*%
G04 #@! TD*
G04 #@! TA.AperFunction,ViaPad*
%ADD29C,0.600000*%
G04 #@! TD*
G04 #@! TA.AperFunction,ViaPad*
%ADD30C,1.500000*%
G04 #@! TD*
G04 #@! TA.AperFunction,Conductor*
%ADD31C,0.500000*%
G04 #@! TD*
G04 #@! TA.AperFunction,Conductor*
%ADD32C,0.200000*%
G04 #@! TD*
G04 #@! TA.AperFunction,Conductor*
%ADD33C,0.177800*%
G04 #@! TD*
G04 APERTURE END LIST*
D10*
X107230000Y-67500000D03*
D11*
X109770000Y-67500000D03*
D12*
X100735000Y-75500000D03*
D13*
X100735000Y-78040000D03*
X100735000Y-80580000D03*
X100735000Y-83120000D03*
X100735000Y-85660000D03*
X100735000Y-88200000D03*
X100735000Y-90740000D03*
X100735000Y-93280000D03*
X108355000Y-93280000D03*
X108355000Y-90740000D03*
X108355000Y-88200000D03*
X108355000Y-85660000D03*
X108355000Y-83120000D03*
X108355000Y-80580000D03*
X108355000Y-78040000D03*
X108355000Y-75500000D03*
D14*
X91000000Y-50500000D03*
D15*
X89730000Y-50500000D03*
X88460000Y-50500000D03*
D16*
X76000000Y-74000000D03*
D17*
X128420000Y-39000000D03*
D18*
X130960000Y-39000000D03*
X133500000Y-39000000D03*
D19*
X37000000Y-71500000D03*
D20*
X42000000Y-71500000D03*
D16*
X138500000Y-66500000D03*
D14*
X131040000Y-58500000D03*
D15*
X129770000Y-58500000D03*
X128500000Y-58500000D03*
D21*
X77000000Y-84000000D03*
D22*
X77000000Y-85270000D03*
X77000000Y-86540000D03*
D16*
X138750000Y-99250000D03*
D23*
X35350000Y-41000000D03*
X64650000Y-41000000D03*
D16*
X30500000Y-23500000D03*
D14*
X91040000Y-58500000D03*
D15*
X89770000Y-58500000D03*
X88500000Y-58500000D03*
D12*
X61880000Y-77960000D03*
D13*
X61880000Y-80500000D03*
X61880000Y-83040000D03*
X61880000Y-85580000D03*
X69500000Y-85580000D03*
X69500000Y-83040000D03*
X69500000Y-80500000D03*
X69500000Y-77960000D03*
D14*
X110960000Y-50500000D03*
D15*
X109690000Y-50500000D03*
X108420000Y-50500000D03*
D10*
X94460000Y-86000000D03*
D11*
X97000000Y-86000000D03*
D10*
X114500000Y-78000000D03*
D11*
X111960000Y-78000000D03*
D16*
X85000000Y-98000000D03*
X79500000Y-98000000D03*
D10*
X94460000Y-78000000D03*
D11*
X97000000Y-78000000D03*
D16*
X69000000Y-57500000D03*
X90000000Y-98000000D03*
D24*
X75000000Y-40923959D03*
D25*
X80000000Y-40923959D03*
D14*
X131000000Y-50500000D03*
D15*
X129730000Y-50500000D03*
X128460000Y-50500000D03*
D10*
X128500000Y-71525000D03*
D11*
X128500000Y-68985000D03*
X128500000Y-66445000D03*
D16*
X69500000Y-24500000D03*
D10*
X86000000Y-66500000D03*
D11*
X88540000Y-66500000D03*
X91080000Y-66500000D03*
D10*
X114540000Y-73500000D03*
D11*
X112000000Y-73500000D03*
D10*
X59975000Y-61500000D03*
D11*
X62515000Y-61500000D03*
X65055000Y-61500000D03*
D26*
X25000000Y-105000000D03*
D27*
X25000000Y-105000000D03*
D17*
X88420000Y-38500000D03*
D18*
X90960000Y-38500000D03*
X93500000Y-38500000D03*
D16*
X31000000Y-58000000D03*
D10*
X94460000Y-82000000D03*
D11*
X97000000Y-82000000D03*
D16*
X25500000Y-47500000D03*
D10*
X94460000Y-74000000D03*
D11*
X97000000Y-74000000D03*
D28*
X152500000Y-66100000D03*
X152500000Y-58500000D03*
D16*
X152500000Y-39000000D03*
X152500000Y-31400000D03*
D14*
X111040000Y-58500000D03*
D15*
X109770000Y-58500000D03*
X108500000Y-58500000D03*
D26*
X155000000Y-25000000D03*
D27*
X155000000Y-25000000D03*
D24*
X74500000Y-26923959D03*
D25*
X79500000Y-26923959D03*
D26*
X25000000Y-25000000D03*
D27*
X25000000Y-25000000D03*
D16*
X138500000Y-60000000D03*
D12*
X139380000Y-77920000D03*
D13*
X139380000Y-80460000D03*
X139380000Y-83000000D03*
X139380000Y-85540000D03*
X147000000Y-85540000D03*
X147000000Y-83000000D03*
X147000000Y-80460000D03*
X147000000Y-77920000D03*
D26*
X155000000Y-105000000D03*
D27*
X155000000Y-105000000D03*
D19*
X51000000Y-71500000D03*
D20*
X56000000Y-71500000D03*
D17*
X108420000Y-39000000D03*
D18*
X110960000Y-39000000D03*
X113500000Y-39000000D03*
D16*
X146500000Y-25000000D03*
X118500000Y-95500000D03*
X138500000Y-92500000D03*
D10*
X90000000Y-103710000D03*
D11*
X90000000Y-106250000D03*
X92540000Y-103710000D03*
X92540000Y-106250000D03*
X95080000Y-103710000D03*
X95080000Y-106250000D03*
X97620000Y-103710000D03*
X97620000Y-106250000D03*
X100160000Y-103710000D03*
X100160000Y-106250000D03*
X102700000Y-103710000D03*
X102700000Y-106250000D03*
X105240000Y-103710000D03*
X105240000Y-106250000D03*
D29*
X125937500Y-83437500D03*
X93000000Y-95400000D03*
X77000000Y-34000000D03*
X56000000Y-61000000D03*
X80175000Y-81825000D03*
X70000000Y-33500000D03*
X136412500Y-81912500D03*
X49500000Y-61000000D03*
X84000000Y-90000000D03*
X25565000Y-39087500D03*
X70000000Y-41000000D03*
X42323959Y-61000000D03*
X146000000Y-35462500D03*
X77500000Y-70000000D03*
D30*
X149000000Y-75000000D03*
D29*
X131500000Y-63000000D03*
X128675000Y-79825000D03*
X81500000Y-74000000D03*
X106500000Y-75000000D03*
X105000000Y-97500000D03*
X87000000Y-85500000D03*
X66500000Y-64500000D03*
D31*
X108762463Y-48000000D02*
X110960000Y-50197537D01*
X110960000Y-50197537D02*
X110960000Y-50500000D01*
X149000000Y-58500000D02*
X141000000Y-50500000D01*
X112000000Y-50500000D02*
X114500000Y-48000000D01*
X93500000Y-48000000D02*
X108762463Y-48000000D01*
X114500000Y-48000000D02*
X129000000Y-48000000D01*
X131000000Y-50000000D02*
X131000000Y-50500000D01*
X149000000Y-75000000D02*
X149000000Y-58500000D01*
X141000000Y-50500000D02*
X131000000Y-50500000D01*
X91000000Y-50500000D02*
X93500000Y-48000000D01*
X129000000Y-48000000D02*
X131000000Y-50000000D01*
X110960000Y-50500000D02*
X112000000Y-50500000D01*
D32*
X131500000Y-63000000D02*
X131000000Y-63000000D01*
X131000000Y-77500000D02*
X131000000Y-63000000D01*
X66555000Y-63000000D02*
X65055000Y-61500000D01*
X128675000Y-79825000D02*
X131000000Y-77500000D01*
X131000000Y-63000000D02*
X66555000Y-63000000D01*
D33*
X97000000Y-96710000D02*
X90000000Y-103710000D01*
X97000000Y-86000000D02*
X97000000Y-96710000D01*
X106500000Y-75000000D02*
X103500000Y-72000000D01*
X103500000Y-72000000D02*
X83500000Y-72000000D01*
X83500000Y-72000000D02*
X81500000Y-74000000D01*
D32*
X103500000Y-95290000D02*
X95080000Y-103710000D01*
X100735000Y-78040000D02*
X103500000Y-80805000D01*
X103500000Y-80805000D02*
X103500000Y-95290000D01*
X104500000Y-96830000D02*
X97620000Y-103710000D01*
X100735000Y-75500000D02*
X104500000Y-79265000D01*
X104500000Y-79265000D02*
X104500000Y-96830000D01*
D33*
X102500000Y-82345000D02*
X102500000Y-93750000D01*
X100735000Y-80580000D02*
X102500000Y-82345000D01*
X102500000Y-93750000D02*
X92540000Y-103710000D01*
D32*
X106500000Y-79895000D02*
X106500000Y-97370000D01*
X106500000Y-97370000D02*
X100160000Y-103710000D01*
X108355000Y-78040000D02*
X106500000Y-79895000D01*
X105500000Y-78355000D02*
X105500000Y-97000000D01*
X112000000Y-73500000D02*
X112255600Y-73500000D01*
X105500000Y-97000000D02*
X105000000Y-97500000D01*
X108355000Y-75500000D02*
X105500000Y-78355000D01*
D33*
X79500000Y-88960000D02*
X79500000Y-98000000D01*
X94460000Y-74000000D02*
X79500000Y-88960000D01*
X87000000Y-85500000D02*
X87000000Y-96000000D01*
X87000000Y-96000000D02*
X85000000Y-98000000D01*
X94460000Y-86000000D02*
X90000000Y-90460000D01*
X90000000Y-90460000D02*
X90000000Y-98000000D01*
X65515000Y-64500000D02*
X62515000Y-61500000D01*
X66500000Y-64500000D02*
X65515000Y-64500000D01*
X128500000Y-68985000D02*
X126500000Y-70985000D01*
X138500000Y-91750000D02*
X138500000Y-92500000D01*
X126500000Y-79750000D02*
X138500000Y-91750000D01*
X126500000Y-70985000D02*
X126500000Y-79750000D01*
G04 #@! TA.AperFunction,Conductor*
G36*
X155002702Y-20200617D02*
G01*
X155412917Y-20218528D01*
X155423654Y-20219468D01*
X155828057Y-20272708D01*
X155838695Y-20274583D01*
X156236925Y-20362869D01*
X156247365Y-20365667D01*
X156636363Y-20488317D01*
X156646524Y-20492015D01*
X157023363Y-20648108D01*
X157033155Y-20652674D01*
X157394965Y-20841020D01*
X157404305Y-20846413D01*
X157689636Y-21028189D01*
X157748309Y-21065568D01*
X157757170Y-21071772D01*
X158080766Y-21320076D01*
X158089053Y-21327030D01*
X158389767Y-21602583D01*
X158397416Y-21610232D01*
X158672969Y-21910946D01*
X158679923Y-21919233D01*
X158928227Y-22242829D01*
X158934431Y-22251690D01*
X159087207Y-22491500D01*
X159153578Y-22595680D01*
X159158987Y-22605048D01*
X159347322Y-22966838D01*
X159351894Y-22976642D01*
X159507983Y-23353473D01*
X159511683Y-23363639D01*
X159634331Y-23752630D01*
X159637131Y-23763078D01*
X159725414Y-24161296D01*
X159727292Y-24171950D01*
X159780529Y-24576326D01*
X159781472Y-24587102D01*
X159799382Y-24997297D01*
X159799500Y-25002706D01*
X159799500Y-104997293D01*
X159799382Y-105002702D01*
X159781472Y-105412897D01*
X159780529Y-105423673D01*
X159727292Y-105828049D01*
X159725414Y-105838703D01*
X159637131Y-106236921D01*
X159634331Y-106247369D01*
X159511683Y-106636360D01*
X159507983Y-106646526D01*
X159351894Y-107023357D01*
X159347322Y-107033161D01*
X159158987Y-107394951D01*
X159153578Y-107404319D01*
X158934431Y-107748309D01*
X158928227Y-107757170D01*
X158679923Y-108080766D01*
X158672969Y-108089053D01*
X158397416Y-108389767D01*
X158389767Y-108397416D01*
X158089053Y-108672969D01*
X158080766Y-108679923D01*
X157757170Y-108928227D01*
X157748309Y-108934431D01*
X157404319Y-109153578D01*
X157394951Y-109158987D01*
X157033161Y-109347322D01*
X157023357Y-109351894D01*
X156646526Y-109507983D01*
X156636360Y-109511683D01*
X156247369Y-109634331D01*
X156236921Y-109637131D01*
X155838703Y-109725414D01*
X155828049Y-109727292D01*
X155423673Y-109780529D01*
X155412897Y-109781472D01*
X155002703Y-109799382D01*
X154997294Y-109799500D01*
X25002706Y-109799500D01*
X24997297Y-109799382D01*
X24587102Y-109781472D01*
X24576326Y-109780529D01*
X24171950Y-109727292D01*
X24161296Y-109725414D01*
X23763078Y-109637131D01*
X23752630Y-109634331D01*
X23363639Y-109511683D01*
X23353473Y-109507983D01*
X22976642Y-109351894D01*
X22966838Y-109347322D01*
X22847126Y-109285004D01*
X22605042Y-109158983D01*
X22595686Y-109153582D01*
X22423685Y-109044004D01*
X22251690Y-108934431D01*
X22242829Y-108928227D01*
X21919233Y-108679923D01*
X21910946Y-108672969D01*
X21610232Y-108397416D01*
X21602583Y-108389767D01*
X21327030Y-108089053D01*
X21320076Y-108080766D01*
X21071772Y-107757170D01*
X21065568Y-107748309D01*
X21012070Y-107664334D01*
X20846413Y-107404305D01*
X20841020Y-107394965D01*
X20652674Y-107033155D01*
X20648105Y-107023357D01*
X20617219Y-106948793D01*
X20492015Y-106646524D01*
X20488316Y-106636360D01*
X20437237Y-106474359D01*
X20365667Y-106247365D01*
X20362868Y-106236921D01*
X20316028Y-106025640D01*
X20274583Y-105838695D01*
X20272707Y-105828049D01*
X20269987Y-105807385D01*
X20219468Y-105423654D01*
X20218528Y-105412917D01*
X20200618Y-105002702D01*
X20200500Y-104997293D01*
X20200500Y-98000000D01*
X77486807Y-98000000D01*
X77505557Y-98274130D01*
X77505558Y-98274132D01*
X77561458Y-98543141D01*
X77561463Y-98543158D01*
X77653476Y-98802056D01*
X77779889Y-99046024D01*
X77779893Y-99046030D01*
X77938340Y-99270499D01*
X77938343Y-99270502D01*
X78125889Y-99471314D01*
X78339031Y-99644718D01*
X78339033Y-99644719D01*
X78339034Y-99644720D01*
X78573801Y-99787485D01*
X78778348Y-99876331D01*
X78825823Y-99896953D01*
X79090404Y-99971085D01*
X79329720Y-100003978D01*
X79362614Y-100008500D01*
X79362615Y-100008500D01*
X79637386Y-100008500D01*
X79666733Y-100004466D01*
X79909596Y-99971085D01*
X80174177Y-99896953D01*
X80426200Y-99787484D01*
X80660969Y-99644718D01*
X80874111Y-99471314D01*
X81061657Y-99270502D01*
X81220111Y-99046023D01*
X81346523Y-98802058D01*
X81438538Y-98543153D01*
X81438539Y-98543146D01*
X81438541Y-98543141D01*
X81484568Y-98321645D01*
X81494442Y-98274130D01*
X81513193Y-98000000D01*
X82986807Y-98000000D01*
X83005557Y-98274130D01*
X83005558Y-98274132D01*
X83061458Y-98543141D01*
X83061463Y-98543158D01*
X83153476Y-98802056D01*
X83279889Y-99046024D01*
X83279893Y-99046030D01*
X83438340Y-99270499D01*
X83438343Y-99270502D01*
X83625889Y-99471314D01*
X83839031Y-99644718D01*
X83839033Y-99644719D01*
X83839034Y-99644720D01*
X84073801Y-99787485D01*
X84278348Y-99876331D01*
X84325823Y-99896953D01*
X84590404Y-99971085D01*
X84829720Y-100003978D01*
X84862614Y-100008500D01*
X84862615Y-100008500D01*
X85137386Y-100008500D01*
X85166733Y-100004466D01*
X85409596Y-99971085D01*
X85674177Y-99896953D01*
X85926200Y-99787484D01*
X86160969Y-99644718D01*
X86374111Y-99471314D01*
X86561657Y-99270502D01*
X86720111Y-99046023D01*
X86846523Y-98802058D01*
X86938538Y-98543153D01*
X86938539Y-98543146D01*
X86938541Y-98543141D01*
X86984568Y-98321645D01*
X86994442Y-98274130D01*
X87013193Y-98000000D01*
X86994442Y-97725870D01*
X86941497Y-97471084D01*
X86938541Y-97456858D01*
X86938536Y-97456841D01*
X86879201Y-97289890D01*
X86846523Y-97197942D01*
X86820139Y-97147023D01*
X86806774Y-97078444D01*
X86832608Y-97013525D01*
X86842556Y-97002294D01*
X87115352Y-96729498D01*
X87478039Y-96366812D01*
X87556688Y-96230588D01*
X87597400Y-96078649D01*
X87597400Y-95921351D01*
X87597400Y-86097354D01*
X87617085Y-86030315D01*
X87633719Y-86009673D01*
X87636111Y-86007281D01*
X87733043Y-85853015D01*
X87793217Y-85681047D01*
X87793218Y-85681041D01*
X87813616Y-85500003D01*
X87813616Y-85499996D01*
X87793218Y-85318958D01*
X87793217Y-85318953D01*
X87755359Y-85210761D01*
X87733043Y-85146985D01*
X87636111Y-84992719D01*
X87507281Y-84863889D01*
X87398912Y-84795796D01*
X87353017Y-84766958D01*
X87353016Y-84766957D01*
X87353015Y-84766957D01*
X87289634Y-84744779D01*
X87181046Y-84706782D01*
X87181041Y-84706781D01*
X87000004Y-84686384D01*
X86999996Y-84686384D01*
X86818958Y-84706781D01*
X86818953Y-84706782D01*
X86646982Y-84766958D01*
X86492718Y-84863889D01*
X86363889Y-84992718D01*
X86266958Y-85146982D01*
X86206782Y-85318953D01*
X86206781Y-85318958D01*
X86186384Y-85499996D01*
X86186384Y-85500003D01*
X86206781Y-85681041D01*
X86206782Y-85681046D01*
X86266958Y-85853017D01*
X86363889Y-86007281D01*
X86366281Y-86009673D01*
X86367332Y-86011598D01*
X86368230Y-86012724D01*
X86368032Y-86012881D01*
X86399766Y-86070996D01*
X86402600Y-86097354D01*
X86402600Y-95701186D01*
X86382915Y-95768225D01*
X86366281Y-95788867D01*
X85997331Y-96157816D01*
X85936008Y-96191301D01*
X85866316Y-96186317D01*
X85860248Y-96183869D01*
X85674178Y-96103047D01*
X85409602Y-96028916D01*
X85409597Y-96028915D01*
X85409596Y-96028915D01*
X85273490Y-96010207D01*
X85137386Y-95991500D01*
X85137385Y-95991500D01*
X84862615Y-95991500D01*
X84862614Y-95991500D01*
X84590404Y-96028915D01*
X84590397Y-96028916D01*
X84325821Y-96103047D01*
X84073801Y-96212514D01*
X83839034Y-96355279D01*
X83625892Y-96528683D01*
X83438340Y-96729500D01*
X83279893Y-96953969D01*
X83279889Y-96953975D01*
X83153476Y-97197943D01*
X83061463Y-97456841D01*
X83061458Y-97456858D01*
X83005558Y-97725867D01*
X83005557Y-97725869D01*
X82986807Y-98000000D01*
X81513193Y-98000000D01*
X81494442Y-97725870D01*
X81441497Y-97471084D01*
X81438541Y-97456858D01*
X81438536Y-97456841D01*
X81379201Y-97289890D01*
X81346523Y-97197942D01*
X81220111Y-96953977D01*
X81220110Y-96953975D01*
X81220106Y-96953969D01*
X81061659Y-96729500D01*
X80954040Y-96614269D01*
X80874111Y-96528686D01*
X80660969Y-96355282D01*
X80660967Y-96355281D01*
X80660965Y-96355279D01*
X80426198Y-96212514D01*
X80171998Y-96102100D01*
X80118351Y-96057337D01*
X80097422Y-95990675D01*
X80097400Y-95988366D01*
X80097400Y-89258813D01*
X80117085Y-89191774D01*
X80133719Y-89171132D01*
X86406197Y-82898654D01*
X93101500Y-82898654D01*
X93108011Y-82959202D01*
X93108011Y-82959204D01*
X93132221Y-83024111D01*
X93159111Y-83096204D01*
X93246739Y-83213261D01*
X93363796Y-83300889D01*
X93500799Y-83351989D01*
X93528050Y-83354918D01*
X93561345Y-83358499D01*
X93561362Y-83358500D01*
X95358638Y-83358500D01*
X95358654Y-83358499D01*
X95385692Y-83355591D01*
X95419201Y-83351989D01*
X95556204Y-83300889D01*
X95673261Y-83213261D01*
X95760889Y-83096204D01*
X95806138Y-82974887D01*
X95848009Y-82918956D01*
X95913474Y-82894539D01*
X95981746Y-82909391D01*
X96013545Y-82934236D01*
X96076760Y-83002906D01*
X96254424Y-83141189D01*
X96254425Y-83141189D01*
X96254427Y-83141191D01*
X96381135Y-83209761D01*
X96452426Y-83248342D01*
X96665365Y-83321444D01*
X96887431Y-83358500D01*
X97112569Y-83358500D01*
X97334635Y-83321444D01*
X97547574Y-83248342D01*
X97745576Y-83141189D01*
X97923240Y-83002906D01*
X98075722Y-82837268D01*
X98198860Y-82648791D01*
X98289296Y-82442616D01*
X98344564Y-82224368D01*
X98363156Y-82000000D01*
X98362642Y-81993802D01*
X98344565Y-81775640D01*
X98344563Y-81775628D01*
X98341876Y-81765018D01*
X98289296Y-81557384D01*
X98198860Y-81351209D01*
X98168215Y-81304304D01*
X98075723Y-81162734D01*
X98075715Y-81162723D01*
X97923243Y-80997097D01*
X97923238Y-80997092D01*
X97745577Y-80858812D01*
X97745572Y-80858808D01*
X97547580Y-80751661D01*
X97547577Y-80751659D01*
X97547574Y-80751658D01*
X97547571Y-80751657D01*
X97547569Y-80751656D01*
X97334637Y-80678556D01*
X97112569Y-80641500D01*
X96887431Y-80641500D01*
X96665362Y-80678556D01*
X96452430Y-80751656D01*
X96452419Y-80751661D01*
X96254427Y-80858808D01*
X96254422Y-80858812D01*
X96076761Y-80997092D01*
X96013548Y-81065760D01*
X95953661Y-81101750D01*
X95883823Y-81099649D01*
X95826207Y-81060124D01*
X95806138Y-81025110D01*
X95760889Y-80903796D01*
X95727214Y-80858812D01*
X95673261Y-80786739D01*
X95556204Y-80699111D01*
X95419203Y-80648011D01*
X95358654Y-80641500D01*
X95358638Y-80641500D01*
X93561362Y-80641500D01*
X93561345Y-80641500D01*
X93500797Y-80648011D01*
X93500795Y-80648011D01*
X93363795Y-80699111D01*
X93246739Y-80786739D01*
X93159111Y-80903795D01*
X93108011Y-81040795D01*
X93108011Y-81040797D01*
X93101500Y-81101345D01*
X93101500Y-82898654D01*
X86406197Y-82898654D01*
X90406197Y-78898654D01*
X93101500Y-78898654D01*
X93108011Y-78959202D01*
X93108011Y-78959204D01*
X93144684Y-79057524D01*
X93159111Y-79096204D01*
X93246739Y-79213261D01*
X93363796Y-79300889D01*
X93500799Y-79351989D01*
X93528050Y-79354918D01*
X93561345Y-79358499D01*
X93561362Y-79358500D01*
X95358638Y-79358500D01*
X95358654Y-79358499D01*
X95385692Y-79355591D01*
X95419201Y-79351989D01*
X95556204Y-79300889D01*
X95673261Y-79213261D01*
X95760889Y-79096204D01*
X95806138Y-78974887D01*
X95848009Y-78918956D01*
X95913474Y-78894539D01*
X95981746Y-78909391D01*
X96013545Y-78934236D01*
X96076760Y-79002906D01*
X96254424Y-79141189D01*
X96254425Y-79141189D01*
X96254427Y-79141191D01*
X96321565Y-79177524D01*
X96452426Y-79248342D01*
X96629166Y-79309017D01*
X96654511Y-79317718D01*
X96665365Y-79321444D01*
X96887431Y-79358500D01*
X97112569Y-79358500D01*
X97334635Y-79321444D01*
X97547574Y-79248342D01*
X97745576Y-79141189D01*
X97923240Y-79002906D01*
X98046323Y-78869204D01*
X98075715Y-78837276D01*
X98075716Y-78837274D01*
X98075722Y-78837268D01*
X98198860Y-78648791D01*
X98289296Y-78442616D01*
X98344564Y-78224368D01*
X98347570Y-78188089D01*
X98363156Y-78000005D01*
X98363156Y-77999994D01*
X98344565Y-77775640D01*
X98344563Y-77775628D01*
X98289296Y-77557385D01*
X98268843Y-77510757D01*
X98198860Y-77351209D01*
X98167529Y-77303254D01*
X98075723Y-77162734D01*
X98075715Y-77162723D01*
X97923243Y-76997097D01*
X97923238Y-76997092D01*
X97775860Y-76882382D01*
X97745576Y-76858811D01*
X97745575Y-76858810D01*
X97745572Y-76858808D01*
X97547580Y-76751661D01*
X97547577Y-76751659D01*
X97547574Y-76751658D01*
X97547571Y-76751657D01*
X97547569Y-76751656D01*
X97334637Y-76678556D01*
X97112569Y-76641500D01*
X96887431Y-76641500D01*
X96665362Y-76678556D01*
X96452430Y-76751656D01*
X96452419Y-76751661D01*
X96254427Y-76858808D01*
X96254422Y-76858812D01*
X96076761Y-76997092D01*
X96013548Y-77065760D01*
X95953661Y-77101750D01*
X95883823Y-77099649D01*
X95826207Y-77060124D01*
X95806138Y-77025110D01*
X95760889Y-76903796D01*
X95748837Y-76887696D01*
X95673261Y-76786739D01*
X95556204Y-76699111D01*
X95419203Y-76648011D01*
X95358654Y-76641500D01*
X95358638Y-76641500D01*
X93561362Y-76641500D01*
X93561345Y-76641500D01*
X93500797Y-76648011D01*
X93500795Y-76648011D01*
X93363795Y-76699111D01*
X93246739Y-76786739D01*
X93159111Y-76903795D01*
X93108011Y-77040795D01*
X93108011Y-77040797D01*
X93101500Y-77101345D01*
X93101500Y-78898654D01*
X90406197Y-78898654D01*
X93910032Y-75394819D01*
X93971355Y-75361334D01*
X93997713Y-75358500D01*
X95358638Y-75358500D01*
X95358654Y-75358499D01*
X95385692Y-75355591D01*
X95419201Y-75351989D01*
X95556204Y-75300889D01*
X95673261Y-75213261D01*
X95760889Y-75096204D01*
X95806138Y-74974887D01*
X95848009Y-74918956D01*
X95913474Y-74894539D01*
X95981746Y-74909391D01*
X96013545Y-74934236D01*
X96076760Y-75002906D01*
X96254424Y-75141189D01*
X96254425Y-75141189D01*
X96254427Y-75141191D01*
X96328068Y-75181043D01*
X96452426Y-75248342D01*
X96665365Y-75321444D01*
X96887431Y-75358500D01*
X97112569Y-75358500D01*
X97334635Y-75321444D01*
X97547574Y-75248342D01*
X97745576Y-75141189D01*
X97923240Y-75002906D01*
X98023000Y-74894539D01*
X98075715Y-74837276D01*
X98075716Y-74837274D01*
X98075722Y-74837268D01*
X98198860Y-74648791D01*
X98289296Y-74442616D01*
X98344564Y-74224368D01*
X98346021Y-74206783D01*
X98363156Y-74000005D01*
X98363156Y-73999994D01*
X98344565Y-73775640D01*
X98344563Y-73775628D01*
X98341876Y-73765018D01*
X98289296Y-73557384D01*
X98198860Y-73351209D01*
X98143815Y-73266957D01*
X98104502Y-73206783D01*
X98075722Y-73162732D01*
X98075719Y-73162729D01*
X98075715Y-73162723D01*
X97923243Y-72997097D01*
X97923238Y-72997092D01*
X97768931Y-72876989D01*
X97745576Y-72858811D01*
X97745575Y-72858810D01*
X97745572Y-72858808D01*
X97693179Y-72830455D01*
X97643588Y-72781236D01*
X97628480Y-72713019D01*
X97652650Y-72647463D01*
X97708426Y-72605382D01*
X97752196Y-72597400D01*
X103201187Y-72597400D01*
X103268226Y-72617085D01*
X103288868Y-72633719D01*
X105659668Y-75004519D01*
X105693153Y-75065842D01*
X105695207Y-75078316D01*
X105706781Y-75181043D01*
X105766958Y-75353017D01*
X105841289Y-75471314D01*
X105863889Y-75507281D01*
X105992719Y-75636111D01*
X106146985Y-75733043D01*
X106288383Y-75782520D01*
X106318953Y-75793217D01*
X106318958Y-75793218D01*
X106499996Y-75813616D01*
X106500000Y-75813616D01*
X106500004Y-75813616D01*
X106681041Y-75793218D01*
X106681044Y-75793217D01*
X106681047Y-75793217D01*
X106853015Y-75733043D01*
X106890294Y-75709619D01*
X106957530Y-75690618D01*
X107024366Y-75710985D01*
X107069580Y-75764252D01*
X107076042Y-75782520D01*
X107086229Y-75820541D01*
X107084565Y-75890391D01*
X107054135Y-75940314D01*
X105013080Y-77981370D01*
X105013076Y-77981376D01*
X104932967Y-78120126D01*
X104932968Y-78120126D01*
X104932968Y-78120127D01*
X104891500Y-78274889D01*
X104891500Y-78496589D01*
X104871815Y-78563628D01*
X104819011Y-78609383D01*
X104749853Y-78619327D01*
X104686297Y-78590302D01*
X104679819Y-78584270D01*
X102079819Y-75984270D01*
X102046334Y-75922947D01*
X102043500Y-75896589D01*
X102043500Y-74651362D01*
X102043499Y-74651345D01*
X102039427Y-74613479D01*
X102036989Y-74590799D01*
X102028455Y-74567920D01*
X102005838Y-74507281D01*
X101985889Y-74453796D01*
X101898261Y-74336739D01*
X101781204Y-74249111D01*
X101644203Y-74198011D01*
X101583654Y-74191500D01*
X101583638Y-74191500D01*
X99886362Y-74191500D01*
X99886345Y-74191500D01*
X99825797Y-74198011D01*
X99825795Y-74198011D01*
X99688795Y-74249111D01*
X99571739Y-74336739D01*
X99484111Y-74453795D01*
X99433011Y-74590795D01*
X99433011Y-74590797D01*
X99426500Y-74651345D01*
X99426500Y-76348654D01*
X99433011Y-76409202D01*
X99433011Y-76409204D01*
X99469189Y-76506198D01*
X99484111Y-76546204D01*
X99571739Y-76663261D01*
X99688796Y-76750889D01*
X99773483Y-76782476D01*
X99825793Y-76801987D01*
X99825799Y-76801989D01*
X99840499Y-76803569D01*
X99905048Y-76830305D01*
X99944897Y-76887696D01*
X99947393Y-76957521D01*
X99911742Y-77017611D01*
X99898377Y-77028425D01*
X99890700Y-77033802D01*
X99890696Y-77033805D01*
X99728806Y-77195695D01*
X99728803Y-77195698D01*
X99728802Y-77195700D01*
X99681500Y-77263254D01*
X99597476Y-77383252D01*
X99597475Y-77383254D01*
X99500718Y-77590750D01*
X99500714Y-77590761D01*
X99441457Y-77811910D01*
X99441456Y-77811918D01*
X99421502Y-78039998D01*
X99421502Y-78040001D01*
X99441456Y-78268081D01*
X99441457Y-78268089D01*
X99500714Y-78489238D01*
X99500718Y-78489249D01*
X99575114Y-78648791D01*
X99597477Y-78696749D01*
X99728802Y-78884300D01*
X99890700Y-79046198D01*
X100045064Y-79154285D01*
X100078251Y-79177523D01*
X100121345Y-79197618D01*
X100173784Y-79243791D01*
X100192936Y-79310984D01*
X100172720Y-79377865D01*
X100121345Y-79422382D01*
X100078251Y-79442476D01*
X99971753Y-79517048D01*
X99890700Y-79573802D01*
X99890698Y-79573803D01*
X99890695Y-79573806D01*
X99728806Y-79735695D01*
X99728803Y-79735698D01*
X99728802Y-79735700D01*
X99681500Y-79803254D01*
X99597476Y-79923252D01*
X99597475Y-79923254D01*
X99500718Y-80130750D01*
X99500714Y-80130761D01*
X99441457Y-80351910D01*
X99441456Y-80351918D01*
X99421502Y-80579998D01*
X99421502Y-80580001D01*
X99441456Y-80808081D01*
X99441457Y-80808089D01*
X99500714Y-81029238D01*
X99500718Y-81029249D01*
X99562963Y-81162734D01*
X99597477Y-81236749D01*
X99728802Y-81424300D01*
X99890700Y-81586198D01*
X100078251Y-81717523D01*
X100121345Y-81737618D01*
X100173784Y-81783791D01*
X100192936Y-81850984D01*
X100172720Y-81917865D01*
X100121345Y-81962382D01*
X100078251Y-81982476D01*
X99953126Y-82070090D01*
X99890700Y-82113802D01*
X99890698Y-82113803D01*
X99890695Y-82113806D01*
X99728806Y-82275695D01*
X99728803Y-82275698D01*
X99728802Y-82275700D01*
X99681500Y-82343254D01*
X99597476Y-82463252D01*
X99597475Y-82463254D01*
X99500718Y-82670750D01*
X99500714Y-82670761D01*
X99441457Y-82891910D01*
X99441456Y-82891918D01*
X99421502Y-83119998D01*
X99421502Y-83120001D01*
X99441456Y-83348081D01*
X99441457Y-83348089D01*
X99500714Y-83569238D01*
X99500718Y-83569249D01*
X99541520Y-83656749D01*
X99597477Y-83776749D01*
X99728802Y-83964300D01*
X99890700Y-84126198D01*
X100045064Y-84234285D01*
X100078251Y-84257523D01*
X100121345Y-84277618D01*
X100173784Y-84323791D01*
X100192936Y-84390984D01*
X100172720Y-84457865D01*
X100121345Y-84502382D01*
X100078251Y-84522476D01*
X99953126Y-84610090D01*
X99890700Y-84653802D01*
X99890698Y-84653803D01*
X99890695Y-84653806D01*
X99728806Y-84815695D01*
X99728803Y-84815698D01*
X99728802Y-84815700D01*
X99698615Y-84858812D01*
X99597476Y-85003252D01*
X99597475Y-85003254D01*
X99500718Y-85210750D01*
X99500714Y-85210761D01*
X99441457Y-85431910D01*
X99441456Y-85431918D01*
X99421502Y-85659998D01*
X99421502Y-85660001D01*
X99441456Y-85888081D01*
X99441457Y-85888089D01*
X99500714Y-86109238D01*
X99500718Y-86109249D01*
X99567400Y-86252248D01*
X99597477Y-86316749D01*
X99728802Y-86504300D01*
X99890700Y-86666198D01*
X100078251Y-86797523D01*
X100121345Y-86817618D01*
X100173784Y-86863791D01*
X100192936Y-86930984D01*
X100172720Y-86997865D01*
X100121345Y-87042382D01*
X100078251Y-87062476D01*
X99965830Y-87141195D01*
X99890700Y-87193802D01*
X99890698Y-87193803D01*
X99890695Y-87193806D01*
X99728806Y-87355695D01*
X99728803Y-87355698D01*
X99728802Y-87355700D01*
X99683528Y-87420358D01*
X99597476Y-87543252D01*
X99597475Y-87543254D01*
X99500718Y-87750750D01*
X99500714Y-87750761D01*
X99441457Y-87971910D01*
X99441456Y-87971918D01*
X99421502Y-88199998D01*
X99421502Y-88200001D01*
X99441456Y-88428081D01*
X99441457Y-88428089D01*
X99500714Y-88649238D01*
X99500718Y-88649249D01*
X99538097Y-88729408D01*
X99597477Y-88856749D01*
X99728802Y-89044300D01*
X99890700Y-89206198D01*
X100078251Y-89337523D01*
X100203091Y-89395736D01*
X100285750Y-89434281D01*
X100285752Y-89434281D01*
X100285757Y-89434284D01*
X100506913Y-89493543D01*
X100669832Y-89507796D01*
X100734998Y-89513498D01*
X100735000Y-89513498D01*
X100735002Y-89513498D01*
X100792021Y-89508509D01*
X100963087Y-89493543D01*
X101184243Y-89434284D01*
X101391749Y-89337523D01*
X101579300Y-89206198D01*
X101690919Y-89094579D01*
X101752242Y-89061094D01*
X101821934Y-89066078D01*
X101877867Y-89107950D01*
X101902284Y-89173414D01*
X101902600Y-89182260D01*
X101902600Y-92297740D01*
X101882915Y-92364779D01*
X101830111Y-92410534D01*
X101760953Y-92420478D01*
X101697397Y-92391453D01*
X101690919Y-92385421D01*
X101579304Y-92273806D01*
X101579300Y-92273802D01*
X101391749Y-92142477D01*
X101391745Y-92142475D01*
X101184249Y-92045718D01*
X101184238Y-92045714D01*
X100963089Y-91986457D01*
X100963081Y-91986456D01*
X100735002Y-91966502D01*
X100734998Y-91966502D01*
X100506918Y-91986456D01*
X100506910Y-91986457D01*
X100285761Y-92045714D01*
X100285750Y-92045718D01*
X100078254Y-92142475D01*
X100078252Y-92142476D01*
X100078251Y-92142477D01*
X99890700Y-92273802D01*
X99890698Y-92273803D01*
X99890695Y-92273806D01*
X99728806Y-92435695D01*
X99597476Y-92623252D01*
X99597475Y-92623254D01*
X99500718Y-92830750D01*
X99500714Y-92830761D01*
X99441457Y-93051910D01*
X99441456Y-93051918D01*
X99421502Y-93279998D01*
X99421502Y-93280001D01*
X99441456Y-93508081D01*
X99441457Y-93508089D01*
X99500714Y-93729238D01*
X99500718Y-93729249D01*
X99597475Y-93936745D01*
X99597477Y-93936749D01*
X99728802Y-94124300D01*
X99890700Y-94286198D01*
X100078251Y-94417523D01*
X100193112Y-94471083D01*
X100285750Y-94514281D01*
X100285752Y-94514281D01*
X100285757Y-94514284D01*
X100506913Y-94573543D01*
X100540576Y-94576488D01*
X100605645Y-94601940D01*
X100646624Y-94658531D01*
X100650502Y-94728293D01*
X100617450Y-94787697D01*
X93035046Y-102370101D01*
X92973723Y-102403586D01*
X92907103Y-102399702D01*
X92874634Y-102388555D01*
X92652569Y-102351500D01*
X92502712Y-102351500D01*
X92435673Y-102331815D01*
X92389918Y-102279011D01*
X92379974Y-102209853D01*
X92408999Y-102146297D01*
X92415031Y-102139819D01*
X94767366Y-99787484D01*
X97478039Y-97076812D01*
X97499252Y-97040070D01*
X97556688Y-96940588D01*
X97597400Y-96788649D01*
X97597400Y-87295265D01*
X97617085Y-87228226D01*
X97662384Y-87186210D01*
X97745566Y-87141195D01*
X97745569Y-87141192D01*
X97745576Y-87141189D01*
X97923240Y-87002906D01*
X98052829Y-86862136D01*
X98075715Y-86837276D01*
X98075716Y-86837274D01*
X98075722Y-86837268D01*
X98198860Y-86648791D01*
X98289296Y-86442616D01*
X98344564Y-86224368D01*
X98344565Y-86224359D01*
X98363156Y-86000005D01*
X98363156Y-85999994D01*
X98344565Y-85775640D01*
X98344563Y-85775628D01*
X98320612Y-85681047D01*
X98289296Y-85557384D01*
X98198860Y-85351209D01*
X98177789Y-85318958D01*
X98075723Y-85162734D01*
X98075715Y-85162723D01*
X97923243Y-84997097D01*
X97923238Y-84997092D01*
X97745577Y-84858812D01*
X97745572Y-84858808D01*
X97547580Y-84751661D01*
X97547577Y-84751659D01*
X97547574Y-84751658D01*
X97547571Y-84751657D01*
X97547569Y-84751656D01*
X97334637Y-84678556D01*
X97112569Y-84641500D01*
X96887431Y-84641500D01*
X96665362Y-84678556D01*
X96452430Y-84751656D01*
X96452419Y-84751661D01*
X96254427Y-84858808D01*
X96254422Y-84858812D01*
X96076761Y-84997092D01*
X96013548Y-85065760D01*
X95953661Y-85101750D01*
X95883823Y-85099649D01*
X95826207Y-85060124D01*
X95806138Y-85025110D01*
X95760889Y-84903796D01*
X95727214Y-84858812D01*
X95673261Y-84786739D01*
X95556204Y-84699111D01*
X95522082Y-84686384D01*
X95419203Y-84648011D01*
X95358654Y-84641500D01*
X95358638Y-84641500D01*
X93561362Y-84641500D01*
X93561345Y-84641500D01*
X93500797Y-84648011D01*
X93500795Y-84648011D01*
X93363795Y-84699111D01*
X93246739Y-84786739D01*
X93159111Y-84903795D01*
X93108011Y-85040795D01*
X93108011Y-85040797D01*
X93101500Y-85101345D01*
X93101500Y-86462287D01*
X93081815Y-86529326D01*
X93065181Y-86549968D01*
X89521963Y-90093185D01*
X89521959Y-90093191D01*
X89443313Y-90229408D01*
X89443312Y-90229412D01*
X89402600Y-90381351D01*
X89402600Y-90381353D01*
X89402600Y-95988366D01*
X89382915Y-96055405D01*
X89330111Y-96101160D01*
X89328002Y-96102100D01*
X89073801Y-96212514D01*
X88839034Y-96355279D01*
X88625892Y-96528683D01*
X88438340Y-96729500D01*
X88279893Y-96953969D01*
X88279889Y-96953975D01*
X88153476Y-97197943D01*
X88061463Y-97456841D01*
X88061458Y-97456858D01*
X88005558Y-97725867D01*
X88005557Y-97725869D01*
X87986807Y-98000000D01*
X88005557Y-98274130D01*
X88005558Y-98274132D01*
X88061458Y-98543141D01*
X88061463Y-98543158D01*
X88153476Y-98802056D01*
X88279889Y-99046024D01*
X88279893Y-99046030D01*
X88438340Y-99270499D01*
X88438343Y-99270502D01*
X88625889Y-99471314D01*
X88839031Y-99644718D01*
X88839033Y-99644719D01*
X88839034Y-99644720D01*
X89073801Y-99787485D01*
X89278348Y-99876331D01*
X89325823Y-99896953D01*
X89590404Y-99971085D01*
X89829720Y-100003978D01*
X89862614Y-100008500D01*
X89862615Y-100008500D01*
X90137386Y-100008500D01*
X90166733Y-100004466D01*
X90409596Y-99971085D01*
X90674177Y-99896953D01*
X90926200Y-99787484D01*
X91160969Y-99644718D01*
X91374111Y-99471314D01*
X91561657Y-99270502D01*
X91720111Y-99046023D01*
X91846523Y-98802058D01*
X91938538Y-98543153D01*
X91938539Y-98543146D01*
X91938541Y-98543141D01*
X91984568Y-98321645D01*
X91994442Y-98274130D01*
X92013193Y-98000000D01*
X91994442Y-97725870D01*
X91941497Y-97471084D01*
X91938541Y-97456858D01*
X91938536Y-97456841D01*
X91879201Y-97289890D01*
X91846523Y-97197942D01*
X91720111Y-96953977D01*
X91720110Y-96953975D01*
X91720106Y-96953969D01*
X91561659Y-96729500D01*
X91454040Y-96614269D01*
X91374111Y-96528686D01*
X91160969Y-96355282D01*
X91160967Y-96355281D01*
X91160965Y-96355279D01*
X90926198Y-96212514D01*
X90671998Y-96102100D01*
X90618351Y-96057337D01*
X90597422Y-95990675D01*
X90597400Y-95988366D01*
X90597400Y-90758813D01*
X90617085Y-90691774D01*
X90633719Y-90671132D01*
X93910032Y-87394819D01*
X93971355Y-87361334D01*
X93997713Y-87358500D01*
X95358638Y-87358500D01*
X95358654Y-87358499D01*
X95385692Y-87355591D01*
X95419201Y-87351989D01*
X95556204Y-87300889D01*
X95673261Y-87213261D01*
X95760889Y-87096204D01*
X95806138Y-86974887D01*
X95848009Y-86918956D01*
X95913474Y-86894539D01*
X95981746Y-86909391D01*
X96013545Y-86934236D01*
X96076760Y-87002906D01*
X96254424Y-87141189D01*
X96254426Y-87141190D01*
X96254433Y-87141195D01*
X96337616Y-87186210D01*
X96387208Y-87235429D01*
X96402600Y-87295265D01*
X96402600Y-96411187D01*
X96382915Y-96478226D01*
X96366281Y-96498868D01*
X90549968Y-102315181D01*
X90488645Y-102348666D01*
X90462287Y-102351500D01*
X89101345Y-102351500D01*
X89040797Y-102358011D01*
X89040795Y-102358011D01*
X88903795Y-102409111D01*
X88786739Y-102496739D01*
X88699111Y-102613795D01*
X88648011Y-102750795D01*
X88648011Y-102750797D01*
X88641500Y-102811345D01*
X88641500Y-104608654D01*
X88648011Y-104669202D01*
X88648011Y-104669204D01*
X88699111Y-104806204D01*
X88786739Y-104923261D01*
X88903796Y-105010889D01*
X88955737Y-105030262D01*
X89021595Y-105054827D01*
X89077528Y-105096699D01*
X89101944Y-105162163D01*
X89087092Y-105230436D01*
X89069490Y-105254991D01*
X88924279Y-105412730D01*
X88924276Y-105412734D01*
X88801140Y-105601207D01*
X88710703Y-105807385D01*
X88655436Y-106025628D01*
X88655434Y-106025640D01*
X88636844Y-106249994D01*
X88636844Y-106250005D01*
X88655434Y-106474359D01*
X88655436Y-106474371D01*
X88710703Y-106692614D01*
X88801140Y-106898792D01*
X88924276Y-107087265D01*
X88924284Y-107087276D01*
X89076756Y-107252902D01*
X89076760Y-107252906D01*
X89254424Y-107391189D01*
X89254425Y-107391189D01*
X89254427Y-107391191D01*
X89270243Y-107399750D01*
X89452426Y-107498342D01*
X89665365Y-107571444D01*
X89887431Y-107608500D01*
X90112569Y-107608500D01*
X90334635Y-107571444D01*
X90547574Y-107498342D01*
X90745576Y-107391189D01*
X90923240Y-107252906D01*
X91075722Y-107087268D01*
X91166193Y-106948790D01*
X91219338Y-106903437D01*
X91288569Y-106894013D01*
X91351905Y-106923515D01*
X91373804Y-106948787D01*
X91464278Y-107087268D01*
X91464283Y-107087273D01*
X91464284Y-107087276D01*
X91616756Y-107252902D01*
X91616760Y-107252906D01*
X91794424Y-107391189D01*
X91794425Y-107391189D01*
X91794427Y-107391191D01*
X91810243Y-107399750D01*
X91992426Y-107498342D01*
X92205365Y-107571444D01*
X92427431Y-107608500D01*
X92652569Y-107608500D01*
X92874635Y-107571444D01*
X93087574Y-107498342D01*
X93285576Y-107391189D01*
X93463240Y-107252906D01*
X93615722Y-107087268D01*
X93706193Y-106948790D01*
X93759338Y-106903437D01*
X93828569Y-106894013D01*
X93891905Y-106923515D01*
X93913804Y-106948787D01*
X94004278Y-107087268D01*
X94004283Y-107087273D01*
X94004284Y-107087276D01*
X94156756Y-107252902D01*
X94156760Y-107252906D01*
X94334424Y-107391189D01*
X94334425Y-107391189D01*
X94334427Y-107391191D01*
X94350243Y-107399750D01*
X94532426Y-107498342D01*
X94745365Y-107571444D01*
X94967431Y-107608500D01*
X95192569Y-107608500D01*
X95414635Y-107571444D01*
X95627574Y-107498342D01*
X95825576Y-107391189D01*
X96003240Y-107252906D01*
X96155722Y-107087268D01*
X96246193Y-106948790D01*
X96299338Y-106903437D01*
X96368569Y-106894013D01*
X96431905Y-106923515D01*
X96453804Y-106948787D01*
X96544278Y-107087268D01*
X96544283Y-107087273D01*
X96544284Y-107087276D01*
X96696756Y-107252902D01*
X96696760Y-107252906D01*
X96874424Y-107391189D01*
X96874425Y-107391189D01*
X96874427Y-107391191D01*
X96890243Y-107399750D01*
X97072426Y-107498342D01*
X97285365Y-107571444D01*
X97507431Y-107608500D01*
X97732569Y-107608500D01*
X97954635Y-107571444D01*
X98167574Y-107498342D01*
X98365576Y-107391189D01*
X98543240Y-107252906D01*
X98695722Y-107087268D01*
X98786193Y-106948790D01*
X98839338Y-106903437D01*
X98908569Y-106894013D01*
X98971905Y-106923515D01*
X98993804Y-106948787D01*
X99084278Y-107087268D01*
X99084283Y-107087273D01*
X99084284Y-107087276D01*
X99236756Y-107252902D01*
X99236760Y-107252906D01*
X99414424Y-107391189D01*
X99414425Y-107391189D01*
X99414427Y-107391191D01*
X99430243Y-107399750D01*
X99612426Y-107498342D01*
X99825365Y-107571444D01*
X100047431Y-107608500D01*
X100272569Y-107608500D01*
X100494635Y-107571444D01*
X100707574Y-107498342D01*
X100905576Y-107391189D01*
X101083240Y-107252906D01*
X101235722Y-107087268D01*
X101326193Y-106948790D01*
X101379338Y-106903437D01*
X101448569Y-106894013D01*
X101511905Y-106923515D01*
X101533804Y-106948787D01*
X101624278Y-107087268D01*
X101624283Y-107087273D01*
X101624284Y-107087276D01*
X101776756Y-107252902D01*
X101776760Y-107252906D01*
X101954424Y-107391189D01*
X101954425Y-107391189D01*
X101954427Y-107391191D01*
X101970243Y-107399750D01*
X102152426Y-107498342D01*
X102365365Y-107571444D01*
X102587431Y-107608500D01*
X102812569Y-107608500D01*
X103034635Y-107571444D01*
X103247574Y-107498342D01*
X103445576Y-107391189D01*
X103623240Y-107252906D01*
X103775722Y-107087268D01*
X103898860Y-106898791D01*
X103989296Y-106692616D01*
X104044564Y-106474368D01*
X104063156Y-106250000D01*
X104062072Y-106236921D01*
X104044565Y-106025640D01*
X104044563Y-106025628D01*
X103989296Y-105807385D01*
X103898859Y-105601207D01*
X103779362Y-105418304D01*
X103775722Y-105412732D01*
X103775719Y-105412729D01*
X103775715Y-105412723D01*
X103623243Y-105247097D01*
X103623238Y-105247092D01*
X103445577Y-105108812D01*
X103445578Y-105108812D01*
X103445576Y-105108811D01*
X103409070Y-105089055D01*
X103359479Y-105039836D01*
X103344371Y-104971619D01*
X103368541Y-104906064D01*
X103409070Y-104870945D01*
X103409084Y-104870936D01*
X103445576Y-104851189D01*
X103623240Y-104712906D01*
X103775722Y-104547268D01*
X103866193Y-104408790D01*
X103919338Y-104363437D01*
X103988569Y-104354013D01*
X104051905Y-104383515D01*
X104073804Y-104408787D01*
X104164278Y-104547268D01*
X104164283Y-104547273D01*
X104164284Y-104547276D01*
X104290968Y-104684889D01*
X104316760Y-104712906D01*
X104494424Y-104851189D01*
X104494425Y-104851189D01*
X104494427Y-104851191D01*
X104595824Y-104906064D01*
X104692426Y-104958342D01*
X104905365Y-105031444D01*
X105127431Y-105068500D01*
X105352569Y-105068500D01*
X105574635Y-105031444D01*
X105787574Y-104958342D01*
X105985576Y-104851189D01*
X106163240Y-104712906D01*
X106315722Y-104547268D01*
X106438860Y-104358791D01*
X106529296Y-104152616D01*
X106584564Y-103934368D01*
X106603156Y-103710000D01*
X106584564Y-103485632D01*
X106529296Y-103267384D01*
X106438860Y-103061209D01*
X106422706Y-103036484D01*
X106315723Y-102872734D01*
X106315715Y-102872723D01*
X106163243Y-102707097D01*
X106163238Y-102707092D01*
X105985577Y-102568812D01*
X105985572Y-102568808D01*
X105787580Y-102461661D01*
X105787577Y-102461659D01*
X105787574Y-102461658D01*
X105787571Y-102461657D01*
X105787569Y-102461656D01*
X105574637Y-102388556D01*
X105352569Y-102351500D01*
X105127431Y-102351500D01*
X104905362Y-102388556D01*
X104692430Y-102461656D01*
X104692419Y-102461661D01*
X104494427Y-102568808D01*
X104494422Y-102568812D01*
X104316761Y-102707092D01*
X104316756Y-102707097D01*
X104164284Y-102872723D01*
X104164276Y-102872734D01*
X104073808Y-103011206D01*
X104020662Y-103056562D01*
X103951431Y-103065986D01*
X103888095Y-103036484D01*
X103866192Y-103011206D01*
X103775723Y-102872734D01*
X103775715Y-102872723D01*
X103623243Y-102707097D01*
X103623238Y-102707092D01*
X103445577Y-102568812D01*
X103445572Y-102568808D01*
X103247580Y-102461661D01*
X103247577Y-102461659D01*
X103247574Y-102461658D01*
X103247571Y-102461657D01*
X103247569Y-102461656D01*
X103034637Y-102388556D01*
X102812569Y-102351500D01*
X102678410Y-102351500D01*
X102611371Y-102331815D01*
X102565616Y-102279011D01*
X102555672Y-102209853D01*
X102584697Y-102146297D01*
X102590729Y-102139819D01*
X104434525Y-100296023D01*
X105480548Y-99250000D01*
X136736807Y-99250000D01*
X136755557Y-99524130D01*
X136755558Y-99524132D01*
X136811458Y-99793141D01*
X136811463Y-99793158D01*
X136903476Y-100052056D01*
X137029889Y-100296024D01*
X137029893Y-100296030D01*
X137188340Y-100520499D01*
X137188343Y-100520502D01*
X137375889Y-100721314D01*
X137589031Y-100894718D01*
X137589033Y-100894719D01*
X137589034Y-100894720D01*
X137823801Y-101037485D01*
X138028348Y-101126331D01*
X138075823Y-101146953D01*
X138340404Y-101221085D01*
X138579720Y-101253978D01*
X138612614Y-101258500D01*
X138612615Y-101258500D01*
X138887386Y-101258500D01*
X138916733Y-101254466D01*
X139159596Y-101221085D01*
X139424177Y-101146953D01*
X139676200Y-101037484D01*
X139910969Y-100894718D01*
X140124111Y-100721314D01*
X140311657Y-100520502D01*
X140470111Y-100296023D01*
X140596523Y-100052058D01*
X140688538Y-99793153D01*
X140688539Y-99793146D01*
X140688541Y-99793141D01*
X140719383Y-99644718D01*
X140744442Y-99524130D01*
X140763193Y-99250000D01*
X140744442Y-98975870D01*
X140725141Y-98882989D01*
X140688541Y-98706858D01*
X140688536Y-98706841D01*
X140596523Y-98447943D01*
X140596523Y-98447942D01*
X140470111Y-98203977D01*
X140470110Y-98203975D01*
X140470106Y-98203969D01*
X140311659Y-97979500D01*
X140234008Y-97896357D01*
X140124111Y-97778686D01*
X139910969Y-97605282D01*
X139910967Y-97605281D01*
X139910965Y-97605279D01*
X139676198Y-97462514D01*
X139424178Y-97353047D01*
X139159602Y-97278916D01*
X139159597Y-97278915D01*
X139159596Y-97278915D01*
X139023490Y-97260207D01*
X138887386Y-97241500D01*
X138887385Y-97241500D01*
X138612615Y-97241500D01*
X138612614Y-97241500D01*
X138340404Y-97278915D01*
X138340397Y-97278916D01*
X138075821Y-97353047D01*
X137823801Y-97462514D01*
X137589034Y-97605279D01*
X137375892Y-97778683D01*
X137188340Y-97979500D01*
X137029893Y-98203969D01*
X137029889Y-98203975D01*
X136903476Y-98447943D01*
X136811463Y-98706841D01*
X136811458Y-98706858D01*
X136755558Y-98975867D01*
X136755557Y-98975869D01*
X136736807Y-99250000D01*
X105480548Y-99250000D01*
X106986922Y-97743627D01*
X107067032Y-97604873D01*
X107108500Y-97450110D01*
X107108500Y-97289890D01*
X107108500Y-95500000D01*
X116486807Y-95500000D01*
X116505557Y-95774130D01*
X116505558Y-95774132D01*
X116561458Y-96043141D01*
X116561463Y-96043158D01*
X116653476Y-96302056D01*
X116779889Y-96546024D01*
X116779893Y-96546030D01*
X116938340Y-96770499D01*
X116938343Y-96770502D01*
X117125889Y-96971314D01*
X117339031Y-97144718D01*
X117339033Y-97144719D01*
X117339034Y-97144720D01*
X117573801Y-97287485D01*
X117724741Y-97353047D01*
X117825823Y-97396953D01*
X118090404Y-97471085D01*
X118329720Y-97503978D01*
X118362614Y-97508500D01*
X118362615Y-97508500D01*
X118637386Y-97508500D01*
X118666733Y-97504466D01*
X118909596Y-97471085D01*
X119174177Y-97396953D01*
X119426200Y-97287484D01*
X119660969Y-97144718D01*
X119874111Y-96971314D01*
X120061657Y-96770502D01*
X120220111Y-96546023D01*
X120346523Y-96302058D01*
X120438538Y-96043153D01*
X120438539Y-96043146D01*
X120438541Y-96043141D01*
X120464491Y-95918259D01*
X120494442Y-95774130D01*
X120513193Y-95500000D01*
X120494442Y-95225870D01*
X120462939Y-95074269D01*
X120438541Y-94956858D01*
X120438536Y-94956841D01*
X120378422Y-94787697D01*
X120346523Y-94697942D01*
X120220111Y-94453977D01*
X120220110Y-94453975D01*
X120220106Y-94453969D01*
X120061659Y-94229500D01*
X120037237Y-94203351D01*
X119874111Y-94028686D01*
X119660969Y-93855282D01*
X119660967Y-93855281D01*
X119660965Y-93855279D01*
X119426198Y-93712514D01*
X119174178Y-93603047D01*
X118909602Y-93528916D01*
X118909597Y-93528915D01*
X118909596Y-93528915D01*
X118773490Y-93510207D01*
X118637386Y-93491500D01*
X118637385Y-93491500D01*
X118362615Y-93491500D01*
X118362614Y-93491500D01*
X118090404Y-93528915D01*
X118090397Y-93528916D01*
X117825821Y-93603047D01*
X117573801Y-93712514D01*
X117339034Y-93855279D01*
X117125892Y-94028683D01*
X116938340Y-94229500D01*
X116779893Y-94453969D01*
X116779889Y-94453975D01*
X116653476Y-94697943D01*
X116561463Y-94956841D01*
X116561458Y-94956858D01*
X116505558Y-95225867D01*
X116505557Y-95225869D01*
X116486807Y-95500000D01*
X107108500Y-95500000D01*
X107108500Y-89094390D01*
X107128185Y-89027351D01*
X107180989Y-88981596D01*
X107250147Y-88971652D01*
X107313703Y-89000677D01*
X107334069Y-89023260D01*
X107348802Y-89044300D01*
X107510700Y-89206198D01*
X107698251Y-89337523D01*
X107823091Y-89395736D01*
X107905750Y-89434281D01*
X107905752Y-89434281D01*
X107905757Y-89434284D01*
X108126913Y-89493543D01*
X108289832Y-89507796D01*
X108354998Y-89513498D01*
X108355000Y-89513498D01*
X108355002Y-89513498D01*
X108412021Y-89508509D01*
X108583087Y-89493543D01*
X108804243Y-89434284D01*
X109011749Y-89337523D01*
X109199300Y-89206198D01*
X109361198Y-89044300D01*
X109492523Y-88856749D01*
X109589284Y-88649243D01*
X109648543Y-88428087D01*
X109668498Y-88200000D01*
X109648543Y-87971913D01*
X109589284Y-87750757D01*
X109492523Y-87543251D01*
X109361198Y-87355700D01*
X109199300Y-87193802D01*
X109011749Y-87062477D01*
X108968655Y-87042382D01*
X108916215Y-86996210D01*
X108897063Y-86929017D01*
X108917278Y-86862136D01*
X108968655Y-86817618D01*
X108971882Y-86816112D01*
X109011749Y-86797523D01*
X109199300Y-86666198D01*
X109361198Y-86504300D01*
X109492523Y-86316749D01*
X109589284Y-86109243D01*
X109648543Y-85888087D01*
X109668498Y-85660000D01*
X109648543Y-85431913D01*
X109589284Y-85210757D01*
X109551981Y-85130761D01*
X109550736Y-85128091D01*
X109492523Y-85003251D01*
X109361198Y-84815700D01*
X109199300Y-84653802D01*
X109011749Y-84522477D01*
X108968655Y-84502382D01*
X108804249Y-84425718D01*
X108804238Y-84425714D01*
X108583089Y-84366457D01*
X108583081Y-84366456D01*
X108355002Y-84346502D01*
X108354998Y-84346502D01*
X108126918Y-84366456D01*
X108126910Y-84366457D01*
X107905761Y-84425714D01*
X107905750Y-84425718D01*
X107698254Y-84522475D01*
X107698252Y-84522476D01*
X107698251Y-84522477D01*
X107510700Y-84653802D01*
X107510698Y-84653803D01*
X107510695Y-84653806D01*
X107348803Y-84815698D01*
X107334073Y-84836735D01*
X107279495Y-84880358D01*
X107209997Y-84887550D01*
X107147643Y-84856026D01*
X107112230Y-84795796D01*
X107108500Y-84765609D01*
X107108500Y-81474390D01*
X107128185Y-81407351D01*
X107180989Y-81361596D01*
X107250147Y-81351652D01*
X107313703Y-81380677D01*
X107334069Y-81403260D01*
X107348802Y-81424300D01*
X107510700Y-81586198D01*
X107698251Y-81717523D01*
X107801602Y-81765716D01*
X107905750Y-81814281D01*
X107905752Y-81814281D01*
X107905757Y-81814284D01*
X108126913Y-81873543D01*
X108289832Y-81887796D01*
X108354998Y-81893498D01*
X108355000Y-81893498D01*
X108355002Y-81893498D01*
X108412021Y-81888509D01*
X108583087Y-81873543D01*
X108804243Y-81814284D01*
X109011749Y-81717523D01*
X109199300Y-81586198D01*
X109361198Y-81424300D01*
X109492523Y-81236749D01*
X109589284Y-81029243D01*
X109648543Y-80808087D01*
X109668498Y-80580000D01*
X109648543Y-80351913D01*
X109589284Y-80130757D01*
X109582782Y-80116814D01*
X109533324Y-80010750D01*
X109492523Y-79923251D01*
X109361198Y-79735700D01*
X109199300Y-79573802D01*
X109011749Y-79442477D01*
X108968655Y-79422382D01*
X108916215Y-79376210D01*
X108897063Y-79309017D01*
X108917278Y-79242136D01*
X108968655Y-79197618D01*
X108971882Y-79196112D01*
X109011749Y-79177523D01*
X109199300Y-79046198D01*
X109361198Y-78884300D01*
X109492523Y-78696749D01*
X109589284Y-78489243D01*
X109648543Y-78268087D01*
X109668498Y-78040000D01*
X109664998Y-78000005D01*
X110596844Y-78000005D01*
X110615434Y-78224359D01*
X110615436Y-78224371D01*
X110670703Y-78442614D01*
X110761140Y-78648792D01*
X110884276Y-78837265D01*
X110884284Y-78837276D01*
X111036756Y-79002902D01*
X111036761Y-79002907D01*
X111092381Y-79046198D01*
X111214424Y-79141189D01*
X111214425Y-79141189D01*
X111214427Y-79141191D01*
X111281565Y-79177524D01*
X111412426Y-79248342D01*
X111589166Y-79309017D01*
X111614511Y-79317718D01*
X111625365Y-79321444D01*
X111847431Y-79358500D01*
X112072569Y-79358500D01*
X112294635Y-79321444D01*
X112507574Y-79248342D01*
X112705576Y-79141189D01*
X112883240Y-79002906D01*
X112946452Y-78934239D01*
X113006337Y-78898250D01*
X113076175Y-78900349D01*
X113133791Y-78939873D01*
X113153861Y-78974888D01*
X113184684Y-79057524D01*
X113199111Y-79096204D01*
X113286739Y-79213261D01*
X113403796Y-79300889D01*
X113540799Y-79351989D01*
X113568050Y-79354918D01*
X113601345Y-79358499D01*
X113601362Y-79358500D01*
X115398638Y-79358500D01*
X115398654Y-79358499D01*
X115425692Y-79355591D01*
X115459201Y-79351989D01*
X115596204Y-79300889D01*
X115713261Y-79213261D01*
X115800889Y-79096204D01*
X115851989Y-78959201D01*
X115857344Y-78909391D01*
X115858499Y-78898654D01*
X115858500Y-78898637D01*
X115858500Y-77101362D01*
X115858499Y-77101345D01*
X115855157Y-77070270D01*
X115851989Y-77040799D01*
X115849380Y-77033805D01*
X115829522Y-76980564D01*
X115800889Y-76903796D01*
X115713261Y-76786739D01*
X115596204Y-76699111D01*
X115459203Y-76648011D01*
X115398654Y-76641500D01*
X115398638Y-76641500D01*
X113601362Y-76641500D01*
X113601345Y-76641500D01*
X113540797Y-76648011D01*
X113540795Y-76648011D01*
X113403795Y-76699111D01*
X113286739Y-76786739D01*
X113199111Y-76903795D01*
X113153861Y-77025111D01*
X113111989Y-77081044D01*
X113046524Y-77105460D01*
X112978252Y-77090607D01*
X112946454Y-77065762D01*
X112883240Y-76997094D01*
X112705576Y-76858811D01*
X112705575Y-76858810D01*
X112705572Y-76858808D01*
X112507580Y-76751661D01*
X112507577Y-76751659D01*
X112507574Y-76751658D01*
X112507571Y-76751657D01*
X112507569Y-76751656D01*
X112294637Y-76678556D01*
X112072569Y-76641500D01*
X111847431Y-76641500D01*
X111625362Y-76678556D01*
X111412430Y-76751656D01*
X111412419Y-76751661D01*
X111214427Y-76858808D01*
X111214422Y-76858812D01*
X111036761Y-76997092D01*
X111036756Y-76997097D01*
X110884284Y-77162723D01*
X110884276Y-77162734D01*
X110761140Y-77351207D01*
X110670703Y-77557385D01*
X110615436Y-77775628D01*
X110615434Y-77775640D01*
X110596844Y-77999994D01*
X110596844Y-78000005D01*
X109664998Y-78000005D01*
X109664998Y-78000000D01*
X109654488Y-77879862D01*
X109648543Y-77811913D01*
X109589284Y-77590757D01*
X109573722Y-77557385D01*
X109492524Y-77383254D01*
X109492523Y-77383252D01*
X109492523Y-77383251D01*
X109361198Y-77195700D01*
X109199300Y-77033802D01*
X109011749Y-76902477D01*
X108968655Y-76882382D01*
X108916215Y-76836210D01*
X108897063Y-76769017D01*
X108917278Y-76702136D01*
X108968655Y-76657618D01*
X108981775Y-76651500D01*
X109011749Y-76637523D01*
X109199300Y-76506198D01*
X109361198Y-76344300D01*
X109492523Y-76156749D01*
X109589284Y-75949243D01*
X109648543Y-75728087D01*
X109668498Y-75500000D01*
X109665988Y-75471316D01*
X109656118Y-75358499D01*
X109648543Y-75271913D01*
X109589284Y-75050757D01*
X109492523Y-74843251D01*
X109361198Y-74655700D01*
X109199300Y-74493802D01*
X109011749Y-74362477D01*
X108991458Y-74353015D01*
X108804249Y-74265718D01*
X108804238Y-74265714D01*
X108583089Y-74206457D01*
X108583081Y-74206456D01*
X108355002Y-74186502D01*
X108354998Y-74186502D01*
X108126918Y-74206456D01*
X108126910Y-74206457D01*
X107905761Y-74265714D01*
X107905750Y-74265718D01*
X107698254Y-74362475D01*
X107698252Y-74362476D01*
X107647162Y-74398250D01*
X107512249Y-74492718D01*
X107510699Y-74493803D01*
X107391023Y-74613479D01*
X107329700Y-74646963D01*
X107260008Y-74641979D01*
X107204075Y-74600107D01*
X107198348Y-74591769D01*
X107197737Y-74590797D01*
X107136111Y-74492719D01*
X107007281Y-74363889D01*
X106853015Y-74266957D01*
X106795692Y-74246899D01*
X106681043Y-74206781D01*
X106578316Y-74195207D01*
X106513902Y-74168140D01*
X106504519Y-74159668D01*
X105844856Y-73500005D01*
X110636844Y-73500005D01*
X110655434Y-73724359D01*
X110655436Y-73724371D01*
X110710703Y-73942614D01*
X110801140Y-74148792D01*
X110924276Y-74337265D01*
X110924284Y-74337276D01*
X111076756Y-74502902D01*
X111076760Y-74502906D01*
X111254424Y-74641189D01*
X111254425Y-74641189D01*
X111254427Y-74641191D01*
X111281238Y-74655700D01*
X111452426Y-74748342D01*
X111665365Y-74821444D01*
X111887431Y-74858500D01*
X112112569Y-74858500D01*
X112334635Y-74821444D01*
X112547574Y-74748342D01*
X112745576Y-74641189D01*
X112923240Y-74502906D01*
X112986452Y-74434239D01*
X113046337Y-74398250D01*
X113116175Y-74400349D01*
X113173791Y-74439873D01*
X113193861Y-74474888D01*
X113237094Y-74590797D01*
X113239111Y-74596204D01*
X113326739Y-74713261D01*
X113443796Y-74800889D01*
X113580799Y-74851989D01*
X113608050Y-74854918D01*
X113641345Y-74858499D01*
X113641362Y-74858500D01*
X115438638Y-74858500D01*
X115438654Y-74858499D01*
X115465692Y-74855591D01*
X115499201Y-74851989D01*
X115636204Y-74800889D01*
X115753261Y-74713261D01*
X115840889Y-74596204D01*
X115891989Y-74459201D01*
X115895591Y-74425692D01*
X115898499Y-74398654D01*
X115898500Y-74398637D01*
X115898500Y-72601362D01*
X115898499Y-72601345D01*
X115894672Y-72565759D01*
X115891989Y-72540799D01*
X115840889Y-72403796D01*
X115753261Y-72286739D01*
X115636204Y-72199111D01*
X115499203Y-72148011D01*
X115438654Y-72141500D01*
X115438638Y-72141500D01*
X113641362Y-72141500D01*
X113641345Y-72141500D01*
X113580797Y-72148011D01*
X113580795Y-72148011D01*
X113443795Y-72199111D01*
X113326739Y-72286739D01*
X113239111Y-72403795D01*
X113193861Y-72525111D01*
X113151989Y-72581044D01*
X113086524Y-72605460D01*
X113018252Y-72590607D01*
X112986454Y-72565762D01*
X112923240Y-72497094D01*
X112745576Y-72358811D01*
X112745575Y-72358810D01*
X112745572Y-72358808D01*
X112547580Y-72251661D01*
X112547577Y-72251659D01*
X112547574Y-72251658D01*
X112547571Y-72251657D01*
X112547569Y-72251656D01*
X112334637Y-72178556D01*
X112112569Y-72141500D01*
X111887431Y-72141500D01*
X111665362Y-72178556D01*
X111452430Y-72251656D01*
X111452419Y-72251661D01*
X111254427Y-72358808D01*
X111254422Y-72358812D01*
X111076761Y-72497092D01*
X111076756Y-72497097D01*
X110924284Y-72662723D01*
X110924276Y-72662734D01*
X110801140Y-72851207D01*
X110710703Y-73057385D01*
X110655436Y-73275628D01*
X110655434Y-73275640D01*
X110636844Y-73499994D01*
X110636844Y-73500005D01*
X105844856Y-73500005D01*
X103866814Y-71521963D01*
X103866812Y-71521961D01*
X103826339Y-71498594D01*
X103730591Y-71443313D01*
X103730592Y-71443313D01*
X103712639Y-71438502D01*
X103578649Y-71402600D01*
X83578649Y-71402600D01*
X83421351Y-71402600D01*
X83287360Y-71438502D01*
X83269408Y-71443313D01*
X83133191Y-71521959D01*
X83133185Y-71521963D01*
X81495479Y-73159668D01*
X81434156Y-73193153D01*
X81421682Y-73195207D01*
X81318956Y-73206781D01*
X81146982Y-73266958D01*
X80992718Y-73363889D01*
X80863889Y-73492718D01*
X80766958Y-73646982D01*
X80706782Y-73818953D01*
X80706781Y-73818958D01*
X80686384Y-73999996D01*
X80686384Y-74000003D01*
X80706781Y-74181041D01*
X80706782Y-74181046D01*
X80766958Y-74353017D01*
X80776590Y-74368346D01*
X80863889Y-74507281D01*
X80992719Y-74636111D01*
X81146985Y-74733043D01*
X81282993Y-74780634D01*
X81318953Y-74793217D01*
X81318958Y-74793218D01*
X81499996Y-74813616D01*
X81500000Y-74813616D01*
X81500004Y-74813616D01*
X81681041Y-74793218D01*
X81681044Y-74793217D01*
X81681047Y-74793217D01*
X81853015Y-74733043D01*
X82007281Y-74636111D01*
X82136111Y-74507281D01*
X82233043Y-74353015D01*
X82293217Y-74181047D01*
X82304791Y-74078314D01*
X82331856Y-74013904D01*
X82340320Y-74004529D01*
X83711132Y-72633719D01*
X83772455Y-72600234D01*
X83798813Y-72597400D01*
X93140756Y-72597400D01*
X93207795Y-72617085D01*
X93253550Y-72669889D01*
X93263494Y-72739047D01*
X93240023Y-72795709D01*
X93229922Y-72809204D01*
X93159111Y-72903795D01*
X93108011Y-73040795D01*
X93108011Y-73040797D01*
X93101500Y-73101345D01*
X93101500Y-74462287D01*
X93081815Y-74529326D01*
X93065181Y-74549968D01*
X79021963Y-88593185D01*
X79021959Y-88593191D01*
X78943313Y-88729408D01*
X78943312Y-88729412D01*
X78902600Y-88881351D01*
X78902600Y-88881353D01*
X78902600Y-95988366D01*
X78882915Y-96055405D01*
X78830111Y-96101160D01*
X78828002Y-96102100D01*
X78573801Y-96212514D01*
X78339034Y-96355279D01*
X78125892Y-96528683D01*
X77938340Y-96729500D01*
X77779893Y-96953969D01*
X77779889Y-96953975D01*
X77653476Y-97197943D01*
X77561463Y-97456841D01*
X77561458Y-97456858D01*
X77505558Y-97725867D01*
X77505557Y-97725869D01*
X77486807Y-98000000D01*
X20200500Y-98000000D01*
X20200500Y-85580001D01*
X60566502Y-85580001D01*
X60586456Y-85808081D01*
X60586457Y-85808089D01*
X60645714Y-86029238D01*
X60645718Y-86029249D01*
X60683020Y-86109243D01*
X60742477Y-86236749D01*
X60873802Y-86424300D01*
X61035700Y-86586198D01*
X61223251Y-86717523D01*
X61348091Y-86775736D01*
X61430750Y-86814281D01*
X61430752Y-86814281D01*
X61430757Y-86814284D01*
X61651913Y-86873543D01*
X61814832Y-86887796D01*
X61879998Y-86893498D01*
X61880000Y-86893498D01*
X61880002Y-86893498D01*
X61937021Y-86888509D01*
X62108087Y-86873543D01*
X62329243Y-86814284D01*
X62536749Y-86717523D01*
X62724300Y-86586198D01*
X62886198Y-86424300D01*
X63017523Y-86236749D01*
X63114284Y-86029243D01*
X63173543Y-85808087D01*
X63193498Y-85580001D01*
X68186502Y-85580001D01*
X68206456Y-85808081D01*
X68206457Y-85808089D01*
X68265714Y-86029238D01*
X68265718Y-86029249D01*
X68303020Y-86109243D01*
X68362477Y-86236749D01*
X68493802Y-86424300D01*
X68655700Y-86586198D01*
X68843251Y-86717523D01*
X68968091Y-86775736D01*
X69050750Y-86814281D01*
X69050752Y-86814281D01*
X69050757Y-86814284D01*
X69271913Y-86873543D01*
X69434832Y-86887796D01*
X69499998Y-86893498D01*
X69500000Y-86893498D01*
X69500002Y-86893498D01*
X69557021Y-86888509D01*
X69728087Y-86873543D01*
X69949243Y-86814284D01*
X70156749Y-86717523D01*
X70264899Y-86641795D01*
X75741500Y-86641795D01*
X75781215Y-86841453D01*
X75781218Y-86841465D01*
X75859120Y-87029539D01*
X75859127Y-87029552D01*
X75972227Y-87198817D01*
X75972230Y-87198821D01*
X76116178Y-87342769D01*
X76116182Y-87342772D01*
X76285447Y-87455872D01*
X76285460Y-87455879D01*
X76473534Y-87533781D01*
X76473539Y-87533783D01*
X76673204Y-87573499D01*
X76673207Y-87573500D01*
X76673209Y-87573500D01*
X77326793Y-87573500D01*
X77326794Y-87573499D01*
X77526461Y-87533783D01*
X77714546Y-87455876D01*
X77883818Y-87342772D01*
X78027772Y-87198818D01*
X78140876Y-87029546D01*
X78218783Y-86841461D01*
X78258500Y-86641791D01*
X78258500Y-86438209D01*
X78258500Y-86438206D01*
X78258499Y-86438204D01*
X78234340Y-86316749D01*
X78218783Y-86238539D01*
X78218040Y-86236745D01*
X78140879Y-86050460D01*
X78140877Y-86050457D01*
X78140876Y-86050454D01*
X78089715Y-85973887D01*
X78068839Y-85907214D01*
X78087323Y-85839834D01*
X78089679Y-85836167D01*
X78140876Y-85759546D01*
X78218783Y-85571461D01*
X78258500Y-85371791D01*
X78258500Y-85168209D01*
X78258500Y-85168206D01*
X78258499Y-85168204D01*
X78245200Y-85101345D01*
X78218783Y-84968539D01*
X78186807Y-84891343D01*
X78179339Y-84821875D01*
X78197748Y-84779589D01*
X78196640Y-84778984D01*
X78200884Y-84771210D01*
X78200889Y-84771204D01*
X78251989Y-84634201D01*
X78255591Y-84600692D01*
X78258499Y-84573654D01*
X78258500Y-84573637D01*
X78258500Y-83426362D01*
X78258499Y-83426345D01*
X78255157Y-83395270D01*
X78251989Y-83365799D01*
X78249266Y-83358499D01*
X78227778Y-83300888D01*
X78200889Y-83228796D01*
X78113261Y-83111739D01*
X77996204Y-83024111D01*
X77859203Y-82973011D01*
X77798654Y-82966500D01*
X77798638Y-82966500D01*
X76201362Y-82966500D01*
X76201345Y-82966500D01*
X76140797Y-82973011D01*
X76140795Y-82973011D01*
X76003795Y-83024111D01*
X75886739Y-83111739D01*
X75799111Y-83228795D01*
X75748011Y-83365795D01*
X75748011Y-83365797D01*
X75741500Y-83426345D01*
X75741500Y-84573654D01*
X75748011Y-84634202D01*
X75748011Y-84634204D01*
X75775083Y-84706783D01*
X75799111Y-84771204D01*
X75799115Y-84771209D01*
X75803362Y-84778988D01*
X75801737Y-84779874D01*
X75822314Y-84835057D01*
X75813191Y-84891343D01*
X75781217Y-84968538D01*
X75781215Y-84968541D01*
X75741500Y-85168204D01*
X75741500Y-85371795D01*
X75781215Y-85571453D01*
X75781218Y-85571465D01*
X75859121Y-85759539D01*
X75859124Y-85759546D01*
X75869878Y-85775640D01*
X75910282Y-85836110D01*
X75931159Y-85902788D01*
X75912674Y-85970168D01*
X75910282Y-85973890D01*
X75859122Y-86050457D01*
X75781218Y-86238534D01*
X75781215Y-86238546D01*
X75741500Y-86438204D01*
X75741500Y-86641795D01*
X70264899Y-86641795D01*
X70344300Y-86586198D01*
X70506198Y-86424300D01*
X70637523Y-86236749D01*
X70734284Y-86029243D01*
X70793543Y-85808087D01*
X70813498Y-85580000D01*
X70811519Y-85557385D01*
X70806499Y-85499996D01*
X70793543Y-85351913D01*
X70734284Y-85130757D01*
X70637523Y-84923251D01*
X70506198Y-84735700D01*
X70344300Y-84573802D01*
X70156749Y-84442477D01*
X70156745Y-84442475D01*
X69949249Y-84345718D01*
X69949238Y-84345714D01*
X69728089Y-84286457D01*
X69728081Y-84286456D01*
X69500002Y-84266502D01*
X69499998Y-84266502D01*
X69271918Y-84286456D01*
X69271910Y-84286457D01*
X69050761Y-84345714D01*
X69050750Y-84345718D01*
X68843254Y-84442475D01*
X68843252Y-84442476D01*
X68772856Y-84491767D01*
X68655700Y-84573802D01*
X68655698Y-84573803D01*
X68655695Y-84573806D01*
X68493806Y-84735695D01*
X68493803Y-84735698D01*
X68493802Y-84735700D01*
X68430497Y-84826109D01*
X68362476Y-84923252D01*
X68362475Y-84923254D01*
X68265718Y-85130750D01*
X68265714Y-85130761D01*
X68206457Y-85351910D01*
X68206456Y-85351918D01*
X68186502Y-85579998D01*
X68186502Y-85580001D01*
X63193498Y-85580001D01*
X63193498Y-85580000D01*
X63191519Y-85557385D01*
X63186499Y-85499996D01*
X63173543Y-85351913D01*
X63114284Y-85130757D01*
X63017523Y-84923251D01*
X62886198Y-84735700D01*
X62724300Y-84573802D01*
X62536749Y-84442477D01*
X62536745Y-84442475D01*
X62329249Y-84345718D01*
X62329238Y-84345714D01*
X62108089Y-84286457D01*
X62108081Y-84286456D01*
X61880002Y-84266502D01*
X61879998Y-84266502D01*
X61651918Y-84286456D01*
X61651910Y-84286457D01*
X61430761Y-84345714D01*
X61430750Y-84345718D01*
X61223254Y-84442475D01*
X61223252Y-84442476D01*
X61152856Y-84491767D01*
X61035700Y-84573802D01*
X61035698Y-84573803D01*
X61035695Y-84573806D01*
X60873806Y-84735695D01*
X60873803Y-84735698D01*
X60873802Y-84735700D01*
X60810497Y-84826109D01*
X60742476Y-84923252D01*
X60742475Y-84923254D01*
X60645718Y-85130750D01*
X60645714Y-85130761D01*
X60586457Y-85351910D01*
X60586456Y-85351918D01*
X60566502Y-85579998D01*
X60566502Y-85580001D01*
X20200500Y-85580001D01*
X20200500Y-78808654D01*
X60571500Y-78808654D01*
X60578011Y-78869202D01*
X60578011Y-78869204D01*
X60617431Y-78974889D01*
X60629111Y-79006204D01*
X60716739Y-79123261D01*
X60833796Y-79210889D01*
X60970799Y-79261989D01*
X60998050Y-79264918D01*
X61031345Y-79268499D01*
X61031362Y-79268500D01*
X62728638Y-79268500D01*
X62728654Y-79268499D01*
X62755692Y-79265591D01*
X62789201Y-79261989D01*
X62926204Y-79210889D01*
X63043261Y-79123261D01*
X63130889Y-79006204D01*
X63181989Y-78869201D01*
X63186289Y-78829201D01*
X63188499Y-78808654D01*
X63188500Y-78808637D01*
X63188500Y-77960001D01*
X68186502Y-77960001D01*
X68206456Y-78188081D01*
X68206457Y-78188089D01*
X68265714Y-78409238D01*
X68265718Y-78409249D01*
X68350643Y-78591371D01*
X68362477Y-78616749D01*
X68493802Y-78804300D01*
X68655700Y-78966198D01*
X68843251Y-79097523D01*
X68936894Y-79141189D01*
X69050750Y-79194281D01*
X69050752Y-79194281D01*
X69050757Y-79194284D01*
X69271913Y-79253543D01*
X69434832Y-79267796D01*
X69499998Y-79273498D01*
X69500000Y-79273498D01*
X69500002Y-79273498D01*
X69557139Y-79268499D01*
X69728087Y-79253543D01*
X69949243Y-79194284D01*
X70156749Y-79097523D01*
X70344300Y-78966198D01*
X70506198Y-78804300D01*
X70637523Y-78616749D01*
X70734284Y-78409243D01*
X70793543Y-78188087D01*
X70811628Y-77981370D01*
X70813498Y-77960001D01*
X70813498Y-77959998D01*
X70803326Y-77843734D01*
X70793543Y-77731913D01*
X70734284Y-77510757D01*
X70637523Y-77303251D01*
X70506198Y-77115700D01*
X70344300Y-76953802D01*
X70156749Y-76822477D01*
X70156745Y-76822475D01*
X69949249Y-76725718D01*
X69949238Y-76725714D01*
X69728089Y-76666457D01*
X69728081Y-76666456D01*
X69500002Y-76646502D01*
X69499998Y-76646502D01*
X69271918Y-76666456D01*
X69271910Y-76666457D01*
X69050761Y-76725714D01*
X69050750Y-76725718D01*
X68843254Y-76822475D01*
X68843252Y-76822476D01*
X68843251Y-76822477D01*
X68655700Y-76953802D01*
X68655698Y-76953803D01*
X68655695Y-76953806D01*
X68493806Y-77115695D01*
X68493803Y-77115698D01*
X68493802Y-77115700D01*
X68411767Y-77232856D01*
X68362476Y-77303252D01*
X68362475Y-77303254D01*
X68265718Y-77510750D01*
X68265714Y-77510761D01*
X68206457Y-77731910D01*
X68206456Y-77731918D01*
X68186502Y-77959998D01*
X68186502Y-77960001D01*
X63188500Y-77960001D01*
X63188500Y-77111362D01*
X63188499Y-77111345D01*
X63184666Y-77075700D01*
X63181989Y-77050799D01*
X63178259Y-77040799D01*
X63159522Y-76990564D01*
X63130889Y-76913796D01*
X63043261Y-76796739D01*
X62926204Y-76709111D01*
X62789203Y-76658011D01*
X62728654Y-76651500D01*
X62728638Y-76651500D01*
X61031362Y-76651500D01*
X61031345Y-76651500D01*
X60970797Y-76658011D01*
X60970795Y-76658011D01*
X60833795Y-76709111D01*
X60716739Y-76796739D01*
X60629111Y-76913795D01*
X60578011Y-77050795D01*
X60578011Y-77050797D01*
X60571500Y-77111345D01*
X60571500Y-78808654D01*
X20200500Y-78808654D01*
X20200500Y-74000000D01*
X73986807Y-74000000D01*
X74005557Y-74274130D01*
X74005558Y-74274132D01*
X74061458Y-74543141D01*
X74061463Y-74543158D01*
X74153476Y-74802056D01*
X74279889Y-75046024D01*
X74279893Y-75046030D01*
X74438340Y-75270499D01*
X74438343Y-75270502D01*
X74625889Y-75471314D01*
X74839031Y-75644718D01*
X74839033Y-75644719D01*
X74839034Y-75644720D01*
X75073801Y-75787485D01*
X75278348Y-75876331D01*
X75325823Y-75896953D01*
X75590404Y-75971085D01*
X75829720Y-76003978D01*
X75862614Y-76008500D01*
X75862615Y-76008500D01*
X76137386Y-76008500D01*
X76166733Y-76004466D01*
X76409596Y-75971085D01*
X76674177Y-75896953D01*
X76912999Y-75793218D01*
X76926198Y-75787485D01*
X76964403Y-75764252D01*
X77160969Y-75644718D01*
X77374111Y-75471314D01*
X77561657Y-75270502D01*
X77720111Y-75046023D01*
X77846523Y-74802058D01*
X77938538Y-74543153D01*
X77938539Y-74543146D01*
X77938541Y-74543141D01*
X77974863Y-74368347D01*
X77994442Y-74274130D01*
X78013193Y-74000000D01*
X77994442Y-73725870D01*
X77959430Y-73557384D01*
X77938541Y-73456858D01*
X77938536Y-73456841D01*
X77874134Y-73275632D01*
X77846523Y-73197942D01*
X77720111Y-72953977D01*
X77720110Y-72953975D01*
X77720106Y-72953969D01*
X77561659Y-72729500D01*
X77505986Y-72669889D01*
X77374111Y-72528686D01*
X77160969Y-72355282D01*
X77160967Y-72355281D01*
X77160965Y-72355279D01*
X76926198Y-72212514D01*
X76674178Y-72103047D01*
X76409602Y-72028916D01*
X76409597Y-72028915D01*
X76409596Y-72028915D01*
X76273490Y-72010207D01*
X76137386Y-71991500D01*
X76137385Y-71991500D01*
X75862615Y-71991500D01*
X75862614Y-71991500D01*
X75590404Y-72028915D01*
X75590397Y-72028916D01*
X75325821Y-72103047D01*
X75073801Y-72212514D01*
X74839034Y-72355279D01*
X74625892Y-72528683D01*
X74438340Y-72729500D01*
X74279893Y-72953969D01*
X74279889Y-72953975D01*
X74153476Y-73197943D01*
X74061463Y-73456841D01*
X74061458Y-73456858D01*
X74005558Y-73725867D01*
X74005557Y-73725869D01*
X73986807Y-74000000D01*
X20200500Y-74000000D01*
X20200500Y-72748654D01*
X35291500Y-72748654D01*
X35298011Y-72809202D01*
X35298011Y-72809204D01*
X35325723Y-72883500D01*
X35349111Y-72946204D01*
X35436739Y-73063261D01*
X35553796Y-73150889D01*
X35690799Y-73201989D01*
X35718050Y-73204918D01*
X35751345Y-73208499D01*
X35751362Y-73208500D01*
X38248638Y-73208500D01*
X38248654Y-73208499D01*
X38275692Y-73205591D01*
X38309201Y-73201989D01*
X38446204Y-73150889D01*
X38563261Y-73063261D01*
X38650889Y-72946204D01*
X38701989Y-72809201D01*
X38705591Y-72775692D01*
X38708499Y-72748654D01*
X49291500Y-72748654D01*
X49298011Y-72809202D01*
X49298011Y-72809204D01*
X49325723Y-72883500D01*
X49349111Y-72946204D01*
X49436739Y-73063261D01*
X49553796Y-73150889D01*
X49690799Y-73201989D01*
X49718050Y-73204918D01*
X49751345Y-73208499D01*
X49751362Y-73208500D01*
X52248638Y-73208500D01*
X52248654Y-73208499D01*
X52275692Y-73205591D01*
X52309201Y-73201989D01*
X52446204Y-73150889D01*
X52563261Y-73063261D01*
X52650889Y-72946204D01*
X52701989Y-72809201D01*
X52705591Y-72775692D01*
X52708499Y-72748654D01*
X52708500Y-72748637D01*
X52708500Y-70251362D01*
X52708499Y-70251345D01*
X52705157Y-70220270D01*
X52701989Y-70190799D01*
X52698025Y-70180172D01*
X52657990Y-70072835D01*
X52650889Y-70053796D01*
X52563261Y-69936739D01*
X52446204Y-69849111D01*
X52309203Y-69798011D01*
X52248654Y-69791500D01*
X52248638Y-69791500D01*
X49751362Y-69791500D01*
X49751345Y-69791500D01*
X49690797Y-69798011D01*
X49690795Y-69798011D01*
X49553795Y-69849111D01*
X49436739Y-69936739D01*
X49349111Y-70053795D01*
X49298011Y-70190795D01*
X49298011Y-70190797D01*
X49291500Y-70251345D01*
X49291500Y-72748654D01*
X38708499Y-72748654D01*
X38708500Y-72748637D01*
X38708500Y-70251362D01*
X38708499Y-70251345D01*
X38705157Y-70220270D01*
X38701989Y-70190799D01*
X38698025Y-70180172D01*
X38657990Y-70072835D01*
X38650889Y-70053796D01*
X38563261Y-69936739D01*
X38446204Y-69849111D01*
X38309203Y-69798011D01*
X38248654Y-69791500D01*
X38248638Y-69791500D01*
X35751362Y-69791500D01*
X35751345Y-69791500D01*
X35690797Y-69798011D01*
X35690795Y-69798011D01*
X35553795Y-69849111D01*
X35436739Y-69936739D01*
X35349111Y-70053795D01*
X35298011Y-70190795D01*
X35298011Y-70190797D01*
X35291500Y-70251345D01*
X35291500Y-72748654D01*
X20200500Y-72748654D01*
X20200500Y-68398654D01*
X105871500Y-68398654D01*
X105878011Y-68459202D01*
X105878011Y-68459204D01*
X105909037Y-68542384D01*
X105929111Y-68596204D01*
X106016739Y-68713261D01*
X106133796Y-68800889D01*
X106270799Y-68851989D01*
X106298050Y-68854918D01*
X106331345Y-68858499D01*
X106331362Y-68858500D01*
X108128638Y-68858500D01*
X108128654Y-68858499D01*
X108155692Y-68855591D01*
X108189201Y-68851989D01*
X108326204Y-68800889D01*
X108443261Y-68713261D01*
X108530889Y-68596204D01*
X108576138Y-68474887D01*
X108618009Y-68418956D01*
X108683474Y-68394539D01*
X108751746Y-68409391D01*
X108783545Y-68434236D01*
X108846760Y-68502906D01*
X109024424Y-68641189D01*
X109024425Y-68641189D01*
X109024427Y-68641191D01*
X109151135Y-68709761D01*
X109222426Y-68748342D01*
X109435365Y-68821444D01*
X109657431Y-68858500D01*
X109882569Y-68858500D01*
X110104635Y-68821444D01*
X110317574Y-68748342D01*
X110515576Y-68641189D01*
X110693240Y-68502906D01*
X110845722Y-68337268D01*
X110968860Y-68148791D01*
X111059296Y-67942616D01*
X111114564Y-67724368D01*
X111114565Y-67724359D01*
X111133156Y-67500005D01*
X111133156Y-67499994D01*
X111114565Y-67275640D01*
X111114563Y-67275628D01*
X111059296Y-67057385D01*
X111055034Y-67047669D01*
X110968860Y-66851209D01*
X110845722Y-66662732D01*
X110845719Y-66662729D01*
X110845715Y-66662723D01*
X110693243Y-66497097D01*
X110693238Y-66497092D01*
X110515577Y-66358812D01*
X110515572Y-66358808D01*
X110317580Y-66251661D01*
X110317577Y-66251659D01*
X110317574Y-66251658D01*
X110317571Y-66251657D01*
X110317569Y-66251656D01*
X110104637Y-66178556D01*
X109882569Y-66141500D01*
X109657431Y-66141500D01*
X109435362Y-66178556D01*
X109222430Y-66251656D01*
X109222419Y-66251661D01*
X109024427Y-66358808D01*
X109024422Y-66358812D01*
X108846761Y-66497092D01*
X108783548Y-66565760D01*
X108723661Y-66601750D01*
X108653823Y-66599649D01*
X108596207Y-66560124D01*
X108576138Y-66525110D01*
X108530889Y-66403796D01*
X108497214Y-66358812D01*
X108443261Y-66286739D01*
X108326204Y-66199111D01*
X108189203Y-66148011D01*
X108128654Y-66141500D01*
X108128638Y-66141500D01*
X106331362Y-66141500D01*
X106331345Y-66141500D01*
X106270797Y-66148011D01*
X106270795Y-66148011D01*
X106133795Y-66199111D01*
X106016739Y-66286739D01*
X105929111Y-66403795D01*
X105878011Y-66540795D01*
X105878011Y-66540797D01*
X105871500Y-66601345D01*
X105871500Y-68398654D01*
X20200500Y-68398654D01*
X20200500Y-67398654D01*
X84641500Y-67398654D01*
X84648011Y-67459202D01*
X84648011Y-67459204D01*
X84699111Y-67596204D01*
X84786739Y-67713261D01*
X84903796Y-67800889D01*
X85040799Y-67851989D01*
X85068050Y-67854918D01*
X85101345Y-67858499D01*
X85101362Y-67858500D01*
X86898638Y-67858500D01*
X86898654Y-67858499D01*
X86925692Y-67855591D01*
X86959201Y-67851989D01*
X87096204Y-67800889D01*
X87213261Y-67713261D01*
X87300889Y-67596204D01*
X87346138Y-67474887D01*
X87388009Y-67418956D01*
X87453474Y-67394539D01*
X87521746Y-67409391D01*
X87553545Y-67434236D01*
X87616760Y-67502906D01*
X87794424Y-67641189D01*
X87794425Y-67641189D01*
X87794427Y-67641191D01*
X87921135Y-67709761D01*
X87992426Y-67748342D01*
X88205365Y-67821444D01*
X88427431Y-67858500D01*
X88652569Y-67858500D01*
X88874635Y-67821444D01*
X89087574Y-67748342D01*
X89285576Y-67641189D01*
X89463240Y-67502906D01*
X89615722Y-67337268D01*
X89738860Y-67148791D01*
X89829296Y-66942616D01*
X89884564Y-66724368D01*
X89884565Y-66724359D01*
X89903156Y-66500005D01*
X89903156Y-66499994D01*
X89884565Y-66275640D01*
X89884563Y-66275628D01*
X89878492Y-66251656D01*
X89829296Y-66057384D01*
X89738860Y-65851209D01*
X89615722Y-65662732D01*
X89615719Y-65662729D01*
X89615715Y-65662723D01*
X89463243Y-65497097D01*
X89463238Y-65497092D01*
X89285577Y-65358812D01*
X89285572Y-65358808D01*
X89087580Y-65251661D01*
X89087577Y-65251659D01*
X89087574Y-65251658D01*
X89087571Y-65251657D01*
X89087569Y-65251656D01*
X88874637Y-65178556D01*
X88652569Y-65141500D01*
X88427431Y-65141500D01*
X88205362Y-65178556D01*
X87992430Y-65251656D01*
X87992419Y-65251661D01*
X87794427Y-65358808D01*
X87794422Y-65358812D01*
X87616761Y-65497092D01*
X87553548Y-65565760D01*
X87493661Y-65601750D01*
X87423823Y-65599649D01*
X87366207Y-65560124D01*
X87346138Y-65525110D01*
X87300889Y-65403796D01*
X87267214Y-65358812D01*
X87213261Y-65286739D01*
X87096204Y-65199111D01*
X86959203Y-65148011D01*
X86898654Y-65141500D01*
X86898638Y-65141500D01*
X85101362Y-65141500D01*
X85101345Y-65141500D01*
X85040797Y-65148011D01*
X85040795Y-65148011D01*
X84903795Y-65199111D01*
X84786739Y-65286739D01*
X84699111Y-65403795D01*
X84648011Y-65540795D01*
X84648011Y-65540797D01*
X84641500Y-65601345D01*
X84641500Y-67398654D01*
X20200500Y-67398654D01*
X20200500Y-62398654D01*
X58616500Y-62398654D01*
X58623011Y-62459202D01*
X58623011Y-62459204D01*
X58674111Y-62596204D01*
X58761739Y-62713261D01*
X58878796Y-62800889D01*
X59015799Y-62851989D01*
X59043050Y-62854918D01*
X59076345Y-62858499D01*
X59076362Y-62858500D01*
X60873638Y-62858500D01*
X60873654Y-62858499D01*
X60900692Y-62855591D01*
X60934201Y-62851989D01*
X61071204Y-62800889D01*
X61188261Y-62713261D01*
X61275889Y-62596204D01*
X61321138Y-62474887D01*
X61363009Y-62418956D01*
X61428474Y-62394539D01*
X61496746Y-62409391D01*
X61528545Y-62434236D01*
X61591760Y-62502906D01*
X61769424Y-62641189D01*
X61769425Y-62641189D01*
X61769427Y-62641191D01*
X61896135Y-62709761D01*
X61967426Y-62748342D01*
X62120869Y-62801019D01*
X62173123Y-62818958D01*
X62180365Y-62821444D01*
X62402431Y-62858500D01*
X62627569Y-62858500D01*
X62849635Y-62821444D01*
X62882105Y-62810296D01*
X62951899Y-62807146D01*
X63010046Y-62839897D01*
X65036961Y-64866812D01*
X65148188Y-64978039D01*
X65198837Y-65007281D01*
X65284408Y-65056686D01*
X65284409Y-65056686D01*
X65284412Y-65056688D01*
X65436351Y-65097400D01*
X65902646Y-65097400D01*
X65969685Y-65117085D01*
X65990327Y-65133719D01*
X65992719Y-65136111D01*
X66146985Y-65233043D01*
X66300440Y-65286739D01*
X66318953Y-65293217D01*
X66318958Y-65293218D01*
X66499996Y-65313616D01*
X66500000Y-65313616D01*
X66500004Y-65313616D01*
X66681041Y-65293218D01*
X66681044Y-65293217D01*
X66681047Y-65293217D01*
X66853015Y-65233043D01*
X67007281Y-65136111D01*
X67136111Y-65007281D01*
X67233043Y-64853015D01*
X67293217Y-64681047D01*
X67293218Y-64681041D01*
X67313616Y-64500003D01*
X67313616Y-64499996D01*
X67293218Y-64318958D01*
X67293217Y-64318953D01*
X67269441Y-64251006D01*
X67233043Y-64146985D01*
X67136111Y-63992719D01*
X67007281Y-63863889D01*
X67007279Y-63863887D01*
X66965273Y-63837493D01*
X66918982Y-63785158D01*
X66908335Y-63716105D01*
X66936710Y-63652257D01*
X66995100Y-63613885D01*
X67031246Y-63608500D01*
X130267500Y-63608500D01*
X130334539Y-63628185D01*
X130380294Y-63680989D01*
X130391500Y-63732500D01*
X130391500Y-77196588D01*
X130371815Y-77263627D01*
X130355181Y-77284269D01*
X128652788Y-78986661D01*
X128591465Y-79020146D01*
X128578992Y-79022200D01*
X128493958Y-79031781D01*
X128321983Y-79091957D01*
X128167718Y-79188889D01*
X128038889Y-79317718D01*
X127941958Y-79471982D01*
X127881782Y-79643953D01*
X127881781Y-79643958D01*
X127861384Y-79824996D01*
X127861384Y-79825003D01*
X127877772Y-79970456D01*
X127865717Y-80039278D01*
X127818368Y-80090657D01*
X127750758Y-80108281D01*
X127684352Y-80086554D01*
X127666871Y-80072020D01*
X127133719Y-79538868D01*
X127100234Y-79477545D01*
X127097400Y-79451187D01*
X127097400Y-72844243D01*
X127117085Y-72777204D01*
X127169889Y-72731449D01*
X127239047Y-72721505D01*
X127295709Y-72744976D01*
X127325165Y-72767026D01*
X127403792Y-72825887D01*
X127403793Y-72825888D01*
X127416038Y-72830455D01*
X127540799Y-72876989D01*
X127568050Y-72879918D01*
X127601345Y-72883499D01*
X127601362Y-72883500D01*
X129398638Y-72883500D01*
X129398654Y-72883499D01*
X129425692Y-72880591D01*
X129459201Y-72876989D01*
X129596204Y-72825889D01*
X129713261Y-72738261D01*
X129800889Y-72621204D01*
X129851989Y-72484201D01*
X129855591Y-72450692D01*
X129858499Y-72423654D01*
X129858500Y-72423637D01*
X129858500Y-70626362D01*
X129858499Y-70626345D01*
X129855157Y-70595270D01*
X129851989Y-70565799D01*
X129800889Y-70428796D01*
X129713261Y-70311739D01*
X129596204Y-70224111D01*
X129478404Y-70180172D01*
X129422471Y-70138300D01*
X129398055Y-70072835D01*
X129412908Y-70004562D01*
X129430504Y-69980014D01*
X129575722Y-69822268D01*
X129698860Y-69633791D01*
X129789296Y-69427616D01*
X129844564Y-69209368D01*
X129863156Y-68985000D01*
X129852134Y-68851989D01*
X129844565Y-68760640D01*
X129844563Y-68760628D01*
X129814316Y-68641187D01*
X129789296Y-68542384D01*
X129698860Y-68336209D01*
X129667026Y-68287484D01*
X129637291Y-68241970D01*
X129575722Y-68147732D01*
X129575719Y-68147729D01*
X129575715Y-68147723D01*
X129423243Y-67982097D01*
X129423238Y-67982092D01*
X129256083Y-67851989D01*
X129245576Y-67843811D01*
X129245575Y-67843810D01*
X129245572Y-67843808D01*
X129047580Y-67736661D01*
X129047577Y-67736659D01*
X129047574Y-67736658D01*
X129047571Y-67736657D01*
X129047569Y-67736656D01*
X128834637Y-67663556D01*
X128612569Y-67626500D01*
X128387431Y-67626500D01*
X128165362Y-67663556D01*
X127952430Y-67736656D01*
X127952419Y-67736661D01*
X127754427Y-67843808D01*
X127754422Y-67843812D01*
X127576761Y-67982092D01*
X127576756Y-67982097D01*
X127424284Y-68147723D01*
X127424276Y-68147734D01*
X127301140Y-68336207D01*
X127210703Y-68542385D01*
X127155436Y-68760628D01*
X127155434Y-68760640D01*
X127136844Y-68984994D01*
X127136844Y-68985005D01*
X127155434Y-69209359D01*
X127155436Y-69209371D01*
X127193777Y-69360774D01*
X127191152Y-69430594D01*
X127161252Y-69478895D01*
X126133188Y-70506961D01*
X126021963Y-70618185D01*
X126021959Y-70618191D01*
X125943313Y-70754408D01*
X125943312Y-70754412D01*
X125902600Y-70906351D01*
X125902600Y-79671351D01*
X125902600Y-79828649D01*
X125940597Y-79970456D01*
X125943313Y-79980591D01*
X125996100Y-80072020D01*
X126021961Y-80116812D01*
X126021963Y-80116814D01*
X136948404Y-91043255D01*
X136981889Y-91104578D01*
X136976905Y-91174270D01*
X136951351Y-91215568D01*
X136938340Y-91229500D01*
X136779893Y-91453969D01*
X136779889Y-91453975D01*
X136653476Y-91697943D01*
X136561463Y-91956841D01*
X136561458Y-91956858D01*
X136505558Y-92225867D01*
X136505557Y-92225869D01*
X136486807Y-92500000D01*
X136505557Y-92774130D01*
X136505558Y-92774132D01*
X136561458Y-93043141D01*
X136561463Y-93043158D01*
X136653476Y-93302056D01*
X136779889Y-93546024D01*
X136779893Y-93546030D01*
X136938340Y-93770499D01*
X136938343Y-93770502D01*
X137125889Y-93971314D01*
X137339031Y-94144718D01*
X137339033Y-94144719D01*
X137339034Y-94144720D01*
X137573801Y-94287485D01*
X137778348Y-94376331D01*
X137825823Y-94396953D01*
X138090404Y-94471085D01*
X138320505Y-94502712D01*
X138362614Y-94508500D01*
X138362615Y-94508500D01*
X138637386Y-94508500D01*
X138679495Y-94502712D01*
X138909596Y-94471085D01*
X139174177Y-94396953D01*
X139426200Y-94287484D01*
X139660969Y-94144718D01*
X139874111Y-93971314D01*
X140061657Y-93770502D01*
X140220111Y-93546023D01*
X140346523Y-93302058D01*
X140438538Y-93043153D01*
X140438539Y-93043146D01*
X140438541Y-93043141D01*
X140482674Y-92830761D01*
X140494442Y-92774130D01*
X140513193Y-92500000D01*
X140494442Y-92225870D01*
X140457006Y-92045718D01*
X140438541Y-91956858D01*
X140438536Y-91956841D01*
X140346523Y-91697943D01*
X140346523Y-91697942D01*
X140220111Y-91453977D01*
X140220110Y-91453975D01*
X140220106Y-91453969D01*
X140061659Y-91229500D01*
X140010077Y-91174270D01*
X139874111Y-91028686D01*
X139660969Y-90855282D01*
X139660967Y-90855281D01*
X139660965Y-90855279D01*
X139426198Y-90712514D01*
X139174178Y-90603047D01*
X138909602Y-90528916D01*
X138909597Y-90528915D01*
X138909596Y-90528915D01*
X138743774Y-90506123D01*
X138637386Y-90491500D01*
X138637385Y-90491500D01*
X138362615Y-90491500D01*
X138362613Y-90491500D01*
X138180748Y-90516496D01*
X138111653Y-90506123D01*
X138076183Y-90481332D01*
X130594852Y-83000001D01*
X138066502Y-83000001D01*
X138086456Y-83228081D01*
X138086457Y-83228089D01*
X138145714Y-83449238D01*
X138145718Y-83449249D01*
X138201675Y-83569249D01*
X138242477Y-83656749D01*
X138373802Y-83844300D01*
X138535700Y-84006198D01*
X138723251Y-84137523D01*
X138848091Y-84195736D01*
X138930750Y-84234281D01*
X138930752Y-84234281D01*
X138930757Y-84234284D01*
X139151913Y-84293543D01*
X139314832Y-84307796D01*
X139379998Y-84313498D01*
X139380000Y-84313498D01*
X139380002Y-84313498D01*
X139437021Y-84308509D01*
X139608087Y-84293543D01*
X139829243Y-84234284D01*
X140036749Y-84137523D01*
X140224300Y-84006198D01*
X140386198Y-83844300D01*
X140517523Y-83656749D01*
X140614284Y-83449243D01*
X140673543Y-83228087D01*
X140693498Y-83000000D01*
X140673543Y-82771913D01*
X140614284Y-82550757D01*
X140517523Y-82343251D01*
X140386198Y-82155700D01*
X140224300Y-81993802D01*
X140036749Y-81862477D01*
X139993655Y-81842382D01*
X139941215Y-81796210D01*
X139922063Y-81729017D01*
X139942278Y-81662136D01*
X139993655Y-81617618D01*
X139996882Y-81616112D01*
X140036749Y-81597523D01*
X140224300Y-81466198D01*
X140386198Y-81304300D01*
X140517523Y-81116749D01*
X140614284Y-80909243D01*
X140673543Y-80688087D01*
X140693498Y-80460000D01*
X140673543Y-80231913D01*
X140614284Y-80010757D01*
X140600217Y-79980591D01*
X140552328Y-79877892D01*
X140517523Y-79803251D01*
X140386198Y-79615700D01*
X140224300Y-79453802D01*
X140216627Y-79448429D01*
X140173006Y-79393853D01*
X140165814Y-79324355D01*
X140197338Y-79262001D01*
X140257568Y-79226588D01*
X140274489Y-79223570D01*
X140289201Y-79221989D01*
X140426204Y-79170889D01*
X140543261Y-79083261D01*
X140630889Y-78966204D01*
X140681989Y-78829201D01*
X140687485Y-78778079D01*
X140688499Y-78768654D01*
X140688500Y-78768637D01*
X140688500Y-77920001D01*
X145686502Y-77920001D01*
X145706456Y-78148081D01*
X145706457Y-78148089D01*
X145765714Y-78369238D01*
X145765718Y-78369249D01*
X145859670Y-78570729D01*
X145862477Y-78576749D01*
X145993802Y-78764300D01*
X146155700Y-78926198D01*
X146343251Y-79057523D01*
X146426208Y-79096206D01*
X146550750Y-79154281D01*
X146550752Y-79154281D01*
X146550757Y-79154284D01*
X146771913Y-79213543D01*
X146934832Y-79227796D01*
X146999998Y-79233498D01*
X147000000Y-79233498D01*
X147000002Y-79233498D01*
X147057127Y-79228500D01*
X147228087Y-79213543D01*
X147449243Y-79154284D01*
X147656749Y-79057523D01*
X147844300Y-78926198D01*
X148006198Y-78764300D01*
X148137523Y-78576749D01*
X148234284Y-78369243D01*
X148293543Y-78148087D01*
X148313498Y-77920000D01*
X148293543Y-77691913D01*
X148234284Y-77470757D01*
X148137523Y-77263251D01*
X148006198Y-77075700D01*
X147844300Y-76913802D01*
X147656749Y-76782477D01*
X147627884Y-76769017D01*
X147449249Y-76685718D01*
X147449238Y-76685714D01*
X147228089Y-76626457D01*
X147228081Y-76626456D01*
X147000002Y-76606502D01*
X146999998Y-76606502D01*
X146771918Y-76626456D01*
X146771910Y-76626457D01*
X146550761Y-76685714D01*
X146550750Y-76685718D01*
X146343254Y-76782475D01*
X146343252Y-76782476D01*
X146343251Y-76782477D01*
X146155700Y-76913802D01*
X146155698Y-76913803D01*
X146155695Y-76913806D01*
X145993806Y-77075695D01*
X145993803Y-77075698D01*
X145993802Y-77075700D01*
X145975562Y-77101750D01*
X145862476Y-77263252D01*
X145862475Y-77263254D01*
X145765718Y-77470750D01*
X145765714Y-77470761D01*
X145706457Y-77691910D01*
X145706456Y-77691918D01*
X145686502Y-77919998D01*
X145686502Y-77920001D01*
X140688500Y-77920001D01*
X140688500Y-77071362D01*
X140688499Y-77071345D01*
X140683884Y-77028429D01*
X140681989Y-77010799D01*
X140676878Y-76997097D01*
X140645812Y-76913806D01*
X140630889Y-76873796D01*
X140543261Y-76756739D01*
X140426204Y-76669111D01*
X140289203Y-76618011D01*
X140228654Y-76611500D01*
X140228638Y-76611500D01*
X138531362Y-76611500D01*
X138531345Y-76611500D01*
X138470797Y-76618011D01*
X138470795Y-76618011D01*
X138333795Y-76669111D01*
X138216739Y-76756739D01*
X138129111Y-76873795D01*
X138078011Y-77010795D01*
X138078011Y-77010797D01*
X138071500Y-77071345D01*
X138071500Y-78768654D01*
X138078011Y-78829202D01*
X138078011Y-78829204D01*
X138114189Y-78926198D01*
X138129111Y-78966204D01*
X138216739Y-79083261D01*
X138333796Y-79170889D01*
X138433110Y-79207931D01*
X138470793Y-79221987D01*
X138470799Y-79221989D01*
X138485499Y-79223569D01*
X138550048Y-79250305D01*
X138589897Y-79307696D01*
X138592393Y-79377521D01*
X138556742Y-79437611D01*
X138543377Y-79448425D01*
X138543371Y-79448431D01*
X138535696Y-79453805D01*
X138373806Y-79615695D01*
X138373803Y-79615698D01*
X138373802Y-79615700D01*
X138334835Y-79671351D01*
X138242476Y-79803252D01*
X138242475Y-79803254D01*
X138145718Y-80010750D01*
X138145714Y-80010761D01*
X138086457Y-80231910D01*
X138086456Y-80231918D01*
X138066502Y-80459998D01*
X138066502Y-80460001D01*
X138086456Y-80688081D01*
X138086457Y-80688089D01*
X138145714Y-80909238D01*
X138145718Y-80909249D01*
X138226298Y-81082053D01*
X138242477Y-81116749D01*
X138373802Y-81304300D01*
X138535700Y-81466198D01*
X138707070Y-81586193D01*
X138723251Y-81597523D01*
X138766345Y-81617618D01*
X138818784Y-81663791D01*
X138837936Y-81730984D01*
X138817720Y-81797865D01*
X138766345Y-81842382D01*
X138723251Y-81862476D01*
X138598126Y-81950090D01*
X138535700Y-81993802D01*
X138535698Y-81993803D01*
X138535695Y-81993806D01*
X138373806Y-82155695D01*
X138373803Y-82155698D01*
X138373802Y-82155700D01*
X138325720Y-82224368D01*
X138242476Y-82343252D01*
X138242475Y-82343254D01*
X138145718Y-82550750D01*
X138145714Y-82550761D01*
X138086457Y-82771910D01*
X138086456Y-82771918D01*
X138066502Y-82999998D01*
X138066502Y-83000001D01*
X130594852Y-83000001D01*
X128427979Y-80833128D01*
X128394494Y-80771805D01*
X128399478Y-80702113D01*
X128441350Y-80646180D01*
X128506814Y-80621763D01*
X128529542Y-80622226D01*
X128568440Y-80626609D01*
X128674997Y-80638616D01*
X128675000Y-80638616D01*
X128675004Y-80638616D01*
X128856041Y-80618218D01*
X128856044Y-80618217D01*
X128856047Y-80618217D01*
X129028015Y-80558043D01*
X129182281Y-80461111D01*
X129311111Y-80332281D01*
X129408043Y-80178015D01*
X129468217Y-80006047D01*
X129477798Y-79921005D01*
X129504863Y-79856595D01*
X129513327Y-79847220D01*
X131486922Y-77873627D01*
X131567032Y-77734872D01*
X131585386Y-77666373D01*
X131608500Y-77580111D01*
X131608500Y-66500000D01*
X136486807Y-66500000D01*
X136505557Y-66774130D01*
X136505558Y-66774132D01*
X136561458Y-67043141D01*
X136561463Y-67043158D01*
X136653476Y-67302056D01*
X136779889Y-67546024D01*
X136779893Y-67546030D01*
X136938340Y-67770499D01*
X136938343Y-67770502D01*
X137125889Y-67971314D01*
X137339031Y-68144718D01*
X137339033Y-68144719D01*
X137339034Y-68144720D01*
X137573801Y-68287485D01*
X137778348Y-68376331D01*
X137825823Y-68396953D01*
X138090404Y-68471085D01*
X138329720Y-68503978D01*
X138362614Y-68508500D01*
X138362615Y-68508500D01*
X138637386Y-68508500D01*
X138666733Y-68504466D01*
X138909596Y-68471085D01*
X139174177Y-68396953D01*
X139426200Y-68287484D01*
X139660969Y-68144718D01*
X139874111Y-67971314D01*
X140061657Y-67770502D01*
X140220111Y-67546023D01*
X140346523Y-67302058D01*
X140438538Y-67043153D01*
X140438539Y-67043146D01*
X140438541Y-67043141D01*
X140465246Y-66914628D01*
X140494442Y-66774130D01*
X140513193Y-66500000D01*
X140494442Y-66225870D01*
X140459430Y-66057384D01*
X140438541Y-65956858D01*
X140438536Y-65956841D01*
X140346523Y-65697943D01*
X140346523Y-65697942D01*
X140220111Y-65453977D01*
X140220110Y-65453975D01*
X140220106Y-65453969D01*
X140061659Y-65229500D01*
X140014080Y-65178556D01*
X139874111Y-65028686D01*
X139660969Y-64855282D01*
X139660967Y-64855281D01*
X139660965Y-64855279D01*
X139426198Y-64712514D01*
X139174178Y-64603047D01*
X138909602Y-64528916D01*
X138909597Y-64528915D01*
X138909596Y-64528915D01*
X138773490Y-64510207D01*
X138637386Y-64491500D01*
X138637385Y-64491500D01*
X138362615Y-64491500D01*
X138362614Y-64491500D01*
X138090404Y-64528915D01*
X138090397Y-64528916D01*
X137825821Y-64603047D01*
X137573801Y-64712514D01*
X137339034Y-64855279D01*
X137125892Y-65028683D01*
X136938340Y-65229500D01*
X136779893Y-65453969D01*
X136779889Y-65453975D01*
X136653476Y-65697943D01*
X136561463Y-65956841D01*
X136561458Y-65956858D01*
X136505558Y-66225867D01*
X136505557Y-66225869D01*
X136486807Y-66500000D01*
X131608500Y-66500000D01*
X131608500Y-63906585D01*
X131628185Y-63839546D01*
X131680989Y-63793791D01*
X131691541Y-63789544D01*
X131853015Y-63733043D01*
X132007281Y-63636111D01*
X132136111Y-63507281D01*
X132233043Y-63353015D01*
X132293217Y-63181047D01*
X132313616Y-63000000D01*
X132297708Y-62858816D01*
X132293218Y-62818958D01*
X132293217Y-62818953D01*
X132286896Y-62800888D01*
X132233043Y-62646985D01*
X132136111Y-62492719D01*
X132007281Y-62363889D01*
X131853015Y-62266957D01*
X131798693Y-62247949D01*
X131681046Y-62206782D01*
X131681041Y-62206781D01*
X131500004Y-62186384D01*
X131499996Y-62186384D01*
X131318958Y-62206781D01*
X131318953Y-62206782D01*
X131146982Y-62266958D01*
X130992722Y-62363886D01*
X130992023Y-62364445D01*
X130991484Y-62364664D01*
X130986823Y-62367594D01*
X130986309Y-62366777D01*
X130927337Y-62390855D01*
X130914707Y-62391500D01*
X66858411Y-62391500D01*
X66791372Y-62371815D01*
X66770730Y-62355181D01*
X66396919Y-61981370D01*
X66363434Y-61920047D01*
X66364395Y-61863248D01*
X66399561Y-61724380D01*
X66399561Y-61724379D01*
X66399564Y-61724368D01*
X66418156Y-61500000D01*
X66415779Y-61471316D01*
X66399565Y-61275640D01*
X66399563Y-61275628D01*
X66344296Y-61057385D01*
X66339315Y-61046030D01*
X66253860Y-60851209D01*
X66237706Y-60826484D01*
X66130723Y-60662734D01*
X66130715Y-60662723D01*
X65978243Y-60497097D01*
X65978238Y-60497092D01*
X65800577Y-60358812D01*
X65800572Y-60358808D01*
X65602580Y-60251661D01*
X65602577Y-60251659D01*
X65602574Y-60251658D01*
X65602571Y-60251657D01*
X65602569Y-60251656D01*
X65389637Y-60178556D01*
X65167569Y-60141500D01*
X64942431Y-60141500D01*
X64720362Y-60178556D01*
X64507430Y-60251656D01*
X64507419Y-60251661D01*
X64309427Y-60358808D01*
X64309422Y-60358812D01*
X64131761Y-60497092D01*
X64131756Y-60497097D01*
X63979284Y-60662723D01*
X63979276Y-60662734D01*
X63888808Y-60801206D01*
X63835662Y-60846562D01*
X63766431Y-60855986D01*
X63703095Y-60826484D01*
X63681192Y-60801206D01*
X63590723Y-60662734D01*
X63590715Y-60662723D01*
X63438243Y-60497097D01*
X63438238Y-60497092D01*
X63260577Y-60358812D01*
X63260572Y-60358808D01*
X63062580Y-60251661D01*
X63062577Y-60251659D01*
X63062574Y-60251658D01*
X63062571Y-60251657D01*
X63062569Y-60251656D01*
X62849637Y-60178556D01*
X62627569Y-60141500D01*
X62402431Y-60141500D01*
X62180362Y-60178556D01*
X61967430Y-60251656D01*
X61967419Y-60251661D01*
X61769427Y-60358808D01*
X61769422Y-60358812D01*
X61591761Y-60497092D01*
X61528548Y-60565760D01*
X61468661Y-60601750D01*
X61398823Y-60599649D01*
X61341207Y-60560124D01*
X61321138Y-60525110D01*
X61275889Y-60403796D01*
X61242214Y-60358812D01*
X61188261Y-60286739D01*
X61071204Y-60199111D01*
X60934203Y-60148011D01*
X60873654Y-60141500D01*
X60873638Y-60141500D01*
X59076362Y-60141500D01*
X59076345Y-60141500D01*
X59015797Y-60148011D01*
X59015795Y-60148011D01*
X58878795Y-60199111D01*
X58761739Y-60286739D01*
X58674111Y-60403795D01*
X58623011Y-60540795D01*
X58623011Y-60540797D01*
X58616500Y-60601345D01*
X58616500Y-62398654D01*
X20200500Y-62398654D01*
X20200500Y-58000000D01*
X28986807Y-58000000D01*
X29005557Y-58274130D01*
X29005558Y-58274132D01*
X29061458Y-58543141D01*
X29061463Y-58543158D01*
X29153476Y-58802056D01*
X29279889Y-59046024D01*
X29279893Y-59046030D01*
X29438340Y-59270499D01*
X29438343Y-59270502D01*
X29625889Y-59471314D01*
X29839031Y-59644718D01*
X29839033Y-59644719D01*
X29839034Y-59644720D01*
X30073801Y-59787485D01*
X30272038Y-59873591D01*
X30325823Y-59896953D01*
X30590404Y-59971085D01*
X30829720Y-60003978D01*
X30862614Y-60008500D01*
X30862615Y-60008500D01*
X31137386Y-60008500D01*
X31166733Y-60004466D01*
X31199225Y-60000000D01*
X136486807Y-60000000D01*
X136505557Y-60274130D01*
X136505558Y-60274132D01*
X136561458Y-60543141D01*
X136561463Y-60543158D01*
X136653476Y-60802056D01*
X136779889Y-61046024D01*
X136779893Y-61046030D01*
X136938340Y-61270499D01*
X136966280Y-61300416D01*
X137125889Y-61471314D01*
X137339031Y-61644718D01*
X137339033Y-61644719D01*
X137339034Y-61644720D01*
X137573801Y-61787485D01*
X137748226Y-61863248D01*
X137825823Y-61896953D01*
X138090404Y-61971085D01*
X138329720Y-62003978D01*
X138362614Y-62008500D01*
X138362615Y-62008500D01*
X138637386Y-62008500D01*
X138666733Y-62004466D01*
X138909596Y-61971085D01*
X139174177Y-61896953D01*
X139426200Y-61787484D01*
X139660969Y-61644718D01*
X139874111Y-61471314D01*
X140061657Y-61270502D01*
X140220111Y-61046023D01*
X140346523Y-60802058D01*
X140438538Y-60543153D01*
X140438539Y-60543146D01*
X140438541Y-60543141D01*
X140476845Y-60358811D01*
X140494442Y-60274130D01*
X140513193Y-60000000D01*
X140494442Y-59725870D01*
X140466149Y-59589717D01*
X140438541Y-59456858D01*
X140438536Y-59456841D01*
X140387993Y-59314628D01*
X140346523Y-59197942D01*
X140220111Y-58953977D01*
X140220110Y-58953975D01*
X140220106Y-58953969D01*
X140061659Y-58729500D01*
X140043031Y-58709555D01*
X139874111Y-58528686D01*
X139660969Y-58355282D01*
X139660967Y-58355281D01*
X139660965Y-58355279D01*
X139426198Y-58212514D01*
X139174178Y-58103047D01*
X138909602Y-58028916D01*
X138909597Y-58028915D01*
X138909596Y-58028915D01*
X138773490Y-58010207D01*
X138637386Y-57991500D01*
X138637385Y-57991500D01*
X138362615Y-57991500D01*
X138362614Y-57991500D01*
X138090404Y-58028915D01*
X138090397Y-58028916D01*
X137825821Y-58103047D01*
X137573801Y-58212514D01*
X137339034Y-58355279D01*
X137125892Y-58528683D01*
X136938340Y-58729500D01*
X136779893Y-58953969D01*
X136779889Y-58953975D01*
X136653476Y-59197943D01*
X136561463Y-59456841D01*
X136561458Y-59456858D01*
X136505558Y-59725867D01*
X136505557Y-59725869D01*
X136486807Y-60000000D01*
X31199225Y-60000000D01*
X31409596Y-59971085D01*
X31674177Y-59896953D01*
X31926200Y-59787484D01*
X32160969Y-59644718D01*
X32374111Y-59471314D01*
X32561657Y-59270502D01*
X32720111Y-59046023D01*
X32846523Y-58802058D01*
X32938538Y-58543153D01*
X32938539Y-58543146D01*
X32938541Y-58543141D01*
X32988638Y-58302058D01*
X32994442Y-58274130D01*
X33013193Y-58000000D01*
X32994442Y-57725870D01*
X32958380Y-57552331D01*
X32947506Y-57500000D01*
X66986807Y-57500000D01*
X67005557Y-57774130D01*
X67005558Y-57774132D01*
X67061458Y-58043141D01*
X67061463Y-58043158D01*
X67153476Y-58302056D01*
X67279889Y-58546024D01*
X67279893Y-58546030D01*
X67438340Y-58770499D01*
X67438343Y-58770502D01*
X67625889Y-58971314D01*
X67839031Y-59144718D01*
X67839033Y-59144719D01*
X67839034Y-59144720D01*
X68073801Y-59287485D01*
X68278348Y-59376331D01*
X68325823Y-59396953D01*
X68590404Y-59471085D01*
X68829720Y-59503978D01*
X68862614Y-59508500D01*
X68862615Y-59508500D01*
X69137386Y-59508500D01*
X69166733Y-59504466D01*
X69409596Y-59471085D01*
X69674177Y-59396953D01*
X69926200Y-59287484D01*
X70160969Y-59144718D01*
X70374111Y-58971314D01*
X70509083Y-58826795D01*
X87466500Y-58826795D01*
X87506215Y-59026453D01*
X87506218Y-59026465D01*
X87584120Y-59214539D01*
X87584127Y-59214552D01*
X87697227Y-59383817D01*
X87697230Y-59383821D01*
X87841178Y-59527769D01*
X87841182Y-59527772D01*
X88010447Y-59640872D01*
X88010460Y-59640879D01*
X88198534Y-59718781D01*
X88198539Y-59718783D01*
X88398204Y-59758499D01*
X88398207Y-59758500D01*
X88398209Y-59758500D01*
X88601793Y-59758500D01*
X88601794Y-59758499D01*
X88801461Y-59718783D01*
X88989546Y-59640876D01*
X89066112Y-59589715D01*
X89132786Y-59568839D01*
X89200166Y-59587323D01*
X89203832Y-59589679D01*
X89280454Y-59640876D01*
X89280457Y-59640877D01*
X89280460Y-59640879D01*
X89468534Y-59718781D01*
X89468539Y-59718783D01*
X89668204Y-59758499D01*
X89668207Y-59758500D01*
X89668209Y-59758500D01*
X89871793Y-59758500D01*
X89871794Y-59758499D01*
X90071461Y-59718783D01*
X90259546Y-59640876D01*
X90428818Y-59527772D01*
X90572772Y-59383818D01*
X90685876Y-59214546D01*
X90763783Y-59026461D01*
X90803499Y-58826795D01*
X107466500Y-58826795D01*
X107506215Y-59026453D01*
X107506218Y-59026465D01*
X107584120Y-59214539D01*
X107584127Y-59214552D01*
X107697227Y-59383817D01*
X107697230Y-59383821D01*
X107841178Y-59527769D01*
X107841182Y-59527772D01*
X108010447Y-59640872D01*
X108010460Y-59640879D01*
X108198534Y-59718781D01*
X108198539Y-59718783D01*
X108398204Y-59758499D01*
X108398207Y-59758500D01*
X108398209Y-59758500D01*
X108601793Y-59758500D01*
X108601794Y-59758499D01*
X108801461Y-59718783D01*
X108989546Y-59640876D01*
X109066112Y-59589715D01*
X109132786Y-59568839D01*
X109200166Y-59587323D01*
X109203832Y-59589679D01*
X109280454Y-59640876D01*
X109280457Y-59640877D01*
X109280460Y-59640879D01*
X109468534Y-59718781D01*
X109468539Y-59718783D01*
X109668204Y-59758499D01*
X109668207Y-59758500D01*
X109668209Y-59758500D01*
X109871793Y-59758500D01*
X109871794Y-59758499D01*
X110071461Y-59718783D01*
X110259546Y-59640876D01*
X110428818Y-59527772D01*
X110572772Y-59383818D01*
X110685876Y-59214546D01*
X110763783Y-59026461D01*
X110803499Y-58826795D01*
X127466500Y-58826795D01*
X127506215Y-59026453D01*
X127506218Y-59026465D01*
X127584120Y-59214539D01*
X127584127Y-59214552D01*
X127697227Y-59383817D01*
X127697230Y-59383821D01*
X127841178Y-59527769D01*
X127841182Y-59527772D01*
X128010447Y-59640872D01*
X128010460Y-59640879D01*
X128198534Y-59718781D01*
X128198539Y-59718783D01*
X128398204Y-59758499D01*
X128398207Y-59758500D01*
X128398209Y-59758500D01*
X128601793Y-59758500D01*
X128601794Y-59758499D01*
X128801461Y-59718783D01*
X128989546Y-59640876D01*
X129066112Y-59589715D01*
X129132786Y-59568839D01*
X129200166Y-59587323D01*
X129203832Y-59589679D01*
X129280454Y-59640876D01*
X129280457Y-59640877D01*
X129280460Y-59640879D01*
X129468534Y-59718781D01*
X129468539Y-59718783D01*
X129668204Y-59758499D01*
X129668207Y-59758500D01*
X129668209Y-59758500D01*
X129871793Y-59758500D01*
X129871794Y-59758499D01*
X130071461Y-59718783D01*
X130259546Y-59640876D01*
X130428818Y-59527772D01*
X130572772Y-59383818D01*
X130685876Y-59214546D01*
X130763783Y-59026461D01*
X130803500Y-58826791D01*
X130803500Y-58173209D01*
X130803500Y-58173206D01*
X130803499Y-58173204D01*
X130797037Y-58140716D01*
X130763783Y-57973539D01*
X130737810Y-57910835D01*
X130685879Y-57785460D01*
X130685872Y-57785447D01*
X130572772Y-57616182D01*
X130572769Y-57616178D01*
X130428821Y-57472230D01*
X130428817Y-57472227D01*
X130259552Y-57359127D01*
X130259539Y-57359120D01*
X130071465Y-57281218D01*
X130071453Y-57281215D01*
X129871794Y-57241500D01*
X129871791Y-57241500D01*
X129668209Y-57241500D01*
X129668206Y-57241500D01*
X129468546Y-57281215D01*
X129468534Y-57281218D01*
X129280457Y-57359122D01*
X129203890Y-57410282D01*
X129137212Y-57431159D01*
X129069832Y-57412674D01*
X129066110Y-57410282D01*
X129042785Y-57394697D01*
X128989546Y-57359124D01*
X128989543Y-57359122D01*
X128989542Y-57359122D01*
X128801465Y-57281218D01*
X128801453Y-57281215D01*
X128601794Y-57241500D01*
X128601791Y-57241500D01*
X128398209Y-57241500D01*
X128398206Y-57241500D01*
X128198546Y-57281215D01*
X128198534Y-57281218D01*
X128010460Y-57359120D01*
X128010447Y-57359127D01*
X127841182Y-57472227D01*
X127841178Y-57472230D01*
X127697230Y-57616178D01*
X127697227Y-57616182D01*
X127584127Y-57785447D01*
X127584120Y-57785460D01*
X127506218Y-57973534D01*
X127506215Y-57973546D01*
X127466500Y-58173204D01*
X127466500Y-58826795D01*
X110803499Y-58826795D01*
X110803500Y-58826791D01*
X110803500Y-58173209D01*
X110803500Y-58173206D01*
X110803499Y-58173204D01*
X110797037Y-58140716D01*
X110763783Y-57973539D01*
X110737810Y-57910835D01*
X110685879Y-57785460D01*
X110685872Y-57785447D01*
X110572772Y-57616182D01*
X110572769Y-57616178D01*
X110428821Y-57472230D01*
X110428817Y-57472227D01*
X110259552Y-57359127D01*
X110259539Y-57359120D01*
X110071465Y-57281218D01*
X110071453Y-57281215D01*
X109871794Y-57241500D01*
X109871791Y-57241500D01*
X109668209Y-57241500D01*
X109668206Y-57241500D01*
X109468546Y-57281215D01*
X109468534Y-57281218D01*
X109280457Y-57359122D01*
X109203890Y-57410282D01*
X109137212Y-57431159D01*
X109069832Y-57412674D01*
X109066110Y-57410282D01*
X109042785Y-57394697D01*
X108989546Y-57359124D01*
X108989543Y-57359122D01*
X108989542Y-57359122D01*
X108801465Y-57281218D01*
X108801453Y-57281215D01*
X108601794Y-57241500D01*
X108601791Y-57241500D01*
X108398209Y-57241500D01*
X108398206Y-57241500D01*
X108198546Y-57281215D01*
X108198534Y-57281218D01*
X108010460Y-57359120D01*
X108010447Y-57359127D01*
X107841182Y-57472227D01*
X107841178Y-57472230D01*
X107697230Y-57616178D01*
X107697227Y-57616182D01*
X107584127Y-57785447D01*
X107584120Y-57785460D01*
X107506218Y-57973534D01*
X107506215Y-57973546D01*
X107466500Y-58173204D01*
X107466500Y-58826795D01*
X90803499Y-58826795D01*
X90803500Y-58826791D01*
X90803500Y-58173209D01*
X90803500Y-58173206D01*
X90803499Y-58173204D01*
X90797037Y-58140716D01*
X90763783Y-57973539D01*
X90737810Y-57910835D01*
X90685879Y-57785460D01*
X90685872Y-57785447D01*
X90572772Y-57616182D01*
X90572769Y-57616178D01*
X90428821Y-57472230D01*
X90428817Y-57472227D01*
X90259552Y-57359127D01*
X90259539Y-57359120D01*
X90071465Y-57281218D01*
X90071453Y-57281215D01*
X89871794Y-57241500D01*
X89871791Y-57241500D01*
X89668209Y-57241500D01*
X89668206Y-57241500D01*
X89468546Y-57281215D01*
X89468534Y-57281218D01*
X89280457Y-57359122D01*
X89203890Y-57410282D01*
X89137212Y-57431159D01*
X89069832Y-57412674D01*
X89066110Y-57410282D01*
X89042785Y-57394697D01*
X88989546Y-57359124D01*
X88989543Y-57359122D01*
X88989542Y-57359122D01*
X88801465Y-57281218D01*
X88801453Y-57281215D01*
X88601794Y-57241500D01*
X88601791Y-57241500D01*
X88398209Y-57241500D01*
X88398206Y-57241500D01*
X88198546Y-57281215D01*
X88198534Y-57281218D01*
X88010460Y-57359120D01*
X88010447Y-57359127D01*
X87841182Y-57472227D01*
X87841178Y-57472230D01*
X87697230Y-57616178D01*
X87697227Y-57616182D01*
X87584127Y-57785447D01*
X87584120Y-57785460D01*
X87506218Y-57973534D01*
X87506215Y-57973546D01*
X87466500Y-58173204D01*
X87466500Y-58826795D01*
X70509083Y-58826795D01*
X70561657Y-58770502D01*
X70720111Y-58546023D01*
X70846523Y-58302058D01*
X70938538Y-58043153D01*
X70938539Y-58043146D01*
X70938541Y-58043141D01*
X70966034Y-57910835D01*
X70994442Y-57774130D01*
X71013193Y-57500000D01*
X70994442Y-57225870D01*
X70973773Y-57126404D01*
X70938541Y-56956858D01*
X70938536Y-56956841D01*
X70875691Y-56780014D01*
X70846523Y-56697942D01*
X70720111Y-56453977D01*
X70720110Y-56453975D01*
X70720106Y-56453969D01*
X70561659Y-56229500D01*
X70543031Y-56209555D01*
X70374111Y-56028686D01*
X70160969Y-55855282D01*
X70160967Y-55855281D01*
X70160965Y-55855279D01*
X69926198Y-55712514D01*
X69674178Y-55603047D01*
X69409602Y-55528916D01*
X69409597Y-55528915D01*
X69409596Y-55528915D01*
X69273490Y-55510207D01*
X69137386Y-55491500D01*
X69137385Y-55491500D01*
X68862615Y-55491500D01*
X68862614Y-55491500D01*
X68590404Y-55528915D01*
X68590397Y-55528916D01*
X68325821Y-55603047D01*
X68073801Y-55712514D01*
X67839034Y-55855279D01*
X67625892Y-56028683D01*
X67438340Y-56229500D01*
X67279893Y-56453969D01*
X67279889Y-56453975D01*
X67153476Y-56697943D01*
X67061463Y-56956841D01*
X67061458Y-56956858D01*
X67005558Y-57225867D01*
X67005557Y-57225869D01*
X66986807Y-57500000D01*
X32947506Y-57500000D01*
X32938541Y-57456858D01*
X32938536Y-57456841D01*
X32876118Y-57281215D01*
X32846523Y-57197942D01*
X32720111Y-56953977D01*
X32720110Y-56953975D01*
X32720106Y-56953969D01*
X32561659Y-56729500D01*
X32488350Y-56651006D01*
X32374111Y-56528686D01*
X32160969Y-56355282D01*
X32160967Y-56355281D01*
X32160965Y-56355279D01*
X31926198Y-56212514D01*
X31674178Y-56103047D01*
X31409602Y-56028916D01*
X31409597Y-56028915D01*
X31409596Y-56028915D01*
X31273490Y-56010207D01*
X31137386Y-55991500D01*
X31137385Y-55991500D01*
X30862615Y-55991500D01*
X30862614Y-55991500D01*
X30590404Y-56028915D01*
X30590397Y-56028916D01*
X30325821Y-56103047D01*
X30073801Y-56212514D01*
X29839034Y-56355279D01*
X29625892Y-56528683D01*
X29438340Y-56729500D01*
X29279893Y-56953969D01*
X29279889Y-56953975D01*
X29153476Y-57197943D01*
X29061463Y-57456841D01*
X29061458Y-57456858D01*
X29005558Y-57725867D01*
X29005557Y-57725869D01*
X28986807Y-58000000D01*
X20200500Y-58000000D01*
X20200500Y-50826795D01*
X87426500Y-50826795D01*
X87466215Y-51026453D01*
X87466218Y-51026465D01*
X87544120Y-51214539D01*
X87544127Y-51214552D01*
X87657227Y-51383817D01*
X87657230Y-51383821D01*
X87801178Y-51527769D01*
X87801182Y-51527772D01*
X87970447Y-51640872D01*
X87970460Y-51640879D01*
X88158534Y-51718781D01*
X88158539Y-51718783D01*
X88325471Y-51751988D01*
X88358204Y-51758499D01*
X88358207Y-51758500D01*
X88358209Y-51758500D01*
X88561793Y-51758500D01*
X88561794Y-51758499D01*
X88761461Y-51718783D01*
X88949546Y-51640876D01*
X89026112Y-51589715D01*
X89092786Y-51568839D01*
X89160166Y-51587323D01*
X89163832Y-51589679D01*
X89240454Y-51640876D01*
X89240457Y-51640877D01*
X89240460Y-51640879D01*
X89428534Y-51718781D01*
X89428539Y-51718783D01*
X89595471Y-51751988D01*
X89628204Y-51758499D01*
X89628207Y-51758500D01*
X89628209Y-51758500D01*
X89831793Y-51758500D01*
X89831794Y-51758499D01*
X90031461Y-51718783D01*
X90108656Y-51686807D01*
X90178122Y-51679339D01*
X90220403Y-51697744D01*
X90221008Y-51696637D01*
X90228793Y-51700888D01*
X90276766Y-51718781D01*
X90365799Y-51751989D01*
X90393050Y-51754918D01*
X90426345Y-51758499D01*
X90426362Y-51758500D01*
X91573638Y-51758500D01*
X91573654Y-51758499D01*
X91600692Y-51755591D01*
X91634201Y-51751989D01*
X91771204Y-51700889D01*
X91888261Y-51613261D01*
X91975889Y-51496204D01*
X92026989Y-51359201D01*
X92030591Y-51325692D01*
X92033499Y-51298654D01*
X92033500Y-51298637D01*
X92033500Y-50590543D01*
X92053185Y-50523504D01*
X92069819Y-50502862D01*
X93777862Y-48794819D01*
X93839185Y-48761334D01*
X93865543Y-48758500D01*
X108396920Y-48758500D01*
X108463959Y-48778185D01*
X108484601Y-48794819D01*
X108743913Y-49054131D01*
X108777398Y-49115454D01*
X108772414Y-49185146D01*
X108730542Y-49241079D01*
X108665078Y-49265496D01*
X108632041Y-49263429D01*
X108521795Y-49241500D01*
X108521791Y-49241500D01*
X108318209Y-49241500D01*
X108318206Y-49241500D01*
X108118546Y-49281215D01*
X108118534Y-49281218D01*
X107930460Y-49359120D01*
X107930447Y-49359127D01*
X107761182Y-49472227D01*
X107761178Y-49472230D01*
X107617230Y-49616178D01*
X107617227Y-49616182D01*
X107504127Y-49785447D01*
X107504120Y-49785460D01*
X107426218Y-49973534D01*
X107426215Y-49973546D01*
X107386500Y-50173204D01*
X107386500Y-50826795D01*
X107426215Y-51026453D01*
X107426218Y-51026465D01*
X107504120Y-51214539D01*
X107504127Y-51214552D01*
X107617227Y-51383817D01*
X107617230Y-51383821D01*
X107761178Y-51527769D01*
X107761182Y-51527772D01*
X107930447Y-51640872D01*
X107930460Y-51640879D01*
X108118534Y-51718781D01*
X108118539Y-51718783D01*
X108285471Y-51751988D01*
X108318204Y-51758499D01*
X108318207Y-51758500D01*
X108318209Y-51758500D01*
X108521793Y-51758500D01*
X108521794Y-51758499D01*
X108721461Y-51718783D01*
X108909546Y-51640876D01*
X108986112Y-51589715D01*
X109052786Y-51568839D01*
X109120166Y-51587323D01*
X109123832Y-51589679D01*
X109200454Y-51640876D01*
X109200457Y-51640877D01*
X109200460Y-51640879D01*
X109388534Y-51718781D01*
X109388539Y-51718783D01*
X109555471Y-51751988D01*
X109588204Y-51758499D01*
X109588207Y-51758500D01*
X109588209Y-51758500D01*
X109791793Y-51758500D01*
X109791794Y-51758499D01*
X109991461Y-51718783D01*
X110068656Y-51686807D01*
X110138122Y-51679339D01*
X110180403Y-51697744D01*
X110181008Y-51696637D01*
X110188793Y-51700888D01*
X110236766Y-51718781D01*
X110325799Y-51751989D01*
X110353050Y-51754918D01*
X110386345Y-51758499D01*
X110386362Y-51758500D01*
X111533638Y-51758500D01*
X111533654Y-51758499D01*
X111560692Y-51755591D01*
X111594201Y-51751989D01*
X111731204Y-51700889D01*
X111848261Y-51613261D01*
X111935889Y-51496204D01*
X111986989Y-51359201D01*
X111986989Y-51359198D01*
X111988771Y-51351659D01*
X111991535Y-51352312D01*
X112013126Y-51300174D01*
X112070515Y-51260320D01*
X112085485Y-51256355D01*
X112147976Y-51243925D01*
X112147977Y-51243925D01*
X112166419Y-51240256D01*
X112221247Y-51229351D01*
X112359284Y-51172174D01*
X112483515Y-51089166D01*
X114777862Y-48794819D01*
X114839185Y-48761334D01*
X114865543Y-48758500D01*
X128634457Y-48758500D01*
X128701496Y-48778185D01*
X128722138Y-48794819D01*
X129083862Y-49156543D01*
X129117347Y-49217866D01*
X129112363Y-49287558D01*
X129070491Y-49343491D01*
X129005027Y-49367908D01*
X128948729Y-49358785D01*
X128761465Y-49281218D01*
X128761453Y-49281215D01*
X128561794Y-49241500D01*
X128561791Y-49241500D01*
X128358209Y-49241500D01*
X128358206Y-49241500D01*
X128158546Y-49281215D01*
X128158534Y-49281218D01*
X127970460Y-49359120D01*
X127970447Y-49359127D01*
X127801182Y-49472227D01*
X127801178Y-49472230D01*
X127657230Y-49616178D01*
X127657227Y-49616182D01*
X127544127Y-49785447D01*
X127544120Y-49785460D01*
X127466218Y-49973534D01*
X127466215Y-49973546D01*
X127426500Y-50173204D01*
X127426500Y-50826795D01*
X127466215Y-51026453D01*
X127466218Y-51026465D01*
X127544120Y-51214539D01*
X127544127Y-51214552D01*
X127657227Y-51383817D01*
X127657230Y-51383821D01*
X127801178Y-51527769D01*
X127801182Y-51527772D01*
X127970447Y-51640872D01*
X127970460Y-51640879D01*
X128158534Y-51718781D01*
X128158539Y-51718783D01*
X128325471Y-51751988D01*
X128358204Y-51758499D01*
X128358207Y-51758500D01*
X128358209Y-51758500D01*
X128561793Y-51758500D01*
X128561794Y-51758499D01*
X128761461Y-51718783D01*
X128949546Y-51640876D01*
X129026112Y-51589715D01*
X129092786Y-51568839D01*
X129160166Y-51587323D01*
X129163832Y-51589679D01*
X129240454Y-51640876D01*
X129240457Y-51640877D01*
X129240460Y-51640879D01*
X129428534Y-51718781D01*
X129428539Y-51718783D01*
X129595471Y-51751988D01*
X129628204Y-51758499D01*
X129628207Y-51758500D01*
X129628209Y-51758500D01*
X129831793Y-51758500D01*
X129831794Y-51758499D01*
X130031461Y-51718783D01*
X130108656Y-51686807D01*
X130178122Y-51679339D01*
X130220403Y-51697744D01*
X130221008Y-51696637D01*
X130228793Y-51700888D01*
X130276766Y-51718781D01*
X130365799Y-51751989D01*
X130393050Y-51754918D01*
X130426345Y-51758499D01*
X130426362Y-51758500D01*
X131573638Y-51758500D01*
X131573654Y-51758499D01*
X131600692Y-51755591D01*
X131634201Y-51751989D01*
X131771204Y-51700889D01*
X131888261Y-51613261D01*
X131975889Y-51496204D01*
X132026989Y-51359201D01*
X132026989Y-51359195D01*
X132028220Y-51353992D01*
X132062790Y-51293274D01*
X132124698Y-51260884D01*
X132148898Y-51258500D01*
X140634457Y-51258500D01*
X140701496Y-51278185D01*
X140722138Y-51294819D01*
X148205181Y-58777862D01*
X148238666Y-58839185D01*
X148241500Y-58865543D01*
X148241500Y-73930212D01*
X148221815Y-73997251D01*
X148191839Y-74028444D01*
X148192112Y-74028769D01*
X148189093Y-74031302D01*
X148188637Y-74031777D01*
X148187974Y-74032240D01*
X148187958Y-74032254D01*
X148032252Y-74187960D01*
X148032247Y-74187967D01*
X147905946Y-74368342D01*
X147905944Y-74368346D01*
X147812881Y-74567920D01*
X147755885Y-74780627D01*
X147755884Y-74780634D01*
X147736693Y-74999997D01*
X147736693Y-75000002D01*
X147752531Y-75181043D01*
X147755885Y-75219371D01*
X147812880Y-75432076D01*
X147812881Y-75432079D01*
X147812882Y-75432081D01*
X147847948Y-75507281D01*
X147905944Y-75631654D01*
X148032251Y-75812038D01*
X148187962Y-75967749D01*
X148368346Y-76094056D01*
X148567924Y-76187120D01*
X148780629Y-76244115D01*
X148937322Y-76257823D01*
X148999998Y-76263307D01*
X149000000Y-76263307D01*
X149000002Y-76263307D01*
X149054842Y-76258509D01*
X149219371Y-76244115D01*
X149432076Y-76187120D01*
X149631654Y-76094056D01*
X149812038Y-75967749D01*
X149967749Y-75812038D01*
X150094056Y-75631654D01*
X150187120Y-75432076D01*
X150244115Y-75219371D01*
X150263307Y-75000000D01*
X150244115Y-74780629D01*
X150187120Y-74567924D01*
X150094056Y-74368347D01*
X150094054Y-74368344D01*
X150094053Y-74368342D01*
X150028086Y-74274132D01*
X149967749Y-74187962D01*
X149812038Y-74032251D01*
X149812035Y-74032249D01*
X149812025Y-74032240D01*
X149811363Y-74031777D01*
X149811140Y-74031497D01*
X149807888Y-74028769D01*
X149808436Y-74028115D01*
X149767745Y-73977194D01*
X149758500Y-73930212D01*
X149758500Y-66914641D01*
X150491500Y-66914641D01*
X150501970Y-67047668D01*
X150557321Y-67267338D01*
X150651008Y-67473595D01*
X150780014Y-67659803D01*
X150940196Y-67819985D01*
X151126404Y-67948991D01*
X151126405Y-67948991D01*
X151126409Y-67948994D01*
X151264134Y-68011551D01*
X151332661Y-68042678D01*
X151332662Y-68042678D01*
X151332664Y-68042679D01*
X151552331Y-68098030D01*
X151685364Y-68108500D01*
X151685372Y-68108500D01*
X153314628Y-68108500D01*
X153314636Y-68108500D01*
X153447669Y-68098030D01*
X153667336Y-68042679D01*
X153873591Y-67948994D01*
X154059802Y-67819986D01*
X154219986Y-67659802D01*
X154348994Y-67473591D01*
X154442679Y-67267336D01*
X154498030Y-67047669D01*
X154508500Y-66914636D01*
X154508500Y-65285364D01*
X154498030Y-65152331D01*
X154442679Y-64932664D01*
X154348994Y-64726409D01*
X154339367Y-64712514D01*
X154219985Y-64540196D01*
X154059803Y-64380014D01*
X153873595Y-64251008D01*
X153667338Y-64157321D01*
X153520891Y-64120420D01*
X153447669Y-64101970D01*
X153425496Y-64100225D01*
X153314641Y-64091500D01*
X153314636Y-64091500D01*
X151685364Y-64091500D01*
X151685358Y-64091500D01*
X151552331Y-64101970D01*
X151332661Y-64157321D01*
X151126404Y-64251008D01*
X150940196Y-64380014D01*
X150780014Y-64540196D01*
X150651008Y-64726404D01*
X150557321Y-64932661D01*
X150501970Y-65152331D01*
X150491500Y-65285358D01*
X150491500Y-66914641D01*
X149758500Y-66914641D01*
X149758500Y-59314641D01*
X150491500Y-59314641D01*
X150500225Y-59425496D01*
X150501970Y-59447669D01*
X150517298Y-59508500D01*
X150557321Y-59667338D01*
X150651008Y-59873595D01*
X150780014Y-60059803D01*
X150940196Y-60219985D01*
X151126404Y-60348991D01*
X151126405Y-60348991D01*
X151126409Y-60348994D01*
X151247058Y-60403795D01*
X151332661Y-60442678D01*
X151332662Y-60442678D01*
X151332664Y-60442679D01*
X151552331Y-60498030D01*
X151685364Y-60508500D01*
X151685372Y-60508500D01*
X153314628Y-60508500D01*
X153314636Y-60508500D01*
X153447669Y-60498030D01*
X153667336Y-60442679D01*
X153873591Y-60348994D01*
X154059802Y-60219986D01*
X154219986Y-60059802D01*
X154348994Y-59873591D01*
X154442679Y-59667336D01*
X154498030Y-59447669D01*
X154508500Y-59314636D01*
X154508500Y-57685364D01*
X154498030Y-57552331D01*
X154442679Y-57332664D01*
X154348994Y-57126409D01*
X154231528Y-56956858D01*
X154219985Y-56940196D01*
X154059803Y-56780014D01*
X153873595Y-56651008D01*
X153667338Y-56557321D01*
X153520891Y-56520420D01*
X153447669Y-56501970D01*
X153425496Y-56500225D01*
X153314641Y-56491500D01*
X153314636Y-56491500D01*
X151685364Y-56491500D01*
X151685358Y-56491500D01*
X151552331Y-56501970D01*
X151332661Y-56557321D01*
X151126404Y-56651008D01*
X150940196Y-56780014D01*
X150780014Y-56940196D01*
X150651008Y-57126404D01*
X150557321Y-57332661D01*
X150501970Y-57552331D01*
X150491500Y-57685358D01*
X150491500Y-59314641D01*
X149758500Y-59314641D01*
X149758500Y-58425291D01*
X149729352Y-58278758D01*
X149729351Y-58278756D01*
X149729351Y-58278754D01*
X149714248Y-58242293D01*
X149674677Y-58146759D01*
X149672174Y-58140716D01*
X149647004Y-58103047D01*
X149589168Y-58016488D01*
X149589167Y-58016487D01*
X149589165Y-58016484D01*
X149483516Y-57910835D01*
X147064181Y-55491500D01*
X141483518Y-49910836D01*
X141483517Y-49910835D01*
X141421399Y-49869330D01*
X141359284Y-49827826D01*
X141256972Y-49785447D01*
X141221247Y-49770649D01*
X141221239Y-49770647D01*
X141147976Y-49756074D01*
X141074709Y-49741500D01*
X141074706Y-49741500D01*
X132148898Y-49741500D01*
X132081859Y-49721815D01*
X132036104Y-49669011D01*
X132028220Y-49646008D01*
X132026989Y-49640803D01*
X132026989Y-49640799D01*
X131975889Y-49503796D01*
X131888261Y-49386739D01*
X131771204Y-49299111D01*
X131740034Y-49287485D01*
X131634203Y-49248011D01*
X131573654Y-49241500D01*
X131573638Y-49241500D01*
X131365543Y-49241500D01*
X131298504Y-49221815D01*
X131277862Y-49205181D01*
X129483518Y-47410836D01*
X129483517Y-47410835D01*
X129421399Y-47369330D01*
X129359284Y-47327826D01*
X129221247Y-47270649D01*
X129221239Y-47270647D01*
X129147976Y-47256074D01*
X129074709Y-47241500D01*
X129074706Y-47241500D01*
X114425294Y-47241500D01*
X114425290Y-47241500D01*
X114352024Y-47256074D01*
X114278760Y-47270647D01*
X114278752Y-47270649D01*
X114140717Y-47327825D01*
X114016482Y-47410835D01*
X112031784Y-49395533D01*
X111970461Y-49429018D01*
X111900769Y-49424034D01*
X111856587Y-49390962D01*
X111854536Y-49393014D01*
X111848263Y-49386742D01*
X111848261Y-49386739D01*
X111731204Y-49299111D01*
X111700034Y-49287485D01*
X111594203Y-49248011D01*
X111533654Y-49241500D01*
X111533638Y-49241500D01*
X111128006Y-49241500D01*
X111060967Y-49221815D01*
X111040325Y-49205181D01*
X109245981Y-47410836D01*
X109245980Y-47410835D01*
X109183862Y-47369330D01*
X109121747Y-47327826D01*
X108983710Y-47270649D01*
X108983702Y-47270647D01*
X108910439Y-47256074D01*
X108837172Y-47241500D01*
X108837169Y-47241500D01*
X93425294Y-47241500D01*
X93425290Y-47241500D01*
X93352024Y-47256074D01*
X93278760Y-47270647D01*
X93278752Y-47270649D01*
X93140717Y-47327825D01*
X93016482Y-47410835D01*
X93016481Y-47410836D01*
X91222138Y-49205181D01*
X91160815Y-49238666D01*
X91134457Y-49241500D01*
X90426345Y-49241500D01*
X90365797Y-49248011D01*
X90365795Y-49248011D01*
X90259966Y-49287485D01*
X90228796Y-49299111D01*
X90228792Y-49299113D01*
X90221012Y-49303362D01*
X90220125Y-49301737D01*
X90164945Y-49322315D01*
X90108657Y-49313192D01*
X90031461Y-49281217D01*
X90031454Y-49281215D01*
X90031453Y-49281215D01*
X90031453Y-49281214D01*
X89831794Y-49241500D01*
X89831791Y-49241500D01*
X89628209Y-49241500D01*
X89628206Y-49241500D01*
X89428546Y-49281215D01*
X89428534Y-49281218D01*
X89240457Y-49359122D01*
X89163890Y-49410282D01*
X89097212Y-49431159D01*
X89029832Y-49412674D01*
X89026110Y-49410282D01*
X88990875Y-49386739D01*
X88949546Y-49359124D01*
X88949543Y-49359122D01*
X88949542Y-49359122D01*
X88761465Y-49281218D01*
X88761453Y-49281215D01*
X88561794Y-49241500D01*
X88561791Y-49241500D01*
X88358209Y-49241500D01*
X88358206Y-49241500D01*
X88158546Y-49281215D01*
X88158534Y-49281218D01*
X87970460Y-49359120D01*
X87970447Y-49359127D01*
X87801182Y-49472227D01*
X87801178Y-49472230D01*
X87657230Y-49616178D01*
X87657227Y-49616182D01*
X87544127Y-49785447D01*
X87544120Y-49785460D01*
X87466218Y-49973534D01*
X87466215Y-49973546D01*
X87426500Y-50173204D01*
X87426500Y-50826795D01*
X20200500Y-50826795D01*
X20200500Y-47500000D01*
X23486807Y-47500000D01*
X23505557Y-47774130D01*
X23505558Y-47774132D01*
X23561458Y-48043141D01*
X23561463Y-48043158D01*
X23653476Y-48302056D01*
X23779889Y-48546024D01*
X23779893Y-48546030D01*
X23938340Y-48770499D01*
X23938343Y-48770502D01*
X24125889Y-48971314D01*
X24339031Y-49144718D01*
X24339033Y-49144719D01*
X24339034Y-49144720D01*
X24573801Y-49287485D01*
X24738727Y-49359122D01*
X24825823Y-49396953D01*
X25090404Y-49471085D01*
X25328384Y-49503795D01*
X25362614Y-49508500D01*
X25362615Y-49508500D01*
X25637386Y-49508500D01*
X25671616Y-49503795D01*
X25909596Y-49471085D01*
X26174177Y-49396953D01*
X26426200Y-49287484D01*
X26660969Y-49144718D01*
X26874111Y-48971314D01*
X27061657Y-48770502D01*
X27220111Y-48546023D01*
X27346523Y-48302058D01*
X27438538Y-48043153D01*
X27438539Y-48043146D01*
X27438541Y-48043141D01*
X27464491Y-47918259D01*
X27494442Y-47774130D01*
X27513193Y-47500000D01*
X27494442Y-47225870D01*
X27475141Y-47132989D01*
X27438541Y-46956858D01*
X27438536Y-46956841D01*
X27346523Y-46697943D01*
X27346523Y-46697942D01*
X27220111Y-46453977D01*
X27220110Y-46453975D01*
X27220106Y-46453969D01*
X27061659Y-46229500D01*
X27043031Y-46209555D01*
X26874111Y-46028686D01*
X26660969Y-45855282D01*
X26660967Y-45855281D01*
X26660965Y-45855279D01*
X26426198Y-45712514D01*
X26174178Y-45603047D01*
X25909602Y-45528916D01*
X25909597Y-45528915D01*
X25909596Y-45528915D01*
X25773490Y-45510207D01*
X25637386Y-45491500D01*
X25637385Y-45491500D01*
X25362615Y-45491500D01*
X25362614Y-45491500D01*
X25090404Y-45528915D01*
X25090397Y-45528916D01*
X24825821Y-45603047D01*
X24573801Y-45712514D01*
X24339034Y-45855279D01*
X24125892Y-46028683D01*
X23938340Y-46229500D01*
X23779893Y-46453969D01*
X23779889Y-46453975D01*
X23653476Y-46697943D01*
X23561463Y-46956841D01*
X23561458Y-46956858D01*
X23505558Y-47225867D01*
X23505557Y-47225869D01*
X23486807Y-47500000D01*
X20200500Y-47500000D01*
X20200500Y-41000000D01*
X32236602Y-41000000D01*
X32256177Y-41348585D01*
X32256179Y-41348597D01*
X32314660Y-41692792D01*
X32314662Y-41692800D01*
X32411317Y-42028294D01*
X32544921Y-42350846D01*
X32544923Y-42350850D01*
X32713811Y-42656428D01*
X32915851Y-42941178D01*
X33148493Y-43201503D01*
X33148496Y-43201506D01*
X33408821Y-43434148D01*
X33408827Y-43434152D01*
X33408828Y-43434153D01*
X33693572Y-43636189D01*
X33999147Y-43805075D01*
X33999149Y-43805076D01*
X33999153Y-43805078D01*
X34321705Y-43938682D01*
X34321710Y-43938684D01*
X34657204Y-44035339D01*
X35001410Y-44093822D01*
X35350000Y-44113398D01*
X35698590Y-44093822D01*
X36042796Y-44035339D01*
X36378290Y-43938684D01*
X36700853Y-43805075D01*
X37006428Y-43636189D01*
X37291172Y-43434153D01*
X37551505Y-43201505D01*
X37784153Y-42941172D01*
X37986189Y-42656428D01*
X38155075Y-42350853D01*
X38288684Y-42028290D01*
X38385339Y-41692796D01*
X38443822Y-41348590D01*
X38463398Y-41000000D01*
X61536602Y-41000000D01*
X61556177Y-41348585D01*
X61556179Y-41348597D01*
X61614660Y-41692792D01*
X61614662Y-41692800D01*
X61711317Y-42028294D01*
X61844921Y-42350846D01*
X61844923Y-42350850D01*
X62013811Y-42656428D01*
X62215851Y-42941178D01*
X62448493Y-43201503D01*
X62448496Y-43201506D01*
X62708821Y-43434148D01*
X62708827Y-43434152D01*
X62708828Y-43434153D01*
X62993572Y-43636189D01*
X63299147Y-43805075D01*
X63299149Y-43805076D01*
X63299153Y-43805078D01*
X63621705Y-43938682D01*
X63621710Y-43938684D01*
X63957204Y-44035339D01*
X64301410Y-44093822D01*
X64650000Y-44113398D01*
X64998590Y-44093822D01*
X65342796Y-44035339D01*
X65678290Y-43938684D01*
X66000853Y-43805075D01*
X66306428Y-43636189D01*
X66591172Y-43434153D01*
X66851505Y-43201505D01*
X67084153Y-42941172D01*
X67286189Y-42656428D01*
X67455075Y-42350853D01*
X67588684Y-42028290D01*
X67604724Y-41972613D01*
X73491500Y-41972613D01*
X73498011Y-42033161D01*
X73498011Y-42033163D01*
X73549111Y-42170163D01*
X73636739Y-42287220D01*
X73753796Y-42374848D01*
X73890799Y-42425948D01*
X73918050Y-42428877D01*
X73951345Y-42432458D01*
X73951362Y-42432459D01*
X76048638Y-42432459D01*
X76048654Y-42432458D01*
X76075692Y-42429550D01*
X76109201Y-42425948D01*
X76246204Y-42374848D01*
X76363261Y-42287220D01*
X76450889Y-42170163D01*
X76501989Y-42033160D01*
X76505591Y-41999651D01*
X76508499Y-41972613D01*
X76508500Y-41972596D01*
X76508500Y-40048654D01*
X106959000Y-40048654D01*
X106965511Y-40109202D01*
X106965511Y-40109204D01*
X107009493Y-40227121D01*
X107016611Y-40246204D01*
X107104239Y-40363261D01*
X107221296Y-40450889D01*
X107358299Y-40501989D01*
X107385550Y-40504918D01*
X107418845Y-40508499D01*
X107418862Y-40508500D01*
X109421138Y-40508500D01*
X109421154Y-40508499D01*
X109448192Y-40505591D01*
X109481701Y-40501989D01*
X109618704Y-40450889D01*
X109735761Y-40363261D01*
X109823389Y-40246204D01*
X109830507Y-40227119D01*
X109872377Y-40171187D01*
X109937842Y-40146770D01*
X110006115Y-40161622D01*
X110019566Y-40170131D01*
X110194269Y-40297060D01*
X110291078Y-40346386D01*
X110399166Y-40401460D01*
X110399168Y-40401460D01*
X110399171Y-40401462D01*
X110516404Y-40439553D01*
X110617881Y-40472526D01*
X110845012Y-40508500D01*
X110845017Y-40508500D01*
X111074988Y-40508500D01*
X111302118Y-40472526D01*
X111368712Y-40450888D01*
X111520829Y-40401462D01*
X111725731Y-40297060D01*
X111911778Y-40161889D01*
X112025013Y-40048654D01*
X126959000Y-40048654D01*
X126965511Y-40109202D01*
X126965511Y-40109204D01*
X127009493Y-40227121D01*
X127016611Y-40246204D01*
X127104239Y-40363261D01*
X127221296Y-40450889D01*
X127358299Y-40501989D01*
X127385550Y-40504918D01*
X127418845Y-40508499D01*
X127418862Y-40508500D01*
X129421138Y-40508500D01*
X129421154Y-40508499D01*
X129448192Y-40505591D01*
X129481701Y-40501989D01*
X129618704Y-40450889D01*
X129735761Y-40363261D01*
X129823389Y-40246204D01*
X129830507Y-40227119D01*
X129872377Y-40171187D01*
X129937842Y-40146770D01*
X130006115Y-40161622D01*
X130019566Y-40170131D01*
X130194269Y-40297060D01*
X130291078Y-40346386D01*
X130399166Y-40401460D01*
X130399168Y-40401460D01*
X130399171Y-40401462D01*
X130516404Y-40439553D01*
X130617881Y-40472526D01*
X130845012Y-40508500D01*
X130845017Y-40508500D01*
X131074988Y-40508500D01*
X131302118Y-40472526D01*
X131368712Y-40450888D01*
X131520829Y-40401462D01*
X131725731Y-40297060D01*
X131911778Y-40161889D01*
X132074389Y-39999278D01*
X132209560Y-39813231D01*
X132313962Y-39608329D01*
X132385026Y-39389618D01*
X132392319Y-39343571D01*
X132421000Y-39162488D01*
X132421000Y-39000000D01*
X150486807Y-39000000D01*
X150505557Y-39274130D01*
X150505558Y-39274132D01*
X150561458Y-39543141D01*
X150561463Y-39543158D01*
X150653476Y-39802056D01*
X150779889Y-40046024D01*
X150779893Y-40046030D01*
X150938340Y-40270499D01*
X150938343Y-40270502D01*
X151125889Y-40471314D01*
X151339031Y-40644718D01*
X151339033Y-40644719D01*
X151339034Y-40644720D01*
X151573801Y-40787485D01*
X151778348Y-40876331D01*
X151825823Y-40896953D01*
X152090404Y-40971085D01*
X152329720Y-41003978D01*
X152362614Y-41008500D01*
X152362615Y-41008500D01*
X152637386Y-41008500D01*
X152666733Y-41004466D01*
X152909596Y-40971085D01*
X153174177Y-40896953D01*
X153426200Y-40787484D01*
X153660969Y-40644718D01*
X153874111Y-40471314D01*
X154061657Y-40270502D01*
X154220111Y-40046023D01*
X154346523Y-39802058D01*
X154438538Y-39543153D01*
X154438539Y-39543146D01*
X154438541Y-39543141D01*
X154470443Y-39389618D01*
X154494442Y-39274130D01*
X154513193Y-39000000D01*
X154494442Y-38725870D01*
X154470443Y-38610381D01*
X154438541Y-38456858D01*
X154438536Y-38456841D01*
X154346523Y-38197943D01*
X154346523Y-38197942D01*
X154225995Y-37965333D01*
X154220110Y-37953975D01*
X154220106Y-37953969D01*
X154061659Y-37729500D01*
X154021750Y-37686768D01*
X153874111Y-37528686D01*
X153660969Y-37355282D01*
X153660967Y-37355281D01*
X153660965Y-37355279D01*
X153426198Y-37212514D01*
X153174178Y-37103047D01*
X152909602Y-37028916D01*
X152909597Y-37028915D01*
X152909596Y-37028915D01*
X152773490Y-37010207D01*
X152637386Y-36991500D01*
X152637385Y-36991500D01*
X152362615Y-36991500D01*
X152362614Y-36991500D01*
X152090404Y-37028915D01*
X152090397Y-37028916D01*
X151825821Y-37103047D01*
X151573801Y-37212514D01*
X151339034Y-37355279D01*
X151125892Y-37528683D01*
X150938340Y-37729500D01*
X150779893Y-37953969D01*
X150779889Y-37953975D01*
X150653476Y-38197943D01*
X150561463Y-38456841D01*
X150561458Y-38456858D01*
X150505558Y-38725867D01*
X150505557Y-38725869D01*
X150486807Y-39000000D01*
X132421000Y-39000000D01*
X132421000Y-38837511D01*
X132385026Y-38610381D01*
X132313960Y-38391666D01*
X132215253Y-38197943D01*
X132209560Y-38186769D01*
X132074389Y-38000722D01*
X131911778Y-37838111D01*
X131725731Y-37702940D01*
X131520833Y-37598539D01*
X131302118Y-37527473D01*
X131074988Y-37491500D01*
X131074983Y-37491500D01*
X130845017Y-37491500D01*
X130845012Y-37491500D01*
X130617881Y-37527473D01*
X130399166Y-37598539D01*
X130194265Y-37702942D01*
X130019573Y-37829863D01*
X129953767Y-37853343D01*
X129885713Y-37837517D01*
X129837018Y-37787412D01*
X129830507Y-37772880D01*
X129823389Y-37753796D01*
X129735761Y-37636739D01*
X129618704Y-37549111D01*
X129481703Y-37498011D01*
X129421154Y-37491500D01*
X129421138Y-37491500D01*
X127418862Y-37491500D01*
X127418845Y-37491500D01*
X127358297Y-37498011D01*
X127358295Y-37498011D01*
X127221295Y-37549111D01*
X127104239Y-37636739D01*
X127016611Y-37753795D01*
X126965511Y-37890795D01*
X126965511Y-37890797D01*
X126959000Y-37951345D01*
X126959000Y-40048654D01*
X112025013Y-40048654D01*
X112074389Y-39999278D01*
X112209560Y-39813231D01*
X112313962Y-39608329D01*
X112385026Y-39389618D01*
X112392319Y-39343571D01*
X112421000Y-39162488D01*
X112421000Y-38837511D01*
X112385026Y-38610381D01*
X112313960Y-38391666D01*
X112215253Y-38197943D01*
X112209560Y-38186769D01*
X112074389Y-38000722D01*
X111911778Y-37838111D01*
X111725731Y-37702940D01*
X111520833Y-37598539D01*
X111302118Y-37527473D01*
X111074988Y-37491500D01*
X111074983Y-37491500D01*
X110845017Y-37491500D01*
X110845012Y-37491500D01*
X110617881Y-37527473D01*
X110399166Y-37598539D01*
X110194265Y-37702942D01*
X110019573Y-37829863D01*
X109953767Y-37853343D01*
X109885713Y-37837517D01*
X109837018Y-37787412D01*
X109830507Y-37772880D01*
X109823389Y-37753796D01*
X109735761Y-37636739D01*
X109618704Y-37549111D01*
X109481703Y-37498011D01*
X109421154Y-37491500D01*
X109421138Y-37491500D01*
X107418862Y-37491500D01*
X107418845Y-37491500D01*
X107358297Y-37498011D01*
X107358295Y-37498011D01*
X107221295Y-37549111D01*
X107104239Y-37636739D01*
X107016611Y-37753795D01*
X106965511Y-37890795D01*
X106965511Y-37890797D01*
X106959000Y-37951345D01*
X106959000Y-40048654D01*
X76508500Y-40048654D01*
X76508500Y-39875321D01*
X76508499Y-39875304D01*
X76505157Y-39844229D01*
X76501989Y-39814758D01*
X76501419Y-39813231D01*
X76469302Y-39727121D01*
X76450889Y-39677755D01*
X76363261Y-39560698D01*
X76347172Y-39548654D01*
X86959000Y-39548654D01*
X86965511Y-39609202D01*
X86965511Y-39609204D01*
X87009493Y-39727121D01*
X87016611Y-39746204D01*
X87104239Y-39863261D01*
X87221296Y-39950889D01*
X87336449Y-39993839D01*
X87351030Y-39999278D01*
X87358299Y-40001989D01*
X87385550Y-40004918D01*
X87418845Y-40008499D01*
X87418862Y-40008500D01*
X89421138Y-40008500D01*
X89421154Y-40008499D01*
X89448192Y-40005591D01*
X89481701Y-40001989D01*
X89488970Y-39999278D01*
X89496268Y-39996555D01*
X89618704Y-39950889D01*
X89735761Y-39863261D01*
X89823389Y-39746204D01*
X89830507Y-39727119D01*
X89872377Y-39671187D01*
X89937842Y-39646770D01*
X90006115Y-39661622D01*
X90019566Y-39670131D01*
X90194269Y-39797060D01*
X90226007Y-39813231D01*
X90399166Y-39901460D01*
X90399168Y-39901460D01*
X90399171Y-39901462D01*
X90516404Y-39939553D01*
X90617881Y-39972526D01*
X90845012Y-40008500D01*
X90845017Y-40008500D01*
X91074988Y-40008500D01*
X91302118Y-39972526D01*
X91368712Y-39950888D01*
X91520829Y-39901462D01*
X91725731Y-39797060D01*
X91911778Y-39661889D01*
X92074389Y-39499278D01*
X92209560Y-39313231D01*
X92313962Y-39108329D01*
X92385026Y-38889618D01*
X92399458Y-38798496D01*
X92421000Y-38662488D01*
X92421000Y-38337511D01*
X92385026Y-38110381D01*
X92337678Y-37964660D01*
X92313962Y-37891671D01*
X92313960Y-37891668D01*
X92313960Y-37891666D01*
X92209559Y-37686768D01*
X92145456Y-37598538D01*
X92074389Y-37500722D01*
X91911778Y-37338111D01*
X91725731Y-37202940D01*
X91520833Y-37098539D01*
X91302118Y-37027473D01*
X91074988Y-36991500D01*
X91074983Y-36991500D01*
X90845017Y-36991500D01*
X90845012Y-36991500D01*
X90617881Y-37027473D01*
X90399166Y-37098539D01*
X90194265Y-37202942D01*
X90019573Y-37329863D01*
X89953767Y-37353343D01*
X89885713Y-37337517D01*
X89837018Y-37287412D01*
X89830507Y-37272880D01*
X89823389Y-37253796D01*
X89735761Y-37136739D01*
X89618704Y-37049111D01*
X89564560Y-37028916D01*
X89481703Y-36998011D01*
X89421154Y-36991500D01*
X89421138Y-36991500D01*
X87418862Y-36991500D01*
X87418845Y-36991500D01*
X87358297Y-36998011D01*
X87358295Y-36998011D01*
X87221295Y-37049111D01*
X87104239Y-37136739D01*
X87016611Y-37253795D01*
X86965511Y-37390795D01*
X86965511Y-37390797D01*
X86959000Y-37451345D01*
X86959000Y-39548654D01*
X76347172Y-39548654D01*
X76246204Y-39473070D01*
X76109203Y-39421970D01*
X76048654Y-39415459D01*
X76048638Y-39415459D01*
X73951362Y-39415459D01*
X73951345Y-39415459D01*
X73890797Y-39421970D01*
X73890795Y-39421970D01*
X73753795Y-39473070D01*
X73636739Y-39560698D01*
X73549111Y-39677754D01*
X73498011Y-39814754D01*
X73498011Y-39814756D01*
X73491500Y-39875304D01*
X73491500Y-41972613D01*
X67604724Y-41972613D01*
X67685339Y-41692796D01*
X67743822Y-41348590D01*
X67763398Y-41000000D01*
X67743822Y-40651410D01*
X67685339Y-40307204D01*
X67588684Y-39971710D01*
X67523671Y-39814754D01*
X67455078Y-39649153D01*
X67455076Y-39649149D01*
X67432998Y-39609202D01*
X67286189Y-39343572D01*
X67084153Y-39058828D01*
X67084152Y-39058827D01*
X67084148Y-39058821D01*
X66851506Y-38798496D01*
X66851503Y-38798493D01*
X66591178Y-38565851D01*
X66306428Y-38363811D01*
X66000850Y-38194923D01*
X66000846Y-38194921D01*
X65678294Y-38061317D01*
X65342800Y-37964662D01*
X65342792Y-37964660D01*
X64998597Y-37906179D01*
X64998585Y-37906177D01*
X64650000Y-37886602D01*
X64301414Y-37906177D01*
X64301402Y-37906179D01*
X63957207Y-37964660D01*
X63957199Y-37964662D01*
X63621705Y-38061317D01*
X63299153Y-38194921D01*
X63299149Y-38194923D01*
X62993571Y-38363811D01*
X62708821Y-38565851D01*
X62448496Y-38798493D01*
X62448493Y-38798496D01*
X62215851Y-39058821D01*
X62013811Y-39343571D01*
X61844923Y-39649149D01*
X61844921Y-39649153D01*
X61711317Y-39971705D01*
X61614662Y-40307199D01*
X61614660Y-40307207D01*
X61556179Y-40651402D01*
X61556177Y-40651414D01*
X61536602Y-41000000D01*
X38463398Y-41000000D01*
X38443822Y-40651410D01*
X38385339Y-40307204D01*
X38288684Y-39971710D01*
X38223671Y-39814754D01*
X38155078Y-39649153D01*
X38155076Y-39649149D01*
X38132998Y-39609202D01*
X37986189Y-39343572D01*
X37784153Y-39058828D01*
X37784152Y-39058827D01*
X37784148Y-39058821D01*
X37551506Y-38798496D01*
X37551503Y-38798493D01*
X37291178Y-38565851D01*
X37006428Y-38363811D01*
X36700850Y-38194923D01*
X36700846Y-38194921D01*
X36378294Y-38061317D01*
X36042800Y-37964662D01*
X36042792Y-37964660D01*
X35698597Y-37906179D01*
X35698585Y-37906177D01*
X35350000Y-37886602D01*
X35001414Y-37906177D01*
X35001402Y-37906179D01*
X34657207Y-37964660D01*
X34657199Y-37964662D01*
X34321705Y-38061317D01*
X33999153Y-38194921D01*
X33999149Y-38194923D01*
X33693571Y-38363811D01*
X33408821Y-38565851D01*
X33148496Y-38798493D01*
X33148493Y-38798496D01*
X32915851Y-39058821D01*
X32713811Y-39343571D01*
X32544923Y-39649149D01*
X32544921Y-39649153D01*
X32411317Y-39971705D01*
X32314662Y-40307199D01*
X32314660Y-40307207D01*
X32256179Y-40651402D01*
X32256177Y-40651414D01*
X32236602Y-41000000D01*
X20200500Y-41000000D01*
X20200500Y-31400000D01*
X150486807Y-31400000D01*
X150505557Y-31674130D01*
X150505558Y-31674132D01*
X150561458Y-31943141D01*
X150561463Y-31943158D01*
X150653476Y-32202056D01*
X150779889Y-32446024D01*
X150779893Y-32446030D01*
X150938340Y-32670499D01*
X150938343Y-32670502D01*
X151125889Y-32871314D01*
X151339031Y-33044718D01*
X151339033Y-33044719D01*
X151339034Y-33044720D01*
X151573801Y-33187485D01*
X151778348Y-33276331D01*
X151825823Y-33296953D01*
X152090404Y-33371085D01*
X152329720Y-33403978D01*
X152362614Y-33408500D01*
X152362615Y-33408500D01*
X152637386Y-33408500D01*
X152666733Y-33404466D01*
X152909596Y-33371085D01*
X153174177Y-33296953D01*
X153426200Y-33187484D01*
X153660969Y-33044718D01*
X153874111Y-32871314D01*
X154061657Y-32670502D01*
X154220111Y-32446023D01*
X154346523Y-32202058D01*
X154438538Y-31943153D01*
X154438539Y-31943146D01*
X154438541Y-31943141D01*
X154464491Y-31818259D01*
X154494442Y-31674130D01*
X154513193Y-31400000D01*
X154494442Y-31125870D01*
X154475141Y-31032989D01*
X154438541Y-30856858D01*
X154438536Y-30856841D01*
X154346523Y-30597943D01*
X154346523Y-30597942D01*
X154220111Y-30353977D01*
X154220110Y-30353975D01*
X154220106Y-30353969D01*
X154061659Y-30129500D01*
X154043031Y-30109555D01*
X153874111Y-29928686D01*
X153660969Y-29755282D01*
X153660967Y-29755281D01*
X153660965Y-29755279D01*
X153426198Y-29612514D01*
X153174178Y-29503047D01*
X152909602Y-29428916D01*
X152909597Y-29428915D01*
X152909596Y-29428915D01*
X152773490Y-29410207D01*
X152637386Y-29391500D01*
X152637385Y-29391500D01*
X152362615Y-29391500D01*
X152362614Y-29391500D01*
X152090404Y-29428915D01*
X152090397Y-29428916D01*
X151825821Y-29503047D01*
X151573801Y-29612514D01*
X151339034Y-29755279D01*
X151125892Y-29928683D01*
X150938340Y-30129500D01*
X150779893Y-30353969D01*
X150779889Y-30353975D01*
X150653476Y-30597943D01*
X150561463Y-30856841D01*
X150561458Y-30856858D01*
X150505558Y-31125867D01*
X150505557Y-31125869D01*
X150486807Y-31400000D01*
X20200500Y-31400000D01*
X20200500Y-25002706D01*
X20200559Y-25000000D01*
X21286411Y-25000000D01*
X21306754Y-25388177D01*
X21320200Y-25473070D01*
X21367562Y-25772099D01*
X21467405Y-26144720D01*
X21468169Y-26147569D01*
X21607469Y-26510456D01*
X21783940Y-26856799D01*
X21995637Y-27182785D01*
X21995641Y-27182790D01*
X21995643Y-27182793D01*
X22240266Y-27484876D01*
X22515124Y-27759734D01*
X22817207Y-28004357D01*
X22817211Y-28004359D01*
X22817214Y-28004362D01*
X23143200Y-28216059D01*
X23143205Y-28216062D01*
X23489547Y-28392532D01*
X23852438Y-28531833D01*
X24227901Y-28632438D01*
X24611824Y-28693246D01*
X24978530Y-28712463D01*
X24999999Y-28713589D01*
X25000000Y-28713589D01*
X25000001Y-28713589D01*
X25020344Y-28712522D01*
X25388176Y-28693246D01*
X25772099Y-28632438D01*
X26147562Y-28531833D01*
X26510453Y-28392532D01*
X26856795Y-28216062D01*
X27182793Y-28004357D01*
X27221993Y-27972613D01*
X72991500Y-27972613D01*
X72998011Y-28033161D01*
X72998011Y-28033163D01*
X73049111Y-28170163D01*
X73136739Y-28287220D01*
X73253796Y-28374848D01*
X73390799Y-28425948D01*
X73418050Y-28428877D01*
X73451345Y-28432458D01*
X73451362Y-28432459D01*
X75548638Y-28432459D01*
X75548654Y-28432458D01*
X75575692Y-28429550D01*
X75609201Y-28425948D01*
X75746204Y-28374848D01*
X75863261Y-28287220D01*
X75950889Y-28170163D01*
X76001989Y-28033160D01*
X76005591Y-27999651D01*
X76008499Y-27972613D01*
X76008500Y-27972596D01*
X76008500Y-25875321D01*
X76008499Y-25875304D01*
X76005157Y-25844229D01*
X76001989Y-25814758D01*
X75997251Y-25802056D01*
X75979522Y-25754523D01*
X75950889Y-25677755D01*
X75863261Y-25560698D01*
X75746204Y-25473070D01*
X75740877Y-25471083D01*
X75609203Y-25421970D01*
X75548654Y-25415459D01*
X75548638Y-25415459D01*
X73451362Y-25415459D01*
X73451345Y-25415459D01*
X73390797Y-25421970D01*
X73390795Y-25421970D01*
X73253795Y-25473070D01*
X73136739Y-25560698D01*
X73049111Y-25677754D01*
X72998011Y-25814754D01*
X72998011Y-25814756D01*
X72991500Y-25875304D01*
X72991500Y-27972613D01*
X27221993Y-27972613D01*
X27484876Y-27759734D01*
X27759734Y-27484876D01*
X28004357Y-27182793D01*
X28216062Y-26856795D01*
X28392532Y-26510453D01*
X28531833Y-26147562D01*
X28632438Y-25772099D01*
X28693246Y-25388176D01*
X28713589Y-25000000D01*
X28705043Y-24836932D01*
X28721192Y-24768955D01*
X28771529Y-24720499D01*
X28840072Y-24706950D01*
X28905060Y-24732609D01*
X28930177Y-24758934D01*
X28938343Y-24770502D01*
X29125889Y-24971314D01*
X29339031Y-25144718D01*
X29339033Y-25144719D01*
X29339034Y-25144720D01*
X29573801Y-25287485D01*
X29778348Y-25376331D01*
X29825823Y-25396953D01*
X30090404Y-25471085D01*
X30329720Y-25503978D01*
X30362614Y-25508500D01*
X30362615Y-25508500D01*
X30637386Y-25508500D01*
X30666733Y-25504466D01*
X30909596Y-25471085D01*
X31174177Y-25396953D01*
X31426200Y-25287484D01*
X31660969Y-25144718D01*
X31874111Y-24971314D01*
X32061657Y-24770502D01*
X32220111Y-24546023D01*
X32243958Y-24500000D01*
X67486807Y-24500000D01*
X67505557Y-24774130D01*
X67505558Y-24774132D01*
X67561458Y-25043141D01*
X67561463Y-25043158D01*
X67653476Y-25302056D01*
X67779889Y-25546024D01*
X67779893Y-25546030D01*
X67938340Y-25770499D01*
X67938343Y-25770502D01*
X68125889Y-25971314D01*
X68339031Y-26144718D01*
X68339033Y-26144719D01*
X68339034Y-26144720D01*
X68573801Y-26287485D01*
X68778348Y-26376331D01*
X68825823Y-26396953D01*
X69090404Y-26471085D01*
X69329720Y-26503978D01*
X69362614Y-26508500D01*
X69362615Y-26508500D01*
X69637386Y-26508500D01*
X69666733Y-26504466D01*
X69909596Y-26471085D01*
X70174177Y-26396953D01*
X70426200Y-26287484D01*
X70660969Y-26144718D01*
X70874111Y-25971314D01*
X71061657Y-25770502D01*
X71220111Y-25546023D01*
X71346523Y-25302058D01*
X71438538Y-25043153D01*
X71438539Y-25043146D01*
X71438541Y-25043141D01*
X71447506Y-25000000D01*
X144486807Y-25000000D01*
X144505557Y-25274130D01*
X144505558Y-25274132D01*
X144561458Y-25543141D01*
X144561463Y-25543158D01*
X144653476Y-25802056D01*
X144779889Y-26046024D01*
X144779893Y-26046030D01*
X144938340Y-26270499D01*
X144938343Y-26270502D01*
X145125889Y-26471314D01*
X145339031Y-26644718D01*
X145339033Y-26644719D01*
X145339034Y-26644720D01*
X145573801Y-26787485D01*
X145733370Y-26856795D01*
X145825823Y-26896953D01*
X146090404Y-26971085D01*
X146329720Y-27003978D01*
X146362614Y-27008500D01*
X146362615Y-27008500D01*
X146637386Y-27008500D01*
X146666733Y-27004466D01*
X146909596Y-26971085D01*
X147174177Y-26896953D01*
X147426200Y-26787484D01*
X147660969Y-26644718D01*
X147874111Y-26471314D01*
X148061657Y-26270502D01*
X148220111Y-26046023D01*
X148346523Y-25802058D01*
X148438538Y-25543153D01*
X148438539Y-25543146D01*
X148438541Y-25543141D01*
X148468919Y-25396952D01*
X148494442Y-25274130D01*
X148513193Y-25000000D01*
X151286411Y-25000000D01*
X151306754Y-25388177D01*
X151320200Y-25473070D01*
X151367562Y-25772099D01*
X151467405Y-26144720D01*
X151468169Y-26147569D01*
X151607469Y-26510456D01*
X151783940Y-26856799D01*
X151995637Y-27182785D01*
X151995641Y-27182790D01*
X151995643Y-27182793D01*
X152240266Y-27484876D01*
X152515124Y-27759734D01*
X152817207Y-28004357D01*
X152817211Y-28004359D01*
X152817214Y-28004362D01*
X153143200Y-28216059D01*
X153143205Y-28216062D01*
X153489547Y-28392532D01*
X153852438Y-28531833D01*
X154227901Y-28632438D01*
X154611824Y-28693246D01*
X154978530Y-28712463D01*
X154999999Y-28713589D01*
X155000000Y-28713589D01*
X155000001Y-28713589D01*
X155020344Y-28712522D01*
X155388176Y-28693246D01*
X155772099Y-28632438D01*
X156147562Y-28531833D01*
X156510453Y-28392532D01*
X156856795Y-28216062D01*
X157182793Y-28004357D01*
X157484876Y-27759734D01*
X157759734Y-27484876D01*
X158004357Y-27182793D01*
X158216062Y-26856795D01*
X158392532Y-26510453D01*
X158531833Y-26147562D01*
X158632438Y-25772099D01*
X158693246Y-25388176D01*
X158713589Y-25000000D01*
X158693246Y-24611824D01*
X158632438Y-24227901D01*
X158531833Y-23852438D01*
X158392532Y-23489547D01*
X158216062Y-23143206D01*
X158141841Y-23028915D01*
X158004362Y-22817214D01*
X158004359Y-22817211D01*
X158004357Y-22817207D01*
X157759734Y-22515124D01*
X157484876Y-22240266D01*
X157182793Y-21995643D01*
X157182790Y-21995641D01*
X157182785Y-21995637D01*
X156856799Y-21783940D01*
X156510456Y-21607469D01*
X156147569Y-21468169D01*
X156147562Y-21468167D01*
X155772099Y-21367562D01*
X155772095Y-21367561D01*
X155772094Y-21367561D01*
X155388177Y-21306754D01*
X155000001Y-21286411D01*
X154999999Y-21286411D01*
X154611822Y-21306754D01*
X154227906Y-21367561D01*
X154227904Y-21367561D01*
X153852430Y-21468169D01*
X153489543Y-21607469D01*
X153143201Y-21783940D01*
X152817214Y-21995637D01*
X152515128Y-22240262D01*
X152515120Y-22240269D01*
X152240269Y-22515120D01*
X152240262Y-22515128D01*
X151995637Y-22817214D01*
X151783940Y-23143201D01*
X151607469Y-23489543D01*
X151468169Y-23852430D01*
X151367561Y-24227904D01*
X151367561Y-24227906D01*
X151306754Y-24611822D01*
X151286411Y-24999999D01*
X151286411Y-25000000D01*
X148513193Y-25000000D01*
X148494442Y-24725870D01*
X148470742Y-24611822D01*
X148438541Y-24456858D01*
X148438536Y-24456841D01*
X148357172Y-24227906D01*
X148346523Y-24197942D01*
X148220111Y-23953977D01*
X148220110Y-23953975D01*
X148220106Y-23953969D01*
X148061659Y-23729500D01*
X148032186Y-23697942D01*
X147874111Y-23528686D01*
X147660969Y-23355282D01*
X147660967Y-23355281D01*
X147660965Y-23355279D01*
X147426198Y-23212514D01*
X147174178Y-23103047D01*
X146909602Y-23028916D01*
X146909597Y-23028915D01*
X146909596Y-23028915D01*
X146773490Y-23010207D01*
X146637386Y-22991500D01*
X146637385Y-22991500D01*
X146362615Y-22991500D01*
X146362614Y-22991500D01*
X146090404Y-23028915D01*
X146090397Y-23028916D01*
X145825821Y-23103047D01*
X145573801Y-23212514D01*
X145339034Y-23355279D01*
X145125892Y-23528683D01*
X144938340Y-23729500D01*
X144779893Y-23953969D01*
X144779889Y-23953975D01*
X144653476Y-24197943D01*
X144561463Y-24456841D01*
X144561458Y-24456858D01*
X144505558Y-24725867D01*
X144505557Y-24725869D01*
X144486807Y-25000000D01*
X71447506Y-25000000D01*
X71481391Y-24836933D01*
X71494442Y-24774130D01*
X71513193Y-24500000D01*
X71494442Y-24225870D01*
X71456473Y-24043153D01*
X71438541Y-23956858D01*
X71438536Y-23956841D01*
X71365959Y-23752630D01*
X71346523Y-23697942D01*
X71220111Y-23453977D01*
X71220110Y-23453975D01*
X71220106Y-23453969D01*
X71061659Y-23229500D01*
X71043031Y-23209555D01*
X70874111Y-23028686D01*
X70660969Y-22855282D01*
X70660967Y-22855281D01*
X70660965Y-22855279D01*
X70426198Y-22712514D01*
X70174178Y-22603047D01*
X69909602Y-22528916D01*
X69909597Y-22528915D01*
X69909596Y-22528915D01*
X69773490Y-22510207D01*
X69637386Y-22491500D01*
X69637385Y-22491500D01*
X69362615Y-22491500D01*
X69362614Y-22491500D01*
X69090404Y-22528915D01*
X69090397Y-22528916D01*
X68825821Y-22603047D01*
X68573801Y-22712514D01*
X68339034Y-22855279D01*
X68125892Y-23028683D01*
X67938340Y-23229500D01*
X67779893Y-23453969D01*
X67779889Y-23453975D01*
X67653476Y-23697943D01*
X67561463Y-23956841D01*
X67561458Y-23956858D01*
X67505558Y-24225867D01*
X67505557Y-24225869D01*
X67486807Y-24500000D01*
X32243958Y-24500000D01*
X32346523Y-24302058D01*
X32438538Y-24043153D01*
X32438539Y-24043146D01*
X32438541Y-24043141D01*
X32489975Y-23795626D01*
X32494442Y-23774130D01*
X32513193Y-23500000D01*
X32494442Y-23225870D01*
X32468919Y-23103047D01*
X32438541Y-22956858D01*
X32438536Y-22956841D01*
X32388910Y-22817207D01*
X32346523Y-22697942D01*
X32220111Y-22453977D01*
X32220110Y-22453975D01*
X32220106Y-22453969D01*
X32061659Y-22229500D01*
X32043031Y-22209555D01*
X31874111Y-22028686D01*
X31660969Y-21855282D01*
X31660967Y-21855281D01*
X31660965Y-21855279D01*
X31426198Y-21712514D01*
X31174178Y-21603047D01*
X30909602Y-21528916D01*
X30909597Y-21528915D01*
X30909596Y-21528915D01*
X30773490Y-21510207D01*
X30637386Y-21491500D01*
X30637385Y-21491500D01*
X30362615Y-21491500D01*
X30362614Y-21491500D01*
X30090404Y-21528915D01*
X30090397Y-21528916D01*
X29825821Y-21603047D01*
X29573801Y-21712514D01*
X29339034Y-21855279D01*
X29125892Y-22028683D01*
X28938340Y-22229500D01*
X28779893Y-22453969D01*
X28779889Y-22453975D01*
X28653476Y-22697943D01*
X28561463Y-22956841D01*
X28561459Y-22956855D01*
X28505657Y-23225391D01*
X28472745Y-23287023D01*
X28411736Y-23321078D01*
X28342001Y-23316742D01*
X28285680Y-23275394D01*
X28273766Y-23256457D01*
X28260030Y-23229498D01*
X28216062Y-23143206D01*
X28141841Y-23028915D01*
X28004362Y-22817214D01*
X28004359Y-22817211D01*
X28004357Y-22817207D01*
X27759734Y-22515124D01*
X27484876Y-22240266D01*
X27182793Y-21995643D01*
X27182790Y-21995641D01*
X27182785Y-21995637D01*
X26856799Y-21783940D01*
X26510456Y-21607469D01*
X26147569Y-21468169D01*
X26147562Y-21468167D01*
X25772099Y-21367562D01*
X25772095Y-21367561D01*
X25772094Y-21367561D01*
X25388177Y-21306754D01*
X25000001Y-21286411D01*
X24999999Y-21286411D01*
X24611822Y-21306754D01*
X24227906Y-21367561D01*
X24227904Y-21367561D01*
X23852430Y-21468169D01*
X23489543Y-21607469D01*
X23143201Y-21783940D01*
X22817214Y-21995637D01*
X22515128Y-22240262D01*
X22515120Y-22240269D01*
X22240269Y-22515120D01*
X22240262Y-22515128D01*
X21995637Y-22817214D01*
X21783940Y-23143201D01*
X21607469Y-23489543D01*
X21468169Y-23852430D01*
X21367561Y-24227904D01*
X21367561Y-24227906D01*
X21306754Y-24611822D01*
X21286411Y-24999999D01*
X21286411Y-25000000D01*
X20200559Y-25000000D01*
X20200618Y-24997297D01*
X20202241Y-24960118D01*
X20218528Y-24587080D01*
X20219468Y-24576347D01*
X20272709Y-24171938D01*
X20274582Y-24161308D01*
X20362870Y-23763068D01*
X20365668Y-23752630D01*
X20372961Y-23729500D01*
X20488319Y-23363629D01*
X20492016Y-23353473D01*
X20648111Y-22976627D01*
X20652669Y-22966853D01*
X20841025Y-22605024D01*
X20846407Y-22595703D01*
X21065574Y-22251680D01*
X21071765Y-22242837D01*
X21320083Y-21919224D01*
X21327021Y-21910955D01*
X21602594Y-21610220D01*
X21610220Y-21602594D01*
X21910955Y-21327021D01*
X21919224Y-21320083D01*
X22242837Y-21071765D01*
X22251680Y-21065574D01*
X22595703Y-20846407D01*
X22605024Y-20841025D01*
X22966853Y-20652669D01*
X22976627Y-20648111D01*
X23353482Y-20492012D01*
X23363629Y-20488319D01*
X23752639Y-20365665D01*
X23763068Y-20362870D01*
X24161308Y-20274582D01*
X24171938Y-20272709D01*
X24576347Y-20219468D01*
X24587080Y-20218528D01*
X24997297Y-20200617D01*
X25002706Y-20200500D01*
X25039882Y-20200500D01*
X154960118Y-20200500D01*
X154997294Y-20200500D01*
X155002702Y-20200617D01*
G37*
G04 #@! TD.AperFunction*
M02*
