%TF.GenerationSoftware,KiCad,Pcbnew,8.0.0*%
%TF.CreationDate,2024-04-03T13:41:32-04:00*%
%TF.ProjectId,SurgicalLightBoostConverterModule,53757267-6963-4616-9c4c-69676874426f,rev?*%
%TF.SameCoordinates,Original*%
%TF.FileFunction,Soldermask,Top*%
%TF.FilePolarity,Negative*%
%FSLAX46Y46*%
G04 Gerber Fmt 4.6, Leading zero omitted, Abs format (unit mm)*
G04 Created by KiCad (PCBNEW 8.0.0) date 2024-04-03 13:41:32*
%MOMM*%
%LPD*%
G01*
G04 APERTURE LIST*
G04 Aperture macros list*
%AMRoundRect*
0 Rectangle with rounded corners*
0 $1 Rounding radius*
0 $2 $3 $4 $5 $6 $7 $8 $9 X,Y pos of 4 corners*
0 Add a 4 corners polygon primitive as box body*
4,1,4,$2,$3,$4,$5,$6,$7,$8,$9,$2,$3,0*
0 Add four circle primitives for the rounded corners*
1,1,$1+$1,$2,$3*
1,1,$1+$1,$4,$5*
1,1,$1+$1,$6,$7*
1,1,$1+$1,$8,$9*
0 Add four rect primitives between the rounded corners*
20,1,$1+$1,$2,$3,$4,$5,0*
20,1,$1+$1,$4,$5,$6,$7,0*
20,1,$1+$1,$6,$7,$8,$9,0*
20,1,$1+$1,$8,$9,$2,$3,0*%
G04 Aperture macros list end*
%ADD10RoundRect,0.250000X-0.262500X-0.450000X0.262500X-0.450000X0.262500X0.450000X-0.262500X0.450000X0*%
%ADD11R,1.600000X1.600000*%
%ADD12O,1.600000X1.600000*%
%ADD13R,1.050000X1.500000*%
%ADD14O,1.050000X1.500000*%
%ADD15C,3.000000*%
%ADD16RoundRect,0.250000X-0.450000X0.262500X-0.450000X-0.262500X0.450000X-0.262500X0.450000X0.262500X0*%
%ADD17RoundRect,0.250000X0.450000X-0.262500X0.450000X0.262500X-0.450000X0.262500X-0.450000X-0.262500X0*%
%ADD18RoundRect,0.250000X0.262500X0.450000X-0.262500X0.450000X-0.262500X-0.450000X0.262500X-0.450000X0*%
%ADD19R,2.400000X2.400000*%
%ADD20C,2.400000*%
%ADD21RoundRect,0.250000X0.475000X-0.250000X0.475000X0.250000X-0.475000X0.250000X-0.475000X-0.250000X0*%
%ADD22RoundRect,0.250000X0.250000X0.475000X-0.250000X0.475000X-0.250000X-0.475000X0.250000X-0.475000X0*%
%ADD23RoundRect,0.243750X-0.456250X0.243750X-0.456250X-0.243750X0.456250X-0.243750X0.456250X0.243750X0*%
%ADD24R,1.500000X1.050000*%
%ADD25O,1.500000X1.050000*%
%ADD26R,1.700000X1.700000*%
%ADD27O,1.700000X1.700000*%
%ADD28RoundRect,0.250000X-0.250000X-0.475000X0.250000X-0.475000X0.250000X0.475000X-0.250000X0.475000X0*%
%ADD29RoundRect,0.360000X-0.440000X0.360000X-0.440000X-0.360000X0.440000X-0.360000X0.440000X0.360000X0*%
%ADD30R,3.800000X4.960000*%
%ADD31C,5.200000*%
%ADD32RoundRect,0.360000X-0.360000X-0.440000X0.360000X-0.440000X0.360000X0.440000X-0.360000X0.440000X0*%
%ADD33R,4.960000X3.800000*%
%ADD34R,1.905000X2.000000*%
%ADD35O,1.905000X2.000000*%
%ADD36RoundRect,0.250000X-0.475000X0.250000X-0.475000X-0.250000X0.475000X-0.250000X0.475000X0.250000X0*%
%ADD37R,2.000000X2.000000*%
%ADD38C,2.000000*%
%ADD39C,3.600000*%
%ADD40C,6.400000*%
%ADD41RoundRect,0.243750X0.243750X0.456250X-0.243750X0.456250X-0.243750X-0.456250X0.243750X-0.456250X0*%
%ADD42RoundRect,0.750000X0.750000X-0.750000X0.750000X0.750000X-0.750000X0.750000X-0.750000X-0.750000X0*%
%ADD43RoundRect,0.250000X-1.425000X0.362500X-1.425000X-0.362500X1.425000X-0.362500X1.425000X0.362500X0*%
G04 APERTURE END LIST*
D10*
%TO.C,R15*%
X94500000Y-80500000D03*
X96325000Y-80500000D03*
%TD*%
%TO.C,R16*%
X72087500Y-71000000D03*
X73912500Y-71000000D03*
%TD*%
%TO.C,R9*%
X87500000Y-78000000D03*
X89325000Y-78000000D03*
%TD*%
D11*
%TO.C,U1*%
X100735000Y-75500000D03*
D12*
X100735000Y-78040000D03*
X100735000Y-80580000D03*
X100735000Y-83120000D03*
X100735000Y-85660000D03*
X100735000Y-88200000D03*
X100735000Y-90740000D03*
X100735000Y-93280000D03*
X108355000Y-93280000D03*
X108355000Y-90740000D03*
X108355000Y-88200000D03*
X108355000Y-85660000D03*
X108355000Y-83120000D03*
X108355000Y-80580000D03*
X108355000Y-78040000D03*
X108355000Y-75500000D03*
%TD*%
D13*
%TO.C,Q1*%
X91000000Y-50500000D03*
D14*
X89730000Y-50500000D03*
X88460000Y-50500000D03*
%TD*%
D15*
%TO.C,TP6*%
X74500000Y-77500000D03*
%TD*%
D16*
%TO.C,R22*%
X113000000Y-76500000D03*
X113000000Y-78325000D03*
%TD*%
D17*
%TO.C,R4*%
X88500000Y-45000000D03*
X88500000Y-43175000D03*
%TD*%
D18*
%TO.C,R8*%
X65825000Y-65150000D03*
X64000000Y-65150000D03*
%TD*%
D19*
%TO.C,C1*%
X37000000Y-71500000D03*
D20*
X42000000Y-71500000D03*
%TD*%
D15*
%TO.C,TP13*%
X138500000Y-66500000D03*
%TD*%
D18*
%TO.C,R21*%
X126500000Y-83220000D03*
X124675000Y-83220000D03*
%TD*%
D21*
%TO.C,C12*%
X112825000Y-84950000D03*
X112825000Y-83050000D03*
%TD*%
D10*
%TO.C,R7*%
X112000000Y-70500000D03*
X113825000Y-70500000D03*
%TD*%
D22*
%TO.C,C13*%
X95725000Y-88500000D03*
X93825000Y-88500000D03*
%TD*%
D13*
%TO.C,Q9*%
X131040000Y-58500000D03*
D14*
X129770000Y-58500000D03*
X128500000Y-58500000D03*
%TD*%
D23*
%TO.C,D3*%
X146000000Y-38000000D03*
X146000000Y-39875000D03*
%TD*%
D24*
%TO.C,Q10*%
X79105000Y-81960000D03*
D25*
X79105000Y-83230000D03*
X79105000Y-84500000D03*
%TD*%
D26*
%TO.C,J1*%
X115500000Y-105740000D03*
D27*
X115500000Y-103200000D03*
X118040000Y-105740000D03*
X118040000Y-103200000D03*
X120580000Y-105740000D03*
X120580000Y-103200000D03*
X123120000Y-105740000D03*
X123120000Y-103200000D03*
X125660000Y-105740000D03*
X125660000Y-103200000D03*
X128200000Y-105740000D03*
X128200000Y-103200000D03*
X130740000Y-105740000D03*
X130740000Y-103200000D03*
%TD*%
D17*
%TO.C,R5*%
X108460000Y-45000000D03*
X108460000Y-43175000D03*
%TD*%
D21*
%TO.C,C11*%
X115325000Y-84950000D03*
X115325000Y-83050000D03*
%TD*%
D18*
%TO.C,R25*%
X125325000Y-68460000D03*
X123500000Y-68460000D03*
%TD*%
%TO.C,R3*%
X25390000Y-33087500D03*
X23565000Y-33087500D03*
%TD*%
D28*
%TO.C,C7*%
X52100000Y-61000000D03*
X54000000Y-61000000D03*
%TD*%
D17*
%TO.C,R2*%
X146000000Y-44287500D03*
X146000000Y-42462500D03*
%TD*%
D29*
%TO.C,D5*%
X105840000Y-29830000D03*
X107970000Y-29830000D03*
D30*
X106905000Y-26030000D03*
%TD*%
D31*
%TO.C,L1*%
X35350000Y-41000000D03*
X64650000Y-41000000D03*
%TD*%
D32*
%TO.C,D9*%
X73980000Y-95015000D03*
X73980000Y-92885000D03*
D33*
X70180000Y-93950000D03*
%TD*%
D34*
%TO.C,Q4*%
X88500000Y-39000000D03*
D35*
X91040000Y-39000000D03*
X93580000Y-39000000D03*
%TD*%
D15*
%TO.C,TP1*%
X30500000Y-23500000D03*
%TD*%
D16*
%TO.C,R17*%
X90500000Y-85087500D03*
X90500000Y-86912500D03*
%TD*%
D34*
%TO.C,Q5*%
X108460000Y-39000000D03*
D35*
X111000000Y-39000000D03*
X113540000Y-39000000D03*
%TD*%
D13*
%TO.C,Q7*%
X91040000Y-58500000D03*
D14*
X89770000Y-58500000D03*
X88500000Y-58500000D03*
%TD*%
D11*
%TO.C,U2*%
X61880000Y-77960000D03*
D12*
X61880000Y-80500000D03*
X61880000Y-83040000D03*
X61880000Y-85580000D03*
X69500000Y-85580000D03*
X69500000Y-83040000D03*
X69500000Y-80500000D03*
X69500000Y-77960000D03*
%TD*%
D28*
%TO.C,C5*%
X38500000Y-61000000D03*
X40400000Y-61000000D03*
%TD*%
D18*
%TO.C,R13*%
X96317500Y-74500000D03*
X94492500Y-74500000D03*
%TD*%
D13*
%TO.C,Q2*%
X110960000Y-50500000D03*
D14*
X109690000Y-50500000D03*
X108420000Y-50500000D03*
%TD*%
D29*
%TO.C,D2*%
X99290000Y-29830000D03*
X101420000Y-29830000D03*
D30*
X100355000Y-26030000D03*
%TD*%
D15*
%TO.C,TP12*%
X107000000Y-104000000D03*
%TD*%
D10*
%TO.C,R12*%
X94500000Y-78000000D03*
X96325000Y-78000000D03*
%TD*%
D36*
%TO.C,C14*%
X147125000Y-78600000D03*
X147125000Y-80500000D03*
%TD*%
D10*
%TO.C,R24*%
X124675000Y-80500000D03*
X126500000Y-80500000D03*
%TD*%
D15*
%TO.C,TP8*%
X90500000Y-104000000D03*
%TD*%
%TO.C,TP3*%
X69000000Y-57500000D03*
%TD*%
D17*
%TO.C,R20*%
X117000000Y-78325000D03*
X117000000Y-76500000D03*
%TD*%
%TO.C,R6*%
X128460000Y-44912500D03*
X128460000Y-43087500D03*
%TD*%
D37*
%TO.C,C4*%
X75000000Y-40923959D03*
D38*
X80000000Y-40923959D03*
%TD*%
D13*
%TO.C,Q3*%
X131000000Y-50500000D03*
D14*
X129730000Y-50500000D03*
X128460000Y-50500000D03*
%TD*%
D10*
%TO.C,R10*%
X79000000Y-77500000D03*
X80825000Y-77500000D03*
%TD*%
D15*
%TO.C,TP2*%
X69500000Y-24500000D03*
%TD*%
D39*
%TO.C,H3*%
X25000000Y-105000000D03*
D40*
X25000000Y-105000000D03*
%TD*%
D41*
%TO.C,D7*%
X118660000Y-70500000D03*
X116785000Y-70500000D03*
%TD*%
D15*
%TO.C,TP4*%
X31000000Y-58000000D03*
%TD*%
D28*
%TO.C,C6*%
X45600000Y-61000000D03*
X47500000Y-61000000D03*
%TD*%
D41*
%TO.C,D8*%
X65825000Y-68000000D03*
X63950000Y-68000000D03*
%TD*%
D36*
%TO.C,C8*%
X70050000Y-29550000D03*
X70050000Y-31450000D03*
%TD*%
D18*
%TO.C,R11*%
X73912500Y-68500000D03*
X72087500Y-68500000D03*
%TD*%
D34*
%TO.C,Q6*%
X128460000Y-39000000D03*
D35*
X131000000Y-39000000D03*
X133540000Y-39000000D03*
%TD*%
D42*
%TO.C,F1*%
X152500000Y-66100000D03*
X152500000Y-58500000D03*
D15*
X152500000Y-39000000D03*
X152500000Y-31400000D03*
%TD*%
D13*
%TO.C,Q8*%
X111040000Y-58500000D03*
D14*
X109770000Y-58500000D03*
X108500000Y-58500000D03*
%TD*%
D39*
%TO.C,H1*%
X155000000Y-25000000D03*
D40*
X155000000Y-25000000D03*
%TD*%
D29*
%TO.C,D1*%
X92935000Y-29780000D03*
X95065000Y-29780000D03*
D30*
X94000000Y-25980000D03*
%TD*%
D43*
%TO.C,R1*%
X145000000Y-60500000D03*
X145000000Y-66425000D03*
%TD*%
D28*
%TO.C,C10*%
X73100000Y-34000000D03*
X75000000Y-34000000D03*
%TD*%
D15*
%TO.C,TP5*%
X124000000Y-25500000D03*
%TD*%
%TO.C,TP10*%
X96500000Y-104000000D03*
%TD*%
D36*
%TO.C,C15*%
X144625000Y-78600000D03*
X144625000Y-80500000D03*
%TD*%
D15*
%TO.C,TP7*%
X86000000Y-104000000D03*
%TD*%
D37*
%TO.C,C3*%
X74500000Y-26923959D03*
D38*
X79500000Y-26923959D03*
%TD*%
D18*
%TO.C,R23*%
X138000000Y-71500000D03*
X136175000Y-71500000D03*
%TD*%
D39*
%TO.C,H2*%
X25000000Y-25000000D03*
D40*
X25000000Y-25000000D03*
%TD*%
D15*
%TO.C,TP11*%
X138500000Y-60000000D03*
%TD*%
%TO.C,TP14*%
X102500000Y-104000000D03*
%TD*%
D11*
%TO.C,U3*%
X131325000Y-77920000D03*
D12*
X131325000Y-80460000D03*
X131325000Y-83000000D03*
X131325000Y-85540000D03*
X138945000Y-85540000D03*
X138945000Y-83000000D03*
X138945000Y-80460000D03*
X138945000Y-77920000D03*
%TD*%
D39*
%TO.C,H4*%
X155000000Y-105000000D03*
D40*
X155000000Y-105000000D03*
%TD*%
D18*
%TO.C,R19*%
X126500000Y-77720000D03*
X124675000Y-77720000D03*
%TD*%
D19*
%TO.C,C2*%
X51000000Y-71500000D03*
D20*
X56000000Y-71500000D03*
%TD*%
D18*
%TO.C,R14*%
X89325000Y-80500000D03*
X87500000Y-80500000D03*
%TD*%
D36*
%TO.C,C9*%
X70000000Y-37100000D03*
X70000000Y-39000000D03*
%TD*%
D15*
%TO.C,TP9*%
X118500000Y-95500000D03*
%TD*%
D29*
%TO.C,D6*%
X112385000Y-29830000D03*
X114515000Y-29830000D03*
D30*
X113450000Y-26030000D03*
%TD*%
D18*
%TO.C,R18*%
X95725000Y-91000000D03*
X93900000Y-91000000D03*
%TD*%
D41*
%TO.C,D4*%
X25437500Y-36500000D03*
X23562500Y-36500000D03*
%TD*%
D26*
%TO.C,RV2*%
X133875000Y-68460000D03*
D27*
X131335000Y-68460000D03*
X128795000Y-68460000D03*
%TD*%
D26*
%TO.C,RV1*%
X82420000Y-69500000D03*
D27*
X84960000Y-69500000D03*
X87500000Y-69500000D03*
%TD*%
M02*
