M48
; DRILL file {KiCad 8.0.0} date 2024-04-03T13:43:07-0400
; FORMAT={-:-/ absolute / metric / decimal}
; #@! TF.CreationDate,2024-04-03T13:43:07-04:00
; #@! TF.GenerationSoftware,Kicad,Pcbnew,8.0.0
; #@! TF.FileFunction,Plated,1,2,PTH
FMAT,2
METRIC
; #@! TA.AperFunction,Plated,PTH,ViaDrill
T1C0.300
; #@! TA.AperFunction,Plated,PTH,ViaDrill
T2C0.400
; #@! TA.AperFunction,Plated,PTH,ComponentDrill
T3C0.750
; #@! TA.AperFunction,Plated,PTH,ComponentDrill
T4C0.800
; #@! TA.AperFunction,Plated,PTH,ComponentDrill
T5C1.000
; #@! TA.AperFunction,Plated,PTH,ComponentDrill
T6C1.100
; #@! TA.AperFunction,Plated,PTH,ComponentDrill
T7C1.200
; #@! TA.AperFunction,Plated,PTH,ComponentDrill
T8C1.500
; #@! TA.AperFunction,Plated,PTH,ComponentDrill
T9C2.000
; #@! TA.AperFunction,Plated,PTH,ComponentDrill
T10C2.600
; #@! TA.AperFunction,Plated,PTH,ComponentDrill
T11C3.200
%
G90
G05
T1
X25.565Y-39.087
X42.324Y-61.0
X49.5Y-61.0
X56.0Y-61.0
X70.0Y-33.5
X70.0Y-41.0
X77.0Y-34.0
X77.5Y-70.0
X85.5Y-79.0
X85.5Y-82.0
X86.0Y-66.5
X86.0Y-100.0
X92.0Y-83.5
X92.5Y-75.5
X94.0Y-93.5
X94.25Y-100.25
X98.0Y-96.0
X99.0Y-98.0
X102.5Y-92.5
X103.5Y-88.5
X104.5Y-82.0
X109.0Y-98.0
X111.0Y-74.0
X111.0Y-79.0
X111.0Y-98.5
X113.0Y-101.0
X115.0Y-78.5
X115.5Y-68.0
X117.5Y-99.0
X119.5Y-63.5
X119.5Y-80.5
X121.5Y-81.0
X122.5Y-79.0
X123.5Y-65.078
X124.0Y-100.5
X124.5Y-85.5
X146.0Y-35.462
T2
X106.0Y-68.0
X106.0Y-84.5
T3
X79.105Y-81.96
X79.105Y-83.23
X79.105Y-84.5
X88.46Y-50.5
X88.5Y-58.5
X89.73Y-50.5
X89.77Y-58.5
X91.0Y-50.5
X91.04Y-58.5
X108.42Y-50.5
X108.5Y-58.5
X109.69Y-50.5
X109.77Y-58.5
X110.96Y-50.5
X111.04Y-58.5
X128.46Y-50.5
X128.5Y-58.5
X129.73Y-50.5
X129.77Y-58.5
X131.0Y-50.5
X131.04Y-58.5
T4
X61.88Y-77.96
X61.88Y-80.5
X61.88Y-83.04
X61.88Y-85.58
X69.5Y-77.96
X69.5Y-80.5
X69.5Y-83.04
X69.5Y-85.58
X100.735Y-75.5
X100.735Y-78.04
X100.735Y-80.58
X100.735Y-83.12
X100.735Y-85.66
X100.735Y-88.2
X100.735Y-90.74
X100.735Y-93.28
X108.355Y-75.5
X108.355Y-78.04
X108.355Y-80.58
X108.355Y-83.12
X108.355Y-85.66
X108.355Y-88.2
X108.355Y-90.74
X108.355Y-93.28
X131.325Y-77.92
X131.325Y-80.46
X131.325Y-83.0
X131.325Y-85.54
X138.945Y-77.92
X138.945Y-80.46
X138.945Y-83.0
X138.945Y-85.54
T5
X74.5Y-26.924
X75.0Y-40.924
X79.5Y-26.924
X80.0Y-40.924
X82.42Y-69.5
X84.96Y-69.5
X87.5Y-69.5
X115.5Y-103.2
X115.5Y-105.74
X118.04Y-103.2
X118.04Y-105.74
X120.58Y-103.2
X120.58Y-105.74
X123.12Y-103.2
X123.12Y-105.74
X125.66Y-103.2
X125.66Y-105.74
X128.2Y-103.2
X128.2Y-105.74
X128.795Y-68.46
X130.74Y-103.2
X130.74Y-105.74
X131.335Y-68.46
X133.875Y-68.46
T6
X88.5Y-39.0
X91.04Y-39.0
X93.58Y-39.0
X108.46Y-39.0
X111.0Y-39.0
X113.54Y-39.0
X128.46Y-39.0
X131.0Y-39.0
X133.54Y-39.0
T7
X37.0Y-71.5
X42.0Y-71.5
X51.0Y-71.5
X56.0Y-71.5
T8
X30.5Y-23.5
X31.0Y-58.0
X69.0Y-57.5
X69.5Y-24.5
X74.5Y-77.5
X86.0Y-104.0
X90.5Y-104.0
X96.5Y-104.0
X102.5Y-104.0
X107.0Y-104.0
X118.5Y-95.5
X124.0Y-25.5
X138.5Y-60.0
X138.5Y-66.5
T9
X152.5Y-31.4
X152.5Y-39.0
X152.5Y-58.5
X152.5Y-66.1
T10
X35.35Y-41.0
X64.65Y-41.0
T11
X25.0Y-25.0
X25.0Y-105.0
X155.0Y-25.0
X155.0Y-105.0
M30
