%TF.GenerationSoftware,KiCad,Pcbnew,8.0.0*%
%TF.CreationDate,2024-04-03T13:41:32-04:00*%
%TF.ProjectId,SurgicalLightBoostConverterModule,53757267-6963-4616-9c4c-69676874426f,rev?*%
%TF.SameCoordinates,Original*%
%TF.FileFunction,Copper,L2,Bot*%
%TF.FilePolarity,Positive*%
%FSLAX46Y46*%
G04 Gerber Fmt 4.6, Leading zero omitted, Abs format (unit mm)*
G04 Created by KiCad (PCBNEW 8.0.0) date 2024-04-03 13:41:32*
%MOMM*%
%LPD*%
G01*
G04 APERTURE LIST*
G04 Aperture macros list*
%AMRoundRect*
0 Rectangle with rounded corners*
0 $1 Rounding radius*
0 $2 $3 $4 $5 $6 $7 $8 $9 X,Y pos of 4 corners*
0 Add a 4 corners polygon primitive as box body*
4,1,4,$2,$3,$4,$5,$6,$7,$8,$9,$2,$3,0*
0 Add four circle primitives for the rounded corners*
1,1,$1+$1,$2,$3*
1,1,$1+$1,$4,$5*
1,1,$1+$1,$6,$7*
1,1,$1+$1,$8,$9*
0 Add four rect primitives between the rounded corners*
20,1,$1+$1,$2,$3,$4,$5,0*
20,1,$1+$1,$4,$5,$6,$7,0*
20,1,$1+$1,$6,$7,$8,$9,0*
20,1,$1+$1,$8,$9,$2,$3,0*%
G04 Aperture macros list end*
%TA.AperFunction,ComponentPad*%
%ADD10R,1.600000X1.600000*%
%TD*%
%TA.AperFunction,ComponentPad*%
%ADD11O,1.600000X1.600000*%
%TD*%
%TA.AperFunction,ComponentPad*%
%ADD12R,1.050000X1.500000*%
%TD*%
%TA.AperFunction,ComponentPad*%
%ADD13O,1.050000X1.500000*%
%TD*%
%TA.AperFunction,ComponentPad*%
%ADD14C,3.000000*%
%TD*%
%TA.AperFunction,ComponentPad*%
%ADD15R,2.400000X2.400000*%
%TD*%
%TA.AperFunction,ComponentPad*%
%ADD16C,2.400000*%
%TD*%
%TA.AperFunction,ComponentPad*%
%ADD17R,1.500000X1.050000*%
%TD*%
%TA.AperFunction,ComponentPad*%
%ADD18O,1.500000X1.050000*%
%TD*%
%TA.AperFunction,ComponentPad*%
%ADD19R,1.700000X1.700000*%
%TD*%
%TA.AperFunction,ComponentPad*%
%ADD20O,1.700000X1.700000*%
%TD*%
%TA.AperFunction,ComponentPad*%
%ADD21C,5.200000*%
%TD*%
%TA.AperFunction,ComponentPad*%
%ADD22R,1.905000X2.000000*%
%TD*%
%TA.AperFunction,ComponentPad*%
%ADD23O,1.905000X2.000000*%
%TD*%
%TA.AperFunction,ComponentPad*%
%ADD24R,2.000000X2.000000*%
%TD*%
%TA.AperFunction,ComponentPad*%
%ADD25C,2.000000*%
%TD*%
%TA.AperFunction,ComponentPad*%
%ADD26C,3.600000*%
%TD*%
%TA.AperFunction,ConnectorPad*%
%ADD27C,6.400000*%
%TD*%
%TA.AperFunction,ComponentPad*%
%ADD28RoundRect,0.750000X0.750000X-0.750000X0.750000X0.750000X-0.750000X0.750000X-0.750000X-0.750000X0*%
%TD*%
%TA.AperFunction,ViaPad*%
%ADD29C,0.600000*%
%TD*%
%TA.AperFunction,ViaPad*%
%ADD30C,0.800000*%
%TD*%
%TA.AperFunction,Conductor*%
%ADD31C,0.177800*%
%TD*%
%TA.AperFunction,Conductor*%
%ADD32C,0.345000*%
%TD*%
%TA.AperFunction,Conductor*%
%ADD33C,0.200000*%
%TD*%
G04 APERTURE END LIST*
D10*
%TO.P,U1,1,1IN+*%
%TO.N,/1IN+*%
X100735000Y-75500000D03*
D11*
%TO.P,U1,2,1IN-*%
%TO.N,/1IN-*%
X100735000Y-78040000D03*
%TO.P,U1,3,FB*%
%TO.N,/FB*%
X100735000Y-80580000D03*
%TO.P,U1,4,DTC*%
%TO.N,/DTC*%
X100735000Y-83120000D03*
%TO.P,U1,5,CT*%
%TO.N,Net-(U1-CT)*%
X100735000Y-85660000D03*
%TO.P,U1,6,RT*%
%TO.N,Net-(U1-RT)*%
X100735000Y-88200000D03*
%TO.P,U1,7,GND*%
%TO.N,GND*%
X100735000Y-90740000D03*
%TO.P,U1,8,C1*%
%TO.N,BoostConverterSwitch*%
X100735000Y-93280000D03*
%TO.P,U1,9,E1*%
%TO.N,GND*%
X108355000Y-93280000D03*
%TO.P,U1,10,E2*%
X108355000Y-90740000D03*
%TO.P,U1,11,C2*%
%TO.N,BoostConverterSwitch*%
X108355000Y-88200000D03*
%TO.P,U1,12,VCC*%
%TO.N,+12V*%
X108355000Y-85660000D03*
%TO.P,U1,13,OUTCTRL*%
%TO.N,GND*%
X108355000Y-83120000D03*
%TO.P,U1,14,REF*%
%TO.N,+5V*%
X108355000Y-80580000D03*
%TO.P,U1,15,2IN-*%
%TO.N,/2IN-*%
X108355000Y-78040000D03*
%TO.P,U1,16,2IN+*%
%TO.N,/2IN+*%
X108355000Y-75500000D03*
%TD*%
D12*
%TO.P,Q1,1,C*%
%TO.N,/VSwitch*%
X91000000Y-50500000D03*
D13*
%TO.P,Q1,2,B*%
%TO.N,BoostConverterSwitch*%
X89730000Y-50500000D03*
%TO.P,Q1,3,E*%
%TO.N,Net-(Q1-E)*%
X88460000Y-50500000D03*
%TD*%
D14*
%TO.P,TP6,1,1*%
%TO.N,+5V*%
X74500000Y-77500000D03*
%TD*%
D15*
%TO.P,C1,1*%
%TO.N,+12V*%
X37000000Y-71500000D03*
D16*
%TO.P,C1,2*%
%TO.N,GND*%
X42000000Y-71500000D03*
%TD*%
D14*
%TO.P,TP13,1,1*%
%TO.N,/CS-*%
X138500000Y-66500000D03*
%TD*%
D12*
%TO.P,Q9,1,C*%
%TO.N,GND*%
X131040000Y-58500000D03*
D13*
%TO.P,Q9,2,B*%
%TO.N,BoostConverterSwitch*%
X129770000Y-58500000D03*
%TO.P,Q9,3,E*%
%TO.N,Net-(Q3-E)*%
X128500000Y-58500000D03*
%TD*%
D17*
%TO.P,Q10,1,C*%
%TO.N,+5V*%
X79105000Y-81960000D03*
D18*
%TO.P,Q10,2,B*%
%TO.N,Net-(Q10-B)*%
X79105000Y-83230000D03*
%TO.P,Q10,3,E*%
%TO.N,/DTC*%
X79105000Y-84500000D03*
%TD*%
D19*
%TO.P,J1,1,Pin_1*%
%TO.N,unconnected-(J1-Pin_1-Pad1)*%
X115500000Y-105740000D03*
D20*
%TO.P,J1,2,Pin_2*%
%TO.N,unconnected-(J1-Pin_2-Pad2)*%
X115500000Y-103200000D03*
%TO.P,J1,3,Pin_3*%
%TO.N,unconnected-(J1-Pin_3-Pad3)*%
X118040000Y-105740000D03*
%TO.P,J1,4,Pin_4*%
%TO.N,/1IN-*%
X118040000Y-103200000D03*
%TO.P,J1,5,Pin_5*%
%TO.N,unconnected-(J1-Pin_5-Pad5)*%
X120580000Y-105740000D03*
%TO.P,J1,6,Pin_6*%
%TO.N,unconnected-(J1-Pin_6-Pad6)*%
X120580000Y-103200000D03*
%TO.P,J1,7,Pin_7*%
%TO.N,unconnected-(J1-Pin_7-Pad7)*%
X123120000Y-105740000D03*
%TO.P,J1,8,Pin_8*%
%TO.N,/2IN-*%
X123120000Y-103200000D03*
%TO.P,J1,9,Pin_9*%
%TO.N,unconnected-(J1-Pin_9-Pad9)*%
X125660000Y-105740000D03*
%TO.P,J1,10,Pin_10*%
%TO.N,unconnected-(J1-Pin_10-Pad10)*%
X125660000Y-103200000D03*
%TO.P,J1,11,Pin_11*%
%TO.N,unconnected-(J1-Pin_11-Pad11)*%
X128200000Y-105740000D03*
%TO.P,J1,12,Pin_12*%
%TO.N,/DTC*%
X128200000Y-103200000D03*
%TO.P,J1,13,Pin_13*%
%TO.N,unconnected-(J1-Pin_13-Pad13)*%
X130740000Y-105740000D03*
%TO.P,J1,14,Pin_14*%
%TO.N,GND*%
X130740000Y-103200000D03*
%TD*%
D21*
%TO.P,L1,1,1*%
%TO.N,+12V*%
X35350000Y-41000000D03*
%TO.P,L1,2,2*%
%TO.N,/VSwitch*%
X64650000Y-41000000D03*
%TD*%
D22*
%TO.P,Q4,1,G*%
%TO.N,Net-(Q4-G)*%
X88500000Y-39000000D03*
D23*
%TO.P,Q4,2,D*%
%TO.N,/VSwitch*%
X91040000Y-39000000D03*
%TO.P,Q4,3,S*%
%TO.N,GND*%
X93580000Y-39000000D03*
%TD*%
D14*
%TO.P,TP1,1,1*%
%TO.N,unconnected-(TP1-Pad1)*%
X30500000Y-23500000D03*
%TD*%
D22*
%TO.P,Q5,1,G*%
%TO.N,Net-(Q5-G)*%
X108460000Y-39000000D03*
D23*
%TO.P,Q5,2,D*%
%TO.N,/VSwitch*%
X111000000Y-39000000D03*
%TO.P,Q5,3,S*%
%TO.N,GND*%
X113540000Y-39000000D03*
%TD*%
D12*
%TO.P,Q7,1,C*%
%TO.N,GND*%
X91040000Y-58500000D03*
D13*
%TO.P,Q7,2,B*%
%TO.N,BoostConverterSwitch*%
X89770000Y-58500000D03*
%TO.P,Q7,3,E*%
%TO.N,Net-(Q1-E)*%
X88500000Y-58500000D03*
%TD*%
D10*
%TO.P,U2,1,K*%
%TO.N,Net-(D8-K)*%
X61880000Y-77960000D03*
D11*
%TO.P,U2,2,A*%
%TO.N,GND*%
X61880000Y-80500000D03*
%TO.P,U2,3,A*%
X61880000Y-83040000D03*
%TO.P,U2,4*%
%TO.N,N/C*%
X61880000Y-85580000D03*
%TO.P,U2,5*%
X69500000Y-85580000D03*
%TO.P,U2,6,A*%
%TO.N,GND*%
X69500000Y-83040000D03*
%TO.P,U2,7,A*%
X69500000Y-80500000D03*
%TO.P,U2,8,REF*%
%TO.N,Net-(U2-REF)*%
X69500000Y-77960000D03*
%TD*%
D12*
%TO.P,Q2,1,C*%
%TO.N,/VSwitch*%
X110960000Y-50500000D03*
D13*
%TO.P,Q2,2,B*%
%TO.N,BoostConverterSwitch*%
X109690000Y-50500000D03*
%TO.P,Q2,3,E*%
%TO.N,Net-(Q2-E)*%
X108420000Y-50500000D03*
%TD*%
D14*
%TO.P,TP12,1,1*%
%TO.N,/2IN-*%
X107000000Y-104000000D03*
%TD*%
%TO.P,TP8,1,1*%
%TO.N,/1IN+*%
X90500000Y-104000000D03*
%TD*%
%TO.P,TP3,1,1*%
%TO.N,unconnected-(TP3-Pad1)*%
X69000000Y-57500000D03*
%TD*%
D24*
%TO.P,C4,1*%
%TO.N,/CS+*%
X75000000Y-40923959D03*
D25*
%TO.P,C4,2*%
%TO.N,GND*%
X80000000Y-40923959D03*
%TD*%
D12*
%TO.P,Q3,1,C*%
%TO.N,/VSwitch*%
X131000000Y-50500000D03*
D13*
%TO.P,Q3,2,B*%
%TO.N,BoostConverterSwitch*%
X129730000Y-50500000D03*
%TO.P,Q3,3,E*%
%TO.N,Net-(Q3-E)*%
X128460000Y-50500000D03*
%TD*%
D14*
%TO.P,TP2,1,1*%
%TO.N,unconnected-(TP2-Pad1)*%
X69500000Y-24500000D03*
%TD*%
D26*
%TO.P,H3,1,1*%
%TO.N,GND*%
X25000000Y-105000000D03*
D27*
X25000000Y-105000000D03*
%TD*%
D14*
%TO.P,TP4,1,1*%
%TO.N,unconnected-(TP4-Pad1)*%
X31000000Y-58000000D03*
%TD*%
D22*
%TO.P,Q6,1,G*%
%TO.N,Net-(Q6-G)*%
X128460000Y-39000000D03*
D23*
%TO.P,Q6,2,D*%
%TO.N,/VSwitch*%
X131000000Y-39000000D03*
%TO.P,Q6,3,S*%
%TO.N,GND*%
X133540000Y-39000000D03*
%TD*%
D28*
%TO.P,F1,1*%
%TO.N,/CS-*%
X152500000Y-66100000D03*
X152500000Y-58500000D03*
D14*
%TO.P,F1,2*%
%TO.N,+24V*%
X152500000Y-39000000D03*
X152500000Y-31400000D03*
%TD*%
D12*
%TO.P,Q8,1,C*%
%TO.N,GND*%
X111040000Y-58500000D03*
D13*
%TO.P,Q8,2,B*%
%TO.N,BoostConverterSwitch*%
X109770000Y-58500000D03*
%TO.P,Q8,3,E*%
%TO.N,Net-(Q2-E)*%
X108500000Y-58500000D03*
%TD*%
D26*
%TO.P,H1,1,1*%
%TO.N,+24V*%
X155000000Y-25000000D03*
D27*
X155000000Y-25000000D03*
%TD*%
D14*
%TO.P,TP5,1,1*%
%TO.N,/CS+*%
X124000000Y-25500000D03*
%TD*%
%TO.P,TP10,1,1*%
%TO.N,/DTC*%
X96500000Y-104000000D03*
%TD*%
%TO.P,TP7,1,1*%
%TO.N,/1IN-*%
X86000000Y-104000000D03*
%TD*%
D24*
%TO.P,C3,1*%
%TO.N,/CS+*%
X74500000Y-26923959D03*
D25*
%TO.P,C3,2*%
%TO.N,GND*%
X79500000Y-26923959D03*
%TD*%
D26*
%TO.P,H2,1,1*%
%TO.N,+12V*%
X25000000Y-25000000D03*
D27*
X25000000Y-25000000D03*
%TD*%
D14*
%TO.P,TP11,1,1*%
%TO.N,/CS+*%
X138500000Y-60000000D03*
%TD*%
%TO.P,TP14,1,1*%
%TO.N,/2IN+*%
X102500000Y-104000000D03*
%TD*%
D10*
%TO.P,U3,1*%
%TO.N,Net-(R19-Pad1)*%
X131325000Y-77920000D03*
D11*
%TO.P,U3,2,-*%
%TO.N,Net-(U3A--)*%
X131325000Y-80460000D03*
%TO.P,U3,3,+*%
%TO.N,Net-(U3A-+)*%
X131325000Y-83000000D03*
%TO.P,U3,4,V-*%
%TO.N,GND*%
X131325000Y-85540000D03*
%TO.P,U3,5,+*%
X138945000Y-85540000D03*
%TO.P,U3,6,-*%
X138945000Y-83000000D03*
%TO.P,U3,7*%
X138945000Y-80460000D03*
%TO.P,U3,8,V+*%
%TO.N,+12V*%
X138945000Y-77920000D03*
%TD*%
D26*
%TO.P,H4,1,1*%
%TO.N,GND*%
X155000000Y-105000000D03*
D27*
X155000000Y-105000000D03*
%TD*%
D15*
%TO.P,C2,1*%
%TO.N,+12V*%
X51000000Y-71500000D03*
D16*
%TO.P,C2,2*%
%TO.N,GND*%
X56000000Y-71500000D03*
%TD*%
D14*
%TO.P,TP9,1,1*%
%TO.N,BoostConverterSwitch*%
X118500000Y-95500000D03*
%TD*%
D19*
%TO.P,RV2,1,1*%
%TO.N,Net-(R19-Pad1)*%
X133875000Y-68460000D03*
D20*
%TO.P,RV2,2,2*%
X131335000Y-68460000D03*
%TO.P,RV2,3,3*%
%TO.N,/2IN+*%
X128795000Y-68460000D03*
%TD*%
D19*
%TO.P,RV1,1,1*%
%TO.N,/CS+*%
X82420000Y-69500000D03*
D20*
%TO.P,RV1,2,2*%
X84960000Y-69500000D03*
%TO.P,RV1,3,3*%
%TO.N,/1IN+*%
X87500000Y-69500000D03*
%TD*%
D29*
%TO.N,GND*%
X94000000Y-93500000D03*
X77000000Y-34000000D03*
X123500000Y-65077800D03*
X92500000Y-75500000D03*
X121500000Y-81000000D03*
X56000000Y-61000000D03*
X70000000Y-33500000D03*
X85500000Y-82000000D03*
X111000000Y-79000000D03*
X49500000Y-61000000D03*
X25565000Y-39087500D03*
X70000000Y-41000000D03*
X42323959Y-61000000D03*
X146000000Y-35462500D03*
X77500000Y-70000000D03*
%TO.N,/CS+*%
X119500000Y-80500000D03*
X86000000Y-66500000D03*
X119500000Y-63500000D03*
D30*
%TO.N,BoostConverterSwitch*%
X106000000Y-84500000D03*
X106000000Y-68000000D03*
D29*
%TO.N,/DTC*%
X99000000Y-98000000D03*
X124000000Y-100500000D03*
X113000000Y-101000000D03*
X102500000Y-92500000D03*
%TO.N,+5V*%
X104500000Y-82000000D03*
X85500000Y-79000000D03*
%TO.N,/1IN-*%
X92000000Y-83500000D03*
X86000000Y-100000000D03*
X98000000Y-96000000D03*
%TO.N,/1IN+*%
X94250000Y-100250000D03*
X103500000Y-88500000D03*
%TO.N,Net-(U3A-+)*%
X124500000Y-85500000D03*
X122500000Y-79000000D03*
%TO.N,/2IN-*%
X115000000Y-78500000D03*
X117500000Y-99000000D03*
X111000000Y-98500000D03*
%TO.N,/2IN+*%
X109000000Y-98000000D03*
X111000000Y-74000000D03*
X115500000Y-68000000D03*
%TD*%
D31*
%TO.N,/CS+*%
X119500000Y-63500000D02*
X119500000Y-80500000D01*
X119500000Y-63500000D02*
X89000000Y-63500000D01*
X89000000Y-63500000D02*
X86000000Y-66500000D01*
D32*
%TO.N,BoostConverterSwitch*%
X106000000Y-70500000D02*
X106000000Y-84500000D01*
X106000000Y-68000000D02*
X106000000Y-70500000D01*
D31*
%TO.N,/DTC*%
X113500000Y-100500000D02*
X124000000Y-100500000D01*
X102500000Y-92500000D02*
X102500000Y-94500000D01*
X102500000Y-94500000D02*
X99000000Y-98000000D01*
X113000000Y-101000000D02*
X113500000Y-100500000D01*
%TO.N,+5V*%
X104500000Y-82000000D02*
X88000000Y-82000000D01*
X85500000Y-80500000D02*
X85500000Y-79000000D01*
X87000000Y-82000000D02*
X85500000Y-80500000D01*
X88000000Y-82000000D02*
X87000000Y-82000000D01*
D33*
%TO.N,/1IN-*%
X92000000Y-94000000D02*
X86000000Y-100000000D01*
X92000000Y-94000000D02*
X94000000Y-96000000D01*
X92000000Y-83500000D02*
X92000000Y-94000000D01*
X94000000Y-96000000D02*
X98000000Y-96000000D01*
%TO.N,/1IN+*%
X103500000Y-88500000D02*
X103500000Y-96500000D01*
X99750000Y-100250000D02*
X94250000Y-100250000D01*
X103500000Y-96500000D02*
X99750000Y-100250000D01*
D31*
%TO.N,Net-(U3A-+)*%
X122500000Y-85000000D02*
X122500000Y-79000000D01*
X124500000Y-85500000D02*
X123000000Y-85500000D01*
X123000000Y-85500000D02*
X122500000Y-85000000D01*
D33*
%TO.N,/2IN-*%
X115000000Y-79500000D02*
X114000000Y-80500000D01*
X115000000Y-78500000D02*
X115000000Y-79500000D01*
X114000000Y-80500000D02*
X114000000Y-95500000D01*
X114000000Y-95500000D02*
X111000000Y-98500000D01*
X114000000Y-95500000D02*
X117500000Y-99000000D01*
%TO.N,/2IN+*%
X111577800Y-95422200D02*
X109000000Y-98000000D01*
X111577800Y-74577800D02*
X111577800Y-95422200D01*
X115500000Y-68000000D02*
X111000000Y-72500000D01*
X111000000Y-74000000D02*
X111577800Y-74577800D01*
X111000000Y-72500000D02*
X111000000Y-74000000D01*
D31*
%TO.N,Net-(R19-Pad1)*%
X131420000Y-77920000D02*
X131500000Y-78000000D01*
X131325000Y-77920000D02*
X131420000Y-77920000D01*
%TD*%
%TA.AperFunction,Conductor*%
%TO.N,GND*%
G36*
X155002702Y-20200617D02*
G01*
X155412917Y-20218528D01*
X155423654Y-20219468D01*
X155828057Y-20272708D01*
X155838695Y-20274583D01*
X156236925Y-20362869D01*
X156247365Y-20365667D01*
X156636363Y-20488317D01*
X156646524Y-20492015D01*
X157023363Y-20648108D01*
X157033155Y-20652674D01*
X157394965Y-20841020D01*
X157404305Y-20846413D01*
X157689636Y-21028189D01*
X157748309Y-21065568D01*
X157757170Y-21071772D01*
X158080766Y-21320076D01*
X158089053Y-21327030D01*
X158389767Y-21602583D01*
X158397416Y-21610232D01*
X158672969Y-21910946D01*
X158679923Y-21919233D01*
X158928227Y-22242829D01*
X158934431Y-22251690D01*
X159087207Y-22491500D01*
X159153578Y-22595680D01*
X159158987Y-22605048D01*
X159347322Y-22966838D01*
X159351894Y-22976642D01*
X159507983Y-23353473D01*
X159511683Y-23363639D01*
X159634331Y-23752630D01*
X159637131Y-23763078D01*
X159725414Y-24161296D01*
X159727292Y-24171950D01*
X159780529Y-24576326D01*
X159781472Y-24587102D01*
X159799382Y-24997297D01*
X159799500Y-25002706D01*
X159799500Y-104997293D01*
X159799382Y-105002702D01*
X159781472Y-105412897D01*
X159780529Y-105423673D01*
X159727292Y-105828049D01*
X159725414Y-105838703D01*
X159637131Y-106236921D01*
X159634331Y-106247369D01*
X159511683Y-106636360D01*
X159507983Y-106646526D01*
X159351894Y-107023357D01*
X159347322Y-107033161D01*
X159158987Y-107394951D01*
X159153578Y-107404319D01*
X158934431Y-107748309D01*
X158928227Y-107757170D01*
X158679923Y-108080766D01*
X158672969Y-108089053D01*
X158397416Y-108389767D01*
X158389767Y-108397416D01*
X158089053Y-108672969D01*
X158080766Y-108679923D01*
X157757170Y-108928227D01*
X157748309Y-108934431D01*
X157404319Y-109153578D01*
X157394951Y-109158987D01*
X157033161Y-109347322D01*
X157023357Y-109351894D01*
X156646526Y-109507983D01*
X156636360Y-109511683D01*
X156247369Y-109634331D01*
X156236921Y-109637131D01*
X155838703Y-109725414D01*
X155828049Y-109727292D01*
X155423673Y-109780529D01*
X155412897Y-109781472D01*
X155002703Y-109799382D01*
X154997294Y-109799500D01*
X25002706Y-109799500D01*
X24997297Y-109799382D01*
X24587102Y-109781472D01*
X24576326Y-109780529D01*
X24171950Y-109727292D01*
X24161296Y-109725414D01*
X23763078Y-109637131D01*
X23752630Y-109634331D01*
X23363639Y-109511683D01*
X23353473Y-109507983D01*
X22976642Y-109351894D01*
X22966838Y-109347322D01*
X22847126Y-109285004D01*
X22605042Y-109158983D01*
X22595686Y-109153582D01*
X22423685Y-109044004D01*
X22251690Y-108934431D01*
X22242829Y-108928227D01*
X21919233Y-108679923D01*
X21910946Y-108672969D01*
X21610232Y-108397416D01*
X21602583Y-108389767D01*
X21327030Y-108089053D01*
X21320076Y-108080766D01*
X21071772Y-107757170D01*
X21065568Y-107748309D01*
X21012070Y-107664334D01*
X20846413Y-107404305D01*
X20841020Y-107394965D01*
X20652674Y-107033155D01*
X20648105Y-107023357D01*
X20633601Y-106988342D01*
X20492015Y-106646524D01*
X20488316Y-106636360D01*
X20469684Y-106577268D01*
X20365667Y-106247365D01*
X20362868Y-106236921D01*
X20350829Y-106182616D01*
X20274583Y-105838695D01*
X20272707Y-105828049D01*
X20261116Y-105740005D01*
X20219468Y-105423654D01*
X20218528Y-105412917D01*
X20200618Y-105002702D01*
X20200500Y-104997293D01*
X20200500Y-104000000D01*
X83986807Y-104000000D01*
X84005557Y-104274130D01*
X84005558Y-104274132D01*
X84061458Y-104543141D01*
X84061463Y-104543158D01*
X84153476Y-104802056D01*
X84279889Y-105046024D01*
X84279893Y-105046030D01*
X84438340Y-105270499D01*
X84438343Y-105270502D01*
X84625889Y-105471314D01*
X84839031Y-105644718D01*
X84839033Y-105644719D01*
X84839034Y-105644720D01*
X85073801Y-105787485D01*
X85278348Y-105876331D01*
X85325823Y-105896953D01*
X85590404Y-105971085D01*
X85829720Y-106003978D01*
X85862614Y-106008500D01*
X85862615Y-106008500D01*
X86137386Y-106008500D01*
X86166733Y-106004466D01*
X86409596Y-105971085D01*
X86674177Y-105896953D01*
X86926200Y-105787484D01*
X87160969Y-105644718D01*
X87374111Y-105471314D01*
X87561657Y-105270502D01*
X87720111Y-105046023D01*
X87846523Y-104802058D01*
X87938538Y-104543153D01*
X87938539Y-104543146D01*
X87938541Y-104543141D01*
X87976401Y-104360946D01*
X87994442Y-104274130D01*
X88013193Y-104000000D01*
X88486807Y-104000000D01*
X88505557Y-104274130D01*
X88505558Y-104274132D01*
X88561458Y-104543141D01*
X88561463Y-104543158D01*
X88653476Y-104802056D01*
X88779889Y-105046024D01*
X88779893Y-105046030D01*
X88938340Y-105270499D01*
X88938343Y-105270502D01*
X89125889Y-105471314D01*
X89339031Y-105644718D01*
X89339033Y-105644719D01*
X89339034Y-105644720D01*
X89573801Y-105787485D01*
X89778348Y-105876331D01*
X89825823Y-105896953D01*
X90090404Y-105971085D01*
X90329720Y-106003978D01*
X90362614Y-106008500D01*
X90362615Y-106008500D01*
X90637386Y-106008500D01*
X90666733Y-106004466D01*
X90909596Y-105971085D01*
X91174177Y-105896953D01*
X91426200Y-105787484D01*
X91660969Y-105644718D01*
X91874111Y-105471314D01*
X92061657Y-105270502D01*
X92220111Y-105046023D01*
X92346523Y-104802058D01*
X92438538Y-104543153D01*
X92438539Y-104543146D01*
X92438541Y-104543141D01*
X92476401Y-104360946D01*
X92494442Y-104274130D01*
X92513193Y-104000000D01*
X94486807Y-104000000D01*
X94505557Y-104274130D01*
X94505558Y-104274132D01*
X94561458Y-104543141D01*
X94561463Y-104543158D01*
X94653476Y-104802056D01*
X94779889Y-105046024D01*
X94779893Y-105046030D01*
X94938340Y-105270499D01*
X94938343Y-105270502D01*
X95125889Y-105471314D01*
X95339031Y-105644718D01*
X95339033Y-105644719D01*
X95339034Y-105644720D01*
X95573801Y-105787485D01*
X95778348Y-105876331D01*
X95825823Y-105896953D01*
X96090404Y-105971085D01*
X96329720Y-106003978D01*
X96362614Y-106008500D01*
X96362615Y-106008500D01*
X96637386Y-106008500D01*
X96666733Y-106004466D01*
X96909596Y-105971085D01*
X97174177Y-105896953D01*
X97426200Y-105787484D01*
X97660969Y-105644718D01*
X97874111Y-105471314D01*
X98061657Y-105270502D01*
X98220111Y-105046023D01*
X98346523Y-104802058D01*
X98438538Y-104543153D01*
X98438539Y-104543146D01*
X98438541Y-104543141D01*
X98476401Y-104360946D01*
X98494442Y-104274130D01*
X98513193Y-104000000D01*
X100486807Y-104000000D01*
X100505557Y-104274130D01*
X100505558Y-104274132D01*
X100561458Y-104543141D01*
X100561463Y-104543158D01*
X100653476Y-104802056D01*
X100779889Y-105046024D01*
X100779893Y-105046030D01*
X100938340Y-105270499D01*
X100938343Y-105270502D01*
X101125889Y-105471314D01*
X101339031Y-105644718D01*
X101339033Y-105644719D01*
X101339034Y-105644720D01*
X101573801Y-105787485D01*
X101778348Y-105876331D01*
X101825823Y-105896953D01*
X102090404Y-105971085D01*
X102329720Y-106003978D01*
X102362614Y-106008500D01*
X102362615Y-106008500D01*
X102637386Y-106008500D01*
X102666733Y-106004466D01*
X102909596Y-105971085D01*
X103174177Y-105896953D01*
X103426200Y-105787484D01*
X103660969Y-105644718D01*
X103874111Y-105471314D01*
X104061657Y-105270502D01*
X104220111Y-105046023D01*
X104346523Y-104802058D01*
X104438538Y-104543153D01*
X104438539Y-104543146D01*
X104438541Y-104543141D01*
X104476401Y-104360946D01*
X104494442Y-104274130D01*
X104513193Y-104000000D01*
X104986807Y-104000000D01*
X105005557Y-104274130D01*
X105005558Y-104274132D01*
X105061458Y-104543141D01*
X105061463Y-104543158D01*
X105153476Y-104802056D01*
X105279889Y-105046024D01*
X105279893Y-105046030D01*
X105438340Y-105270499D01*
X105438343Y-105270502D01*
X105625889Y-105471314D01*
X105839031Y-105644718D01*
X105839033Y-105644719D01*
X105839034Y-105644720D01*
X106073801Y-105787485D01*
X106278348Y-105876331D01*
X106325823Y-105896953D01*
X106590404Y-105971085D01*
X106829720Y-106003978D01*
X106862614Y-106008500D01*
X106862615Y-106008500D01*
X107137386Y-106008500D01*
X107166733Y-106004466D01*
X107409596Y-105971085D01*
X107674177Y-105896953D01*
X107926200Y-105787484D01*
X108160969Y-105644718D01*
X108374111Y-105471314D01*
X108561657Y-105270502D01*
X108720111Y-105046023D01*
X108846523Y-104802058D01*
X108938538Y-104543153D01*
X108938539Y-104543146D01*
X108938541Y-104543141D01*
X108976401Y-104360946D01*
X108994442Y-104274130D01*
X109013193Y-104000000D01*
X108994442Y-103725870D01*
X108975141Y-103632989D01*
X108938541Y-103456858D01*
X108938536Y-103456841D01*
X108847256Y-103200005D01*
X114136844Y-103200005D01*
X114155434Y-103424359D01*
X114155436Y-103424371D01*
X114210703Y-103642614D01*
X114301140Y-103848792D01*
X114424276Y-104037265D01*
X114424284Y-104037276D01*
X114569489Y-104195008D01*
X114600412Y-104257662D01*
X114592552Y-104327088D01*
X114548405Y-104381244D01*
X114521596Y-104395172D01*
X114403794Y-104439111D01*
X114286739Y-104526739D01*
X114199111Y-104643795D01*
X114148011Y-104780795D01*
X114148011Y-104780797D01*
X114141500Y-104841345D01*
X114141500Y-106638654D01*
X114148011Y-106699202D01*
X114148011Y-106699204D01*
X114199111Y-106836204D01*
X114286739Y-106953261D01*
X114403796Y-107040889D01*
X114540799Y-107091989D01*
X114568050Y-107094918D01*
X114601345Y-107098499D01*
X114601362Y-107098500D01*
X116398638Y-107098500D01*
X116398654Y-107098499D01*
X116425692Y-107095591D01*
X116459201Y-107091989D01*
X116596204Y-107040889D01*
X116713261Y-106953261D01*
X116800889Y-106836204D01*
X116846138Y-106714887D01*
X116888009Y-106658956D01*
X116953474Y-106634539D01*
X117021746Y-106649391D01*
X117053545Y-106674236D01*
X117116760Y-106742906D01*
X117294424Y-106881189D01*
X117294425Y-106881189D01*
X117294427Y-106881191D01*
X117314473Y-106892039D01*
X117492426Y-106988342D01*
X117705365Y-107061444D01*
X117927431Y-107098500D01*
X118152569Y-107098500D01*
X118374635Y-107061444D01*
X118587574Y-106988342D01*
X118785576Y-106881189D01*
X118963240Y-106742906D01*
X119115722Y-106577268D01*
X119206193Y-106438790D01*
X119259338Y-106393437D01*
X119328569Y-106384013D01*
X119391905Y-106413515D01*
X119413804Y-106438787D01*
X119504278Y-106577268D01*
X119504283Y-106577273D01*
X119504284Y-106577276D01*
X119630968Y-106714889D01*
X119656760Y-106742906D01*
X119834424Y-106881189D01*
X119834425Y-106881189D01*
X119834427Y-106881191D01*
X119854473Y-106892039D01*
X120032426Y-106988342D01*
X120245365Y-107061444D01*
X120467431Y-107098500D01*
X120692569Y-107098500D01*
X120914635Y-107061444D01*
X121127574Y-106988342D01*
X121325576Y-106881189D01*
X121503240Y-106742906D01*
X121655722Y-106577268D01*
X121746193Y-106438790D01*
X121799338Y-106393437D01*
X121868569Y-106384013D01*
X121931905Y-106413515D01*
X121953804Y-106438787D01*
X122044278Y-106577268D01*
X122044283Y-106577273D01*
X122044284Y-106577276D01*
X122170968Y-106714889D01*
X122196760Y-106742906D01*
X122374424Y-106881189D01*
X122374425Y-106881189D01*
X122374427Y-106881191D01*
X122394473Y-106892039D01*
X122572426Y-106988342D01*
X122785365Y-107061444D01*
X123007431Y-107098500D01*
X123232569Y-107098500D01*
X123454635Y-107061444D01*
X123667574Y-106988342D01*
X123865576Y-106881189D01*
X124043240Y-106742906D01*
X124195722Y-106577268D01*
X124286193Y-106438790D01*
X124339338Y-106393437D01*
X124408569Y-106384013D01*
X124471905Y-106413515D01*
X124493804Y-106438787D01*
X124584278Y-106577268D01*
X124584283Y-106577273D01*
X124584284Y-106577276D01*
X124710968Y-106714889D01*
X124736760Y-106742906D01*
X124914424Y-106881189D01*
X124914425Y-106881189D01*
X124914427Y-106881191D01*
X124934473Y-106892039D01*
X125112426Y-106988342D01*
X125325365Y-107061444D01*
X125547431Y-107098500D01*
X125772569Y-107098500D01*
X125994635Y-107061444D01*
X126207574Y-106988342D01*
X126405576Y-106881189D01*
X126583240Y-106742906D01*
X126735722Y-106577268D01*
X126826193Y-106438790D01*
X126879338Y-106393437D01*
X126948569Y-106384013D01*
X127011905Y-106413515D01*
X127033804Y-106438787D01*
X127124278Y-106577268D01*
X127124283Y-106577273D01*
X127124284Y-106577276D01*
X127250968Y-106714889D01*
X127276760Y-106742906D01*
X127454424Y-106881189D01*
X127454425Y-106881189D01*
X127454427Y-106881191D01*
X127474473Y-106892039D01*
X127652426Y-106988342D01*
X127865365Y-107061444D01*
X128087431Y-107098500D01*
X128312569Y-107098500D01*
X128534635Y-107061444D01*
X128747574Y-106988342D01*
X128945576Y-106881189D01*
X129123240Y-106742906D01*
X129275722Y-106577268D01*
X129366193Y-106438790D01*
X129419338Y-106393437D01*
X129488569Y-106384013D01*
X129551905Y-106413515D01*
X129573804Y-106438787D01*
X129664278Y-106577268D01*
X129664283Y-106577273D01*
X129664284Y-106577276D01*
X129790968Y-106714889D01*
X129816760Y-106742906D01*
X129994424Y-106881189D01*
X129994425Y-106881189D01*
X129994427Y-106881191D01*
X130014473Y-106892039D01*
X130192426Y-106988342D01*
X130405365Y-107061444D01*
X130627431Y-107098500D01*
X130852569Y-107098500D01*
X131074635Y-107061444D01*
X131287574Y-106988342D01*
X131485576Y-106881189D01*
X131663240Y-106742906D01*
X131815722Y-106577268D01*
X131938860Y-106388791D01*
X132029296Y-106182616D01*
X132084564Y-105964368D01*
X132084565Y-105964359D01*
X132103156Y-105740005D01*
X132103156Y-105739994D01*
X132084565Y-105515640D01*
X132084563Y-105515628D01*
X132029296Y-105297385D01*
X132017504Y-105270502D01*
X131938860Y-105091209D01*
X131922706Y-105066484D01*
X131815723Y-104902734D01*
X131815715Y-104902723D01*
X131663243Y-104737097D01*
X131663238Y-104737092D01*
X131485577Y-104598812D01*
X131485572Y-104598808D01*
X131287580Y-104491661D01*
X131287577Y-104491659D01*
X131287574Y-104491658D01*
X131287571Y-104491657D01*
X131287569Y-104491656D01*
X131074637Y-104418556D01*
X130852569Y-104381500D01*
X130627431Y-104381500D01*
X130405362Y-104418556D01*
X130192430Y-104491656D01*
X130192419Y-104491661D01*
X129994427Y-104598808D01*
X129994422Y-104598812D01*
X129816761Y-104737092D01*
X129816756Y-104737097D01*
X129664284Y-104902723D01*
X129664276Y-104902734D01*
X129573808Y-105041206D01*
X129520662Y-105086562D01*
X129451431Y-105095986D01*
X129388095Y-105066484D01*
X129366192Y-105041206D01*
X129275723Y-104902734D01*
X129275715Y-104902723D01*
X129123243Y-104737097D01*
X129123238Y-104737092D01*
X128945577Y-104598812D01*
X128945578Y-104598812D01*
X128945576Y-104598811D01*
X128909070Y-104579055D01*
X128859479Y-104529836D01*
X128844371Y-104461619D01*
X128868541Y-104396064D01*
X128909070Y-104360945D01*
X128909084Y-104360936D01*
X128945576Y-104341189D01*
X129123240Y-104202906D01*
X129275722Y-104037268D01*
X129398860Y-103848791D01*
X129489296Y-103642616D01*
X129544564Y-103424368D01*
X129563156Y-103200000D01*
X129562985Y-103197942D01*
X129544565Y-102975640D01*
X129544563Y-102975628D01*
X129489296Y-102757385D01*
X129398859Y-102551207D01*
X129275723Y-102362734D01*
X129275715Y-102362723D01*
X129123243Y-102197097D01*
X129123238Y-102197092D01*
X128945577Y-102058812D01*
X128945572Y-102058808D01*
X128747580Y-101951661D01*
X128747577Y-101951659D01*
X128747574Y-101951658D01*
X128747571Y-101951657D01*
X128747569Y-101951656D01*
X128534637Y-101878556D01*
X128312569Y-101841500D01*
X128087431Y-101841500D01*
X127865362Y-101878556D01*
X127652430Y-101951656D01*
X127652419Y-101951661D01*
X127454427Y-102058808D01*
X127454422Y-102058812D01*
X127276761Y-102197092D01*
X127276756Y-102197097D01*
X127124284Y-102362723D01*
X127124276Y-102362734D01*
X127033808Y-102501206D01*
X126980662Y-102546562D01*
X126911431Y-102555986D01*
X126848095Y-102526484D01*
X126826192Y-102501206D01*
X126735723Y-102362734D01*
X126735715Y-102362723D01*
X126583243Y-102197097D01*
X126583238Y-102197092D01*
X126405577Y-102058812D01*
X126405572Y-102058808D01*
X126207580Y-101951661D01*
X126207577Y-101951659D01*
X126207574Y-101951658D01*
X126207571Y-101951657D01*
X126207569Y-101951656D01*
X125994637Y-101878556D01*
X125772569Y-101841500D01*
X125547431Y-101841500D01*
X125325362Y-101878556D01*
X125112430Y-101951656D01*
X125112419Y-101951661D01*
X124914427Y-102058808D01*
X124914422Y-102058812D01*
X124736761Y-102197092D01*
X124736756Y-102197097D01*
X124584284Y-102362723D01*
X124584276Y-102362734D01*
X124493808Y-102501206D01*
X124440662Y-102546562D01*
X124371431Y-102555986D01*
X124308095Y-102526484D01*
X124286192Y-102501206D01*
X124195723Y-102362734D01*
X124195715Y-102362723D01*
X124043243Y-102197097D01*
X124043238Y-102197092D01*
X123865577Y-102058812D01*
X123865572Y-102058808D01*
X123667580Y-101951661D01*
X123667577Y-101951659D01*
X123667574Y-101951658D01*
X123667571Y-101951657D01*
X123667569Y-101951656D01*
X123454637Y-101878556D01*
X123232569Y-101841500D01*
X123007431Y-101841500D01*
X122785362Y-101878556D01*
X122572430Y-101951656D01*
X122572419Y-101951661D01*
X122374427Y-102058808D01*
X122374422Y-102058812D01*
X122196761Y-102197092D01*
X122196756Y-102197097D01*
X122044284Y-102362723D01*
X122044276Y-102362734D01*
X121953808Y-102501206D01*
X121900662Y-102546562D01*
X121831431Y-102555986D01*
X121768095Y-102526484D01*
X121746192Y-102501206D01*
X121655723Y-102362734D01*
X121655715Y-102362723D01*
X121503243Y-102197097D01*
X121503238Y-102197092D01*
X121325577Y-102058812D01*
X121325572Y-102058808D01*
X121127580Y-101951661D01*
X121127577Y-101951659D01*
X121127574Y-101951658D01*
X121127571Y-101951657D01*
X121127569Y-101951656D01*
X120914637Y-101878556D01*
X120692569Y-101841500D01*
X120467431Y-101841500D01*
X120245362Y-101878556D01*
X120032430Y-101951656D01*
X120032419Y-101951661D01*
X119834427Y-102058808D01*
X119834422Y-102058812D01*
X119656761Y-102197092D01*
X119656756Y-102197097D01*
X119504284Y-102362723D01*
X119504276Y-102362734D01*
X119413808Y-102501206D01*
X119360662Y-102546562D01*
X119291431Y-102555986D01*
X119228095Y-102526484D01*
X119206192Y-102501206D01*
X119115723Y-102362734D01*
X119115715Y-102362723D01*
X118963243Y-102197097D01*
X118963238Y-102197092D01*
X118785577Y-102058812D01*
X118785572Y-102058808D01*
X118587580Y-101951661D01*
X118587577Y-101951659D01*
X118587574Y-101951658D01*
X118587571Y-101951657D01*
X118587569Y-101951656D01*
X118374637Y-101878556D01*
X118152569Y-101841500D01*
X117927431Y-101841500D01*
X117705362Y-101878556D01*
X117492430Y-101951656D01*
X117492419Y-101951661D01*
X117294427Y-102058808D01*
X117294422Y-102058812D01*
X117116761Y-102197092D01*
X117116756Y-102197097D01*
X116964284Y-102362723D01*
X116964276Y-102362734D01*
X116873808Y-102501206D01*
X116820662Y-102546562D01*
X116751431Y-102555986D01*
X116688095Y-102526484D01*
X116666192Y-102501206D01*
X116575723Y-102362734D01*
X116575715Y-102362723D01*
X116423243Y-102197097D01*
X116423238Y-102197092D01*
X116245577Y-102058812D01*
X116245572Y-102058808D01*
X116047580Y-101951661D01*
X116047577Y-101951659D01*
X116047574Y-101951658D01*
X116047571Y-101951657D01*
X116047569Y-101951656D01*
X115834637Y-101878556D01*
X115612569Y-101841500D01*
X115387431Y-101841500D01*
X115165362Y-101878556D01*
X114952430Y-101951656D01*
X114952419Y-101951661D01*
X114754427Y-102058808D01*
X114754422Y-102058812D01*
X114576761Y-102197092D01*
X114576756Y-102197097D01*
X114424284Y-102362723D01*
X114424276Y-102362734D01*
X114301140Y-102551207D01*
X114210703Y-102757385D01*
X114155436Y-102975628D01*
X114155434Y-102975640D01*
X114136844Y-103199994D01*
X114136844Y-103200005D01*
X108847256Y-103200005D01*
X108846523Y-103197943D01*
X108846523Y-103197942D01*
X108720111Y-102953977D01*
X108720110Y-102953975D01*
X108720106Y-102953969D01*
X108561659Y-102729500D01*
X108543031Y-102709555D01*
X108374111Y-102528686D01*
X108160969Y-102355282D01*
X108160967Y-102355281D01*
X108160965Y-102355279D01*
X107926198Y-102212514D01*
X107674178Y-102103047D01*
X107409602Y-102028916D01*
X107409597Y-102028915D01*
X107409596Y-102028915D01*
X107273490Y-102010207D01*
X107137386Y-101991500D01*
X107137385Y-101991500D01*
X106862615Y-101991500D01*
X106862614Y-101991500D01*
X106590404Y-102028915D01*
X106590397Y-102028916D01*
X106325821Y-102103047D01*
X106073801Y-102212514D01*
X105839034Y-102355279D01*
X105625892Y-102528683D01*
X105625889Y-102528685D01*
X105625889Y-102528686D01*
X105597951Y-102558600D01*
X105438340Y-102729500D01*
X105279893Y-102953969D01*
X105279889Y-102953975D01*
X105153476Y-103197943D01*
X105061463Y-103456841D01*
X105061458Y-103456858D01*
X105005558Y-103725867D01*
X105005557Y-103725869D01*
X104986807Y-104000000D01*
X104513193Y-104000000D01*
X104494442Y-103725870D01*
X104475141Y-103632989D01*
X104438541Y-103456858D01*
X104438536Y-103456841D01*
X104346523Y-103197943D01*
X104346523Y-103197942D01*
X104220111Y-102953977D01*
X104220110Y-102953975D01*
X104220106Y-102953969D01*
X104061659Y-102729500D01*
X104043031Y-102709555D01*
X103874111Y-102528686D01*
X103660969Y-102355282D01*
X103660967Y-102355281D01*
X103660965Y-102355279D01*
X103426198Y-102212514D01*
X103174178Y-102103047D01*
X102909602Y-102028916D01*
X102909597Y-102028915D01*
X102909596Y-102028915D01*
X102773490Y-102010207D01*
X102637386Y-101991500D01*
X102637385Y-101991500D01*
X102362615Y-101991500D01*
X102362614Y-101991500D01*
X102090404Y-102028915D01*
X102090397Y-102028916D01*
X101825821Y-102103047D01*
X101573801Y-102212514D01*
X101339034Y-102355279D01*
X101125892Y-102528683D01*
X101125889Y-102528685D01*
X101125889Y-102528686D01*
X101097951Y-102558600D01*
X100938340Y-102729500D01*
X100779893Y-102953969D01*
X100779889Y-102953975D01*
X100653476Y-103197943D01*
X100561463Y-103456841D01*
X100561458Y-103456858D01*
X100505558Y-103725867D01*
X100505557Y-103725869D01*
X100486807Y-104000000D01*
X98513193Y-104000000D01*
X98494442Y-103725870D01*
X98475141Y-103632989D01*
X98438541Y-103456858D01*
X98438536Y-103456841D01*
X98346523Y-103197943D01*
X98346523Y-103197942D01*
X98220111Y-102953977D01*
X98220110Y-102953975D01*
X98220106Y-102953969D01*
X98061659Y-102729500D01*
X98043031Y-102709555D01*
X97874111Y-102528686D01*
X97660969Y-102355282D01*
X97660967Y-102355281D01*
X97660965Y-102355279D01*
X97426198Y-102212514D01*
X97174178Y-102103047D01*
X96909602Y-102028916D01*
X96909597Y-102028915D01*
X96909596Y-102028915D01*
X96773490Y-102010207D01*
X96637386Y-101991500D01*
X96637385Y-101991500D01*
X96362615Y-101991500D01*
X96362614Y-101991500D01*
X96090404Y-102028915D01*
X96090397Y-102028916D01*
X95825821Y-102103047D01*
X95573801Y-102212514D01*
X95339034Y-102355279D01*
X95125892Y-102528683D01*
X95125889Y-102528685D01*
X95125889Y-102528686D01*
X95097951Y-102558600D01*
X94938340Y-102729500D01*
X94779893Y-102953969D01*
X94779889Y-102953975D01*
X94653476Y-103197943D01*
X94561463Y-103456841D01*
X94561458Y-103456858D01*
X94505558Y-103725867D01*
X94505557Y-103725869D01*
X94486807Y-104000000D01*
X92513193Y-104000000D01*
X92494442Y-103725870D01*
X92475141Y-103632989D01*
X92438541Y-103456858D01*
X92438536Y-103456841D01*
X92346523Y-103197943D01*
X92346523Y-103197942D01*
X92220111Y-102953977D01*
X92220110Y-102953975D01*
X92220106Y-102953969D01*
X92061659Y-102729500D01*
X92043031Y-102709555D01*
X91874111Y-102528686D01*
X91660969Y-102355282D01*
X91660967Y-102355281D01*
X91660965Y-102355279D01*
X91426198Y-102212514D01*
X91174178Y-102103047D01*
X90909602Y-102028916D01*
X90909597Y-102028915D01*
X90909596Y-102028915D01*
X90773490Y-102010207D01*
X90637386Y-101991500D01*
X90637385Y-101991500D01*
X90362615Y-101991500D01*
X90362614Y-101991500D01*
X90090404Y-102028915D01*
X90090397Y-102028916D01*
X89825821Y-102103047D01*
X89573801Y-102212514D01*
X89339034Y-102355279D01*
X89125892Y-102528683D01*
X89125889Y-102528685D01*
X89125889Y-102528686D01*
X89097951Y-102558600D01*
X88938340Y-102729500D01*
X88779893Y-102953969D01*
X88779889Y-102953975D01*
X88653476Y-103197943D01*
X88561463Y-103456841D01*
X88561458Y-103456858D01*
X88505558Y-103725867D01*
X88505557Y-103725869D01*
X88486807Y-104000000D01*
X88013193Y-104000000D01*
X87994442Y-103725870D01*
X87975141Y-103632989D01*
X87938541Y-103456858D01*
X87938536Y-103456841D01*
X87846523Y-103197943D01*
X87846523Y-103197942D01*
X87720111Y-102953977D01*
X87720110Y-102953975D01*
X87720106Y-102953969D01*
X87561659Y-102729500D01*
X87543031Y-102709555D01*
X87374111Y-102528686D01*
X87160969Y-102355282D01*
X87160967Y-102355281D01*
X87160965Y-102355279D01*
X86926198Y-102212514D01*
X86674178Y-102103047D01*
X86409602Y-102028916D01*
X86409597Y-102028915D01*
X86409596Y-102028915D01*
X86273490Y-102010207D01*
X86137386Y-101991500D01*
X86137385Y-101991500D01*
X85862615Y-101991500D01*
X85862614Y-101991500D01*
X85590404Y-102028915D01*
X85590397Y-102028916D01*
X85325821Y-102103047D01*
X85073801Y-102212514D01*
X84839034Y-102355279D01*
X84625892Y-102528683D01*
X84625889Y-102528685D01*
X84625889Y-102528686D01*
X84597951Y-102558600D01*
X84438340Y-102729500D01*
X84279893Y-102953969D01*
X84279889Y-102953975D01*
X84153476Y-103197943D01*
X84061463Y-103456841D01*
X84061458Y-103456858D01*
X84005558Y-103725867D01*
X84005557Y-103725869D01*
X83986807Y-104000000D01*
X20200500Y-104000000D01*
X20200500Y-85580001D01*
X60566502Y-85580001D01*
X60586456Y-85808081D01*
X60586457Y-85808089D01*
X60645714Y-86029238D01*
X60645718Y-86029249D01*
X60695549Y-86136111D01*
X60742477Y-86236749D01*
X60873802Y-86424300D01*
X61035700Y-86586198D01*
X61223251Y-86717523D01*
X61348091Y-86775736D01*
X61430750Y-86814281D01*
X61430752Y-86814281D01*
X61430757Y-86814284D01*
X61651913Y-86873543D01*
X61814832Y-86887796D01*
X61879998Y-86893498D01*
X61880000Y-86893498D01*
X61880002Y-86893498D01*
X61937021Y-86888509D01*
X62108087Y-86873543D01*
X62329243Y-86814284D01*
X62536749Y-86717523D01*
X62724300Y-86586198D01*
X62886198Y-86424300D01*
X63017523Y-86236749D01*
X63114284Y-86029243D01*
X63173543Y-85808087D01*
X63193498Y-85580001D01*
X68186502Y-85580001D01*
X68206456Y-85808081D01*
X68206457Y-85808089D01*
X68265714Y-86029238D01*
X68265718Y-86029249D01*
X68315549Y-86136111D01*
X68362477Y-86236749D01*
X68493802Y-86424300D01*
X68655700Y-86586198D01*
X68843251Y-86717523D01*
X68968091Y-86775736D01*
X69050750Y-86814281D01*
X69050752Y-86814281D01*
X69050757Y-86814284D01*
X69271913Y-86873543D01*
X69434832Y-86887796D01*
X69499998Y-86893498D01*
X69500000Y-86893498D01*
X69500002Y-86893498D01*
X69557021Y-86888509D01*
X69728087Y-86873543D01*
X69949243Y-86814284D01*
X70156749Y-86717523D01*
X70344300Y-86586198D01*
X70506198Y-86424300D01*
X70637523Y-86236749D01*
X70734284Y-86029243D01*
X70793543Y-85808087D01*
X70813498Y-85580000D01*
X70793543Y-85351913D01*
X70734284Y-85130757D01*
X70637523Y-84923251D01*
X70506198Y-84735700D01*
X70372293Y-84601795D01*
X77846500Y-84601795D01*
X77886215Y-84801453D01*
X77886218Y-84801465D01*
X77964120Y-84989539D01*
X77964127Y-84989552D01*
X78077227Y-85158817D01*
X78077230Y-85158821D01*
X78221178Y-85302769D01*
X78221182Y-85302772D01*
X78390447Y-85415872D01*
X78390460Y-85415879D01*
X78578534Y-85493781D01*
X78578539Y-85493783D01*
X78778204Y-85533499D01*
X78778207Y-85533500D01*
X78778209Y-85533500D01*
X79431793Y-85533500D01*
X79431794Y-85533499D01*
X79631461Y-85493783D01*
X79819546Y-85415876D01*
X79988818Y-85302772D01*
X80132772Y-85158818D01*
X80245876Y-84989546D01*
X80323783Y-84801461D01*
X80363500Y-84601791D01*
X80363500Y-84398209D01*
X80363500Y-84398206D01*
X80363499Y-84398204D01*
X80345968Y-84310072D01*
X80323783Y-84198539D01*
X80298510Y-84137524D01*
X80245879Y-84010460D01*
X80245877Y-84010457D01*
X80245876Y-84010454D01*
X80194715Y-83933887D01*
X80173839Y-83867214D01*
X80192323Y-83799834D01*
X80194679Y-83796167D01*
X80245876Y-83719546D01*
X80323783Y-83531461D01*
X80363500Y-83331791D01*
X80363500Y-83128209D01*
X80363500Y-83128206D01*
X80363499Y-83128204D01*
X80361867Y-83119998D01*
X80323783Y-82928539D01*
X80291807Y-82851343D01*
X80284339Y-82781875D01*
X80302748Y-82739589D01*
X80301640Y-82738984D01*
X80305884Y-82731210D01*
X80305889Y-82731204D01*
X80349266Y-82614908D01*
X80356987Y-82594207D01*
X80356988Y-82594204D01*
X80356989Y-82594201D01*
X80361660Y-82550757D01*
X80363499Y-82533654D01*
X80363500Y-82533637D01*
X80363500Y-81386362D01*
X80363499Y-81386345D01*
X80360157Y-81355270D01*
X80356989Y-81325799D01*
X80348970Y-81304300D01*
X80332802Y-81260953D01*
X80305889Y-81188796D01*
X80218261Y-81071739D01*
X80101204Y-80984111D01*
X79964203Y-80933011D01*
X79903654Y-80926500D01*
X79903638Y-80926500D01*
X78306362Y-80926500D01*
X78306345Y-80926500D01*
X78245797Y-80933011D01*
X78245795Y-80933011D01*
X78108795Y-80984111D01*
X77991739Y-81071739D01*
X77904111Y-81188795D01*
X77853011Y-81325795D01*
X77853011Y-81325797D01*
X77846500Y-81386345D01*
X77846500Y-82533654D01*
X77853011Y-82594202D01*
X77853011Y-82594204D01*
X77881241Y-82669889D01*
X77904111Y-82731204D01*
X77904115Y-82731209D01*
X77908362Y-82738988D01*
X77906737Y-82739874D01*
X77927314Y-82795057D01*
X77918191Y-82851343D01*
X77886217Y-82928538D01*
X77886215Y-82928541D01*
X77846500Y-83128204D01*
X77846500Y-83331795D01*
X77886215Y-83531453D01*
X77886218Y-83531465D01*
X77948177Y-83681047D01*
X77964124Y-83719546D01*
X77999697Y-83772785D01*
X78015282Y-83796110D01*
X78036159Y-83862788D01*
X78017674Y-83930168D01*
X78015282Y-83933890D01*
X77964122Y-84010457D01*
X77886218Y-84198534D01*
X77886215Y-84198546D01*
X77846500Y-84398204D01*
X77846500Y-84601795D01*
X70372293Y-84601795D01*
X70344300Y-84573802D01*
X70156749Y-84442477D01*
X70156745Y-84442475D01*
X69949249Y-84345718D01*
X69949238Y-84345714D01*
X69728089Y-84286457D01*
X69728081Y-84286456D01*
X69500002Y-84266502D01*
X69499998Y-84266502D01*
X69271918Y-84286456D01*
X69271910Y-84286457D01*
X69050761Y-84345714D01*
X69050750Y-84345718D01*
X68843254Y-84442475D01*
X68843252Y-84442476D01*
X68772856Y-84491767D01*
X68655700Y-84573802D01*
X68655698Y-84573803D01*
X68655695Y-84573806D01*
X68493806Y-84735695D01*
X68493803Y-84735698D01*
X68493802Y-84735700D01*
X68447761Y-84801453D01*
X68362476Y-84923252D01*
X68362475Y-84923254D01*
X68265718Y-85130750D01*
X68265714Y-85130761D01*
X68206457Y-85351910D01*
X68206456Y-85351918D01*
X68186502Y-85579998D01*
X68186502Y-85580001D01*
X63193498Y-85580001D01*
X63193498Y-85580000D01*
X63173543Y-85351913D01*
X63114284Y-85130757D01*
X63017523Y-84923251D01*
X62886198Y-84735700D01*
X62724300Y-84573802D01*
X62536749Y-84442477D01*
X62536745Y-84442475D01*
X62329249Y-84345718D01*
X62329238Y-84345714D01*
X62108089Y-84286457D01*
X62108081Y-84286456D01*
X61880002Y-84266502D01*
X61879998Y-84266502D01*
X61651918Y-84286456D01*
X61651910Y-84286457D01*
X61430761Y-84345714D01*
X61430750Y-84345718D01*
X61223254Y-84442475D01*
X61223252Y-84442476D01*
X61152856Y-84491767D01*
X61035700Y-84573802D01*
X61035698Y-84573803D01*
X61035695Y-84573806D01*
X60873806Y-84735695D01*
X60873803Y-84735698D01*
X60873802Y-84735700D01*
X60827761Y-84801453D01*
X60742476Y-84923252D01*
X60742475Y-84923254D01*
X60645718Y-85130750D01*
X60645714Y-85130761D01*
X60586457Y-85351910D01*
X60586456Y-85351918D01*
X60566502Y-85579998D01*
X60566502Y-85580001D01*
X20200500Y-85580001D01*
X20200500Y-78808654D01*
X60571500Y-78808654D01*
X60578011Y-78869202D01*
X60578011Y-78869204D01*
X60626797Y-79000000D01*
X60629111Y-79006204D01*
X60716739Y-79123261D01*
X60833796Y-79210889D01*
X60970799Y-79261989D01*
X60998050Y-79264918D01*
X61031345Y-79268499D01*
X61031362Y-79268500D01*
X62728638Y-79268500D01*
X62728654Y-79268499D01*
X62755692Y-79265591D01*
X62789201Y-79261989D01*
X62926204Y-79210889D01*
X63043261Y-79123261D01*
X63130889Y-79006204D01*
X63181989Y-78869201D01*
X63187391Y-78818958D01*
X63188499Y-78808654D01*
X63188500Y-78808637D01*
X63188500Y-77960001D01*
X68186502Y-77960001D01*
X68206456Y-78188081D01*
X68206457Y-78188089D01*
X68265714Y-78409238D01*
X68265718Y-78409249D01*
X68329500Y-78546030D01*
X68362477Y-78616749D01*
X68493802Y-78804300D01*
X68655700Y-78966198D01*
X68843251Y-79097523D01*
X68898445Y-79123260D01*
X69050750Y-79194281D01*
X69050752Y-79194281D01*
X69050757Y-79194284D01*
X69271913Y-79253543D01*
X69434832Y-79267796D01*
X69499998Y-79273498D01*
X69500000Y-79273498D01*
X69500002Y-79273498D01*
X69557139Y-79268499D01*
X69728087Y-79253543D01*
X69949243Y-79194284D01*
X70156749Y-79097523D01*
X70344300Y-78966198D01*
X70506198Y-78804300D01*
X70637523Y-78616749D01*
X70734284Y-78409243D01*
X70793543Y-78188087D01*
X70813498Y-77960000D01*
X70809998Y-77920000D01*
X70805089Y-77863889D01*
X70793543Y-77731913D01*
X70734284Y-77510757D01*
X70729268Y-77500000D01*
X72486807Y-77500000D01*
X72505557Y-77774130D01*
X72505558Y-77774132D01*
X72561458Y-78043141D01*
X72561463Y-78043158D01*
X72653476Y-78302056D01*
X72779889Y-78546024D01*
X72779893Y-78546030D01*
X72938340Y-78770499D01*
X72938343Y-78770502D01*
X73125889Y-78971314D01*
X73339031Y-79144718D01*
X73339033Y-79144719D01*
X73339034Y-79144720D01*
X73573801Y-79287485D01*
X73724672Y-79353017D01*
X73825823Y-79396953D01*
X74090404Y-79471085D01*
X74329720Y-79503978D01*
X74362614Y-79508500D01*
X74362615Y-79508500D01*
X74637386Y-79508500D01*
X74666733Y-79504466D01*
X74909596Y-79471085D01*
X75174177Y-79396953D01*
X75426200Y-79287484D01*
X75660969Y-79144718D01*
X75838848Y-79000003D01*
X84686384Y-79000003D01*
X84706781Y-79181041D01*
X84706782Y-79181046D01*
X84731017Y-79250305D01*
X84756928Y-79324355D01*
X84766958Y-79353017D01*
X84863889Y-79507281D01*
X84866281Y-79509673D01*
X84867332Y-79511598D01*
X84868230Y-79512724D01*
X84868032Y-79512881D01*
X84899766Y-79570996D01*
X84902600Y-79597354D01*
X84902600Y-80421351D01*
X84902600Y-80578649D01*
X84939331Y-80715730D01*
X84943313Y-80730591D01*
X84988056Y-80808087D01*
X85021961Y-80866812D01*
X86633187Y-82478039D01*
X86769412Y-82556688D01*
X86921350Y-82597400D01*
X86921351Y-82597400D01*
X87921351Y-82597400D01*
X91486420Y-82597400D01*
X91553459Y-82617085D01*
X91599214Y-82669889D01*
X91609158Y-82739047D01*
X91580133Y-82802603D01*
X91552392Y-82826394D01*
X91492718Y-82863889D01*
X91363889Y-82992718D01*
X91266958Y-83146982D01*
X91206782Y-83318953D01*
X91206781Y-83318958D01*
X91186384Y-83499996D01*
X91186384Y-83500003D01*
X91206781Y-83681041D01*
X91206782Y-83681046D01*
X91266958Y-83853017D01*
X91363886Y-84007277D01*
X91364445Y-84007977D01*
X91364664Y-84008515D01*
X91367594Y-84013177D01*
X91366777Y-84013690D01*
X91390855Y-84072663D01*
X91391500Y-84085293D01*
X91391500Y-93696588D01*
X91371815Y-93763627D01*
X91355181Y-93784269D01*
X85977788Y-99161661D01*
X85916465Y-99195146D01*
X85903992Y-99197200D01*
X85818958Y-99206781D01*
X85646983Y-99266957D01*
X85492718Y-99363889D01*
X85363889Y-99492718D01*
X85266958Y-99646982D01*
X85206782Y-99818953D01*
X85206781Y-99818958D01*
X85186384Y-99999996D01*
X85186384Y-100000003D01*
X85206781Y-100181041D01*
X85206782Y-100181046D01*
X85266958Y-100353017D01*
X85315984Y-100431041D01*
X85363889Y-100507281D01*
X85492719Y-100636111D01*
X85646985Y-100733043D01*
X85818953Y-100793217D01*
X85818958Y-100793218D01*
X85999996Y-100813616D01*
X86000000Y-100813616D01*
X86000004Y-100813616D01*
X86181041Y-100793218D01*
X86181044Y-100793217D01*
X86181047Y-100793217D01*
X86353015Y-100733043D01*
X86507281Y-100636111D01*
X86636111Y-100507281D01*
X86733043Y-100353015D01*
X86769088Y-100250003D01*
X93436384Y-100250003D01*
X93456781Y-100431041D01*
X93456782Y-100431046D01*
X93516958Y-100603017D01*
X93544583Y-100646982D01*
X93613889Y-100757281D01*
X93742719Y-100886111D01*
X93896985Y-100983043D01*
X94068953Y-101043217D01*
X94068958Y-101043218D01*
X94249996Y-101063616D01*
X94250000Y-101063616D01*
X94250004Y-101063616D01*
X94431041Y-101043218D01*
X94431044Y-101043217D01*
X94431047Y-101043217D01*
X94603015Y-100983043D01*
X94757281Y-100886111D01*
X94757286Y-100886105D01*
X94757977Y-100885555D01*
X94758515Y-100885335D01*
X94763177Y-100882406D01*
X94763690Y-100883222D01*
X94822663Y-100859145D01*
X94835293Y-100858500D01*
X99830109Y-100858500D01*
X99830110Y-100858500D01*
X99830111Y-100858500D01*
X99907491Y-100837766D01*
X99984873Y-100817032D01*
X100123627Y-100736922D01*
X102860546Y-98000003D01*
X108186384Y-98000003D01*
X108206781Y-98181041D01*
X108206782Y-98181046D01*
X108266958Y-98353017D01*
X108354738Y-98492718D01*
X108363889Y-98507281D01*
X108492719Y-98636111D01*
X108646985Y-98733043D01*
X108818953Y-98793217D01*
X108818958Y-98793218D01*
X108999996Y-98813616D01*
X109000000Y-98813616D01*
X109000004Y-98813616D01*
X109181041Y-98793218D01*
X109181044Y-98793217D01*
X109181047Y-98793217D01*
X109353015Y-98733043D01*
X109507281Y-98636111D01*
X109636111Y-98507281D01*
X109640684Y-98500003D01*
X110186384Y-98500003D01*
X110206781Y-98681041D01*
X110206782Y-98681046D01*
X110206783Y-98681048D01*
X110266957Y-98853015D01*
X110363889Y-99007281D01*
X110492719Y-99136111D01*
X110646985Y-99233043D01*
X110818953Y-99293217D01*
X110818958Y-99293218D01*
X110999996Y-99313616D01*
X111000000Y-99313616D01*
X111000004Y-99313616D01*
X111181041Y-99293218D01*
X111181044Y-99293217D01*
X111181047Y-99293217D01*
X111353015Y-99233043D01*
X111507281Y-99136111D01*
X111636111Y-99007281D01*
X111733043Y-98853015D01*
X111793217Y-98681047D01*
X111802798Y-98596005D01*
X111829863Y-98531595D01*
X111838327Y-98522220D01*
X113912322Y-96448226D01*
X113973641Y-96414744D01*
X114043333Y-96419728D01*
X114087680Y-96448229D01*
X116661661Y-99022210D01*
X116695146Y-99083533D01*
X116697200Y-99096007D01*
X116706781Y-99181041D01*
X116766957Y-99353016D01*
X116832158Y-99456782D01*
X116863889Y-99507281D01*
X116992719Y-99636111D01*
X117010025Y-99646985D01*
X117052392Y-99673606D01*
X117098683Y-99725941D01*
X117109331Y-99794995D01*
X117080956Y-99858843D01*
X117022566Y-99897215D01*
X116986420Y-99902600D01*
X113421351Y-99902600D01*
X113269412Y-99943312D01*
X113250753Y-99954085D01*
X113250750Y-99954087D01*
X113250749Y-99954086D01*
X113133191Y-100021958D01*
X113133186Y-100021962D01*
X112995477Y-100159669D01*
X112934154Y-100193153D01*
X112921681Y-100195207D01*
X112818956Y-100206781D01*
X112646982Y-100266958D01*
X112492718Y-100363889D01*
X112363889Y-100492718D01*
X112266958Y-100646982D01*
X112206782Y-100818953D01*
X112206781Y-100818958D01*
X112186384Y-100999996D01*
X112186384Y-101000003D01*
X112206781Y-101181041D01*
X112206782Y-101181046D01*
X112224976Y-101233041D01*
X112266957Y-101353015D01*
X112363889Y-101507281D01*
X112492719Y-101636111D01*
X112646985Y-101733043D01*
X112818953Y-101793217D01*
X112818958Y-101793218D01*
X112999996Y-101813616D01*
X113000000Y-101813616D01*
X113000004Y-101813616D01*
X113181041Y-101793218D01*
X113181044Y-101793217D01*
X113181047Y-101793217D01*
X113353015Y-101733043D01*
X113507281Y-101636111D01*
X113636111Y-101507281D01*
X113733043Y-101353015D01*
X113793217Y-101181047D01*
X113793217Y-101181045D01*
X113793427Y-101180446D01*
X113834149Y-101123670D01*
X113899102Y-101097922D01*
X113910469Y-101097400D01*
X123402646Y-101097400D01*
X123469685Y-101117085D01*
X123490327Y-101133719D01*
X123492719Y-101136111D01*
X123646985Y-101233043D01*
X123818953Y-101293217D01*
X123818958Y-101293218D01*
X123999996Y-101313616D01*
X124000000Y-101313616D01*
X124000004Y-101313616D01*
X124181041Y-101293218D01*
X124181044Y-101293217D01*
X124181047Y-101293217D01*
X124353015Y-101233043D01*
X124507281Y-101136111D01*
X124636111Y-101007281D01*
X124733043Y-100853015D01*
X124793217Y-100681047D01*
X124797055Y-100646985D01*
X124813616Y-100500003D01*
X124813616Y-100499996D01*
X124793218Y-100318958D01*
X124793217Y-100318953D01*
X124753966Y-100206781D01*
X124733043Y-100146985D01*
X124636111Y-99992719D01*
X124507281Y-99863889D01*
X124397637Y-99794995D01*
X124353017Y-99766958D01*
X124353016Y-99766957D01*
X124353015Y-99766957D01*
X124283744Y-99742718D01*
X124181046Y-99706782D01*
X124181041Y-99706781D01*
X124000004Y-99686384D01*
X123999996Y-99686384D01*
X123818958Y-99706781D01*
X123818953Y-99706782D01*
X123646982Y-99766958D01*
X123492718Y-99863889D01*
X123490327Y-99866281D01*
X123488401Y-99867332D01*
X123487276Y-99868230D01*
X123487118Y-99868032D01*
X123429004Y-99899766D01*
X123402646Y-99902600D01*
X118013580Y-99902600D01*
X117946541Y-99882915D01*
X117900786Y-99830111D01*
X117890842Y-99760953D01*
X117919867Y-99697397D01*
X117947608Y-99673606D01*
X118007281Y-99636111D01*
X118136111Y-99507281D01*
X118233043Y-99353015D01*
X118293217Y-99181047D01*
X118293218Y-99181041D01*
X118313616Y-99000003D01*
X118313616Y-98999996D01*
X118293218Y-98818958D01*
X118293217Y-98818953D01*
X118233043Y-98646985D01*
X118136111Y-98492719D01*
X118007281Y-98363889D01*
X117935766Y-98318953D01*
X117853016Y-98266957D01*
X117681041Y-98206781D01*
X117596007Y-98197200D01*
X117531593Y-98170133D01*
X117522210Y-98161661D01*
X114860549Y-95500000D01*
X116486807Y-95500000D01*
X116505557Y-95774130D01*
X116505558Y-95774132D01*
X116561458Y-96043141D01*
X116561463Y-96043158D01*
X116653476Y-96302056D01*
X116779889Y-96546024D01*
X116779893Y-96546030D01*
X116938340Y-96770499D01*
X116938343Y-96770502D01*
X117125889Y-96971314D01*
X117339031Y-97144718D01*
X117339033Y-97144719D01*
X117339034Y-97144720D01*
X117573801Y-97287485D01*
X117749702Y-97363889D01*
X117825823Y-97396953D01*
X118090404Y-97471085D01*
X118329720Y-97503978D01*
X118362614Y-97508500D01*
X118362615Y-97508500D01*
X118637386Y-97508500D01*
X118666733Y-97504466D01*
X118909596Y-97471085D01*
X119174177Y-97396953D01*
X119426200Y-97287484D01*
X119660969Y-97144718D01*
X119874111Y-96971314D01*
X120061657Y-96770502D01*
X120220111Y-96546023D01*
X120346523Y-96302058D01*
X120438538Y-96043153D01*
X120438539Y-96043146D01*
X120438541Y-96043141D01*
X120464491Y-95918259D01*
X120494442Y-95774130D01*
X120513193Y-95500000D01*
X120494442Y-95225870D01*
X120472190Y-95118788D01*
X120438541Y-94956858D01*
X120438536Y-94956841D01*
X120346523Y-94697943D01*
X120346523Y-94697942D01*
X120220111Y-94453977D01*
X120220110Y-94453975D01*
X120220106Y-94453969D01*
X120061659Y-94229500D01*
X119963412Y-94124304D01*
X119874111Y-94028686D01*
X119660969Y-93855282D01*
X119660967Y-93855281D01*
X119660965Y-93855279D01*
X119426198Y-93712514D01*
X119174178Y-93603047D01*
X118909602Y-93528916D01*
X118909597Y-93528915D01*
X118909596Y-93528915D01*
X118773490Y-93510207D01*
X118637386Y-93491500D01*
X118637385Y-93491500D01*
X118362615Y-93491500D01*
X118362614Y-93491500D01*
X118090404Y-93528915D01*
X118090397Y-93528916D01*
X117825821Y-93603047D01*
X117573801Y-93712514D01*
X117339034Y-93855279D01*
X117125892Y-94028683D01*
X116938340Y-94229500D01*
X116779893Y-94453969D01*
X116779889Y-94453975D01*
X116653476Y-94697943D01*
X116561463Y-94956841D01*
X116561458Y-94956858D01*
X116505558Y-95225867D01*
X116505557Y-95225869D01*
X116486807Y-95500000D01*
X114860549Y-95500000D01*
X114644819Y-95284270D01*
X114611334Y-95222947D01*
X114608500Y-95196589D01*
X114608500Y-80803411D01*
X114628185Y-80736372D01*
X114644819Y-80715730D01*
X115041596Y-80318953D01*
X115486922Y-79873627D01*
X115567032Y-79734872D01*
X115608500Y-79580110D01*
X115608500Y-79419889D01*
X115608500Y-79085293D01*
X115628185Y-79018254D01*
X115635555Y-79007977D01*
X115636105Y-79007286D01*
X115636111Y-79007281D01*
X115733043Y-78853015D01*
X115793217Y-78681047D01*
X115797055Y-78646985D01*
X115813616Y-78500003D01*
X115813616Y-78499996D01*
X115793218Y-78318958D01*
X115793217Y-78318953D01*
X115787305Y-78302058D01*
X115733043Y-78146985D01*
X115636111Y-77992719D01*
X115507281Y-77863889D01*
X115353015Y-77766957D01*
X115298693Y-77747949D01*
X115181046Y-77706782D01*
X115181041Y-77706781D01*
X115000004Y-77686384D01*
X114999996Y-77686384D01*
X114818958Y-77706781D01*
X114818953Y-77706782D01*
X114646982Y-77766958D01*
X114492718Y-77863889D01*
X114363889Y-77992718D01*
X114266958Y-78146982D01*
X114206782Y-78318953D01*
X114206781Y-78318958D01*
X114186384Y-78499996D01*
X114186384Y-78500003D01*
X114206781Y-78681041D01*
X114206782Y-78681046D01*
X114247949Y-78798693D01*
X114258624Y-78829202D01*
X114266958Y-78853017D01*
X114363886Y-79007277D01*
X114364445Y-79007977D01*
X114364664Y-79008515D01*
X114367594Y-79013177D01*
X114366777Y-79013690D01*
X114390855Y-79072663D01*
X114391500Y-79085293D01*
X114391500Y-79196589D01*
X114371815Y-79263628D01*
X114355181Y-79284270D01*
X113513080Y-80126370D01*
X113513076Y-80126376D01*
X113432967Y-80265126D01*
X113432968Y-80265126D01*
X113432968Y-80265127D01*
X113391500Y-80419889D01*
X113391500Y-95196588D01*
X113371815Y-95263627D01*
X113355181Y-95284269D01*
X110977788Y-97661661D01*
X110916465Y-97695146D01*
X110903992Y-97697200D01*
X110818958Y-97706781D01*
X110646983Y-97766957D01*
X110492718Y-97863889D01*
X110363889Y-97992718D01*
X110266958Y-98146982D01*
X110206782Y-98318953D01*
X110206781Y-98318958D01*
X110186384Y-98499996D01*
X110186384Y-98500003D01*
X109640684Y-98500003D01*
X109733043Y-98353015D01*
X109793217Y-98181047D01*
X109802798Y-98096005D01*
X109829863Y-98031595D01*
X109838327Y-98022220D01*
X112064722Y-95795827D01*
X112144832Y-95657072D01*
X112160380Y-95599046D01*
X112186300Y-95502311D01*
X112186300Y-74497689D01*
X112144832Y-74342928D01*
X112090667Y-74249111D01*
X112064722Y-74204173D01*
X111838337Y-73977788D01*
X111804852Y-73916465D01*
X111802798Y-73903989D01*
X111793218Y-73818956D01*
X111733042Y-73646983D01*
X111636109Y-73492716D01*
X111635549Y-73492014D01*
X111635328Y-73491474D01*
X111632406Y-73486823D01*
X111633221Y-73486310D01*
X111609144Y-73427326D01*
X111608500Y-73414706D01*
X111608500Y-72803409D01*
X111628185Y-72736370D01*
X111644814Y-72715733D01*
X115522211Y-68838335D01*
X115583532Y-68804852D01*
X115595986Y-68802800D01*
X115681047Y-68793217D01*
X115853015Y-68733043D01*
X116007281Y-68636111D01*
X116136111Y-68507281D01*
X116233043Y-68353015D01*
X116293217Y-68181047D01*
X116293498Y-68178556D01*
X116313616Y-68000003D01*
X116313616Y-67999996D01*
X116293218Y-67818958D01*
X116293217Y-67818953D01*
X116288881Y-67806562D01*
X116233043Y-67646985D01*
X116136111Y-67492719D01*
X116007281Y-67363889D01*
X115894809Y-67293218D01*
X115853017Y-67266958D01*
X115853016Y-67266957D01*
X115853015Y-67266957D01*
X115795235Y-67246739D01*
X115681046Y-67206782D01*
X115681041Y-67206781D01*
X115500004Y-67186384D01*
X115499996Y-67186384D01*
X115318958Y-67206781D01*
X115318953Y-67206782D01*
X115146982Y-67266958D01*
X114992718Y-67363889D01*
X114863889Y-67492718D01*
X114766957Y-67646983D01*
X114706781Y-67818958D01*
X114697200Y-67903993D01*
X114670133Y-67968406D01*
X114661661Y-67977789D01*
X110513080Y-72126370D01*
X110513076Y-72126376D01*
X110432967Y-72265126D01*
X110432968Y-72265126D01*
X110432968Y-72265127D01*
X110391500Y-72419889D01*
X110391500Y-73414706D01*
X110371815Y-73481745D01*
X110364451Y-73492014D01*
X110363890Y-73492716D01*
X110266958Y-73646982D01*
X110206782Y-73818953D01*
X110206781Y-73818958D01*
X110186384Y-73999996D01*
X110186384Y-74000003D01*
X110206781Y-74181041D01*
X110206782Y-74181046D01*
X110247949Y-74298693D01*
X110266957Y-74353015D01*
X110363889Y-74507281D01*
X110492719Y-74636111D01*
X110646985Y-74733043D01*
X110818953Y-74793217D01*
X110818956Y-74793218D01*
X110859182Y-74797750D01*
X110923596Y-74824816D01*
X110963152Y-74882410D01*
X110969300Y-74920970D01*
X110969300Y-95118788D01*
X110949615Y-95185827D01*
X110932981Y-95206469D01*
X108977788Y-97161661D01*
X108916465Y-97195146D01*
X108903992Y-97197200D01*
X108818958Y-97206781D01*
X108646983Y-97266957D01*
X108492718Y-97363889D01*
X108363889Y-97492718D01*
X108266958Y-97646982D01*
X108206782Y-97818953D01*
X108206781Y-97818958D01*
X108186384Y-97999996D01*
X108186384Y-98000003D01*
X102860546Y-98000003D01*
X103986922Y-96873627D01*
X104067032Y-96734872D01*
X104108500Y-96580110D01*
X104108500Y-96419890D01*
X104108500Y-89085293D01*
X104128185Y-89018254D01*
X104135555Y-89007977D01*
X104136105Y-89007286D01*
X104136111Y-89007281D01*
X104233043Y-88853015D01*
X104293217Y-88681047D01*
X104296800Y-88649249D01*
X104313616Y-88500003D01*
X104313616Y-88499996D01*
X104293218Y-88318958D01*
X104293217Y-88318953D01*
X104251594Y-88200001D01*
X107041502Y-88200001D01*
X107061456Y-88428081D01*
X107061457Y-88428089D01*
X107120714Y-88649238D01*
X107120718Y-88649249D01*
X107135546Y-88681047D01*
X107217477Y-88856749D01*
X107348802Y-89044300D01*
X107510700Y-89206198D01*
X107698251Y-89337523D01*
X107823091Y-89395736D01*
X107905750Y-89434281D01*
X107905752Y-89434281D01*
X107905757Y-89434284D01*
X108126913Y-89493543D01*
X108289832Y-89507796D01*
X108354998Y-89513498D01*
X108355000Y-89513498D01*
X108355002Y-89513498D01*
X108412021Y-89508509D01*
X108583087Y-89493543D01*
X108804243Y-89434284D01*
X109011749Y-89337523D01*
X109199300Y-89206198D01*
X109361198Y-89044300D01*
X109492523Y-88856749D01*
X109589284Y-88649243D01*
X109648543Y-88428087D01*
X109668498Y-88200000D01*
X109648543Y-87971913D01*
X109589284Y-87750757D01*
X109492523Y-87543251D01*
X109361198Y-87355700D01*
X109199300Y-87193802D01*
X109011749Y-87062477D01*
X108968655Y-87042382D01*
X108916215Y-86996210D01*
X108897063Y-86929017D01*
X108917278Y-86862136D01*
X108968655Y-86817618D01*
X108971882Y-86816112D01*
X109011749Y-86797523D01*
X109199300Y-86666198D01*
X109361198Y-86504300D01*
X109492523Y-86316749D01*
X109589284Y-86109243D01*
X109648543Y-85888087D01*
X109668498Y-85660000D01*
X109648543Y-85431913D01*
X109589284Y-85210757D01*
X109551981Y-85130761D01*
X109492524Y-85003254D01*
X109492523Y-85003252D01*
X109492523Y-85003251D01*
X109361198Y-84815700D01*
X109199300Y-84653802D01*
X109011749Y-84522477D01*
X108963547Y-84500000D01*
X108804249Y-84425718D01*
X108804238Y-84425714D01*
X108583089Y-84366457D01*
X108583081Y-84366456D01*
X108355002Y-84346502D01*
X108354998Y-84346502D01*
X108126918Y-84366456D01*
X108126910Y-84366457D01*
X107905761Y-84425714D01*
X107905750Y-84425718D01*
X107698254Y-84522475D01*
X107698252Y-84522476D01*
X107698251Y-84522477D01*
X107510700Y-84653802D01*
X107510698Y-84653803D01*
X107510695Y-84653806D01*
X107348806Y-84815695D01*
X107348803Y-84815698D01*
X107348802Y-84815700D01*
X107289938Y-84899766D01*
X107217476Y-85003252D01*
X107217475Y-85003254D01*
X107120718Y-85210750D01*
X107120714Y-85210761D01*
X107061457Y-85431910D01*
X107061456Y-85431918D01*
X107041502Y-85659998D01*
X107041502Y-85660001D01*
X107061456Y-85888081D01*
X107061457Y-85888089D01*
X107120714Y-86109238D01*
X107120718Y-86109249D01*
X107206504Y-86293217D01*
X107217477Y-86316749D01*
X107348802Y-86504300D01*
X107510700Y-86666198D01*
X107698251Y-86797523D01*
X107741345Y-86817618D01*
X107793784Y-86863791D01*
X107812936Y-86930984D01*
X107792720Y-86997865D01*
X107741345Y-87042382D01*
X107698251Y-87062476D01*
X107573126Y-87150090D01*
X107510700Y-87193802D01*
X107510698Y-87193803D01*
X107510695Y-87193806D01*
X107348806Y-87355695D01*
X107217476Y-87543252D01*
X107217475Y-87543254D01*
X107120718Y-87750750D01*
X107120714Y-87750761D01*
X107061457Y-87971910D01*
X107061456Y-87971918D01*
X107041502Y-88199998D01*
X107041502Y-88200001D01*
X104251594Y-88200001D01*
X104233043Y-88146985D01*
X104136111Y-87992719D01*
X104007281Y-87863889D01*
X103853015Y-87766957D01*
X103798693Y-87747949D01*
X103681046Y-87706782D01*
X103681041Y-87706781D01*
X103500004Y-87686384D01*
X103499996Y-87686384D01*
X103318958Y-87706781D01*
X103318953Y-87706782D01*
X103146982Y-87766958D01*
X102992718Y-87863889D01*
X102863889Y-87992718D01*
X102766958Y-88146982D01*
X102706782Y-88318953D01*
X102706781Y-88318958D01*
X102686384Y-88499996D01*
X102686384Y-88500003D01*
X102706781Y-88681041D01*
X102706782Y-88681046D01*
X102766958Y-88853017D01*
X102863886Y-89007277D01*
X102864445Y-89007977D01*
X102864664Y-89008515D01*
X102867594Y-89013177D01*
X102866777Y-89013690D01*
X102890855Y-89072663D01*
X102891500Y-89085293D01*
X102891500Y-91605661D01*
X102871815Y-91672700D01*
X102819011Y-91718455D01*
X102749853Y-91728399D01*
X102726546Y-91722703D01*
X102681049Y-91706783D01*
X102681041Y-91706781D01*
X102500004Y-91686384D01*
X102499996Y-91686384D01*
X102318958Y-91706781D01*
X102318953Y-91706782D01*
X102146982Y-91766958D01*
X101992718Y-91863889D01*
X101863889Y-91992718D01*
X101766956Y-92146984D01*
X101766955Y-92146988D01*
X101748451Y-92199869D01*
X101707729Y-92256645D01*
X101642776Y-92282392D01*
X101574215Y-92268935D01*
X101560294Y-92260494D01*
X101391749Y-92142477D01*
X101391745Y-92142475D01*
X101184249Y-92045718D01*
X101184238Y-92045714D01*
X100963089Y-91986457D01*
X100963081Y-91986456D01*
X100735002Y-91966502D01*
X100734998Y-91966502D01*
X100506918Y-91986456D01*
X100506910Y-91986457D01*
X100285761Y-92045714D01*
X100285750Y-92045718D01*
X100078254Y-92142475D01*
X100078252Y-92142476D01*
X100007856Y-92191767D01*
X99890700Y-92273802D01*
X99890698Y-92273803D01*
X99890695Y-92273806D01*
X99728806Y-92435695D01*
X99597476Y-92623252D01*
X99597475Y-92623254D01*
X99500718Y-92830750D01*
X99500714Y-92830761D01*
X99441457Y-93051910D01*
X99441456Y-93051918D01*
X99421502Y-93279998D01*
X99421502Y-93280001D01*
X99441456Y-93508081D01*
X99441457Y-93508089D01*
X99500714Y-93729238D01*
X99500718Y-93729249D01*
X99567400Y-93872248D01*
X99597477Y-93936749D01*
X99728802Y-94124300D01*
X99890700Y-94286198D01*
X100078251Y-94417523D01*
X100203091Y-94475736D01*
X100285750Y-94514281D01*
X100285752Y-94514281D01*
X100285757Y-94514284D01*
X100506913Y-94573543D01*
X100669832Y-94587796D01*
X100734998Y-94593498D01*
X100735000Y-94593498D01*
X100735002Y-94593498D01*
X100792021Y-94588509D01*
X100963087Y-94573543D01*
X101184243Y-94514284D01*
X101391749Y-94417523D01*
X101391758Y-94417516D01*
X101394409Y-94415987D01*
X101395731Y-94415666D01*
X101396656Y-94415235D01*
X101396742Y-94415420D01*
X101462308Y-94399510D01*
X101528336Y-94422358D01*
X101571530Y-94477277D01*
X101578176Y-94546830D01*
X101546163Y-94608934D01*
X101544096Y-94611051D01*
X98995479Y-97159668D01*
X98934156Y-97193153D01*
X98921682Y-97195207D01*
X98818956Y-97206781D01*
X98646982Y-97266958D01*
X98492718Y-97363889D01*
X98363889Y-97492718D01*
X98266958Y-97646982D01*
X98206782Y-97818953D01*
X98206781Y-97818958D01*
X98186384Y-97999996D01*
X98186384Y-98000003D01*
X98206781Y-98181041D01*
X98206782Y-98181046D01*
X98266958Y-98353017D01*
X98354738Y-98492718D01*
X98363889Y-98507281D01*
X98492719Y-98636111D01*
X98646985Y-98733043D01*
X98818953Y-98793217D01*
X98818958Y-98793218D01*
X98999996Y-98813616D01*
X99000000Y-98813616D01*
X99000004Y-98813616D01*
X99181041Y-98793218D01*
X99181044Y-98793217D01*
X99181047Y-98793217D01*
X99353015Y-98733043D01*
X99507281Y-98636111D01*
X99636111Y-98507281D01*
X99733043Y-98353015D01*
X99793217Y-98181047D01*
X99804791Y-98078314D01*
X99831856Y-98013904D01*
X99840320Y-98004529D01*
X102679821Y-95165029D01*
X102741142Y-95131546D01*
X102810834Y-95136530D01*
X102866767Y-95178402D01*
X102891184Y-95243866D01*
X102891500Y-95252712D01*
X102891500Y-96196589D01*
X102871815Y-96263628D01*
X102855181Y-96284270D01*
X99534270Y-99605181D01*
X99472947Y-99638666D01*
X99446589Y-99641500D01*
X94835293Y-99641500D01*
X94768254Y-99621815D01*
X94757977Y-99614445D01*
X94757277Y-99613886D01*
X94603017Y-99516958D01*
X94603016Y-99516957D01*
X94603015Y-99516957D01*
X94533744Y-99492718D01*
X94431046Y-99456782D01*
X94431041Y-99456781D01*
X94250004Y-99436384D01*
X94249996Y-99436384D01*
X94068958Y-99456781D01*
X94068953Y-99456782D01*
X93896982Y-99516958D01*
X93742718Y-99613889D01*
X93613889Y-99742718D01*
X93516958Y-99896982D01*
X93456782Y-100068953D01*
X93456781Y-100068958D01*
X93436384Y-100249996D01*
X93436384Y-100250003D01*
X86769088Y-100250003D01*
X86793217Y-100181047D01*
X86802798Y-100096005D01*
X86829863Y-100031595D01*
X86838327Y-100022220D01*
X91912322Y-94948226D01*
X91973641Y-94914744D01*
X92043333Y-94919728D01*
X92087680Y-94948229D01*
X93626372Y-96486921D01*
X93765127Y-96567032D01*
X93842508Y-96587766D01*
X93919889Y-96608500D01*
X93919890Y-96608500D01*
X94080110Y-96608500D01*
X97414707Y-96608500D01*
X97481746Y-96628185D01*
X97492023Y-96635555D01*
X97492717Y-96636109D01*
X97492719Y-96636111D01*
X97646985Y-96733043D01*
X97818953Y-96793217D01*
X97818958Y-96793218D01*
X97999996Y-96813616D01*
X98000000Y-96813616D01*
X98000004Y-96813616D01*
X98181041Y-96793218D01*
X98181044Y-96793217D01*
X98181047Y-96793217D01*
X98353015Y-96733043D01*
X98507281Y-96636111D01*
X98636111Y-96507281D01*
X98733043Y-96353015D01*
X98793217Y-96181047D01*
X98793218Y-96181041D01*
X98813616Y-96000003D01*
X98813616Y-95999996D01*
X98793218Y-95818958D01*
X98793217Y-95818953D01*
X98785123Y-95795823D01*
X98733043Y-95646985D01*
X98636111Y-95492719D01*
X98507281Y-95363889D01*
X98493422Y-95355181D01*
X98353017Y-95266958D01*
X98353016Y-95266957D01*
X98353015Y-95266957D01*
X98298693Y-95247949D01*
X98181046Y-95206782D01*
X98181041Y-95206781D01*
X98000004Y-95186384D01*
X97999996Y-95186384D01*
X97818958Y-95206781D01*
X97818953Y-95206782D01*
X97646982Y-95266958D01*
X97492722Y-95363886D01*
X97492023Y-95364445D01*
X97491484Y-95364664D01*
X97486823Y-95367594D01*
X97486309Y-95366777D01*
X97427337Y-95390855D01*
X97414707Y-95391500D01*
X94303411Y-95391500D01*
X94236372Y-95371815D01*
X94215730Y-95355181D01*
X92644819Y-93784270D01*
X92611334Y-93722947D01*
X92608500Y-93696589D01*
X92608500Y-84085293D01*
X92628185Y-84018254D01*
X92635555Y-84007977D01*
X92636105Y-84007286D01*
X92636111Y-84007281D01*
X92733043Y-83853015D01*
X92793217Y-83681047D01*
X92805814Y-83569249D01*
X92813616Y-83500003D01*
X92813616Y-83499996D01*
X92793218Y-83318958D01*
X92793217Y-83318953D01*
X92761422Y-83228089D01*
X92733043Y-83146985D01*
X92636111Y-82992719D01*
X92507281Y-82863889D01*
X92447607Y-82826393D01*
X92401317Y-82774059D01*
X92390669Y-82705005D01*
X92419044Y-82641157D01*
X92477434Y-82602785D01*
X92513580Y-82597400D01*
X99358772Y-82597400D01*
X99425811Y-82617085D01*
X99471566Y-82669889D01*
X99481510Y-82739047D01*
X99478548Y-82753486D01*
X99467410Y-82795057D01*
X99441457Y-82891911D01*
X99441456Y-82891918D01*
X99421502Y-83119998D01*
X99421502Y-83120001D01*
X99441456Y-83348081D01*
X99441457Y-83348089D01*
X99500714Y-83569238D01*
X99500718Y-83569249D01*
X99570801Y-83719542D01*
X99597477Y-83776749D01*
X99728802Y-83964300D01*
X99890700Y-84126198D01*
X100045064Y-84234285D01*
X100078251Y-84257523D01*
X100121345Y-84277618D01*
X100173784Y-84323791D01*
X100192936Y-84390984D01*
X100172720Y-84457865D01*
X100121345Y-84502382D01*
X100078251Y-84522476D01*
X99964979Y-84601791D01*
X99890700Y-84653802D01*
X99890698Y-84653803D01*
X99890695Y-84653806D01*
X99728806Y-84815695D01*
X99728803Y-84815698D01*
X99728802Y-84815700D01*
X99669938Y-84899766D01*
X99597476Y-85003252D01*
X99597475Y-85003254D01*
X99500718Y-85210750D01*
X99500714Y-85210761D01*
X99441457Y-85431910D01*
X99441456Y-85431918D01*
X99421502Y-85659998D01*
X99421502Y-85660001D01*
X99441456Y-85888081D01*
X99441457Y-85888089D01*
X99500714Y-86109238D01*
X99500718Y-86109249D01*
X99586504Y-86293217D01*
X99597477Y-86316749D01*
X99728802Y-86504300D01*
X99890700Y-86666198D01*
X100078251Y-86797523D01*
X100121345Y-86817618D01*
X100173784Y-86863791D01*
X100192936Y-86930984D01*
X100172720Y-86997865D01*
X100121345Y-87042382D01*
X100078251Y-87062476D01*
X99953126Y-87150090D01*
X99890700Y-87193802D01*
X99890698Y-87193803D01*
X99890695Y-87193806D01*
X99728806Y-87355695D01*
X99597476Y-87543252D01*
X99597475Y-87543254D01*
X99500718Y-87750750D01*
X99500714Y-87750761D01*
X99441457Y-87971910D01*
X99441456Y-87971918D01*
X99421502Y-88199998D01*
X99421502Y-88200001D01*
X99441456Y-88428081D01*
X99441457Y-88428089D01*
X99500714Y-88649238D01*
X99500718Y-88649249D01*
X99515546Y-88681047D01*
X99597477Y-88856749D01*
X99728802Y-89044300D01*
X99890700Y-89206198D01*
X100078251Y-89337523D01*
X100203091Y-89395736D01*
X100285750Y-89434281D01*
X100285752Y-89434281D01*
X100285757Y-89434284D01*
X100506913Y-89493543D01*
X100669832Y-89507796D01*
X100734998Y-89513498D01*
X100735000Y-89513498D01*
X100735002Y-89513498D01*
X100792021Y-89508509D01*
X100963087Y-89493543D01*
X101184243Y-89434284D01*
X101391749Y-89337523D01*
X101579300Y-89206198D01*
X101741198Y-89044300D01*
X101872523Y-88856749D01*
X101969284Y-88649243D01*
X102028543Y-88428087D01*
X102048498Y-88200000D01*
X102028543Y-87971913D01*
X101969284Y-87750757D01*
X101872523Y-87543251D01*
X101741198Y-87355700D01*
X101579300Y-87193802D01*
X101391749Y-87062477D01*
X101348655Y-87042382D01*
X101296215Y-86996210D01*
X101277063Y-86929017D01*
X101297278Y-86862136D01*
X101348655Y-86817618D01*
X101351882Y-86816112D01*
X101391749Y-86797523D01*
X101579300Y-86666198D01*
X101741198Y-86504300D01*
X101872523Y-86316749D01*
X101969284Y-86109243D01*
X102028543Y-85888087D01*
X102048498Y-85660000D01*
X102028543Y-85431913D01*
X101969284Y-85210757D01*
X101931981Y-85130761D01*
X101872524Y-85003254D01*
X101872523Y-85003252D01*
X101872523Y-85003251D01*
X101741198Y-84815700D01*
X101579300Y-84653802D01*
X101391749Y-84522477D01*
X101348655Y-84502382D01*
X101296215Y-84456210D01*
X101277063Y-84389017D01*
X101297278Y-84322136D01*
X101348655Y-84277618D01*
X101351882Y-84276112D01*
X101391749Y-84257523D01*
X101579300Y-84126198D01*
X101741198Y-83964300D01*
X101872523Y-83776749D01*
X101969284Y-83569243D01*
X102028543Y-83348087D01*
X102048498Y-83120000D01*
X102028543Y-82891913D01*
X101991453Y-82753492D01*
X101993116Y-82683644D01*
X102032278Y-82625781D01*
X102096507Y-82598277D01*
X102111228Y-82597400D01*
X103902646Y-82597400D01*
X103969685Y-82617085D01*
X103990327Y-82633719D01*
X103992719Y-82636111D01*
X104146985Y-82733043D01*
X104318953Y-82793217D01*
X104318958Y-82793218D01*
X104499996Y-82813616D01*
X104500000Y-82813616D01*
X104500004Y-82813616D01*
X104681041Y-82793218D01*
X104681044Y-82793217D01*
X104681047Y-82793217D01*
X104853015Y-82733043D01*
X105007281Y-82636111D01*
X105107319Y-82536073D01*
X105168642Y-82502588D01*
X105238334Y-82507572D01*
X105294267Y-82549444D01*
X105318684Y-82614908D01*
X105319000Y-82623754D01*
X105319000Y-83850996D01*
X105299315Y-83918035D01*
X105287151Y-83933967D01*
X105260961Y-83963054D01*
X105260957Y-83963059D01*
X105165473Y-84128443D01*
X105165470Y-84128450D01*
X105106459Y-84310068D01*
X105106458Y-84310072D01*
X105086496Y-84500000D01*
X105106458Y-84689928D01*
X105106459Y-84689931D01*
X105165470Y-84871549D01*
X105165473Y-84871556D01*
X105260960Y-85036944D01*
X105388747Y-85178866D01*
X105543248Y-85291118D01*
X105717712Y-85368794D01*
X105904513Y-85408500D01*
X106095487Y-85408500D01*
X106282288Y-85368794D01*
X106456752Y-85291118D01*
X106611253Y-85178866D01*
X106739040Y-85036944D01*
X106834527Y-84871556D01*
X106893542Y-84689928D01*
X106913504Y-84500000D01*
X106893542Y-84310072D01*
X106834527Y-84128444D01*
X106739040Y-83963056D01*
X106712849Y-83933967D01*
X106682620Y-83870975D01*
X106681000Y-83850996D01*
X106681000Y-80580001D01*
X107041502Y-80580001D01*
X107061456Y-80808081D01*
X107061457Y-80808089D01*
X107120714Y-81029238D01*
X107120718Y-81029249D01*
X107212556Y-81226196D01*
X107217477Y-81236749D01*
X107348802Y-81424300D01*
X107510700Y-81586198D01*
X107698251Y-81717523D01*
X107801602Y-81765716D01*
X107905750Y-81814281D01*
X107905752Y-81814281D01*
X107905757Y-81814284D01*
X108126913Y-81873543D01*
X108289832Y-81887796D01*
X108354998Y-81893498D01*
X108355000Y-81893498D01*
X108355002Y-81893498D01*
X108412021Y-81888509D01*
X108583087Y-81873543D01*
X108804243Y-81814284D01*
X109011749Y-81717523D01*
X109199300Y-81586198D01*
X109361198Y-81424300D01*
X109492523Y-81236749D01*
X109589284Y-81029243D01*
X109648543Y-80808087D01*
X109668498Y-80580000D01*
X109648543Y-80351913D01*
X109589284Y-80130757D01*
X109587238Y-80126370D01*
X109506865Y-79954008D01*
X109492523Y-79923251D01*
X109361198Y-79735700D01*
X109199300Y-79573802D01*
X109011749Y-79442477D01*
X108968655Y-79422382D01*
X108916215Y-79376210D01*
X108897063Y-79309017D01*
X108917278Y-79242136D01*
X108968655Y-79197618D01*
X108971882Y-79196112D01*
X109011749Y-79177523D01*
X109199300Y-79046198D01*
X109361198Y-78884300D01*
X109492523Y-78696749D01*
X109589284Y-78489243D01*
X109648543Y-78268087D01*
X109668498Y-78040000D01*
X109664361Y-77992719D01*
X109648543Y-77811918D01*
X109648543Y-77811913D01*
X109589284Y-77590757D01*
X109551981Y-77510761D01*
X109492524Y-77383254D01*
X109492523Y-77383252D01*
X109492523Y-77383251D01*
X109361198Y-77195700D01*
X109199300Y-77033802D01*
X109011749Y-76902477D01*
X108968655Y-76882382D01*
X108916215Y-76836210D01*
X108897063Y-76769017D01*
X108917278Y-76702136D01*
X108968655Y-76657618D01*
X108981775Y-76651500D01*
X109011749Y-76637523D01*
X109199300Y-76506198D01*
X109361198Y-76344300D01*
X109492523Y-76156749D01*
X109589284Y-75949243D01*
X109648543Y-75728087D01*
X109668498Y-75500000D01*
X109648543Y-75271913D01*
X109589284Y-75050757D01*
X109492523Y-74843251D01*
X109361198Y-74655700D01*
X109199300Y-74493802D01*
X109011749Y-74362477D01*
X108969826Y-74342928D01*
X108804249Y-74265718D01*
X108804238Y-74265714D01*
X108583089Y-74206457D01*
X108583081Y-74206456D01*
X108355002Y-74186502D01*
X108354998Y-74186502D01*
X108126918Y-74206456D01*
X108126910Y-74206457D01*
X107905761Y-74265714D01*
X107905750Y-74265718D01*
X107698254Y-74362475D01*
X107698252Y-74362476D01*
X107698251Y-74362477D01*
X107510700Y-74493802D01*
X107510698Y-74493803D01*
X107510695Y-74493806D01*
X107348806Y-74655695D01*
X107348803Y-74655698D01*
X107348802Y-74655700D01*
X107294646Y-74733043D01*
X107217476Y-74843252D01*
X107217475Y-74843254D01*
X107120718Y-75050750D01*
X107120714Y-75050761D01*
X107061457Y-75271910D01*
X107061456Y-75271918D01*
X107041502Y-75499998D01*
X107041502Y-75500001D01*
X107061456Y-75728081D01*
X107061457Y-75728089D01*
X107120714Y-75949238D01*
X107120718Y-75949249D01*
X107217475Y-76156745D01*
X107217477Y-76156749D01*
X107348802Y-76344300D01*
X107510700Y-76506198D01*
X107670385Y-76618011D01*
X107698251Y-76637523D01*
X107741345Y-76657618D01*
X107793784Y-76703791D01*
X107812936Y-76770984D01*
X107792720Y-76837865D01*
X107741345Y-76882382D01*
X107698251Y-76902476D01*
X107620587Y-76956858D01*
X107510700Y-77033802D01*
X107510698Y-77033803D01*
X107510695Y-77033806D01*
X107348806Y-77195695D01*
X107348803Y-77195698D01*
X107348802Y-77195700D01*
X107301500Y-77263254D01*
X107217476Y-77383252D01*
X107217475Y-77383254D01*
X107120718Y-77590750D01*
X107120714Y-77590761D01*
X107061457Y-77811910D01*
X107061456Y-77811918D01*
X107041502Y-78039998D01*
X107041502Y-78040001D01*
X107061456Y-78268081D01*
X107061457Y-78268089D01*
X107120714Y-78489238D01*
X107120718Y-78489249D01*
X107210155Y-78681047D01*
X107217477Y-78696749D01*
X107348802Y-78884300D01*
X107510700Y-79046198D01*
X107665064Y-79154285D01*
X107698251Y-79177523D01*
X107741345Y-79197618D01*
X107793784Y-79243791D01*
X107812936Y-79310984D01*
X107792720Y-79377865D01*
X107741345Y-79422382D01*
X107698251Y-79442476D01*
X107602285Y-79509673D01*
X107510700Y-79573802D01*
X107510698Y-79573803D01*
X107510695Y-79573806D01*
X107348806Y-79735695D01*
X107348803Y-79735698D01*
X107348802Y-79735700D01*
X107301500Y-79803254D01*
X107217476Y-79923252D01*
X107217475Y-79923254D01*
X107120718Y-80130750D01*
X107120714Y-80130761D01*
X107061457Y-80351910D01*
X107061456Y-80351918D01*
X107041502Y-80579998D01*
X107041502Y-80580001D01*
X106681000Y-80580001D01*
X106681000Y-68649002D01*
X106700685Y-68581963D01*
X106712846Y-68566034D01*
X106739040Y-68536944D01*
X106834527Y-68371556D01*
X106893542Y-68189928D01*
X106913504Y-68000000D01*
X106893542Y-67810072D01*
X106834527Y-67628444D01*
X106739040Y-67463056D01*
X106611253Y-67321134D01*
X106456752Y-67208882D01*
X106282288Y-67131206D01*
X106282286Y-67131205D01*
X106095487Y-67091500D01*
X105904513Y-67091500D01*
X105717714Y-67131205D01*
X105655036Y-67159111D01*
X105547963Y-67206783D01*
X105543246Y-67208883D01*
X105388745Y-67321135D01*
X105260959Y-67463057D01*
X105165473Y-67628443D01*
X105165470Y-67628450D01*
X105119316Y-67770499D01*
X105106458Y-67810072D01*
X105086496Y-68000000D01*
X105106458Y-68189928D01*
X105106459Y-68189931D01*
X105165470Y-68371549D01*
X105165473Y-68371556D01*
X105260960Y-68536944D01*
X105287149Y-68566030D01*
X105317379Y-68629020D01*
X105319000Y-68649002D01*
X105319000Y-81376246D01*
X105299315Y-81443285D01*
X105246511Y-81489040D01*
X105177353Y-81498984D01*
X105113797Y-81469959D01*
X105107319Y-81463927D01*
X105007281Y-81363889D01*
X104853017Y-81266958D01*
X104853016Y-81266957D01*
X104853015Y-81266957D01*
X104798693Y-81247949D01*
X104681046Y-81206782D01*
X104681041Y-81206781D01*
X104500004Y-81186384D01*
X104499996Y-81186384D01*
X104318958Y-81206781D01*
X104318953Y-81206782D01*
X104146982Y-81266958D01*
X103992718Y-81363889D01*
X103990327Y-81366281D01*
X103988401Y-81367332D01*
X103987276Y-81368230D01*
X103987118Y-81368032D01*
X103929004Y-81399766D01*
X103902646Y-81402600D01*
X101989826Y-81402600D01*
X101922787Y-81382915D01*
X101877032Y-81330111D01*
X101867088Y-81260953D01*
X101877444Y-81226196D01*
X101919451Y-81136110D01*
X101969284Y-81029243D01*
X102028543Y-80808087D01*
X102048498Y-80580000D01*
X102028543Y-80351913D01*
X101969284Y-80130757D01*
X101967238Y-80126370D01*
X101886865Y-79954008D01*
X101872523Y-79923251D01*
X101741198Y-79735700D01*
X101579300Y-79573802D01*
X101391749Y-79442477D01*
X101348655Y-79422382D01*
X101296215Y-79376210D01*
X101277063Y-79309017D01*
X101297278Y-79242136D01*
X101348655Y-79197618D01*
X101351882Y-79196112D01*
X101391749Y-79177523D01*
X101579300Y-79046198D01*
X101741198Y-78884300D01*
X101872523Y-78696749D01*
X101969284Y-78489243D01*
X102028543Y-78268087D01*
X102048498Y-78040000D01*
X102044361Y-77992719D01*
X102028543Y-77811918D01*
X102028543Y-77811913D01*
X101969284Y-77590757D01*
X101931981Y-77510761D01*
X101872524Y-77383254D01*
X101872523Y-77383252D01*
X101872523Y-77383251D01*
X101741198Y-77195700D01*
X101579300Y-77033802D01*
X101571627Y-77028429D01*
X101528006Y-76973853D01*
X101520814Y-76904355D01*
X101552338Y-76842001D01*
X101612568Y-76806588D01*
X101629489Y-76803570D01*
X101644201Y-76801989D01*
X101781204Y-76750889D01*
X101898261Y-76663261D01*
X101985889Y-76546204D01*
X102036989Y-76409201D01*
X102040591Y-76375692D01*
X102043499Y-76348654D01*
X102043500Y-76348637D01*
X102043500Y-74651362D01*
X102043499Y-74651345D01*
X102040157Y-74620270D01*
X102036989Y-74590799D01*
X101985889Y-74453796D01*
X101898261Y-74336739D01*
X101781204Y-74249111D01*
X101644203Y-74198011D01*
X101583654Y-74191500D01*
X101583638Y-74191500D01*
X99886362Y-74191500D01*
X99886345Y-74191500D01*
X99825797Y-74198011D01*
X99825795Y-74198011D01*
X99688795Y-74249111D01*
X99571739Y-74336739D01*
X99484111Y-74453795D01*
X99433011Y-74590795D01*
X99433011Y-74590797D01*
X99426500Y-74651345D01*
X99426500Y-76348654D01*
X99433011Y-76409202D01*
X99433011Y-76409204D01*
X99469189Y-76506198D01*
X99484111Y-76546204D01*
X99571739Y-76663261D01*
X99688796Y-76750889D01*
X99773483Y-76782476D01*
X99825793Y-76801987D01*
X99825799Y-76801989D01*
X99840499Y-76803569D01*
X99905048Y-76830305D01*
X99944897Y-76887696D01*
X99947393Y-76957521D01*
X99911742Y-77017611D01*
X99898377Y-77028425D01*
X99898371Y-77028431D01*
X99890696Y-77033805D01*
X99728806Y-77195695D01*
X99728803Y-77195698D01*
X99728802Y-77195700D01*
X99681500Y-77263254D01*
X99597476Y-77383252D01*
X99597475Y-77383254D01*
X99500718Y-77590750D01*
X99500714Y-77590761D01*
X99441457Y-77811910D01*
X99441456Y-77811918D01*
X99421502Y-78039998D01*
X99421502Y-78040001D01*
X99441456Y-78268081D01*
X99441457Y-78268089D01*
X99500714Y-78489238D01*
X99500718Y-78489249D01*
X99590155Y-78681047D01*
X99597477Y-78696749D01*
X99728802Y-78884300D01*
X99890700Y-79046198D01*
X100045064Y-79154285D01*
X100078251Y-79177523D01*
X100121345Y-79197618D01*
X100173784Y-79243791D01*
X100192936Y-79310984D01*
X100172720Y-79377865D01*
X100121345Y-79422382D01*
X100078251Y-79442476D01*
X99982285Y-79509673D01*
X99890700Y-79573802D01*
X99890698Y-79573803D01*
X99890695Y-79573806D01*
X99728806Y-79735695D01*
X99728803Y-79735698D01*
X99728802Y-79735700D01*
X99681500Y-79803254D01*
X99597476Y-79923252D01*
X99597475Y-79923254D01*
X99500718Y-80130750D01*
X99500714Y-80130761D01*
X99441457Y-80351910D01*
X99441456Y-80351918D01*
X99421502Y-80579998D01*
X99421502Y-80580001D01*
X99441456Y-80808081D01*
X99441457Y-80808089D01*
X99500714Y-81029238D01*
X99500718Y-81029249D01*
X99592556Y-81226196D01*
X99603048Y-81295273D01*
X99574528Y-81359057D01*
X99516051Y-81397296D01*
X99480174Y-81402600D01*
X87298814Y-81402600D01*
X87231775Y-81382915D01*
X87211133Y-81366281D01*
X86133719Y-80288867D01*
X86100234Y-80227544D01*
X86097400Y-80201186D01*
X86097400Y-79597354D01*
X86117085Y-79530315D01*
X86133719Y-79509673D01*
X86134892Y-79508500D01*
X86136111Y-79507281D01*
X86233043Y-79353015D01*
X86293217Y-79181047D01*
X86294362Y-79170888D01*
X86313616Y-79000003D01*
X86313616Y-78999996D01*
X86293218Y-78818958D01*
X86293217Y-78818953D01*
X86276262Y-78770499D01*
X86233043Y-78646985D01*
X86136111Y-78492719D01*
X86007281Y-78363889D01*
X85854817Y-78268089D01*
X85853017Y-78266958D01*
X85853016Y-78266957D01*
X85853015Y-78266957D01*
X85798693Y-78247949D01*
X85681046Y-78206782D01*
X85681041Y-78206781D01*
X85500004Y-78186384D01*
X85499996Y-78186384D01*
X85318958Y-78206781D01*
X85318953Y-78206782D01*
X85146982Y-78266958D01*
X84992718Y-78363889D01*
X84863889Y-78492718D01*
X84766958Y-78646982D01*
X84706782Y-78818953D01*
X84706781Y-78818958D01*
X84686384Y-78999996D01*
X84686384Y-79000003D01*
X75838848Y-79000003D01*
X75874111Y-78971314D01*
X76061657Y-78770502D01*
X76220111Y-78546023D01*
X76346523Y-78302058D01*
X76438538Y-78043153D01*
X76438539Y-78043146D01*
X76438541Y-78043141D01*
X76475790Y-77863889D01*
X76494442Y-77774130D01*
X76513193Y-77500000D01*
X76494442Y-77225870D01*
X76458061Y-77050795D01*
X76438541Y-76956858D01*
X76438536Y-76956841D01*
X76396252Y-76837865D01*
X76346523Y-76697942D01*
X76220111Y-76453977D01*
X76220110Y-76453975D01*
X76220106Y-76453969D01*
X76061659Y-76229500D01*
X75993710Y-76156745D01*
X75874111Y-76028686D01*
X75660969Y-75855282D01*
X75660967Y-75855281D01*
X75660965Y-75855279D01*
X75426198Y-75712514D01*
X75174178Y-75603047D01*
X74909602Y-75528916D01*
X74909597Y-75528915D01*
X74909596Y-75528915D01*
X74699234Y-75500001D01*
X74637386Y-75491500D01*
X74637385Y-75491500D01*
X74362615Y-75491500D01*
X74362614Y-75491500D01*
X74090404Y-75528915D01*
X74090397Y-75528916D01*
X73825821Y-75603047D01*
X73573801Y-75712514D01*
X73339034Y-75855279D01*
X73125892Y-76028683D01*
X72938340Y-76229500D01*
X72779893Y-76453969D01*
X72779889Y-76453975D01*
X72653476Y-76697943D01*
X72561463Y-76956841D01*
X72561458Y-76956858D01*
X72505558Y-77225867D01*
X72505557Y-77225869D01*
X72486807Y-77500000D01*
X70729268Y-77500000D01*
X70637523Y-77303251D01*
X70506198Y-77115700D01*
X70344300Y-76953802D01*
X70156749Y-76822477D01*
X70156745Y-76822475D01*
X69949249Y-76725718D01*
X69949238Y-76725714D01*
X69728089Y-76666457D01*
X69728081Y-76666456D01*
X69500002Y-76646502D01*
X69499998Y-76646502D01*
X69271918Y-76666456D01*
X69271910Y-76666457D01*
X69050761Y-76725714D01*
X69050750Y-76725718D01*
X68843254Y-76822475D01*
X68843252Y-76822476D01*
X68815368Y-76842001D01*
X68655700Y-76953802D01*
X68655698Y-76953803D01*
X68655695Y-76953806D01*
X68493806Y-77115695D01*
X68362476Y-77303252D01*
X68362475Y-77303254D01*
X68265718Y-77510750D01*
X68265714Y-77510761D01*
X68206457Y-77731910D01*
X68206456Y-77731918D01*
X68186502Y-77959998D01*
X68186502Y-77960001D01*
X63188500Y-77960001D01*
X63188500Y-77111362D01*
X63188499Y-77111345D01*
X63184666Y-77075700D01*
X63181989Y-77050799D01*
X63175649Y-77033802D01*
X63153289Y-76973853D01*
X63130889Y-76913796D01*
X63043261Y-76796739D01*
X62926204Y-76709111D01*
X62911941Y-76703791D01*
X62789203Y-76658011D01*
X62728654Y-76651500D01*
X62728638Y-76651500D01*
X61031362Y-76651500D01*
X61031345Y-76651500D01*
X60970797Y-76658011D01*
X60970795Y-76658011D01*
X60833795Y-76709111D01*
X60716739Y-76796739D01*
X60629111Y-76913795D01*
X60578011Y-77050795D01*
X60578011Y-77050797D01*
X60571500Y-77111345D01*
X60571500Y-78808654D01*
X20200500Y-78808654D01*
X20200500Y-72748654D01*
X35291500Y-72748654D01*
X35298011Y-72809202D01*
X35298011Y-72809204D01*
X35349111Y-72946204D01*
X35436739Y-73063261D01*
X35553796Y-73150889D01*
X35690799Y-73201989D01*
X35718050Y-73204918D01*
X35751345Y-73208499D01*
X35751362Y-73208500D01*
X38248638Y-73208500D01*
X38248654Y-73208499D01*
X38275692Y-73205591D01*
X38309201Y-73201989D01*
X38446204Y-73150889D01*
X38563261Y-73063261D01*
X38650889Y-72946204D01*
X38701989Y-72809201D01*
X38705591Y-72775692D01*
X38708499Y-72748654D01*
X49291500Y-72748654D01*
X49298011Y-72809202D01*
X49298011Y-72809204D01*
X49349111Y-72946204D01*
X49436739Y-73063261D01*
X49553796Y-73150889D01*
X49690799Y-73201989D01*
X49718050Y-73204918D01*
X49751345Y-73208499D01*
X49751362Y-73208500D01*
X52248638Y-73208500D01*
X52248654Y-73208499D01*
X52275692Y-73205591D01*
X52309201Y-73201989D01*
X52446204Y-73150889D01*
X52563261Y-73063261D01*
X52650889Y-72946204D01*
X52701989Y-72809201D01*
X52705591Y-72775692D01*
X52708499Y-72748654D01*
X52708500Y-72748637D01*
X52708500Y-70398654D01*
X81061500Y-70398654D01*
X81068011Y-70459202D01*
X81068011Y-70459204D01*
X81119111Y-70596204D01*
X81206739Y-70713261D01*
X81323796Y-70800889D01*
X81460799Y-70851989D01*
X81488050Y-70854918D01*
X81521345Y-70858499D01*
X81521362Y-70858500D01*
X83318638Y-70858500D01*
X83318654Y-70858499D01*
X83345692Y-70855591D01*
X83379201Y-70851989D01*
X83516204Y-70800889D01*
X83633261Y-70713261D01*
X83720889Y-70596204D01*
X83766138Y-70474887D01*
X83808009Y-70418956D01*
X83873474Y-70394539D01*
X83941746Y-70409391D01*
X83973545Y-70434236D01*
X84036760Y-70502906D01*
X84214424Y-70641189D01*
X84214425Y-70641189D01*
X84214427Y-70641191D01*
X84341135Y-70709761D01*
X84412426Y-70748342D01*
X84625365Y-70821444D01*
X84847431Y-70858500D01*
X85072569Y-70858500D01*
X85294635Y-70821444D01*
X85507574Y-70748342D01*
X85705576Y-70641189D01*
X85883240Y-70502906D01*
X86035722Y-70337268D01*
X86126193Y-70198790D01*
X86179338Y-70153437D01*
X86248569Y-70144013D01*
X86311905Y-70173515D01*
X86333804Y-70198787D01*
X86424278Y-70337268D01*
X86424283Y-70337273D01*
X86424284Y-70337276D01*
X86550968Y-70474889D01*
X86576760Y-70502906D01*
X86754424Y-70641189D01*
X86754425Y-70641189D01*
X86754427Y-70641191D01*
X86881135Y-70709761D01*
X86952426Y-70748342D01*
X87165365Y-70821444D01*
X87387431Y-70858500D01*
X87612569Y-70858500D01*
X87834635Y-70821444D01*
X88047574Y-70748342D01*
X88245576Y-70641189D01*
X88423240Y-70502906D01*
X88575722Y-70337268D01*
X88698860Y-70148791D01*
X88789296Y-69942616D01*
X88844564Y-69724368D01*
X88845892Y-69708342D01*
X88863156Y-69500005D01*
X88863156Y-69499994D01*
X88844565Y-69275640D01*
X88844563Y-69275628D01*
X88808575Y-69133515D01*
X88789296Y-69057384D01*
X88698860Y-68851209D01*
X88690450Y-68838337D01*
X88589857Y-68684368D01*
X88575722Y-68662732D01*
X88575719Y-68662729D01*
X88575715Y-68662723D01*
X88423243Y-68497097D01*
X88423238Y-68497092D01*
X88294579Y-68396952D01*
X88245576Y-68358811D01*
X88245575Y-68358810D01*
X88245572Y-68358808D01*
X88047580Y-68251661D01*
X88047577Y-68251659D01*
X88047574Y-68251658D01*
X88047571Y-68251657D01*
X88047569Y-68251656D01*
X87834637Y-68178556D01*
X87612569Y-68141500D01*
X87387431Y-68141500D01*
X87165362Y-68178556D01*
X86952430Y-68251656D01*
X86952419Y-68251661D01*
X86754427Y-68358808D01*
X86754422Y-68358812D01*
X86576761Y-68497092D01*
X86576756Y-68497097D01*
X86424284Y-68662723D01*
X86424276Y-68662734D01*
X86333808Y-68801206D01*
X86280662Y-68846562D01*
X86211431Y-68855986D01*
X86148095Y-68826484D01*
X86126192Y-68801206D01*
X86049857Y-68684368D01*
X86035722Y-68662732D01*
X86035719Y-68662729D01*
X86035715Y-68662723D01*
X85883243Y-68497097D01*
X85883238Y-68497092D01*
X85754579Y-68396952D01*
X85705576Y-68358811D01*
X85705575Y-68358810D01*
X85705572Y-68358808D01*
X85507580Y-68251661D01*
X85507577Y-68251659D01*
X85507574Y-68251658D01*
X85507571Y-68251657D01*
X85507569Y-68251656D01*
X85294637Y-68178556D01*
X85072569Y-68141500D01*
X84847431Y-68141500D01*
X84625362Y-68178556D01*
X84412430Y-68251656D01*
X84412419Y-68251661D01*
X84214427Y-68358808D01*
X84214422Y-68358812D01*
X84036761Y-68497092D01*
X83973548Y-68565760D01*
X83913661Y-68601750D01*
X83843823Y-68599649D01*
X83786207Y-68560124D01*
X83766138Y-68525110D01*
X83720889Y-68403796D01*
X83687214Y-68358812D01*
X83633261Y-68286739D01*
X83516204Y-68199111D01*
X83491584Y-68189928D01*
X83379203Y-68148011D01*
X83318654Y-68141500D01*
X83318638Y-68141500D01*
X81521362Y-68141500D01*
X81521345Y-68141500D01*
X81460797Y-68148011D01*
X81460795Y-68148011D01*
X81323795Y-68199111D01*
X81206739Y-68286739D01*
X81119111Y-68403795D01*
X81068011Y-68540795D01*
X81068011Y-68540797D01*
X81061500Y-68601345D01*
X81061500Y-70398654D01*
X52708500Y-70398654D01*
X52708500Y-70251362D01*
X52708499Y-70251345D01*
X52702848Y-70198793D01*
X52701989Y-70190799D01*
X52696231Y-70175362D01*
X52679522Y-70130564D01*
X52650889Y-70053796D01*
X52563261Y-69936739D01*
X52446204Y-69849111D01*
X52309203Y-69798011D01*
X52248654Y-69791500D01*
X52248638Y-69791500D01*
X49751362Y-69791500D01*
X49751345Y-69791500D01*
X49690797Y-69798011D01*
X49690795Y-69798011D01*
X49553795Y-69849111D01*
X49436739Y-69936739D01*
X49349111Y-70053795D01*
X49298011Y-70190795D01*
X49298011Y-70190797D01*
X49291500Y-70251345D01*
X49291500Y-72748654D01*
X38708499Y-72748654D01*
X38708500Y-72748637D01*
X38708500Y-70251362D01*
X38708499Y-70251345D01*
X38702848Y-70198793D01*
X38701989Y-70190799D01*
X38696231Y-70175362D01*
X38679522Y-70130564D01*
X38650889Y-70053796D01*
X38563261Y-69936739D01*
X38446204Y-69849111D01*
X38309203Y-69798011D01*
X38248654Y-69791500D01*
X38248638Y-69791500D01*
X35751362Y-69791500D01*
X35751345Y-69791500D01*
X35690797Y-69798011D01*
X35690795Y-69798011D01*
X35553795Y-69849111D01*
X35436739Y-69936739D01*
X35349111Y-70053795D01*
X35298011Y-70190795D01*
X35298011Y-70190797D01*
X35291500Y-70251345D01*
X35291500Y-72748654D01*
X20200500Y-72748654D01*
X20200500Y-66500003D01*
X85186384Y-66500003D01*
X85206781Y-66681041D01*
X85206782Y-66681046D01*
X85206783Y-66681048D01*
X85266957Y-66853015D01*
X85363889Y-67007281D01*
X85492719Y-67136111D01*
X85646985Y-67233043D01*
X85818953Y-67293217D01*
X85818958Y-67293218D01*
X85999996Y-67313616D01*
X86000000Y-67313616D01*
X86000004Y-67313616D01*
X86181041Y-67293218D01*
X86181044Y-67293217D01*
X86181047Y-67293217D01*
X86353015Y-67233043D01*
X86507281Y-67136111D01*
X86636111Y-67007281D01*
X86733043Y-66853015D01*
X86793217Y-66681047D01*
X86804791Y-66578314D01*
X86831856Y-66513904D01*
X86840320Y-66504529D01*
X89211132Y-64133719D01*
X89272455Y-64100234D01*
X89298813Y-64097400D01*
X118778600Y-64097400D01*
X118845639Y-64117085D01*
X118891394Y-64169889D01*
X118902600Y-64221400D01*
X118902600Y-79902646D01*
X118882915Y-79969685D01*
X118866281Y-79990327D01*
X118863889Y-79992718D01*
X118766958Y-80146982D01*
X118706782Y-80318953D01*
X118706781Y-80318958D01*
X118686384Y-80499996D01*
X118686384Y-80500003D01*
X118706781Y-80681041D01*
X118706782Y-80681046D01*
X118766958Y-80853017D01*
X118802284Y-80909238D01*
X118863889Y-81007281D01*
X118992719Y-81136111D01*
X119146985Y-81233043D01*
X119318953Y-81293217D01*
X119318958Y-81293218D01*
X119499996Y-81313616D01*
X119500000Y-81313616D01*
X119500004Y-81313616D01*
X119681041Y-81293218D01*
X119681044Y-81293217D01*
X119681047Y-81293217D01*
X119853015Y-81233043D01*
X120007281Y-81136111D01*
X120136111Y-81007281D01*
X120233043Y-80853015D01*
X120293217Y-80681047D01*
X120304602Y-80580001D01*
X120313616Y-80500003D01*
X120313616Y-80499996D01*
X120293218Y-80318958D01*
X120293217Y-80318953D01*
X120274383Y-80265128D01*
X120233043Y-80146985D01*
X120136111Y-79992719D01*
X120133719Y-79990327D01*
X120132667Y-79988401D01*
X120131770Y-79987276D01*
X120131967Y-79987118D01*
X120100234Y-79929004D01*
X120097400Y-79902646D01*
X120097400Y-79000003D01*
X121686384Y-79000003D01*
X121706781Y-79181041D01*
X121706782Y-79181046D01*
X121731017Y-79250305D01*
X121756928Y-79324355D01*
X121766958Y-79353017D01*
X121863889Y-79507281D01*
X121866281Y-79509673D01*
X121867332Y-79511598D01*
X121868230Y-79512724D01*
X121868032Y-79512881D01*
X121899766Y-79570996D01*
X121902600Y-79597354D01*
X121902600Y-84921351D01*
X121902600Y-85078649D01*
X121943312Y-85230588D01*
X121943313Y-85230591D01*
X121978258Y-85291116D01*
X122021961Y-85366812D01*
X122521961Y-85866812D01*
X122633188Y-85978039D01*
X122683837Y-86007281D01*
X122769408Y-86056686D01*
X122769409Y-86056686D01*
X122769412Y-86056688D01*
X122921351Y-86097400D01*
X123078650Y-86097400D01*
X123902646Y-86097400D01*
X123969685Y-86117085D01*
X123990327Y-86133719D01*
X123992719Y-86136111D01*
X124146985Y-86233043D01*
X124318953Y-86293217D01*
X124318958Y-86293218D01*
X124499996Y-86313616D01*
X124500000Y-86313616D01*
X124500004Y-86313616D01*
X124681041Y-86293218D01*
X124681044Y-86293217D01*
X124681047Y-86293217D01*
X124853015Y-86233043D01*
X125007281Y-86136111D01*
X125136111Y-86007281D01*
X125233043Y-85853015D01*
X125293217Y-85681047D01*
X125293218Y-85681041D01*
X125313616Y-85500003D01*
X125313616Y-85499996D01*
X125293218Y-85318958D01*
X125293217Y-85318953D01*
X125283476Y-85291116D01*
X125233043Y-85146985D01*
X125136111Y-84992719D01*
X125007281Y-84863889D01*
X124853015Y-84766957D01*
X124798693Y-84747949D01*
X124681046Y-84706782D01*
X124681041Y-84706781D01*
X124500004Y-84686384D01*
X124499996Y-84686384D01*
X124318958Y-84706781D01*
X124318953Y-84706782D01*
X124146982Y-84766958D01*
X123992718Y-84863889D01*
X123990327Y-84866281D01*
X123988401Y-84867332D01*
X123987276Y-84868230D01*
X123987118Y-84868032D01*
X123929004Y-84899766D01*
X123902646Y-84902600D01*
X123298813Y-84902600D01*
X123231774Y-84882915D01*
X123211132Y-84866281D01*
X123133719Y-84788868D01*
X123100234Y-84727545D01*
X123097400Y-84701187D01*
X123097400Y-83000001D01*
X130011502Y-83000001D01*
X130031456Y-83228081D01*
X130031457Y-83228089D01*
X130090714Y-83449238D01*
X130090718Y-83449249D01*
X130146675Y-83569249D01*
X130187477Y-83656749D01*
X130318802Y-83844300D01*
X130480700Y-84006198D01*
X130668251Y-84137523D01*
X130793091Y-84195736D01*
X130875750Y-84234281D01*
X130875752Y-84234281D01*
X130875757Y-84234284D01*
X131096913Y-84293543D01*
X131259832Y-84307796D01*
X131324998Y-84313498D01*
X131325000Y-84313498D01*
X131325002Y-84313498D01*
X131382021Y-84308509D01*
X131553087Y-84293543D01*
X131774243Y-84234284D01*
X131981749Y-84137523D01*
X132169300Y-84006198D01*
X132331198Y-83844300D01*
X132462523Y-83656749D01*
X132559284Y-83449243D01*
X132618543Y-83228087D01*
X132638498Y-83000000D01*
X132618543Y-82771913D01*
X132559284Y-82550757D01*
X132551301Y-82533638D01*
X132462524Y-82343254D01*
X132462523Y-82343252D01*
X132462523Y-82343251D01*
X132331198Y-82155700D01*
X132169300Y-81993802D01*
X131981749Y-81862477D01*
X131938655Y-81842382D01*
X131886215Y-81796210D01*
X131867063Y-81729017D01*
X131887278Y-81662136D01*
X131938655Y-81617618D01*
X131941882Y-81616112D01*
X131981749Y-81597523D01*
X132169300Y-81466198D01*
X132331198Y-81304300D01*
X132462523Y-81116749D01*
X132559284Y-80909243D01*
X132618543Y-80688087D01*
X132638498Y-80460000D01*
X132618543Y-80231913D01*
X132559284Y-80010757D01*
X132550872Y-79992718D01*
X132495340Y-79873628D01*
X132462523Y-79803251D01*
X132331198Y-79615700D01*
X132169300Y-79453802D01*
X132161627Y-79448429D01*
X132118006Y-79393853D01*
X132110814Y-79324355D01*
X132142338Y-79262001D01*
X132202568Y-79226588D01*
X132219489Y-79223570D01*
X132234201Y-79221989D01*
X132371204Y-79170889D01*
X132488261Y-79083261D01*
X132575889Y-78966204D01*
X132626989Y-78829201D01*
X132633300Y-78770502D01*
X132633499Y-78768654D01*
X132633500Y-78768637D01*
X132633500Y-77920001D01*
X137631502Y-77920001D01*
X137651456Y-78148081D01*
X137651457Y-78148089D01*
X137710714Y-78369238D01*
X137710718Y-78369249D01*
X137807475Y-78576745D01*
X137807477Y-78576749D01*
X137938802Y-78764300D01*
X138100700Y-78926198D01*
X138288251Y-79057523D01*
X138374032Y-79097523D01*
X138495750Y-79154281D01*
X138495752Y-79154281D01*
X138495757Y-79154284D01*
X138716913Y-79213543D01*
X138879832Y-79227796D01*
X138944998Y-79233498D01*
X138945000Y-79233498D01*
X138945002Y-79233498D01*
X139002127Y-79228500D01*
X139173087Y-79213543D01*
X139394243Y-79154284D01*
X139601749Y-79057523D01*
X139789300Y-78926198D01*
X139951198Y-78764300D01*
X140082523Y-78576749D01*
X140179284Y-78369243D01*
X140238543Y-78148087D01*
X140258498Y-77920000D01*
X140238543Y-77691913D01*
X140179284Y-77470757D01*
X140082523Y-77263251D01*
X139951198Y-77075700D01*
X139789300Y-76913802D01*
X139601749Y-76782477D01*
X139572884Y-76769017D01*
X139394249Y-76685718D01*
X139394238Y-76685714D01*
X139173089Y-76626457D01*
X139173081Y-76626456D01*
X138945002Y-76606502D01*
X138944998Y-76606502D01*
X138716918Y-76626456D01*
X138716910Y-76626457D01*
X138495761Y-76685714D01*
X138495750Y-76685718D01*
X138288254Y-76782475D01*
X138288252Y-76782476D01*
X138288251Y-76782477D01*
X138100700Y-76913802D01*
X138100698Y-76913803D01*
X138100695Y-76913806D01*
X137938806Y-77075695D01*
X137807476Y-77263252D01*
X137807475Y-77263254D01*
X137710718Y-77470750D01*
X137710714Y-77470761D01*
X137651457Y-77691910D01*
X137651456Y-77691918D01*
X137631502Y-77919998D01*
X137631502Y-77920001D01*
X132633500Y-77920001D01*
X132633500Y-77071362D01*
X132633499Y-77071345D01*
X132629462Y-77033802D01*
X132626989Y-77010799D01*
X132605731Y-76953806D01*
X132590812Y-76913806D01*
X132575889Y-76873796D01*
X132488261Y-76756739D01*
X132371204Y-76669111D01*
X132234203Y-76618011D01*
X132173654Y-76611500D01*
X132173638Y-76611500D01*
X130476362Y-76611500D01*
X130476345Y-76611500D01*
X130415797Y-76618011D01*
X130415795Y-76618011D01*
X130278795Y-76669111D01*
X130161739Y-76756739D01*
X130074111Y-76873795D01*
X130023011Y-77010795D01*
X130023011Y-77010797D01*
X130016500Y-77071345D01*
X130016500Y-78768654D01*
X130023011Y-78829202D01*
X130023011Y-78829204D01*
X130059189Y-78926198D01*
X130074111Y-78966204D01*
X130161739Y-79083261D01*
X130278796Y-79170889D01*
X130378110Y-79207931D01*
X130415793Y-79221987D01*
X130415799Y-79221989D01*
X130430499Y-79223569D01*
X130495048Y-79250305D01*
X130534897Y-79307696D01*
X130537393Y-79377521D01*
X130501742Y-79437611D01*
X130488377Y-79448425D01*
X130488371Y-79448431D01*
X130480696Y-79453805D01*
X130318806Y-79615695D01*
X130187476Y-79803252D01*
X130187475Y-79803254D01*
X130090718Y-80010750D01*
X130090714Y-80010761D01*
X130031457Y-80231910D01*
X130031456Y-80231918D01*
X130011502Y-80459998D01*
X130011502Y-80460001D01*
X130031456Y-80688081D01*
X130031457Y-80688089D01*
X130090714Y-80909238D01*
X130090718Y-80909249D01*
X130187475Y-81116745D01*
X130187477Y-81116749D01*
X130318802Y-81304300D01*
X130480700Y-81466198D01*
X130652070Y-81586193D01*
X130668251Y-81597523D01*
X130711345Y-81617618D01*
X130763784Y-81663791D01*
X130782936Y-81730984D01*
X130762720Y-81797865D01*
X130711345Y-81842382D01*
X130668251Y-81862476D01*
X130543126Y-81950090D01*
X130480700Y-81993802D01*
X130480698Y-81993803D01*
X130480695Y-81993806D01*
X130318806Y-82155695D01*
X130187476Y-82343252D01*
X130187475Y-82343254D01*
X130090718Y-82550750D01*
X130090714Y-82550761D01*
X130031457Y-82771910D01*
X130031456Y-82771918D01*
X130011502Y-82999998D01*
X130011502Y-83000001D01*
X123097400Y-83000001D01*
X123097400Y-79597354D01*
X123117085Y-79530315D01*
X123133719Y-79509673D01*
X123134892Y-79508500D01*
X123136111Y-79507281D01*
X123233043Y-79353015D01*
X123293217Y-79181047D01*
X123294362Y-79170888D01*
X123313616Y-79000003D01*
X123313616Y-78999996D01*
X123293218Y-78818958D01*
X123293217Y-78818953D01*
X123276262Y-78770499D01*
X123233043Y-78646985D01*
X123136111Y-78492719D01*
X123007281Y-78363889D01*
X122854817Y-78268089D01*
X122853017Y-78266958D01*
X122853016Y-78266957D01*
X122853015Y-78266957D01*
X122798693Y-78247949D01*
X122681046Y-78206782D01*
X122681041Y-78206781D01*
X122500004Y-78186384D01*
X122499996Y-78186384D01*
X122318958Y-78206781D01*
X122318953Y-78206782D01*
X122146982Y-78266958D01*
X121992718Y-78363889D01*
X121863889Y-78492718D01*
X121766958Y-78646982D01*
X121706782Y-78818953D01*
X121706781Y-78818958D01*
X121686384Y-78999996D01*
X121686384Y-79000003D01*
X120097400Y-79000003D01*
X120097400Y-68460005D01*
X127431844Y-68460005D01*
X127450434Y-68684359D01*
X127450436Y-68684371D01*
X127505703Y-68902614D01*
X127596140Y-69108792D01*
X127719276Y-69297265D01*
X127719284Y-69297276D01*
X127845967Y-69434888D01*
X127871760Y-69462906D01*
X128049424Y-69601189D01*
X128049425Y-69601189D01*
X128049427Y-69601191D01*
X128176135Y-69669761D01*
X128247426Y-69708342D01*
X128460365Y-69781444D01*
X128682431Y-69818500D01*
X128907569Y-69818500D01*
X129129635Y-69781444D01*
X129342574Y-69708342D01*
X129540576Y-69601189D01*
X129718240Y-69462906D01*
X129870722Y-69297268D01*
X129961193Y-69158790D01*
X130014338Y-69113437D01*
X130083569Y-69104013D01*
X130146905Y-69133515D01*
X130168804Y-69158787D01*
X130259278Y-69297268D01*
X130259283Y-69297273D01*
X130259284Y-69297276D01*
X130385967Y-69434888D01*
X130411760Y-69462906D01*
X130589424Y-69601189D01*
X130589425Y-69601189D01*
X130589427Y-69601191D01*
X130716135Y-69669761D01*
X130787426Y-69708342D01*
X131000365Y-69781444D01*
X131222431Y-69818500D01*
X131447569Y-69818500D01*
X131669635Y-69781444D01*
X131882574Y-69708342D01*
X132080576Y-69601189D01*
X132258240Y-69462906D01*
X132321452Y-69394239D01*
X132381337Y-69358250D01*
X132451175Y-69360349D01*
X132508791Y-69399873D01*
X132528861Y-69434888D01*
X132574111Y-69556204D01*
X132661739Y-69673261D01*
X132778796Y-69760889D01*
X132915799Y-69811989D01*
X132943050Y-69814918D01*
X132976345Y-69818499D01*
X132976362Y-69818500D01*
X134773638Y-69818500D01*
X134773654Y-69818499D01*
X134800692Y-69815591D01*
X134834201Y-69811989D01*
X134971204Y-69760889D01*
X135088261Y-69673261D01*
X135175889Y-69556204D01*
X135226989Y-69419201D01*
X135230591Y-69385692D01*
X135233499Y-69358654D01*
X135233500Y-69358637D01*
X135233500Y-67561362D01*
X135233499Y-67561345D01*
X135229672Y-67525759D01*
X135226989Y-67500799D01*
X135223975Y-67492719D01*
X135204522Y-67440564D01*
X135175889Y-67363796D01*
X135088261Y-67246739D01*
X134971204Y-67159111D01*
X134834203Y-67108011D01*
X134773654Y-67101500D01*
X134773638Y-67101500D01*
X132976362Y-67101500D01*
X132976345Y-67101500D01*
X132915797Y-67108011D01*
X132915795Y-67108011D01*
X132778795Y-67159111D01*
X132661739Y-67246739D01*
X132574111Y-67363795D01*
X132528861Y-67485111D01*
X132486989Y-67541044D01*
X132421524Y-67565460D01*
X132353252Y-67550607D01*
X132321454Y-67525762D01*
X132258240Y-67457094D01*
X132080576Y-67318811D01*
X132080575Y-67318810D01*
X132080572Y-67318808D01*
X131882580Y-67211661D01*
X131882577Y-67211659D01*
X131882574Y-67211658D01*
X131882571Y-67211657D01*
X131882569Y-67211656D01*
X131669637Y-67138556D01*
X131447569Y-67101500D01*
X131222431Y-67101500D01*
X131000362Y-67138556D01*
X130787430Y-67211656D01*
X130787419Y-67211661D01*
X130589427Y-67318808D01*
X130589422Y-67318812D01*
X130411761Y-67457092D01*
X130411756Y-67457097D01*
X130259284Y-67622723D01*
X130259276Y-67622734D01*
X130168808Y-67761206D01*
X130115662Y-67806562D01*
X130046431Y-67815986D01*
X129983095Y-67786484D01*
X129961192Y-67761206D01*
X129886565Y-67646982D01*
X129870722Y-67622732D01*
X129870719Y-67622729D01*
X129870715Y-67622723D01*
X129718243Y-67457097D01*
X129718238Y-67457092D01*
X129543562Y-67321135D01*
X129540576Y-67318811D01*
X129540575Y-67318810D01*
X129540572Y-67318808D01*
X129342580Y-67211661D01*
X129342577Y-67211659D01*
X129342574Y-67211658D01*
X129342571Y-67211657D01*
X129342569Y-67211656D01*
X129129637Y-67138556D01*
X128907569Y-67101500D01*
X128682431Y-67101500D01*
X128460362Y-67138556D01*
X128247430Y-67211656D01*
X128247419Y-67211661D01*
X128049427Y-67318808D01*
X128049422Y-67318812D01*
X127871761Y-67457092D01*
X127871756Y-67457097D01*
X127719284Y-67622723D01*
X127719276Y-67622734D01*
X127596140Y-67811207D01*
X127505703Y-68017385D01*
X127450436Y-68235628D01*
X127450434Y-68235640D01*
X127431844Y-68459994D01*
X127431844Y-68460005D01*
X120097400Y-68460005D01*
X120097400Y-66500000D01*
X136486807Y-66500000D01*
X136505557Y-66774130D01*
X136505558Y-66774132D01*
X136561458Y-67043141D01*
X136561463Y-67043158D01*
X136653476Y-67302056D01*
X136779889Y-67546024D01*
X136779893Y-67546030D01*
X136938340Y-67770499D01*
X136938343Y-67770502D01*
X137125889Y-67971314D01*
X137339031Y-68144718D01*
X137339033Y-68144719D01*
X137339034Y-68144720D01*
X137573801Y-68287485D01*
X137767337Y-68371549D01*
X137825823Y-68396953D01*
X138090404Y-68471085D01*
X138329720Y-68503978D01*
X138362614Y-68508500D01*
X138362615Y-68508500D01*
X138637386Y-68508500D01*
X138666733Y-68504466D01*
X138909596Y-68471085D01*
X139174177Y-68396953D01*
X139426200Y-68287484D01*
X139660969Y-68144718D01*
X139874111Y-67971314D01*
X140061657Y-67770502D01*
X140220111Y-67546023D01*
X140346523Y-67302058D01*
X140438538Y-67043153D01*
X140438539Y-67043146D01*
X140438541Y-67043141D01*
X140465243Y-66914641D01*
X150491500Y-66914641D01*
X150501970Y-67047668D01*
X150557321Y-67267338D01*
X150651008Y-67473595D01*
X150780014Y-67659803D01*
X150940196Y-67819985D01*
X151126404Y-67948991D01*
X151126405Y-67948991D01*
X151126409Y-67948994D01*
X151264134Y-68011551D01*
X151332661Y-68042678D01*
X151332662Y-68042678D01*
X151332664Y-68042679D01*
X151552331Y-68098030D01*
X151685364Y-68108500D01*
X151685372Y-68108500D01*
X153314628Y-68108500D01*
X153314636Y-68108500D01*
X153447669Y-68098030D01*
X153667336Y-68042679D01*
X153873591Y-67948994D01*
X154059802Y-67819986D01*
X154219986Y-67659802D01*
X154348994Y-67473591D01*
X154442679Y-67267336D01*
X154498030Y-67047669D01*
X154508500Y-66914636D01*
X154508500Y-65285364D01*
X154498030Y-65152331D01*
X154442679Y-64932664D01*
X154348994Y-64726409D01*
X154339367Y-64712514D01*
X154219985Y-64540196D01*
X154059803Y-64380014D01*
X153873595Y-64251008D01*
X153667338Y-64157321D01*
X153520891Y-64120420D01*
X153447669Y-64101970D01*
X153425496Y-64100225D01*
X153314641Y-64091500D01*
X153314636Y-64091500D01*
X151685364Y-64091500D01*
X151685358Y-64091500D01*
X151552331Y-64101970D01*
X151332661Y-64157321D01*
X151126404Y-64251008D01*
X150940196Y-64380014D01*
X150780014Y-64540196D01*
X150651008Y-64726404D01*
X150557321Y-64932661D01*
X150501970Y-65152331D01*
X150491500Y-65285358D01*
X150491500Y-66914641D01*
X140465243Y-66914641D01*
X140478049Y-66853015D01*
X140494442Y-66774130D01*
X140513193Y-66500000D01*
X140494442Y-66225870D01*
X140475141Y-66132989D01*
X140438541Y-65956858D01*
X140438536Y-65956841D01*
X140346523Y-65697943D01*
X140346523Y-65697942D01*
X140220111Y-65453977D01*
X140220110Y-65453975D01*
X140220106Y-65453969D01*
X140061659Y-65229500D01*
X140043031Y-65209555D01*
X139874111Y-65028686D01*
X139660969Y-64855282D01*
X139660967Y-64855281D01*
X139660965Y-64855279D01*
X139426198Y-64712514D01*
X139174178Y-64603047D01*
X138909602Y-64528916D01*
X138909597Y-64528915D01*
X138909596Y-64528915D01*
X138773490Y-64510207D01*
X138637386Y-64491500D01*
X138637385Y-64491500D01*
X138362615Y-64491500D01*
X138362614Y-64491500D01*
X138090404Y-64528915D01*
X138090397Y-64528916D01*
X137825821Y-64603047D01*
X137573801Y-64712514D01*
X137339034Y-64855279D01*
X137125892Y-65028683D01*
X136938340Y-65229500D01*
X136779893Y-65453969D01*
X136779889Y-65453975D01*
X136653476Y-65697943D01*
X136561463Y-65956841D01*
X136561458Y-65956858D01*
X136505558Y-66225867D01*
X136505557Y-66225869D01*
X136486807Y-66500000D01*
X120097400Y-66500000D01*
X120097400Y-64097354D01*
X120117085Y-64030315D01*
X120133719Y-64009673D01*
X120136111Y-64007281D01*
X120233043Y-63853015D01*
X120293217Y-63681047D01*
X120313616Y-63500000D01*
X120293217Y-63318953D01*
X120233043Y-63146985D01*
X120136111Y-62992719D01*
X120007281Y-62863889D01*
X119853015Y-62766957D01*
X119798693Y-62747949D01*
X119681046Y-62706782D01*
X119681041Y-62706781D01*
X119500004Y-62686384D01*
X119499996Y-62686384D01*
X119318958Y-62706781D01*
X119318953Y-62706782D01*
X119146982Y-62766958D01*
X118992718Y-62863889D01*
X118990327Y-62866281D01*
X118988401Y-62867332D01*
X118987276Y-62868230D01*
X118987118Y-62868032D01*
X118929004Y-62899766D01*
X118902646Y-62902600D01*
X88921351Y-62902600D01*
X88769412Y-62943312D01*
X88750753Y-62954085D01*
X88750750Y-62954087D01*
X88750749Y-62954086D01*
X88633191Y-63021958D01*
X88633186Y-63021962D01*
X85995479Y-65659668D01*
X85934156Y-65693153D01*
X85921682Y-65695207D01*
X85818956Y-65706781D01*
X85646982Y-65766958D01*
X85492718Y-65863889D01*
X85363889Y-65992718D01*
X85266958Y-66146982D01*
X85206782Y-66318953D01*
X85206781Y-66318958D01*
X85186384Y-66499996D01*
X85186384Y-66500003D01*
X20200500Y-66500003D01*
X20200500Y-58000000D01*
X28986807Y-58000000D01*
X29005557Y-58274130D01*
X29005558Y-58274132D01*
X29061458Y-58543141D01*
X29061463Y-58543158D01*
X29153476Y-58802056D01*
X29279889Y-59046024D01*
X29279893Y-59046030D01*
X29438340Y-59270499D01*
X29438343Y-59270502D01*
X29625889Y-59471314D01*
X29839031Y-59644718D01*
X29839033Y-59644719D01*
X29839034Y-59644720D01*
X30073801Y-59787485D01*
X30272038Y-59873591D01*
X30325823Y-59896953D01*
X30590404Y-59971085D01*
X30829720Y-60003978D01*
X30862614Y-60008500D01*
X30862615Y-60008500D01*
X31137386Y-60008500D01*
X31166733Y-60004466D01*
X31199225Y-60000000D01*
X136486807Y-60000000D01*
X136505557Y-60274130D01*
X136505558Y-60274132D01*
X136561458Y-60543141D01*
X136561463Y-60543158D01*
X136653476Y-60802056D01*
X136779889Y-61046024D01*
X136779893Y-61046030D01*
X136938340Y-61270499D01*
X136938343Y-61270502D01*
X137125889Y-61471314D01*
X137339031Y-61644718D01*
X137339033Y-61644719D01*
X137339034Y-61644720D01*
X137573801Y-61787485D01*
X137778348Y-61876331D01*
X137825823Y-61896953D01*
X138090404Y-61971085D01*
X138329720Y-62003978D01*
X138362614Y-62008500D01*
X138362615Y-62008500D01*
X138637386Y-62008500D01*
X138666733Y-62004466D01*
X138909596Y-61971085D01*
X139174177Y-61896953D01*
X139426200Y-61787484D01*
X139660969Y-61644718D01*
X139874111Y-61471314D01*
X140061657Y-61270502D01*
X140220111Y-61046023D01*
X140346523Y-60802058D01*
X140438538Y-60543153D01*
X140438539Y-60543146D01*
X140438541Y-60543141D01*
X140478885Y-60348994D01*
X140494442Y-60274130D01*
X140513193Y-60000000D01*
X140494442Y-59725870D01*
X140466149Y-59589717D01*
X140438541Y-59456858D01*
X140438536Y-59456841D01*
X140387998Y-59314641D01*
X150491500Y-59314641D01*
X150500225Y-59425496D01*
X150501970Y-59447669D01*
X150517298Y-59508500D01*
X150557321Y-59667338D01*
X150651008Y-59873595D01*
X150780014Y-60059803D01*
X150940196Y-60219985D01*
X151126404Y-60348991D01*
X151126405Y-60348991D01*
X151126409Y-60348994D01*
X151264134Y-60411551D01*
X151332661Y-60442678D01*
X151332662Y-60442678D01*
X151332664Y-60442679D01*
X151552331Y-60498030D01*
X151685364Y-60508500D01*
X151685372Y-60508500D01*
X153314628Y-60508500D01*
X153314636Y-60508500D01*
X153447669Y-60498030D01*
X153667336Y-60442679D01*
X153873591Y-60348994D01*
X154059802Y-60219986D01*
X154219986Y-60059802D01*
X154348994Y-59873591D01*
X154442679Y-59667336D01*
X154498030Y-59447669D01*
X154508500Y-59314636D01*
X154508500Y-57685364D01*
X154498030Y-57552331D01*
X154442679Y-57332664D01*
X154348994Y-57126409D01*
X154231528Y-56956858D01*
X154219985Y-56940196D01*
X154059803Y-56780014D01*
X153873595Y-56651008D01*
X153667338Y-56557321D01*
X153520891Y-56520420D01*
X153447669Y-56501970D01*
X153425496Y-56500225D01*
X153314641Y-56491500D01*
X153314636Y-56491500D01*
X151685364Y-56491500D01*
X151685358Y-56491500D01*
X151552331Y-56501970D01*
X151332661Y-56557321D01*
X151126404Y-56651008D01*
X150940196Y-56780014D01*
X150780014Y-56940196D01*
X150651008Y-57126404D01*
X150557321Y-57332661D01*
X150501970Y-57552331D01*
X150491500Y-57685358D01*
X150491500Y-59314641D01*
X140387998Y-59314641D01*
X140387993Y-59314628D01*
X140346523Y-59197942D01*
X140220111Y-58953977D01*
X140220110Y-58953975D01*
X140220106Y-58953969D01*
X140061659Y-58729500D01*
X140043031Y-58709555D01*
X139874111Y-58528686D01*
X139660969Y-58355282D01*
X139660967Y-58355281D01*
X139660965Y-58355279D01*
X139426198Y-58212514D01*
X139174178Y-58103047D01*
X138909602Y-58028916D01*
X138909597Y-58028915D01*
X138909596Y-58028915D01*
X138773490Y-58010207D01*
X138637386Y-57991500D01*
X138637385Y-57991500D01*
X138362615Y-57991500D01*
X138362614Y-57991500D01*
X138090404Y-58028915D01*
X138090397Y-58028916D01*
X137825821Y-58103047D01*
X137573801Y-58212514D01*
X137339034Y-58355279D01*
X137125892Y-58528683D01*
X136938340Y-58729500D01*
X136779893Y-58953969D01*
X136779889Y-58953975D01*
X136653476Y-59197943D01*
X136561463Y-59456841D01*
X136561458Y-59456858D01*
X136505558Y-59725867D01*
X136505557Y-59725869D01*
X136486807Y-60000000D01*
X31199225Y-60000000D01*
X31409596Y-59971085D01*
X31674177Y-59896953D01*
X31926200Y-59787484D01*
X32160969Y-59644718D01*
X32374111Y-59471314D01*
X32561657Y-59270502D01*
X32720111Y-59046023D01*
X32846523Y-58802058D01*
X32938538Y-58543153D01*
X32938539Y-58543146D01*
X32938541Y-58543141D01*
X32988638Y-58302058D01*
X32994442Y-58274130D01*
X33013193Y-58000000D01*
X32994442Y-57725870D01*
X32958380Y-57552331D01*
X32947506Y-57500000D01*
X66986807Y-57500000D01*
X67005557Y-57774130D01*
X67005558Y-57774132D01*
X67061458Y-58043141D01*
X67061463Y-58043158D01*
X67153476Y-58302056D01*
X67279889Y-58546024D01*
X67279893Y-58546030D01*
X67438340Y-58770499D01*
X67438343Y-58770502D01*
X67625889Y-58971314D01*
X67839031Y-59144718D01*
X67839033Y-59144719D01*
X67839034Y-59144720D01*
X68073801Y-59287485D01*
X68278348Y-59376331D01*
X68325823Y-59396953D01*
X68590404Y-59471085D01*
X68829720Y-59503978D01*
X68862614Y-59508500D01*
X68862615Y-59508500D01*
X69137386Y-59508500D01*
X69166733Y-59504466D01*
X69409596Y-59471085D01*
X69674177Y-59396953D01*
X69926200Y-59287484D01*
X70160969Y-59144718D01*
X70374111Y-58971314D01*
X70509083Y-58826795D01*
X87466500Y-58826795D01*
X87506215Y-59026453D01*
X87506218Y-59026465D01*
X87584120Y-59214539D01*
X87584127Y-59214552D01*
X87697227Y-59383817D01*
X87697230Y-59383821D01*
X87841178Y-59527769D01*
X87841182Y-59527772D01*
X88010447Y-59640872D01*
X88010460Y-59640879D01*
X88198534Y-59718781D01*
X88198539Y-59718783D01*
X88398204Y-59758499D01*
X88398207Y-59758500D01*
X88398209Y-59758500D01*
X88601793Y-59758500D01*
X88601794Y-59758499D01*
X88801461Y-59718783D01*
X88989546Y-59640876D01*
X89066112Y-59589715D01*
X89132786Y-59568839D01*
X89200166Y-59587323D01*
X89203832Y-59589679D01*
X89280454Y-59640876D01*
X89280457Y-59640877D01*
X89280460Y-59640879D01*
X89468534Y-59718781D01*
X89468539Y-59718783D01*
X89668204Y-59758499D01*
X89668207Y-59758500D01*
X89668209Y-59758500D01*
X89871793Y-59758500D01*
X89871794Y-59758499D01*
X90071461Y-59718783D01*
X90259546Y-59640876D01*
X90428818Y-59527772D01*
X90572772Y-59383818D01*
X90685876Y-59214546D01*
X90763783Y-59026461D01*
X90803499Y-58826795D01*
X107466500Y-58826795D01*
X107506215Y-59026453D01*
X107506218Y-59026465D01*
X107584120Y-59214539D01*
X107584127Y-59214552D01*
X107697227Y-59383817D01*
X107697230Y-59383821D01*
X107841178Y-59527769D01*
X107841182Y-59527772D01*
X108010447Y-59640872D01*
X108010460Y-59640879D01*
X108198534Y-59718781D01*
X108198539Y-59718783D01*
X108398204Y-59758499D01*
X108398207Y-59758500D01*
X108398209Y-59758500D01*
X108601793Y-59758500D01*
X108601794Y-59758499D01*
X108801461Y-59718783D01*
X108989546Y-59640876D01*
X109066112Y-59589715D01*
X109132786Y-59568839D01*
X109200166Y-59587323D01*
X109203832Y-59589679D01*
X109280454Y-59640876D01*
X109280457Y-59640877D01*
X109280460Y-59640879D01*
X109468534Y-59718781D01*
X109468539Y-59718783D01*
X109668204Y-59758499D01*
X109668207Y-59758500D01*
X109668209Y-59758500D01*
X109871793Y-59758500D01*
X109871794Y-59758499D01*
X110071461Y-59718783D01*
X110259546Y-59640876D01*
X110428818Y-59527772D01*
X110572772Y-59383818D01*
X110685876Y-59214546D01*
X110763783Y-59026461D01*
X110803499Y-58826795D01*
X127466500Y-58826795D01*
X127506215Y-59026453D01*
X127506218Y-59026465D01*
X127584120Y-59214539D01*
X127584127Y-59214552D01*
X127697227Y-59383817D01*
X127697230Y-59383821D01*
X127841178Y-59527769D01*
X127841182Y-59527772D01*
X128010447Y-59640872D01*
X128010460Y-59640879D01*
X128198534Y-59718781D01*
X128198539Y-59718783D01*
X128398204Y-59758499D01*
X128398207Y-59758500D01*
X128398209Y-59758500D01*
X128601793Y-59758500D01*
X128601794Y-59758499D01*
X128801461Y-59718783D01*
X128989546Y-59640876D01*
X129066112Y-59589715D01*
X129132786Y-59568839D01*
X129200166Y-59587323D01*
X129203832Y-59589679D01*
X129280454Y-59640876D01*
X129280457Y-59640877D01*
X129280460Y-59640879D01*
X129468534Y-59718781D01*
X129468539Y-59718783D01*
X129668204Y-59758499D01*
X129668207Y-59758500D01*
X129668209Y-59758500D01*
X129871793Y-59758500D01*
X129871794Y-59758499D01*
X130071461Y-59718783D01*
X130259546Y-59640876D01*
X130428818Y-59527772D01*
X130572772Y-59383818D01*
X130685876Y-59214546D01*
X130763783Y-59026461D01*
X130803500Y-58826791D01*
X130803500Y-58173209D01*
X130803500Y-58173206D01*
X130803499Y-58173204D01*
X130777630Y-58043153D01*
X130763783Y-57973539D01*
X130763781Y-57973534D01*
X130685879Y-57785460D01*
X130685872Y-57785447D01*
X130572772Y-57616182D01*
X130572769Y-57616178D01*
X130428821Y-57472230D01*
X130428817Y-57472227D01*
X130259552Y-57359127D01*
X130259539Y-57359120D01*
X130071465Y-57281218D01*
X130071453Y-57281215D01*
X129871794Y-57241500D01*
X129871791Y-57241500D01*
X129668209Y-57241500D01*
X129668206Y-57241500D01*
X129468546Y-57281215D01*
X129468534Y-57281218D01*
X129280457Y-57359122D01*
X129203890Y-57410282D01*
X129137212Y-57431159D01*
X129069832Y-57412674D01*
X129066110Y-57410282D01*
X129042785Y-57394697D01*
X128989546Y-57359124D01*
X128989543Y-57359122D01*
X128989542Y-57359122D01*
X128801465Y-57281218D01*
X128801453Y-57281215D01*
X128601794Y-57241500D01*
X128601791Y-57241500D01*
X128398209Y-57241500D01*
X128398206Y-57241500D01*
X128198546Y-57281215D01*
X128198534Y-57281218D01*
X128010460Y-57359120D01*
X128010447Y-57359127D01*
X127841182Y-57472227D01*
X127841178Y-57472230D01*
X127697230Y-57616178D01*
X127697227Y-57616182D01*
X127584127Y-57785447D01*
X127584120Y-57785460D01*
X127506218Y-57973534D01*
X127506215Y-57973546D01*
X127466500Y-58173204D01*
X127466500Y-58826795D01*
X110803499Y-58826795D01*
X110803500Y-58826791D01*
X110803500Y-58173209D01*
X110803500Y-58173206D01*
X110803499Y-58173204D01*
X110777630Y-58043153D01*
X110763783Y-57973539D01*
X110763781Y-57973534D01*
X110685879Y-57785460D01*
X110685872Y-57785447D01*
X110572772Y-57616182D01*
X110572769Y-57616178D01*
X110428821Y-57472230D01*
X110428817Y-57472227D01*
X110259552Y-57359127D01*
X110259539Y-57359120D01*
X110071465Y-57281218D01*
X110071453Y-57281215D01*
X109871794Y-57241500D01*
X109871791Y-57241500D01*
X109668209Y-57241500D01*
X109668206Y-57241500D01*
X109468546Y-57281215D01*
X109468534Y-57281218D01*
X109280457Y-57359122D01*
X109203890Y-57410282D01*
X109137212Y-57431159D01*
X109069832Y-57412674D01*
X109066110Y-57410282D01*
X109042785Y-57394697D01*
X108989546Y-57359124D01*
X108989543Y-57359122D01*
X108989542Y-57359122D01*
X108801465Y-57281218D01*
X108801453Y-57281215D01*
X108601794Y-57241500D01*
X108601791Y-57241500D01*
X108398209Y-57241500D01*
X108398206Y-57241500D01*
X108198546Y-57281215D01*
X108198534Y-57281218D01*
X108010460Y-57359120D01*
X108010447Y-57359127D01*
X107841182Y-57472227D01*
X107841178Y-57472230D01*
X107697230Y-57616178D01*
X107697227Y-57616182D01*
X107584127Y-57785447D01*
X107584120Y-57785460D01*
X107506218Y-57973534D01*
X107506215Y-57973546D01*
X107466500Y-58173204D01*
X107466500Y-58826795D01*
X90803499Y-58826795D01*
X90803500Y-58826791D01*
X90803500Y-58173209D01*
X90803500Y-58173206D01*
X90803499Y-58173204D01*
X90777630Y-58043153D01*
X90763783Y-57973539D01*
X90763781Y-57973534D01*
X90685879Y-57785460D01*
X90685872Y-57785447D01*
X90572772Y-57616182D01*
X90572769Y-57616178D01*
X90428821Y-57472230D01*
X90428817Y-57472227D01*
X90259552Y-57359127D01*
X90259539Y-57359120D01*
X90071465Y-57281218D01*
X90071453Y-57281215D01*
X89871794Y-57241500D01*
X89871791Y-57241500D01*
X89668209Y-57241500D01*
X89668206Y-57241500D01*
X89468546Y-57281215D01*
X89468534Y-57281218D01*
X89280457Y-57359122D01*
X89203890Y-57410282D01*
X89137212Y-57431159D01*
X89069832Y-57412674D01*
X89066110Y-57410282D01*
X89042785Y-57394697D01*
X88989546Y-57359124D01*
X88989543Y-57359122D01*
X88989542Y-57359122D01*
X88801465Y-57281218D01*
X88801453Y-57281215D01*
X88601794Y-57241500D01*
X88601791Y-57241500D01*
X88398209Y-57241500D01*
X88398206Y-57241500D01*
X88198546Y-57281215D01*
X88198534Y-57281218D01*
X88010460Y-57359120D01*
X88010447Y-57359127D01*
X87841182Y-57472227D01*
X87841178Y-57472230D01*
X87697230Y-57616178D01*
X87697227Y-57616182D01*
X87584127Y-57785447D01*
X87584120Y-57785460D01*
X87506218Y-57973534D01*
X87506215Y-57973546D01*
X87466500Y-58173204D01*
X87466500Y-58826795D01*
X70509083Y-58826795D01*
X70561657Y-58770502D01*
X70720111Y-58546023D01*
X70846523Y-58302058D01*
X70938538Y-58043153D01*
X70938539Y-58043146D01*
X70938541Y-58043141D01*
X70964491Y-57918259D01*
X70994442Y-57774130D01*
X71013193Y-57500000D01*
X70994442Y-57225870D01*
X70973773Y-57126404D01*
X70938541Y-56956858D01*
X70938536Y-56956841D01*
X70875691Y-56780014D01*
X70846523Y-56697942D01*
X70720111Y-56453977D01*
X70720110Y-56453975D01*
X70720106Y-56453969D01*
X70561659Y-56229500D01*
X70543031Y-56209555D01*
X70374111Y-56028686D01*
X70160969Y-55855282D01*
X70160967Y-55855281D01*
X70160965Y-55855279D01*
X69926198Y-55712514D01*
X69674178Y-55603047D01*
X69409602Y-55528916D01*
X69409597Y-55528915D01*
X69409596Y-55528915D01*
X69273490Y-55510207D01*
X69137386Y-55491500D01*
X69137385Y-55491500D01*
X68862615Y-55491500D01*
X68862614Y-55491500D01*
X68590404Y-55528915D01*
X68590397Y-55528916D01*
X68325821Y-55603047D01*
X68073801Y-55712514D01*
X67839034Y-55855279D01*
X67625892Y-56028683D01*
X67438340Y-56229500D01*
X67279893Y-56453969D01*
X67279889Y-56453975D01*
X67153476Y-56697943D01*
X67061463Y-56956841D01*
X67061458Y-56956858D01*
X67005558Y-57225867D01*
X67005557Y-57225869D01*
X66986807Y-57500000D01*
X32947506Y-57500000D01*
X32938541Y-57456858D01*
X32938536Y-57456841D01*
X32876118Y-57281215D01*
X32846523Y-57197942D01*
X32720111Y-56953977D01*
X32720110Y-56953975D01*
X32720106Y-56953969D01*
X32561659Y-56729500D01*
X32488350Y-56651006D01*
X32374111Y-56528686D01*
X32160969Y-56355282D01*
X32160967Y-56355281D01*
X32160965Y-56355279D01*
X31926198Y-56212514D01*
X31674178Y-56103047D01*
X31409602Y-56028916D01*
X31409597Y-56028915D01*
X31409596Y-56028915D01*
X31273490Y-56010207D01*
X31137386Y-55991500D01*
X31137385Y-55991500D01*
X30862615Y-55991500D01*
X30862614Y-55991500D01*
X30590404Y-56028915D01*
X30590397Y-56028916D01*
X30325821Y-56103047D01*
X30073801Y-56212514D01*
X29839034Y-56355279D01*
X29625892Y-56528683D01*
X29438340Y-56729500D01*
X29279893Y-56953969D01*
X29279889Y-56953975D01*
X29153476Y-57197943D01*
X29061463Y-57456841D01*
X29061458Y-57456858D01*
X29005558Y-57725867D01*
X29005557Y-57725869D01*
X28986807Y-58000000D01*
X20200500Y-58000000D01*
X20200500Y-50826795D01*
X87426500Y-50826795D01*
X87466215Y-51026453D01*
X87466218Y-51026465D01*
X87544120Y-51214539D01*
X87544127Y-51214552D01*
X87657227Y-51383817D01*
X87657230Y-51383821D01*
X87801178Y-51527769D01*
X87801182Y-51527772D01*
X87970447Y-51640872D01*
X87970460Y-51640879D01*
X88158534Y-51718781D01*
X88158539Y-51718783D01*
X88325471Y-51751988D01*
X88358204Y-51758499D01*
X88358207Y-51758500D01*
X88358209Y-51758500D01*
X88561793Y-51758500D01*
X88561794Y-51758499D01*
X88761461Y-51718783D01*
X88949546Y-51640876D01*
X89026112Y-51589715D01*
X89092786Y-51568839D01*
X89160166Y-51587323D01*
X89163832Y-51589679D01*
X89240454Y-51640876D01*
X89240457Y-51640877D01*
X89240460Y-51640879D01*
X89428534Y-51718781D01*
X89428539Y-51718783D01*
X89595471Y-51751988D01*
X89628204Y-51758499D01*
X89628207Y-51758500D01*
X89628209Y-51758500D01*
X89831793Y-51758500D01*
X89831794Y-51758499D01*
X90031461Y-51718783D01*
X90108656Y-51686807D01*
X90178122Y-51679339D01*
X90220403Y-51697744D01*
X90221008Y-51696637D01*
X90228793Y-51700888D01*
X90276766Y-51718781D01*
X90365799Y-51751989D01*
X90393050Y-51754918D01*
X90426345Y-51758499D01*
X90426362Y-51758500D01*
X91573638Y-51758500D01*
X91573654Y-51758499D01*
X91600692Y-51755591D01*
X91634201Y-51751989D01*
X91771204Y-51700889D01*
X91888261Y-51613261D01*
X91975889Y-51496204D01*
X92026989Y-51359201D01*
X92030591Y-51325692D01*
X92033499Y-51298654D01*
X92033500Y-51298637D01*
X92033500Y-50826795D01*
X107386500Y-50826795D01*
X107426215Y-51026453D01*
X107426218Y-51026465D01*
X107504120Y-51214539D01*
X107504127Y-51214552D01*
X107617227Y-51383817D01*
X107617230Y-51383821D01*
X107761178Y-51527769D01*
X107761182Y-51527772D01*
X107930447Y-51640872D01*
X107930460Y-51640879D01*
X108118534Y-51718781D01*
X108118539Y-51718783D01*
X108285471Y-51751988D01*
X108318204Y-51758499D01*
X108318207Y-51758500D01*
X108318209Y-51758500D01*
X108521793Y-51758500D01*
X108521794Y-51758499D01*
X108721461Y-51718783D01*
X108909546Y-51640876D01*
X108986112Y-51589715D01*
X109052786Y-51568839D01*
X109120166Y-51587323D01*
X109123832Y-51589679D01*
X109200454Y-51640876D01*
X109200457Y-51640877D01*
X109200460Y-51640879D01*
X109388534Y-51718781D01*
X109388539Y-51718783D01*
X109555471Y-51751988D01*
X109588204Y-51758499D01*
X109588207Y-51758500D01*
X109588209Y-51758500D01*
X109791793Y-51758500D01*
X109791794Y-51758499D01*
X109991461Y-51718783D01*
X110068656Y-51686807D01*
X110138122Y-51679339D01*
X110180403Y-51697744D01*
X110181008Y-51696637D01*
X110188793Y-51700888D01*
X110236766Y-51718781D01*
X110325799Y-51751989D01*
X110353050Y-51754918D01*
X110386345Y-51758499D01*
X110386362Y-51758500D01*
X111533638Y-51758500D01*
X111533654Y-51758499D01*
X111560692Y-51755591D01*
X111594201Y-51751989D01*
X111731204Y-51700889D01*
X111848261Y-51613261D01*
X111935889Y-51496204D01*
X111986989Y-51359201D01*
X111990591Y-51325692D01*
X111993499Y-51298654D01*
X111993500Y-51298637D01*
X111993500Y-50826795D01*
X127426500Y-50826795D01*
X127466215Y-51026453D01*
X127466218Y-51026465D01*
X127544120Y-51214539D01*
X127544127Y-51214552D01*
X127657227Y-51383817D01*
X127657230Y-51383821D01*
X127801178Y-51527769D01*
X127801182Y-51527772D01*
X127970447Y-51640872D01*
X127970460Y-51640879D01*
X128158534Y-51718781D01*
X128158539Y-51718783D01*
X128325471Y-51751988D01*
X128358204Y-51758499D01*
X128358207Y-51758500D01*
X128358209Y-51758500D01*
X128561793Y-51758500D01*
X128561794Y-51758499D01*
X128761461Y-51718783D01*
X128949546Y-51640876D01*
X129026112Y-51589715D01*
X129092786Y-51568839D01*
X129160166Y-51587323D01*
X129163832Y-51589679D01*
X129240454Y-51640876D01*
X129240457Y-51640877D01*
X129240460Y-51640879D01*
X129428534Y-51718781D01*
X129428539Y-51718783D01*
X129595471Y-51751988D01*
X129628204Y-51758499D01*
X129628207Y-51758500D01*
X129628209Y-51758500D01*
X129831793Y-51758500D01*
X129831794Y-51758499D01*
X130031461Y-51718783D01*
X130108656Y-51686807D01*
X130178122Y-51679339D01*
X130220403Y-51697744D01*
X130221008Y-51696637D01*
X130228793Y-51700888D01*
X130276766Y-51718781D01*
X130365799Y-51751989D01*
X130393050Y-51754918D01*
X130426345Y-51758499D01*
X130426362Y-51758500D01*
X131573638Y-51758500D01*
X131573654Y-51758499D01*
X131600692Y-51755591D01*
X131634201Y-51751989D01*
X131771204Y-51700889D01*
X131888261Y-51613261D01*
X131975889Y-51496204D01*
X132026989Y-51359201D01*
X132030591Y-51325692D01*
X132033499Y-51298654D01*
X132033500Y-51298637D01*
X132033500Y-49701362D01*
X132033499Y-49701345D01*
X132030157Y-49670270D01*
X132026989Y-49640799D01*
X132017807Y-49616182D01*
X132004522Y-49580564D01*
X131975889Y-49503796D01*
X131888261Y-49386739D01*
X131771204Y-49299111D01*
X131723232Y-49281218D01*
X131634203Y-49248011D01*
X131573654Y-49241500D01*
X131573638Y-49241500D01*
X130426362Y-49241500D01*
X130426345Y-49241500D01*
X130365797Y-49248011D01*
X130365795Y-49248011D01*
X130238915Y-49295336D01*
X130228796Y-49299111D01*
X130228792Y-49299113D01*
X130221012Y-49303362D01*
X130220125Y-49301737D01*
X130164945Y-49322315D01*
X130108657Y-49313192D01*
X130031461Y-49281217D01*
X130031454Y-49281215D01*
X130031453Y-49281215D01*
X130031453Y-49281214D01*
X129831794Y-49241500D01*
X129831791Y-49241500D01*
X129628209Y-49241500D01*
X129628206Y-49241500D01*
X129428546Y-49281215D01*
X129428534Y-49281218D01*
X129240457Y-49359122D01*
X129163890Y-49410282D01*
X129097212Y-49431159D01*
X129029832Y-49412674D01*
X129026110Y-49410282D01*
X128990875Y-49386739D01*
X128949546Y-49359124D01*
X128949543Y-49359122D01*
X128949542Y-49359122D01*
X128761465Y-49281218D01*
X128761453Y-49281215D01*
X128561794Y-49241500D01*
X128561791Y-49241500D01*
X128358209Y-49241500D01*
X128358206Y-49241500D01*
X128158546Y-49281215D01*
X128158534Y-49281218D01*
X127970460Y-49359120D01*
X127970447Y-49359127D01*
X127801182Y-49472227D01*
X127801178Y-49472230D01*
X127657230Y-49616178D01*
X127657227Y-49616182D01*
X127544127Y-49785447D01*
X127544120Y-49785460D01*
X127466218Y-49973534D01*
X127466215Y-49973546D01*
X127426500Y-50173204D01*
X127426500Y-50826795D01*
X111993500Y-50826795D01*
X111993500Y-49701362D01*
X111993499Y-49701345D01*
X111990157Y-49670270D01*
X111986989Y-49640799D01*
X111977807Y-49616182D01*
X111964522Y-49580564D01*
X111935889Y-49503796D01*
X111848261Y-49386739D01*
X111731204Y-49299111D01*
X111683232Y-49281218D01*
X111594203Y-49248011D01*
X111533654Y-49241500D01*
X111533638Y-49241500D01*
X110386362Y-49241500D01*
X110386345Y-49241500D01*
X110325797Y-49248011D01*
X110325795Y-49248011D01*
X110198915Y-49295336D01*
X110188796Y-49299111D01*
X110188792Y-49299113D01*
X110181012Y-49303362D01*
X110180125Y-49301737D01*
X110124945Y-49322315D01*
X110068657Y-49313192D01*
X109991461Y-49281217D01*
X109991454Y-49281215D01*
X109991453Y-49281215D01*
X109991453Y-49281214D01*
X109791794Y-49241500D01*
X109791791Y-49241500D01*
X109588209Y-49241500D01*
X109588206Y-49241500D01*
X109388546Y-49281215D01*
X109388534Y-49281218D01*
X109200457Y-49359122D01*
X109123890Y-49410282D01*
X109057212Y-49431159D01*
X108989832Y-49412674D01*
X108986110Y-49410282D01*
X108950875Y-49386739D01*
X108909546Y-49359124D01*
X108909543Y-49359122D01*
X108909542Y-49359122D01*
X108721465Y-49281218D01*
X108721453Y-49281215D01*
X108521794Y-49241500D01*
X108521791Y-49241500D01*
X108318209Y-49241500D01*
X108318206Y-49241500D01*
X108118546Y-49281215D01*
X108118534Y-49281218D01*
X107930460Y-49359120D01*
X107930447Y-49359127D01*
X107761182Y-49472227D01*
X107761178Y-49472230D01*
X107617230Y-49616178D01*
X107617227Y-49616182D01*
X107504127Y-49785447D01*
X107504120Y-49785460D01*
X107426218Y-49973534D01*
X107426215Y-49973546D01*
X107386500Y-50173204D01*
X107386500Y-50826795D01*
X92033500Y-50826795D01*
X92033500Y-49701362D01*
X92033499Y-49701345D01*
X92030157Y-49670270D01*
X92026989Y-49640799D01*
X92017807Y-49616182D01*
X92004522Y-49580564D01*
X91975889Y-49503796D01*
X91888261Y-49386739D01*
X91771204Y-49299111D01*
X91723232Y-49281218D01*
X91634203Y-49248011D01*
X91573654Y-49241500D01*
X91573638Y-49241500D01*
X90426362Y-49241500D01*
X90426345Y-49241500D01*
X90365797Y-49248011D01*
X90365795Y-49248011D01*
X90238915Y-49295336D01*
X90228796Y-49299111D01*
X90228792Y-49299113D01*
X90221012Y-49303362D01*
X90220125Y-49301737D01*
X90164945Y-49322315D01*
X90108657Y-49313192D01*
X90031461Y-49281217D01*
X90031454Y-49281215D01*
X90031453Y-49281215D01*
X90031453Y-49281214D01*
X89831794Y-49241500D01*
X89831791Y-49241500D01*
X89628209Y-49241500D01*
X89628206Y-49241500D01*
X89428546Y-49281215D01*
X89428534Y-49281218D01*
X89240457Y-49359122D01*
X89163890Y-49410282D01*
X89097212Y-49431159D01*
X89029832Y-49412674D01*
X89026110Y-49410282D01*
X88990875Y-49386739D01*
X88949546Y-49359124D01*
X88949543Y-49359122D01*
X88949542Y-49359122D01*
X88761465Y-49281218D01*
X88761453Y-49281215D01*
X88561794Y-49241500D01*
X88561791Y-49241500D01*
X88358209Y-49241500D01*
X88358206Y-49241500D01*
X88158546Y-49281215D01*
X88158534Y-49281218D01*
X87970460Y-49359120D01*
X87970447Y-49359127D01*
X87801182Y-49472227D01*
X87801178Y-49472230D01*
X87657230Y-49616178D01*
X87657227Y-49616182D01*
X87544127Y-49785447D01*
X87544120Y-49785460D01*
X87466218Y-49973534D01*
X87466215Y-49973546D01*
X87426500Y-50173204D01*
X87426500Y-50826795D01*
X20200500Y-50826795D01*
X20200500Y-41000000D01*
X32236602Y-41000000D01*
X32256177Y-41348585D01*
X32256179Y-41348597D01*
X32314660Y-41692792D01*
X32314662Y-41692800D01*
X32411317Y-42028294D01*
X32544921Y-42350846D01*
X32544923Y-42350850D01*
X32713811Y-42656428D01*
X32915851Y-42941178D01*
X33148493Y-43201503D01*
X33148496Y-43201506D01*
X33408821Y-43434148D01*
X33408827Y-43434152D01*
X33408828Y-43434153D01*
X33693572Y-43636189D01*
X33999147Y-43805075D01*
X33999149Y-43805076D01*
X33999153Y-43805078D01*
X34321705Y-43938682D01*
X34321710Y-43938684D01*
X34657204Y-44035339D01*
X35001410Y-44093822D01*
X35350000Y-44113398D01*
X35698590Y-44093822D01*
X36042796Y-44035339D01*
X36378290Y-43938684D01*
X36700853Y-43805075D01*
X37006428Y-43636189D01*
X37291172Y-43434153D01*
X37551505Y-43201505D01*
X37784153Y-42941172D01*
X37986189Y-42656428D01*
X38155075Y-42350853D01*
X38288684Y-42028290D01*
X38385339Y-41692796D01*
X38443822Y-41348590D01*
X38463398Y-41000000D01*
X61536602Y-41000000D01*
X61556177Y-41348585D01*
X61556179Y-41348597D01*
X61614660Y-41692792D01*
X61614662Y-41692800D01*
X61711317Y-42028294D01*
X61844921Y-42350846D01*
X61844923Y-42350850D01*
X62013811Y-42656428D01*
X62215851Y-42941178D01*
X62448493Y-43201503D01*
X62448496Y-43201506D01*
X62708821Y-43434148D01*
X62708827Y-43434152D01*
X62708828Y-43434153D01*
X62993572Y-43636189D01*
X63299147Y-43805075D01*
X63299149Y-43805076D01*
X63299153Y-43805078D01*
X63621705Y-43938682D01*
X63621710Y-43938684D01*
X63957204Y-44035339D01*
X64301410Y-44093822D01*
X64650000Y-44113398D01*
X64998590Y-44093822D01*
X65342796Y-44035339D01*
X65678290Y-43938684D01*
X66000853Y-43805075D01*
X66306428Y-43636189D01*
X66591172Y-43434153D01*
X66851505Y-43201505D01*
X67084153Y-42941172D01*
X67286189Y-42656428D01*
X67455075Y-42350853D01*
X67588684Y-42028290D01*
X67604724Y-41972613D01*
X73491500Y-41972613D01*
X73498011Y-42033161D01*
X73498011Y-42033163D01*
X73549111Y-42170163D01*
X73636739Y-42287220D01*
X73753796Y-42374848D01*
X73890799Y-42425948D01*
X73918050Y-42428877D01*
X73951345Y-42432458D01*
X73951362Y-42432459D01*
X76048638Y-42432459D01*
X76048654Y-42432458D01*
X76075692Y-42429550D01*
X76109201Y-42425948D01*
X76246204Y-42374848D01*
X76363261Y-42287220D01*
X76450889Y-42170163D01*
X76501989Y-42033160D01*
X76505591Y-41999651D01*
X76508499Y-41972613D01*
X76508500Y-41972596D01*
X76508500Y-40048654D01*
X87039000Y-40048654D01*
X87045511Y-40109202D01*
X87045511Y-40109204D01*
X87089493Y-40227121D01*
X87096611Y-40246204D01*
X87184239Y-40363261D01*
X87301296Y-40450889D01*
X87438299Y-40501989D01*
X87465550Y-40504918D01*
X87498845Y-40508499D01*
X87498862Y-40508500D01*
X89501138Y-40508500D01*
X89501154Y-40508499D01*
X89528192Y-40505591D01*
X89561701Y-40501989D01*
X89698704Y-40450889D01*
X89815761Y-40363261D01*
X89903389Y-40246204D01*
X89910507Y-40227119D01*
X89952377Y-40171187D01*
X90017842Y-40146770D01*
X90086115Y-40161622D01*
X90099566Y-40170131D01*
X90274269Y-40297060D01*
X90371078Y-40346386D01*
X90479166Y-40401460D01*
X90479168Y-40401460D01*
X90479171Y-40401462D01*
X90596404Y-40439553D01*
X90697881Y-40472526D01*
X90925012Y-40508500D01*
X90925017Y-40508500D01*
X91154988Y-40508500D01*
X91382118Y-40472526D01*
X91448712Y-40450888D01*
X91600829Y-40401462D01*
X91805731Y-40297060D01*
X91991778Y-40161889D01*
X92105013Y-40048654D01*
X106999000Y-40048654D01*
X107005511Y-40109202D01*
X107005511Y-40109204D01*
X107049493Y-40227121D01*
X107056611Y-40246204D01*
X107144239Y-40363261D01*
X107261296Y-40450889D01*
X107398299Y-40501989D01*
X107425550Y-40504918D01*
X107458845Y-40508499D01*
X107458862Y-40508500D01*
X109461138Y-40508500D01*
X109461154Y-40508499D01*
X109488192Y-40505591D01*
X109521701Y-40501989D01*
X109658704Y-40450889D01*
X109775761Y-40363261D01*
X109863389Y-40246204D01*
X109870507Y-40227119D01*
X109912377Y-40171187D01*
X109977842Y-40146770D01*
X110046115Y-40161622D01*
X110059566Y-40170131D01*
X110234269Y-40297060D01*
X110331078Y-40346386D01*
X110439166Y-40401460D01*
X110439168Y-40401460D01*
X110439171Y-40401462D01*
X110556404Y-40439553D01*
X110657881Y-40472526D01*
X110885012Y-40508500D01*
X110885017Y-40508500D01*
X111114988Y-40508500D01*
X111342118Y-40472526D01*
X111408712Y-40450888D01*
X111560829Y-40401462D01*
X111765731Y-40297060D01*
X111951778Y-40161889D01*
X112065013Y-40048654D01*
X126999000Y-40048654D01*
X127005511Y-40109202D01*
X127005511Y-40109204D01*
X127049493Y-40227121D01*
X127056611Y-40246204D01*
X127144239Y-40363261D01*
X127261296Y-40450889D01*
X127398299Y-40501989D01*
X127425550Y-40504918D01*
X127458845Y-40508499D01*
X127458862Y-40508500D01*
X129461138Y-40508500D01*
X129461154Y-40508499D01*
X129488192Y-40505591D01*
X129521701Y-40501989D01*
X129658704Y-40450889D01*
X129775761Y-40363261D01*
X129863389Y-40246204D01*
X129870507Y-40227119D01*
X129912377Y-40171187D01*
X129977842Y-40146770D01*
X130046115Y-40161622D01*
X130059566Y-40170131D01*
X130234269Y-40297060D01*
X130331078Y-40346386D01*
X130439166Y-40401460D01*
X130439168Y-40401460D01*
X130439171Y-40401462D01*
X130556404Y-40439553D01*
X130657881Y-40472526D01*
X130885012Y-40508500D01*
X130885017Y-40508500D01*
X131114988Y-40508500D01*
X131342118Y-40472526D01*
X131408712Y-40450888D01*
X131560829Y-40401462D01*
X131765731Y-40297060D01*
X131951778Y-40161889D01*
X132114389Y-39999278D01*
X132249560Y-39813231D01*
X132353962Y-39608329D01*
X132425026Y-39389618D01*
X132443317Y-39274132D01*
X132461000Y-39162488D01*
X132461000Y-39000000D01*
X150486807Y-39000000D01*
X150505557Y-39274130D01*
X150505558Y-39274132D01*
X150561458Y-39543141D01*
X150561463Y-39543158D01*
X150653476Y-39802056D01*
X150779889Y-40046024D01*
X150779893Y-40046030D01*
X150938340Y-40270499D01*
X150938343Y-40270502D01*
X151125889Y-40471314D01*
X151339031Y-40644718D01*
X151339033Y-40644719D01*
X151339034Y-40644720D01*
X151573801Y-40787485D01*
X151778348Y-40876331D01*
X151825823Y-40896953D01*
X152090404Y-40971085D01*
X152329720Y-41003978D01*
X152362614Y-41008500D01*
X152362615Y-41008500D01*
X152637386Y-41008500D01*
X152666733Y-41004466D01*
X152909596Y-40971085D01*
X153174177Y-40896953D01*
X153426200Y-40787484D01*
X153660969Y-40644718D01*
X153874111Y-40471314D01*
X154061657Y-40270502D01*
X154220111Y-40046023D01*
X154346523Y-39802058D01*
X154438538Y-39543153D01*
X154438539Y-39543146D01*
X154438541Y-39543141D01*
X154470443Y-39389618D01*
X154494442Y-39274130D01*
X154513193Y-39000000D01*
X154494442Y-38725870D01*
X154470443Y-38610381D01*
X154438541Y-38456858D01*
X154438536Y-38456841D01*
X154346523Y-38197943D01*
X154346523Y-38197942D01*
X154225995Y-37965333D01*
X154220110Y-37953975D01*
X154220106Y-37953969D01*
X154061659Y-37729500D01*
X154036853Y-37702940D01*
X153874111Y-37528686D01*
X153660969Y-37355282D01*
X153660967Y-37355281D01*
X153660965Y-37355279D01*
X153426198Y-37212514D01*
X153174178Y-37103047D01*
X152909602Y-37028916D01*
X152909597Y-37028915D01*
X152909596Y-37028915D01*
X152773490Y-37010207D01*
X152637386Y-36991500D01*
X152637385Y-36991500D01*
X152362615Y-36991500D01*
X152362614Y-36991500D01*
X152090404Y-37028915D01*
X152090397Y-37028916D01*
X151825821Y-37103047D01*
X151573801Y-37212514D01*
X151339034Y-37355279D01*
X151125892Y-37528683D01*
X150938340Y-37729500D01*
X150779893Y-37953969D01*
X150779889Y-37953975D01*
X150653476Y-38197943D01*
X150561463Y-38456841D01*
X150561458Y-38456858D01*
X150505558Y-38725867D01*
X150505557Y-38725869D01*
X150486807Y-39000000D01*
X132461000Y-39000000D01*
X132461000Y-38837511D01*
X132425026Y-38610381D01*
X132353960Y-38391666D01*
X132255253Y-38197943D01*
X132249560Y-38186769D01*
X132114389Y-38000722D01*
X131951778Y-37838111D01*
X131765731Y-37702940D01*
X131560833Y-37598539D01*
X131342118Y-37527473D01*
X131114988Y-37491500D01*
X131114983Y-37491500D01*
X130885017Y-37491500D01*
X130885012Y-37491500D01*
X130657881Y-37527473D01*
X130439166Y-37598539D01*
X130234265Y-37702942D01*
X130059573Y-37829863D01*
X129993767Y-37853343D01*
X129925713Y-37837517D01*
X129877018Y-37787412D01*
X129870507Y-37772880D01*
X129863389Y-37753796D01*
X129775761Y-37636739D01*
X129658704Y-37549111D01*
X129521703Y-37498011D01*
X129461154Y-37491500D01*
X129461138Y-37491500D01*
X127458862Y-37491500D01*
X127458845Y-37491500D01*
X127398297Y-37498011D01*
X127398295Y-37498011D01*
X127261295Y-37549111D01*
X127144239Y-37636739D01*
X127056611Y-37753795D01*
X127005511Y-37890795D01*
X127005511Y-37890797D01*
X126999000Y-37951345D01*
X126999000Y-40048654D01*
X112065013Y-40048654D01*
X112114389Y-39999278D01*
X112249560Y-39813231D01*
X112353962Y-39608329D01*
X112425026Y-39389618D01*
X112443317Y-39274132D01*
X112461000Y-39162488D01*
X112461000Y-38837511D01*
X112425026Y-38610381D01*
X112353960Y-38391666D01*
X112255253Y-38197943D01*
X112249560Y-38186769D01*
X112114389Y-38000722D01*
X111951778Y-37838111D01*
X111765731Y-37702940D01*
X111560833Y-37598539D01*
X111342118Y-37527473D01*
X111114988Y-37491500D01*
X111114983Y-37491500D01*
X110885017Y-37491500D01*
X110885012Y-37491500D01*
X110657881Y-37527473D01*
X110439166Y-37598539D01*
X110234265Y-37702942D01*
X110059573Y-37829863D01*
X109993767Y-37853343D01*
X109925713Y-37837517D01*
X109877018Y-37787412D01*
X109870507Y-37772880D01*
X109863389Y-37753796D01*
X109775761Y-37636739D01*
X109658704Y-37549111D01*
X109521703Y-37498011D01*
X109461154Y-37491500D01*
X109461138Y-37491500D01*
X107458862Y-37491500D01*
X107458845Y-37491500D01*
X107398297Y-37498011D01*
X107398295Y-37498011D01*
X107261295Y-37549111D01*
X107144239Y-37636739D01*
X107056611Y-37753795D01*
X107005511Y-37890795D01*
X107005511Y-37890797D01*
X106999000Y-37951345D01*
X106999000Y-40048654D01*
X92105013Y-40048654D01*
X92154389Y-39999278D01*
X92289560Y-39813231D01*
X92393962Y-39608329D01*
X92465026Y-39389618D01*
X92483317Y-39274132D01*
X92501000Y-39162488D01*
X92501000Y-38837511D01*
X92465026Y-38610381D01*
X92393960Y-38391666D01*
X92295253Y-38197943D01*
X92289560Y-38186769D01*
X92154389Y-38000722D01*
X91991778Y-37838111D01*
X91805731Y-37702940D01*
X91600833Y-37598539D01*
X91382118Y-37527473D01*
X91154988Y-37491500D01*
X91154983Y-37491500D01*
X90925017Y-37491500D01*
X90925012Y-37491500D01*
X90697881Y-37527473D01*
X90479166Y-37598539D01*
X90274265Y-37702942D01*
X90099573Y-37829863D01*
X90033767Y-37853343D01*
X89965713Y-37837517D01*
X89917018Y-37787412D01*
X89910507Y-37772880D01*
X89903389Y-37753796D01*
X89815761Y-37636739D01*
X89698704Y-37549111D01*
X89561703Y-37498011D01*
X89501154Y-37491500D01*
X89501138Y-37491500D01*
X87498862Y-37491500D01*
X87498845Y-37491500D01*
X87438297Y-37498011D01*
X87438295Y-37498011D01*
X87301295Y-37549111D01*
X87184239Y-37636739D01*
X87096611Y-37753795D01*
X87045511Y-37890795D01*
X87045511Y-37890797D01*
X87039000Y-37951345D01*
X87039000Y-40048654D01*
X76508500Y-40048654D01*
X76508500Y-39875321D01*
X76508499Y-39875304D01*
X76505157Y-39844229D01*
X76501989Y-39814758D01*
X76501419Y-39813231D01*
X76479522Y-39754523D01*
X76450889Y-39677755D01*
X76363261Y-39560698D01*
X76246204Y-39473070D01*
X76109203Y-39421970D01*
X76048654Y-39415459D01*
X76048638Y-39415459D01*
X73951362Y-39415459D01*
X73951345Y-39415459D01*
X73890797Y-39421970D01*
X73890795Y-39421970D01*
X73753795Y-39473070D01*
X73636739Y-39560698D01*
X73549111Y-39677754D01*
X73498011Y-39814754D01*
X73498011Y-39814756D01*
X73491500Y-39875304D01*
X73491500Y-41972613D01*
X67604724Y-41972613D01*
X67685339Y-41692796D01*
X67743822Y-41348590D01*
X67763398Y-41000000D01*
X67743822Y-40651410D01*
X67685339Y-40307204D01*
X67588684Y-39971710D01*
X67523671Y-39814754D01*
X67455078Y-39649153D01*
X67455076Y-39649149D01*
X67432518Y-39608333D01*
X67286189Y-39343572D01*
X67084153Y-39058828D01*
X67084152Y-39058827D01*
X67084148Y-39058821D01*
X66851506Y-38798496D01*
X66851503Y-38798493D01*
X66591178Y-38565851D01*
X66306428Y-38363811D01*
X66000850Y-38194923D01*
X66000846Y-38194921D01*
X65678294Y-38061317D01*
X65342800Y-37964662D01*
X65342792Y-37964660D01*
X64998597Y-37906179D01*
X64998585Y-37906177D01*
X64650000Y-37886602D01*
X64301414Y-37906177D01*
X64301402Y-37906179D01*
X63957207Y-37964660D01*
X63957199Y-37964662D01*
X63621705Y-38061317D01*
X63299153Y-38194921D01*
X63299149Y-38194923D01*
X62993571Y-38363811D01*
X62708821Y-38565851D01*
X62448496Y-38798493D01*
X62448493Y-38798496D01*
X62215851Y-39058821D01*
X62013811Y-39343571D01*
X61844923Y-39649149D01*
X61844921Y-39649153D01*
X61711317Y-39971705D01*
X61614662Y-40307199D01*
X61614660Y-40307207D01*
X61556179Y-40651402D01*
X61556177Y-40651414D01*
X61536602Y-41000000D01*
X38463398Y-41000000D01*
X38443822Y-40651410D01*
X38385339Y-40307204D01*
X38288684Y-39971710D01*
X38223671Y-39814754D01*
X38155078Y-39649153D01*
X38155076Y-39649149D01*
X38132518Y-39608333D01*
X37986189Y-39343572D01*
X37784153Y-39058828D01*
X37784152Y-39058827D01*
X37784148Y-39058821D01*
X37551506Y-38798496D01*
X37551503Y-38798493D01*
X37291178Y-38565851D01*
X37006428Y-38363811D01*
X36700850Y-38194923D01*
X36700846Y-38194921D01*
X36378294Y-38061317D01*
X36042800Y-37964662D01*
X36042792Y-37964660D01*
X35698597Y-37906179D01*
X35698585Y-37906177D01*
X35350000Y-37886602D01*
X35001414Y-37906177D01*
X35001402Y-37906179D01*
X34657207Y-37964660D01*
X34657199Y-37964662D01*
X34321705Y-38061317D01*
X33999153Y-38194921D01*
X33999149Y-38194923D01*
X33693571Y-38363811D01*
X33408821Y-38565851D01*
X33148496Y-38798493D01*
X33148493Y-38798496D01*
X32915851Y-39058821D01*
X32713811Y-39343571D01*
X32544923Y-39649149D01*
X32544921Y-39649153D01*
X32411317Y-39971705D01*
X32314662Y-40307199D01*
X32314660Y-40307207D01*
X32256179Y-40651402D01*
X32256177Y-40651414D01*
X32236602Y-41000000D01*
X20200500Y-41000000D01*
X20200500Y-31400000D01*
X150486807Y-31400000D01*
X150505557Y-31674130D01*
X150505558Y-31674132D01*
X150561458Y-31943141D01*
X150561463Y-31943158D01*
X150653476Y-32202056D01*
X150779889Y-32446024D01*
X150779893Y-32446030D01*
X150938340Y-32670499D01*
X150938343Y-32670502D01*
X151125889Y-32871314D01*
X151339031Y-33044718D01*
X151339033Y-33044719D01*
X151339034Y-33044720D01*
X151573801Y-33187485D01*
X151778348Y-33276331D01*
X151825823Y-33296953D01*
X152090404Y-33371085D01*
X152329720Y-33403978D01*
X152362614Y-33408500D01*
X152362615Y-33408500D01*
X152637386Y-33408500D01*
X152666733Y-33404466D01*
X152909596Y-33371085D01*
X153174177Y-33296953D01*
X153426200Y-33187484D01*
X153660969Y-33044718D01*
X153874111Y-32871314D01*
X154061657Y-32670502D01*
X154220111Y-32446023D01*
X154346523Y-32202058D01*
X154438538Y-31943153D01*
X154438539Y-31943146D01*
X154438541Y-31943141D01*
X154464491Y-31818259D01*
X154494442Y-31674130D01*
X154513193Y-31400000D01*
X154494442Y-31125870D01*
X154475141Y-31032989D01*
X154438541Y-30856858D01*
X154438536Y-30856841D01*
X154346523Y-30597943D01*
X154346523Y-30597942D01*
X154220111Y-30353977D01*
X154220110Y-30353975D01*
X154220106Y-30353969D01*
X154061659Y-30129500D01*
X154043031Y-30109555D01*
X153874111Y-29928686D01*
X153660969Y-29755282D01*
X153660967Y-29755281D01*
X153660965Y-29755279D01*
X153426198Y-29612514D01*
X153174178Y-29503047D01*
X152909602Y-29428916D01*
X152909597Y-29428915D01*
X152909596Y-29428915D01*
X152773490Y-29410207D01*
X152637386Y-29391500D01*
X152637385Y-29391500D01*
X152362615Y-29391500D01*
X152362614Y-29391500D01*
X152090404Y-29428915D01*
X152090397Y-29428916D01*
X151825821Y-29503047D01*
X151573801Y-29612514D01*
X151339034Y-29755279D01*
X151125892Y-29928683D01*
X150938340Y-30129500D01*
X150779893Y-30353969D01*
X150779889Y-30353975D01*
X150653476Y-30597943D01*
X150561463Y-30856841D01*
X150561458Y-30856858D01*
X150505558Y-31125867D01*
X150505557Y-31125869D01*
X150486807Y-31400000D01*
X20200500Y-31400000D01*
X20200500Y-25002706D01*
X20200559Y-25000000D01*
X21286411Y-25000000D01*
X21306754Y-25388177D01*
X21320200Y-25473070D01*
X21367562Y-25772099D01*
X21467405Y-26144720D01*
X21468169Y-26147569D01*
X21607469Y-26510456D01*
X21783940Y-26856799D01*
X21995637Y-27182785D01*
X21995641Y-27182790D01*
X21995643Y-27182793D01*
X22240266Y-27484876D01*
X22515124Y-27759734D01*
X22817207Y-28004357D01*
X22817211Y-28004359D01*
X22817214Y-28004362D01*
X23143200Y-28216059D01*
X23143205Y-28216062D01*
X23489547Y-28392532D01*
X23852438Y-28531833D01*
X24227901Y-28632438D01*
X24611824Y-28693246D01*
X24978530Y-28712463D01*
X24999999Y-28713589D01*
X25000000Y-28713589D01*
X25000001Y-28713589D01*
X25020344Y-28712522D01*
X25388176Y-28693246D01*
X25772099Y-28632438D01*
X26147562Y-28531833D01*
X26510453Y-28392532D01*
X26856795Y-28216062D01*
X27182793Y-28004357D01*
X27221993Y-27972613D01*
X72991500Y-27972613D01*
X72998011Y-28033161D01*
X72998011Y-28033163D01*
X73049111Y-28170163D01*
X73136739Y-28287220D01*
X73253796Y-28374848D01*
X73390799Y-28425948D01*
X73418050Y-28428877D01*
X73451345Y-28432458D01*
X73451362Y-28432459D01*
X75548638Y-28432459D01*
X75548654Y-28432458D01*
X75575692Y-28429550D01*
X75609201Y-28425948D01*
X75746204Y-28374848D01*
X75863261Y-28287220D01*
X75950889Y-28170163D01*
X76001989Y-28033160D01*
X76005591Y-27999651D01*
X76008499Y-27972613D01*
X76008500Y-27972596D01*
X76008500Y-25875321D01*
X76008499Y-25875304D01*
X76005157Y-25844229D01*
X76001989Y-25814758D01*
X75986835Y-25774130D01*
X75979522Y-25754523D01*
X75950889Y-25677755D01*
X75863261Y-25560698D01*
X75782178Y-25500000D01*
X121986807Y-25500000D01*
X122005557Y-25774130D01*
X122005558Y-25774132D01*
X122061458Y-26043141D01*
X122061463Y-26043158D01*
X122153476Y-26302056D01*
X122279889Y-26546024D01*
X122279893Y-26546030D01*
X122438340Y-26770499D01*
X122438343Y-26770502D01*
X122625889Y-26971314D01*
X122839031Y-27144718D01*
X122839033Y-27144719D01*
X122839034Y-27144720D01*
X123073801Y-27287485D01*
X123278348Y-27376331D01*
X123325823Y-27396953D01*
X123590404Y-27471085D01*
X123829720Y-27503978D01*
X123862614Y-27508500D01*
X123862615Y-27508500D01*
X124137386Y-27508500D01*
X124166733Y-27504466D01*
X124409596Y-27471085D01*
X124674177Y-27396953D01*
X124926200Y-27287484D01*
X125160969Y-27144718D01*
X125374111Y-26971314D01*
X125561657Y-26770502D01*
X125720111Y-26546023D01*
X125846523Y-26302058D01*
X125938538Y-26043153D01*
X125938539Y-26043146D01*
X125938541Y-26043141D01*
X125973414Y-25875321D01*
X125994442Y-25774130D01*
X126013193Y-25500000D01*
X125994442Y-25225870D01*
X125956473Y-25043153D01*
X125947506Y-25000000D01*
X151286411Y-25000000D01*
X151306754Y-25388177D01*
X151320200Y-25473070D01*
X151367562Y-25772099D01*
X151467405Y-26144720D01*
X151468169Y-26147569D01*
X151607469Y-26510456D01*
X151783940Y-26856799D01*
X151995637Y-27182785D01*
X151995641Y-27182790D01*
X151995643Y-27182793D01*
X152240266Y-27484876D01*
X152515124Y-27759734D01*
X152817207Y-28004357D01*
X152817211Y-28004359D01*
X152817214Y-28004362D01*
X153143200Y-28216059D01*
X153143205Y-28216062D01*
X153489547Y-28392532D01*
X153852438Y-28531833D01*
X154227901Y-28632438D01*
X154611824Y-28693246D01*
X154978530Y-28712463D01*
X154999999Y-28713589D01*
X155000000Y-28713589D01*
X155000001Y-28713589D01*
X155020344Y-28712522D01*
X155388176Y-28693246D01*
X155772099Y-28632438D01*
X156147562Y-28531833D01*
X156510453Y-28392532D01*
X156856795Y-28216062D01*
X157182793Y-28004357D01*
X157484876Y-27759734D01*
X157759734Y-27484876D01*
X158004357Y-27182793D01*
X158216062Y-26856795D01*
X158392532Y-26510453D01*
X158531833Y-26147562D01*
X158632438Y-25772099D01*
X158693246Y-25388176D01*
X158713589Y-25000000D01*
X158693246Y-24611824D01*
X158632438Y-24227901D01*
X158531833Y-23852438D01*
X158392532Y-23489547D01*
X158216062Y-23143206D01*
X158193174Y-23107961D01*
X158004362Y-22817214D01*
X158004359Y-22817211D01*
X158004357Y-22817207D01*
X157759734Y-22515124D01*
X157484876Y-22240266D01*
X157182793Y-21995643D01*
X157182790Y-21995641D01*
X157182785Y-21995637D01*
X156856799Y-21783940D01*
X156510456Y-21607469D01*
X156147569Y-21468169D01*
X156147562Y-21468167D01*
X155772099Y-21367562D01*
X155772095Y-21367561D01*
X155772094Y-21367561D01*
X155388177Y-21306754D01*
X155000001Y-21286411D01*
X154999999Y-21286411D01*
X154611822Y-21306754D01*
X154227906Y-21367561D01*
X154227904Y-21367561D01*
X153852430Y-21468169D01*
X153489543Y-21607469D01*
X153143201Y-21783940D01*
X152817214Y-21995637D01*
X152515128Y-22240262D01*
X152515120Y-22240269D01*
X152240269Y-22515120D01*
X152240262Y-22515128D01*
X151995637Y-22817214D01*
X151783940Y-23143201D01*
X151607469Y-23489543D01*
X151468169Y-23852430D01*
X151367561Y-24227904D01*
X151367561Y-24227906D01*
X151306754Y-24611822D01*
X151286411Y-24999999D01*
X151286411Y-25000000D01*
X125947506Y-25000000D01*
X125938541Y-24956858D01*
X125938536Y-24956841D01*
X125871761Y-24768955D01*
X125846523Y-24697942D01*
X125720111Y-24453977D01*
X125720110Y-24453975D01*
X125720106Y-24453969D01*
X125561659Y-24229500D01*
X125543031Y-24209555D01*
X125374111Y-24028686D01*
X125160969Y-23855282D01*
X125160967Y-23855281D01*
X125160965Y-23855279D01*
X124926198Y-23712514D01*
X124674178Y-23603047D01*
X124409602Y-23528916D01*
X124409597Y-23528915D01*
X124409596Y-23528915D01*
X124273490Y-23510207D01*
X124137386Y-23491500D01*
X124137385Y-23491500D01*
X123862615Y-23491500D01*
X123862614Y-23491500D01*
X123590404Y-23528915D01*
X123590397Y-23528916D01*
X123325821Y-23603047D01*
X123073801Y-23712514D01*
X122839034Y-23855279D01*
X122625892Y-24028683D01*
X122438340Y-24229500D01*
X122279893Y-24453969D01*
X122279889Y-24453975D01*
X122153476Y-24697943D01*
X122061463Y-24956841D01*
X122061458Y-24956858D01*
X122005558Y-25225867D01*
X122005557Y-25225869D01*
X121986807Y-25500000D01*
X75782178Y-25500000D01*
X75746204Y-25473070D01*
X75740877Y-25471083D01*
X75609203Y-25421970D01*
X75548654Y-25415459D01*
X75548638Y-25415459D01*
X73451362Y-25415459D01*
X73451345Y-25415459D01*
X73390797Y-25421970D01*
X73390795Y-25421970D01*
X73253795Y-25473070D01*
X73136739Y-25560698D01*
X73049111Y-25677754D01*
X72998011Y-25814754D01*
X72998011Y-25814756D01*
X72991500Y-25875304D01*
X72991500Y-27972613D01*
X27221993Y-27972613D01*
X27484876Y-27759734D01*
X27759734Y-27484876D01*
X28004357Y-27182793D01*
X28216062Y-26856795D01*
X28392532Y-26510453D01*
X28531833Y-26147562D01*
X28632438Y-25772099D01*
X28693246Y-25388176D01*
X28713589Y-25000000D01*
X28705043Y-24836932D01*
X28721192Y-24768955D01*
X28771529Y-24720499D01*
X28840072Y-24706950D01*
X28905060Y-24732609D01*
X28930177Y-24758934D01*
X28938343Y-24770502D01*
X29125889Y-24971314D01*
X29339031Y-25144718D01*
X29339033Y-25144719D01*
X29339034Y-25144720D01*
X29573801Y-25287485D01*
X29778348Y-25376331D01*
X29825823Y-25396953D01*
X30090404Y-25471085D01*
X30329720Y-25503978D01*
X30362614Y-25508500D01*
X30362615Y-25508500D01*
X30637386Y-25508500D01*
X30666733Y-25504466D01*
X30909596Y-25471085D01*
X31174177Y-25396953D01*
X31426200Y-25287484D01*
X31660969Y-25144718D01*
X31874111Y-24971314D01*
X32061657Y-24770502D01*
X32220111Y-24546023D01*
X32243958Y-24500000D01*
X67486807Y-24500000D01*
X67505557Y-24774130D01*
X67505558Y-24774132D01*
X67561458Y-25043141D01*
X67561463Y-25043158D01*
X67653476Y-25302056D01*
X67779889Y-25546024D01*
X67779893Y-25546030D01*
X67938340Y-25770499D01*
X67938343Y-25770502D01*
X68125889Y-25971314D01*
X68339031Y-26144718D01*
X68339033Y-26144719D01*
X68339034Y-26144720D01*
X68573801Y-26287485D01*
X68778348Y-26376331D01*
X68825823Y-26396953D01*
X69090404Y-26471085D01*
X69329720Y-26503978D01*
X69362614Y-26508500D01*
X69362615Y-26508500D01*
X69637386Y-26508500D01*
X69666733Y-26504466D01*
X69909596Y-26471085D01*
X70174177Y-26396953D01*
X70426200Y-26287484D01*
X70660969Y-26144718D01*
X70874111Y-25971314D01*
X71061657Y-25770502D01*
X71220111Y-25546023D01*
X71346523Y-25302058D01*
X71438538Y-25043153D01*
X71438539Y-25043146D01*
X71438541Y-25043141D01*
X71481391Y-24836933D01*
X71494442Y-24774130D01*
X71513193Y-24500000D01*
X71494442Y-24225870D01*
X71456473Y-24043153D01*
X71438541Y-23956858D01*
X71438536Y-23956841D01*
X71365959Y-23752630D01*
X71346523Y-23697942D01*
X71220111Y-23453977D01*
X71220110Y-23453975D01*
X71220106Y-23453969D01*
X71061659Y-23229500D01*
X71043031Y-23209555D01*
X70874111Y-23028686D01*
X70660969Y-22855282D01*
X70660967Y-22855281D01*
X70660965Y-22855279D01*
X70426198Y-22712514D01*
X70174178Y-22603047D01*
X69909602Y-22528916D01*
X69909597Y-22528915D01*
X69909596Y-22528915D01*
X69773490Y-22510207D01*
X69637386Y-22491500D01*
X69637385Y-22491500D01*
X69362615Y-22491500D01*
X69362614Y-22491500D01*
X69090404Y-22528915D01*
X69090397Y-22528916D01*
X68825821Y-22603047D01*
X68573801Y-22712514D01*
X68339034Y-22855279D01*
X68125892Y-23028683D01*
X67938340Y-23229500D01*
X67779893Y-23453969D01*
X67779889Y-23453975D01*
X67653476Y-23697943D01*
X67561463Y-23956841D01*
X67561458Y-23956858D01*
X67505558Y-24225867D01*
X67505557Y-24225869D01*
X67486807Y-24500000D01*
X32243958Y-24500000D01*
X32346523Y-24302058D01*
X32438538Y-24043153D01*
X32438539Y-24043146D01*
X32438541Y-24043141D01*
X32489975Y-23795626D01*
X32494442Y-23774130D01*
X32513193Y-23500000D01*
X32494442Y-23225870D01*
X32469940Y-23107961D01*
X32438541Y-22956858D01*
X32438536Y-22956841D01*
X32388910Y-22817207D01*
X32346523Y-22697942D01*
X32220111Y-22453977D01*
X32220110Y-22453975D01*
X32220106Y-22453969D01*
X32061659Y-22229500D01*
X32043031Y-22209555D01*
X31874111Y-22028686D01*
X31660969Y-21855282D01*
X31660967Y-21855281D01*
X31660965Y-21855279D01*
X31426198Y-21712514D01*
X31174178Y-21603047D01*
X30909602Y-21528916D01*
X30909597Y-21528915D01*
X30909596Y-21528915D01*
X30773490Y-21510207D01*
X30637386Y-21491500D01*
X30637385Y-21491500D01*
X30362615Y-21491500D01*
X30362614Y-21491500D01*
X30090404Y-21528915D01*
X30090397Y-21528916D01*
X29825821Y-21603047D01*
X29573801Y-21712514D01*
X29339034Y-21855279D01*
X29125892Y-22028683D01*
X28938340Y-22229500D01*
X28779893Y-22453969D01*
X28779889Y-22453975D01*
X28653476Y-22697943D01*
X28561463Y-22956841D01*
X28561459Y-22956855D01*
X28505657Y-23225391D01*
X28472745Y-23287023D01*
X28411736Y-23321078D01*
X28342001Y-23316742D01*
X28285680Y-23275394D01*
X28273766Y-23256457D01*
X28260030Y-23229498D01*
X28216062Y-23143206D01*
X28193174Y-23107961D01*
X28004362Y-22817214D01*
X28004359Y-22817211D01*
X28004357Y-22817207D01*
X27759734Y-22515124D01*
X27484876Y-22240266D01*
X27182793Y-21995643D01*
X27182790Y-21995641D01*
X27182785Y-21995637D01*
X26856799Y-21783940D01*
X26510456Y-21607469D01*
X26147569Y-21468169D01*
X26147562Y-21468167D01*
X25772099Y-21367562D01*
X25772095Y-21367561D01*
X25772094Y-21367561D01*
X25388177Y-21306754D01*
X25000001Y-21286411D01*
X24999999Y-21286411D01*
X24611822Y-21306754D01*
X24227906Y-21367561D01*
X24227904Y-21367561D01*
X23852430Y-21468169D01*
X23489543Y-21607469D01*
X23143201Y-21783940D01*
X22817214Y-21995637D01*
X22515128Y-22240262D01*
X22515120Y-22240269D01*
X22240269Y-22515120D01*
X22240262Y-22515128D01*
X21995637Y-22817214D01*
X21783940Y-23143201D01*
X21607469Y-23489543D01*
X21468169Y-23852430D01*
X21367561Y-24227904D01*
X21367561Y-24227906D01*
X21306754Y-24611822D01*
X21286411Y-24999999D01*
X21286411Y-25000000D01*
X20200559Y-25000000D01*
X20200618Y-24997297D01*
X20202384Y-24956841D01*
X20218528Y-24587080D01*
X20219468Y-24576347D01*
X20272709Y-24171938D01*
X20274582Y-24161308D01*
X20362870Y-23763068D01*
X20365668Y-23752630D01*
X20378316Y-23712516D01*
X20488319Y-23363629D01*
X20492016Y-23353473D01*
X20648111Y-22976627D01*
X20652669Y-22966853D01*
X20841025Y-22605024D01*
X20846407Y-22595703D01*
X21065574Y-22251680D01*
X21071765Y-22242837D01*
X21320083Y-21919224D01*
X21327021Y-21910955D01*
X21602594Y-21610220D01*
X21610220Y-21602594D01*
X21910955Y-21327021D01*
X21919224Y-21320083D01*
X22242837Y-21071765D01*
X22251680Y-21065574D01*
X22595703Y-20846407D01*
X22605024Y-20841025D01*
X22966853Y-20652669D01*
X22976627Y-20648111D01*
X23353482Y-20492012D01*
X23363629Y-20488319D01*
X23752639Y-20365665D01*
X23763068Y-20362870D01*
X24161308Y-20274582D01*
X24171938Y-20272709D01*
X24576347Y-20219468D01*
X24587080Y-20218528D01*
X24997297Y-20200617D01*
X25002706Y-20200500D01*
X25039882Y-20200500D01*
X154960118Y-20200500D01*
X154997294Y-20200500D01*
X155002702Y-20200617D01*
G37*
%TD.AperFunction*%
%TD*%
M02*
